<svg xmlns="http://www.w3.org/2000/svg" xmlns:xlink="http://www.w3.org/1999/xlink" version="1.1" style="enable-background:new 0 0 1785 675;" xml:space="preserve" width="1570" height="352"><rect id="backgroundrect" width="100%" height="100%" x="0" y="0" fill="none" stroke="none"/>
<style type="text/css">
	.st0{fill:#193E6D;}
	.st1{fill:#5EC198;}
</style>

<g class="currentLayer" style=""><title>Layer 1</title><g id="svg_1" class="">
	<g id="svg_2">
		<path class="st0" d="M648.9299990844727,249.9900012207031 v85.36 c-11.77,5.97 -22.79,10.23 -33.06,12.78 c-10.27,2.54 -20.77,3.8200000000000003 -31.48,3.8200000000000003 c-28.63,0 -49.62,-7.94 -62.96,-23.84 c-13.35,-15.89 -20.02,-37.36 -20.02,-64.41 c0,-20.72 3.77,-37.8 11.33,-51.24 c7.55,-13.44 17.74,-23.22 30.56,-29.37 c12.82,-6.15 27.4,-9.22 43.73,-9.22 c10.71,0 20.98,1.36 30.82,4.08 c9.83,2.73 18.88,6.72 27.13,11.99 l-15.32,26.61 c-13.39,-7.9 -27.03,-11.85 -40.94,-11.85 c-16.38,0 -28.61,4.96 -36.71,14.88 c-8.1,9.92 -12.15,24.1 -12.15,42.55 c0,19.5 3.8,34.03 11.4,43.6 c7.6,9.57 19.63,14.36 36.09,14.36 c9.3,0 17.7,-1.4 25.22,-4.21 v-35.57 h-36.35 l4.15,-30.3 H648.9299990844727 z" id="svg_3"/>
		<path class="st0" d="M788.8199990844727,227.07000122070315 v121.18 h-30.32 l-2.87,-9.48 c-13.57,8.78 -27.49,13.17 -41.76,13.17 c-11.81,0 -20.93,-3.25 -27.36,-9.75 c-6.43,-6.5 -9.65,-15.45 -9.65,-26.87 v-84.83 l35.57,-3.42 v77.72 c0,7.03 1.1600000000000001,12.08 3.47,15.15 c2.31,3.08 6.49,4.61 12.54,4.61 c6.41,0 14.68,-2.72 24.82,-8.17 v-85.88 L788.8199990844727,227.07000122070315 z" id="svg_4"/>
		<path class="st0" d="M924.7499990844726,296.6200012207031 h-75.87 c1.05,9.84 4.3,17.08 9.75,21.73 c5.44,4.66 11.94,6.98 19.49,6.98 c5.62,0 11.06,-0.79 16.33,-2.37 c5.27,-1.58 10.89,-4.12 16.86,-7.640000000000001 l12.12,21.6 c-6.32,4.74 -13.61,8.43 -21.87,11.06 c-8.26,2.63 -17.21,3.95 -26.87,3.95 c-11.59,0 -22,-2.11 -31.22,-6.32 c-9.22,-4.21 -16.6,-10.93 -22.13,-20.15 c-5.53,-9.22 -8.3,-21.12 -8.3,-35.7 c0,-13.35 2.33,-24.85 6.98,-34.51 c4.65,-9.66 11.41,-16.99 20.29,-22 c8.870000000000001,-5.01 19.36,-7.51 31.48,-7.51 c11.59,0 21.47,2.29 29.64,6.85 c8.17,4.57 14.27,10.8 18.31,18.71 c4.04,7.9 6.06,16.86 6.06,26.87 C925.8099990844726,281.69000122070315 925.4499990844727,287.84000122070313 924.7499990844726,296.6200012207031 zM857.4099990844727,255.65000122070313 c-3.63,3.7800000000000002 -6.13,9.71 -7.48,17.78 h40.31 v-0.79 c0,-8.08 -1.6900000000000002,-13.870000000000001 -5.07,-17.39 c-3.38,-3.51 -7.86,-5.27 -13.44,-5.27 C865.8199990844727,249.9900012207031 861.0399990844727,251.88000122070315 857.4099990844727,255.65000122070313 z" id="svg_5"/>
		<path class="st0" d="M962.0299990844726,347.8600012207031 c-8.870000000000001,-2.72 -17.17,-6.8 -24.9,-12.25 l15.07,-22.92 c6.52,4.74 13.13,8.13 19.83,10.14 c6.7,2.02 13.13,3.03 19.31,3.03 c5.82,0 10.09,-0.8800000000000001 12.82,-2.63 c2.73,-1.75 4.1,-4.12 4.1,-7.11 c0,-1.9300000000000002 -0.53,-3.64 -1.59,-5.14 c-1.06,-1.49 -3.22,-2.98 -6.48,-4.48 c-3.26,-1.49 -8.07,-3.12 -14.42,-4.87 l-7.67,-2.11 c-12.7,-3.51 -21.82,-8.08 -27.38,-13.7 c-5.5600000000000005,-5.62 -8.33,-13.26 -8.33,-22.92 c0,-7.38 2.02,-13.870000000000001 6.06,-19.49 c4.04,-5.62 9.75,-9.97 17.12,-13.04 c7.38,-3.07 15.81,-4.61 25.29,-4.61 c17.91,0 34.16,4.3100000000000005 48.74,12.91 l-13.88,22.92 c-7.29,-3.6900000000000004 -13.44,-6.23 -18.42,-7.640000000000001 c-4.98,-1.4 -10.32,-2.11 -16.01,-2.11 c-4.45,0 -7.79,0.79 -10.01,2.37 c-2.22,1.58 -3.33,3.6 -3.33,6.06 c0,1.7600000000000002 0.44000000000000006,3.21 1.33,4.35 c0.8900000000000001,1.1400000000000001 2.5300000000000002,2.2 4.93,3.16 c2.4,0.97 6.18,2.15 11.33,3.56 l8.8,2.37 c13.69,3.52 23.69,8.43 30,14.75 c6.3100000000000005,6.32 9.47,14.32 9.47,23.97 c0,7.55 -1.8900000000000001,14.32 -5.66,20.29 c-3.7800000000000002,5.97 -9.57,10.67 -17.39,14.09 c-7.82,3.42 -17.35,5.14 -28.58,5.14 C980.9499990844727,351.94000122070315 970.8899990844727,350.58000122070314 962.0299990844726,347.8600012207031 z" id="svg_6"/>
		<path class="st1" d="M1174.2299990844726,177.54000122070312 v31.88 h-54.27 v138.84 h-36.36 V209.4200012207031 h-54.53 v-31.88 H1174.2299990844726 z" id="svg_7"/>
		<path class="st0" d="M1185.9499990844727,343.51000122070315 c-9.22,-5.62 -16.12,-13.21 -20.68,-22.79 c-4.57,-9.57 -6.85,-20.24 -6.85,-32.01 c0,-15.1 2.94,-27.31 8.83,-36.62 c5.88,-9.31 13.65,-16.02 23.31,-20.15 c9.66,-4.13 20.46,-6.19 32.4,-6.19 c13.34,0 24.63,2.68 33.85,8.04 c9.22,5.36 16.11,12.78 20.68,22.26 c4.57,9.48 6.85,20.46 6.85,32.93 c0,14.58 -2.8600000000000003,26.57 -8.56,35.96 c-5.71,9.4 -13.44,16.25 -23.18,20.55 c-9.75,4.3 -20.77,6.46 -33.06,6.46 C1206.3699990844727,351.94000122070315 1195.1699990844727,349.13000122070315 1185.9499990844727,343.51000122070315 zM1241.6399990844727,315.45000122070314 c3.88,-6.59 5.82,-15.5 5.82,-26.74 c0,-11.94 -2.08,-20.99 -6.22,-27.13 c-4.15,-6.15 -10.55,-9.22 -19.19,-9.22 c-9.36,0 -16.15,3.03 -20.39,9.09 c-4.24,6.06 -6.36,15.15 -6.36,27.27 c0,11.42 2.16,20.38 6.49,26.87 c4.32,6.5 10.9,9.75 19.73,9.75 C1231.0499990844726,325.33000122070314 1237.7599990844726,322.0400012207031 1241.6399990844727,315.45000122070314 z" id="svg_8"/>
		<path class="st0" d="M1419.7599990844726,163.58000122070314 v184.67 h-30.32 l-2.6100000000000003,-8.17 c-11.63,7.9 -23.61,11.86 -35.94,11.86 c-16.38,0 -28.76,-5.14 -37.13,-15.41 c-8.37,-10.27 -12.55,-25.25 -12.55,-44.92 c0,-15.45 2.99,-28.1 8.99,-37.94 c5.99,-9.83 13.7,-16.95 23.13,-21.34 c9.43,-4.39 19.42,-6.59 30,-6.59 c6.52,0 13.48,0.97 20.88,2.9 v-61.65 L1419.7599990844726,163.58000122070314 zM1343.6499990844727,316.90000122070313 c3.71,5.45 9.27,8.17 16.7,8.17 c4.06,0 8.04,-0.6100000000000001 11.92,-1.84 c3.89,-1.23 7.86,-3.07 11.92,-5.53 v-64.81 c-5.47,-1.23 -10.6,-1.84 -15.37,-1.84 c-9.36,0 -16.83,3.47 -22.39,10.41 c-5.57,6.94 -8.34,16.91 -8.34,29.9 C1338.0899990844728,302.94000122070315 1339.9399990844727,311.46000122070313 1343.6499990844727,316.90000122070313 z" id="svg_9"/>
		<path class="st0" d="M1471.5199990844726,343.51000122070315 c-9.22,-5.62 -16.12,-13.21 -20.68,-22.79 c-4.57,-9.57 -6.85,-20.24 -6.85,-32.01 c0,-15.1 2.94,-27.31 8.83,-36.62 c5.88,-9.31 13.65,-16.02 23.31,-20.15 c9.66,-4.13 20.46,-6.19 32.4,-6.19 c13.34,0 24.63,2.68 33.85,8.04 c9.22,5.36 16.11,12.78 20.68,22.26 c4.57,9.48 6.85,20.46 6.85,32.93 c0,14.58 -2.8600000000000003,26.57 -8.56,35.96 c-5.71,9.4 -13.44,16.25 -23.18,20.55 c-9.75,4.3 -20.77,6.46 -33.06,6.46 C1491.9399990844727,351.94000122070315 1480.7399990844726,349.13000122070315 1471.5199990844726,343.51000122070315 zM1527.2099990844727,315.45000122070314 c3.88,-6.59 5.82,-15.5 5.82,-26.74 c0,-11.94 -2.08,-20.99 -6.22,-27.13 c-4.15,-6.15 -10.55,-9.22 -19.19,-9.22 c-9.36,0 -16.15,3.03 -20.39,9.09 c-4.24,6.06 -6.36,15.15 -6.36,27.27 c0,11.42 2.16,20.38 6.49,26.87 c4.32,6.5 10.9,9.75 19.73,9.75 C1516.6199990844727,325.33000122070314 1523.3299990844725,322.0400012207031 1527.2099990844727,315.45000122070314 z" id="svg_10"/>
	</g>
	<g id="svg_11">
		<g id="svg_12">
			<polygon class="st0" points="394.1500015258789,133.42001342773438 363.9300003051758,107.60000610351562 363.9300003051758,147.89999389648438 363.9300003051758,317.9599914550781 114.59000396728516,317.9599914550781 114.59000396728516,309.3999938964844 114.59000396728516,299.6499938964844 148.12999725341797,247.04998779296875 193.97000885009766,268.4800109863281 222.00000762939453,281.5899963378906 240.81000518798828,257.0199890136719 313.98999786376953,161.47000122070312 348.8100051879883,207.010009765625 349.57999420166016,81.97999572753906 232.37000274658203,125.489990234375 289.72000885009766,143.45999145507812 212.7800064086914,243.92001342773438 164.5099868774414,221.35000610351562 136.9000015258789,208.44000244140625 120.5199966430664,234.1400146484375 114.59000396728516,243.42999267578125 84.37000274658203,290.8299865722656 84.37000274658203,347.05999755859375 84.37000274658203,348.17999267578125 90.62000274658203,348.17999267578125 394.1500015258789,348.17999267578125 394.1500015258789,173.72000122070312 428.84000396728516,203.3699951171875 475.9999771118164,203.3699951171875 " id="svg_13"/>
		</g>
		<g id="svg_14">
			<polygon class="st1" points="84.37000274658203,265.07000732421875 114.59000396728516,217.66000366210938 114.59000396728516,145.739990234375 238.00000762939453,40.30000305175781 297.72998809814453,91.33999633789062 330.60999298095703,79.1300048828125 238.00000762939453,0 0,203.3699951171875 47.159996032714844,203.3699951171875 84.37000274658203,171.57000732421875 " id="svg_15"/>
		</g>
	</g>
</g></g></svg>