<?xml version="1.0" encoding="UTF-8"?>
<svg xmlns="http://www.w3.org/2000/svg" xmlns:xlink="http://www.w3.org/1999/xlink" viewBox="0 0 100 100" width="100px" height="100px">
<g id="surface30616761">
<path style=" stroke:none;fill-rule:nonzero;fill:rgb(50.196081%,50.196081%,50.196081%);fill-opacity:1;" d="M 38 14 C 38 19.5 33.5 24 28 24 C 22.5 24 18 19.5 18 14 C 18 8.5 22.5 4 28 4 C 33.5 4 38 8.5 38 14 Z M 22 14 C 22 17.335938 24.664062 20 28 20 C 31.335938 20 34 17.335938 34 14 C 34 10.664062 31.335938 8 28 8 C 24.664062 8 22 10.664062 22 14 Z M 62 26 C 65.289062 26 68 28.710938 68 32 C 68 35.289062 65.289062 38 62 38 L 40 38 L 40 89 C 40 92.84375 36.84375 96 33 96 C 31.042969 96 29.289062 95.160156 28.023438 93.84375 C 26.746094 95.167969 24.964844 96 23 96 C 19.15625 96 16 92.84375 16 89 L 16 67.625 C 15.371094 67.851562 14.703125 68 14 68 C 10.710938 68 8 65.289062 8 62 L 8 37 C 8 30.949219 12.949219 26 19 26 Z M 12 37 L 12 62 C 12 63.128906 12.871094 64 14 64 C 15.128906 64 16 63.128906 16 62 L 16 42 C 15.984375 40.898438 16.867188 39.988281 17.96875 39.972656 C 18.507812 39.964844 19.03125 40.175781 19.414062 40.558594 C 19.796875 40.9375 20.007812 41.460938 20 42 L 20 89 C 20 90.679688 21.320312 92 23 92 C 24.679688 92 26 90.679688 26 89 L 26 68 C 25.984375 66.898438 26.867188 65.988281 27.96875 65.972656 C 28.507812 65.964844 29.03125 66.175781 29.414062 66.558594 C 29.796875 66.9375 30.007812 67.460938 30 68 L 30 89 C 30 90.679688 31.320312 92 33 92 C 34.679688 92 36 90.679688 36 89 L 36 36 C 36 34.894531 36.894531 34 38 34 L 62 34 C 63.128906 34 64 33.128906 64 32 C 64 30.871094 63.128906 30 62 30 L 19 30 C 15.109375 30 12 33.109375 12 37 Z M 90 34 C 90.722656 33.988281 91.390625 34.367188 91.753906 34.992188 C 92.121094 35.613281 92.121094 36.386719 91.753906 37.007812 C 91.390625 37.632812 90.722656 38.011719 90 38 L 74 38 C 73.277344 38.011719 72.609375 37.632812 72.246094 37.007812 C 71.878906 36.386719 71.878906 35.613281 72.246094 34.992188 C 72.609375 34.367188 73.277344 33.988281 74 34 Z M 90 48 C 90.722656 47.988281 91.390625 48.367188 91.753906 48.992188 C 92.121094 49.613281 92.121094 50.386719 91.753906 51.007812 C 91.390625 51.632812 90.722656 52.011719 90 52 L 48 52 C 47.277344 52.011719 46.609375 51.632812 46.246094 51.007812 C 45.878906 50.386719 45.878906 49.613281 46.246094 48.992188 C 46.609375 48.367188 47.277344 47.988281 48 48 Z M 48 66 C 47.277344 66.011719 46.609375 65.632812 46.246094 65.007812 C 45.878906 64.386719 45.878906 63.613281 46.246094 62.992188 C 46.609375 62.367188 47.277344 61.988281 48 62 L 64.167969 62 C 62.816406 63.191406 61.59375 64.535156 60.535156 66 Z M 48 80 C 47.277344 80.011719 46.609375 79.632812 46.246094 79.007812 C 45.878906 78.386719 45.878906 77.613281 46.246094 76.992188 C 46.609375 76.367188 47.277344 75.988281 48 76 L 56.335938 76 C 56.113281 77.300781 56 78.636719 56 80 Z M 48 94 C 47.277344 94.011719 46.609375 93.632812 46.246094 93.007812 C 45.878906 92.386719 45.878906 91.613281 46.246094 90.992188 C 46.609375 90.367188 47.277344 89.988281 48 90 L 58.195312 90 C 58.847656 91.410156 59.632812 92.75 60.535156 94 Z M 48 94 "/>
<path style=" stroke:none;fill-rule:nonzero;fill:rgb(50.196081%,50.196081%,50.196081%);fill-opacity:1;" d="M 80 100 C 69 100 60 91 60 80 C 60 69 69 60 80 60 C 91 60 100 69 100 80 C 100 91 91 100 80 100 Z M 80 64 C 71.199219 64 64 71.199219 64 80 C 64 88.800781 71.199219 96 80 96 C 88.800781 96 96 88.800781 96 80 C 96 71.199219 88.800781 64 80 64 Z M 78.398438 86 C 78.199219 86 78 86.199219 78 86.398438 L 78 89.601562 C 78 89.800781 78.199219 90 78.398438 90 L 81.601562 90 C 81.800781 90 82 89.800781 82 89.601562 L 82 86.398438 C 82 86.199219 81.800781 86 81.601562 86 Z M 78.398438 70 C 78.199219 70 78 70.199219 78 70.398438 L 78 81.601562 C 78 81.800781 78.199219 82 78.398438 82 L 81.601562 82 C 81.800781 82 82 81.800781 82 81.601562 L 82 70.398438 C 82 70.199219 81.800781 70 81.601562 70 Z M 78.398438 70 "/>
</g>
</svg>
