<?xml version="1.0" encoding="UTF-8"?>
<svg xmlns="http://www.w3.org/2000/svg" xmlns:xlink="http://www.w3.org/1999/xlink" viewBox="0 0 100 100" width="100px" height="100px">
<g id="surface47126627">
<path style=" stroke:none;fill-rule:nonzero;fill:rgb(50.196081%,50.196081%,50.196081%);fill-opacity:1;" d="M 88 4 L 88 56.351562 L 86.601562 57.398438 L 86.199219 55.398438 L 85.601562 52 L 84 52 L 84 8 L 16 8 L 16 92 L 55.199219 92 L 56.601562 93.398438 L 59.289062 96 L 12 96 L 12 4 Z M 74 22 L 74 26 L 26 26 L 26 22 Z M 54 50 L 54 54 L 26 54 L 26 50 Z M 74 50 L 74 52 L 70.601562 52 L 70.246094 54 L 64 54 L 64 50 Z M 54 62 L 54 66 L 26 66 L 26 62 Z M 26 78 L 26 74 L 52 74 L 52 78 Z M 26 78 "/>
<path style=" stroke:none;fill-rule:nonzero;fill:rgb(50.196081%,50.196081%,50.196081%);fill-opacity:1;" d="M 82.199219 100 L 74 100 L 73 93.601562 C 72.199219 93.398438 71.601562 93.199219 70.800781 92.800781 L 65.398438 96.398438 L 59.398438 90.398438 L 63 85 C 62.601562 84.398438 62.398438 83.601562 62.199219 83 L 56 82 L 56 73.601562 L 62.199219 72.601562 C 62.398438 71.800781 62.800781 71.199219 63 70.398438 L 59.398438 65.398438 L 65.398438 59.398438 L 70.800781 63.199219 C 71.398438 62.800781 72.199219 62.601562 72.800781 62.398438 L 74 56 L 82.398438 56 L 83.398438 62.398438 C 84 62.601562 84.800781 62.800781 85.398438 63.199219 L 90.601562 59.398438 L 96.398438 65.199219 L 92.800781 70.601562 C 93.199219 71.199219 93.398438 72 93.601562 72.601562 L 100 73.601562 L 100 82 L 93.800781 83.199219 C 93.601562 83.800781 93.398438 84.601562 93 85.398438 L 96.800781 90.601562 L 90.800781 96.601562 L 85.398438 93 C 84.601562 93.398438 84 93.601562 83.398438 93.800781 Z M 77.199219 96 L 78.800781 96 L 79.800781 90.398438 L 81 90 C 82.199219 89.601562 83.398438 89.199219 84.601562 88.601562 L 85.601562 88 L 90.199219 91.199219 L 91.398438 90 L 88 85.398438 L 88.800781 84.199219 C 89.398438 83.199219 89.800781 82 90.199219 80.800781 L 90.601562 79.601562 L 96 78.398438 L 96 76.800781 L 90.398438 76 L 90 74.800781 C 89.601562 73.601562 89.199219 72.398438 88.601562 71.199219 L 88 70.199219 L 91.199219 65.601562 L 90.199219 64.601562 L 85.601562 68 L 84.398438 67.199219 C 83.398438 66.601562 82.199219 66.199219 81 65.800781 L 79.800781 65.398438 L 79 60 L 77.398438 60 L 76.398438 65.601562 L 75.199219 65.800781 C 74 66.199219 72.800781 66.800781 71.398438 67.398438 L 70.398438 67.800781 L 65.800781 64.601562 L 64.601562 65.800781 L 67.800781 70.398438 L 67 71.398438 C 66.398438 72.398438 66 73.601562 65.800781 74.601562 L 65.601562 76 L 60 77 L 60 78.601562 L 65.398438 79.601562 L 65.800781 80.800781 C 66.199219 81.800781 66.601562 83.199219 67.199219 84.398438 L 67.800781 85.398438 L 64.601562 90 L 65.800781 91.199219 L 70.601562 88 L 71.800781 88.800781 C 72.800781 89.398438 74 89.800781 75.199219 90.199219 L 76.398438 90.601562 Z M 78 85.800781 C 73.601562 85.800781 70 82.199219 70 77.800781 C 70 73.398438 73.601562 69.800781 78 69.800781 C 82.398438 69.800781 86 73.398438 86 77.800781 C 86 82.398438 82.398438 85.800781 78 85.800781 Z M 78 74 C 75.800781 74 74 75.800781 74 78 C 74 80.199219 75.800781 82 78 82 C 80.199219 82 82 80.199219 82 78 C 82 75.601562 80.199219 74 78 74 Z M 78 74 "/>
</g>
</svg>
