<?xml version="1.0" encoding="UTF-8"?>
<svg xmlns="http://www.w3.org/2000/svg" xmlns:xlink="http://www.w3.org/1999/xlink" viewBox="0 0 100 100" width="100px" height="100px">
<g id="surface47124142">
<path style=" stroke:none;fill-rule:nonzero;fill:rgb(50.196081%,50.196081%,50.196081%);fill-opacity:1;" d="M 47.375 2.0625 C 46.039062 2.023438 44.75 2.523438 43.6875 3.3125 C 42.625 4.101562 41.671875 5.140625 40.75 6.4375 C 40.046875 7.429688 39.351562 7.851562 38.125 8.125 C 36.898438 8.398438 35.1875 8.375 33.1875 8.375 C 30.953125 8.375 29.335938 8.570312 28 9.0625 C 26.929688 9.453125 25.953125 10.21875 25.4375 11.1875 C 25.414062 11.25 25.390625 11.3125 25.375 11.375 C 25.351562 11.421875 25.328125 11.453125 25.3125 11.5 C 25.289062 11.539062 25.265625 11.585938 25.25 11.625 C 25.210938 11.734375 25.148438 11.828125 25.125 11.9375 C 24.804688 13.28125 25.257812 14.414062 25.8125 15.3125 C 26.359375 16.195312 27.085938 16.953125 27.8125 17.625 C 28.648438 18.460938 30.421875 19.976562 32.125 22.6875 C 33.664062 25.132812 34.78125 28.460938 34.6875 32.4375 C 28.0625 34.460938 21.734375 39.28125 16.875 45.4375 C 11.601562 52.117188 8 60.265625 8 68.1875 C 8 77.960938 11.0625 84.921875 18 88.875 C 24.9375 92.828125 35.1875 94 50 94 C 64.8125 94 75.0625 92.828125 82 88.875 C 88.9375 84.921875 92 77.960938 92 68.1875 C 92 53.0625 80.148438 39.21875 66.5 33.1875 C 67.460938 33.0625 68.453125 32.96875 69.5 33 C 72.867188 33.085938 76.460938 34.101562 79.5625 37.375 C 80.03125 37.976562 80.804688 38.265625 81.554688 38.109375 C 82.296875 37.953125 82.898438 37.382812 83.085938 36.640625 C 83.273438 35.90625 83.023438 35.117188 82.4375 34.625 C 78.8125 30.789062 74.421875 29.335938 70.5 29.0625 C 73.78125 27.6875 77.554688 27.273438 82.0625 29.75 C 82.695312 30.195312 83.523438 30.234375 84.203125 29.859375 C 84.875 29.476562 85.265625 28.742188 85.210938 27.96875 C 85.15625 27.195312 84.65625 26.53125 83.9375 26.25 C 81.125 24.703125 78.453125 24.078125 75.9375 24.0625 C 70.273438 24.03125 65.507812 27.046875 62.375 29.1875 C 61.921875 21.898438 66.046875 16.085938 66.5625 15.4375 L 66.625 15.375 L 66.6875 15.25 C 67.382812 14.15625 68.46875 12.601562 68.9375 10.75 C 69.171875 9.828125 69.304688 8.609375 68.5 7.5 C 67.695312 6.390625 66.335938 6 65 6 C 62.5 6 60.242188 6.851562 58.4375 7.1875 C 56.632812 7.523438 55.71875 7.46875 54.8125 6.5625 L 54.8125 6.625 C 54.796875 6.609375 54.765625 6.640625 54.75 6.625 C 52.148438 3.921875 50.039062 2.140625 47.375 2.0625 Z M 47.25 6.0625 C 47.976562 6.085938 49.554688 6.898438 51.9375 9.375 L 52 9.375 L 52 9.4375 C 54.09375 11.53125 56.945312 11.476562 59.1875 11.0625 C 60.882812 10.75 62.492188 10.328125 63.8125 10.125 C 63.835938 10.273438 63.867188 10.28125 63.6875 10.5625 C 63.507812 10.84375 63.09375 11.320312 62.4375 11.875 C 61.125 12.984375 58.9375 14.398438 56.625 16.5 C 55.679688 17.367188 54.554688 17.953125 53.6875 18.0625 C 52.820312 18.171875 52.320312 18 51.75 17.3125 L 51.6875 17.3125 C 50.671875 16.046875 49.757812 15.085938 48.6875 14.4375 C 47.59375 13.773438 46.304688 13.4375 45.125 13.625 C 42.789062 13.992188 41.304688 15.671875 39.5 17.375 L 39.4375 17.375 L 39.4375 17.3125 C 38.40625 18.28125 37.179688 18.601562 35.3125 17.8125 C 33.734375 17.148438 31.789062 15.484375 29.9375 12.75 C 30.625 12.5625 31.625 12.375 33.1875 12.375 C 35.1875 12.375 37.125 12.421875 39 12 C 40.875 11.578125 42.703125 10.5625 44 8.75 L 44.0625 8.75 C 44.84375 7.648438 45.523438 6.898438 46.0625 6.5 C 46.601562 6.101562 46.890625 6.054688 47.25 6.0625 Z M 45.75 17.625 C 46 17.585938 46.15625 17.53125 46.625 17.8125 C 47.09375 18.09375 47.757812 18.71875 48.625 19.8125 L 48.625 19.875 L 48.6875 19.875 C 50.117188 21.585938 52.257812 22.242188 54.1875 22 C 56.117188 21.757812 57.914062 20.835938 59.375 19.5 C 59.585938 19.304688 59.789062 19.1875 60 19 C 58.65625 22.25 57.59375 26.59375 58.4375 31.5625 C 49.1875 36.054688 41.78125 33.679688 38.9375 32.375 C 39.015625 28.296875 37.835938 24.796875 36.375 22.0625 C 38.53125 22.273438 40.648438 21.695312 42.1875 20.25 C 43.96875 18.570312 45.25 17.703125 45.75 17.625 Z M 60.5 35 C 74.328125 39.046875 88 53.6875 88 68.1875 C 88 77.210938 85.773438 82.1875 80.0625 85.4375 C 74.351562 88.6875 64.585938 90 50 90 C 35.414062 90 25.648438 88.6875 19.9375 85.4375 C 14.226562 82.1875 12 77.210938 12 68.1875 C 12 61.507812 15.171875 53.992188 20 47.875 C 24.765625 41.84375 31.109375 37.234375 37 35.8125 C 40.351562 37.320312 49.601562 40.40625 60.5 35 Z M 47 44 L 47 48 C 44 48.398438 38.8125 50.789062 38.8125 57.1875 C 38.8125 68.789062 55.625 62.828125 55.625 71.625 C 55.625 74.625 54.210938 77.1875 48.8125 77.1875 C 43.210938 77.1875 41.625 72.773438 41.625 70.375 L 38 70.375 C 38.601562 78.171875 44 80.023438 47 80.625 L 47 84 L 50.625 84 L 50.625 80.625 C 53.421875 80.421875 59.8125 78.390625 59.8125 71.1875 C 59.8125 65.1875 54.984375 63.578125 50.1875 62.375 C 46.390625 61.375 42.8125 60.609375 42.8125 56.8125 C 42.8125 55.210938 43.414062 51.625 48.8125 51.625 C 52.609375 51.625 54.398438 54.015625 55 56.8125 L 58.625 56.8125 C 57.625 52.8125 55.828125 49.1875 50.625 48.1875 L 50.625 44 Z M 47 44 "/>
</g>
</svg>
