<?xml version="1.0" encoding="UTF-8"?>
<svg xmlns="http://www.w3.org/2000/svg" xmlns:xlink="http://www.w3.org/1999/xlink" viewBox="0 0 100 100" width="100px" height="100px">
<g id="surface46845915">
<path style=" stroke:none;fill-rule:nonzero;fill:rgb(50.196081%,50.196081%,50.196081%);fill-opacity:1;" d="M 51.230469 2.527344 L 70 17.171875 L 70 12 L 82 12 L 82 26.539062 L 97.230469 38.421875 C 97.792969 38.863281 98.082031 39.570312 97.980469 40.277344 C 97.882812 40.984375 97.414062 41.585938 96.75 41.855469 C 96.089844 42.125 95.332031 42.019531 94.769531 41.578125 L 92 39.417969 L 92 53.179688 C 90.730469 52.644531 89.390625 52.238281 88 51.984375 L 88 36.296875 L 50 6.644531 L 12 36.296875 L 12 90 L 36 90 L 36 52 L 64 52 L 64 73.753906 L 60 77.753906 L 60 56 L 40 56 L 40 90 L 51.867188 90 L 51.867188 94 L 38.316406 94 C 38.101562 94.035156 37.878906 94.035156 37.664062 94 L 10 94 C 8.894531 94 8 93.105469 8 92 L 8 39.417969 L 5.230469 41.578125 C 4.359375 42.257812 3.101562 42.101562 2.421875 41.230469 C 1.742188 40.359375 1.898438 39.101562 2.769531 38.421875 L 48.769531 2.527344 C 49.101562 2.269531 49.507812 2.125 49.925781 2.109375 C 50.394531 2.089844 50.859375 2.238281 51.230469 2.527344 Z M 92 92 C 92 93.105469 91.105469 94 90 94 L 85.367188 94 C 86.0625 93.042969 86.46875 91.847656 86.46875 90.527344 L 86.46875 90.335938 C 88.40625 90.140625 90.265625 89.652344 92 88.914062 Z M 74 20.292969 L 78 23.417969 L 78 16 L 74 16 Z M 74 20.292969 "/>
<path style=" stroke:none;fill-rule:nonzero;fill:rgb(50.196081%,50.196081%,50.196081%);fill-opacity:1;" d="M 88.402344 63.269531 C 90.527344 63.269531 92.269531 65.011719 92.269531 67.136719 C 92.269531 69.265625 90.527344 71.003906 88.402344 71.003906 C 86.273438 71.003906 84.535156 69.265625 84.535156 67.136719 C 84.535156 65.011719 86.273438 63.269531 88.402344 63.269531 Z M 100 71.003906 C 100 79.507812 93.039062 86.46875 84.535156 86.46875 C 83.957031 86.46875 83.183594 86.46875 82.601562 86.273438 L 82.601562 90.335938 C 82.601562 91.496094 81.828125 92.269531 80.667969 92.269531 L 76.804688 92.269531 L 76.804688 96.132812 C 76.804688 97.292969 76.03125 98.066406 74.871094 98.066406 L 69.84375 98.066406 L 68.492188 99.421875 C 68.105469 99.808594 67.71875 100 67.136719 100 L 57.664062 100 C 56.503906 100 55.730469 99.226562 55.730469 98.066406 L 55.730469 88.402344 C 55.730469 87.820312 55.925781 87.433594 56.3125 87.046875 L 69.457031 73.902344 C 69.265625 72.9375 69.070312 71.96875 69.070312 71.003906 C 69.070312 62.5 76.03125 55.539062 84.535156 55.539062 C 93.039062 55.539062 100 62.5 100 71.003906 Z M 78.734375 85.308594 C 77.578125 84.921875 76.417969 84.148438 75.449219 83.375 L 68.296875 90.527344 C 67.910156 90.914062 67.332031 91.109375 66.945312 91.109375 C 66.558594 91.109375 65.976562 90.914062 65.589844 90.527344 C 64.816406 89.753906 64.816406 88.59375 65.589844 87.820312 L 72.550781 80.863281 C 71.777344 79.894531 71.195312 78.929688 70.617188 77.960938 L 59.40625 89.175781 L 59.40625 96.132812 L 66.171875 96.132812 L 67.523438 94.78125 C 67.910156 94.394531 68.296875 94.199219 68.878906 94.199219 L 72.742188 94.199219 L 72.742188 90.335938 C 72.742188 89.175781 73.515625 88.402344 74.675781 88.402344 L 78.542969 88.402344 L 78.542969 85.308594 Z M 96.132812 71.003906 C 96.132812 64.625 90.914062 59.40625 84.535156 59.40625 C 78.15625 59.40625 72.9375 64.625 72.9375 71.003906 C 72.9375 77.382812 78.15625 82.601562 84.535156 82.601562 C 90.914062 82.601562 96.132812 77.382812 96.132812 71.003906 Z M 96.132812 71.003906 "/>
</g>
</svg>
