<?xml version="1.0" encoding="UTF-8"?>
<svg xmlns="http://www.w3.org/2000/svg" xmlns:xlink="http://www.w3.org/1999/xlink" viewBox="0 0 100 100" width="100px" height="100px">
<g id="surface30601356">
<path style=" stroke:none;fill-rule:nonzero;fill:rgb(50.196081%,50.196081%,50.196081%);fill-opacity:1;" d="M 51.230469 2.527344 L 70 17.171875 L 70 12 L 82 12 L 82 26.539062 L 97.230469 38.421875 C 97.792969 38.863281 98.082031 39.570312 97.980469 40.277344 C 97.882812 40.984375 97.414062 41.585938 96.75 41.855469 C 96.089844 42.125 95.332031 42.019531 94.769531 41.578125 L 92 39.417969 L 92 55.082031 L 91 54 L 88.199219 56.199219 L 88 56.351562 L 88 36.296875 L 50 6.644531 L 12 36.296875 L 12 90 L 36 90 L 36 52 L 64 52 L 64 55.199219 L 60 59.199219 L 60 56 L 40 56 L 40 90 L 54.914062 90 L 54.199219 91 L 56.601562 93.398438 L 57.21875 94 L 38.316406 94 C 38.101562 94.035156 37.878906 94.035156 37.664062 94 L 10 94 C 8.894531 94 8 93.105469 8 92 L 8 39.417969 L 5.230469 41.578125 C 4.359375 42.257812 3.101562 42.101562 2.421875 41.230469 C 1.742188 40.359375 1.898438 39.101562 2.769531 38.421875 L 48.769531 2.527344 C 49.101562 2.269531 49.507812 2.125 49.925781 2.109375 C 50.394531 2.089844 50.859375 2.238281 51.230469 2.527344 Z M 74 20.292969 L 78 23.417969 L 78 16 L 74 16 Z M 74 20.292969 "/>
<path style=" stroke:none;fill-rule:nonzero;fill:rgb(50.196081%,50.196081%,50.196081%);fill-opacity:1;" d="M 82.199219 100 L 74 100 L 73 93.601562 C 72.199219 93.398438 71.601562 93.199219 70.800781 92.800781 L 65.398438 96.398438 L 59.398438 90.398438 L 63 85 C 62.601562 84.398438 62.398438 83.601562 62.199219 83 L 56 82 L 56 73.601562 L 62.199219 72.601562 C 62.398438 71.800781 62.800781 71.199219 63 70.398438 L 59.398438 65.398438 L 65.398438 59.398438 L 70.800781 63.199219 C 71.398438 62.800781 72.199219 62.601562 72.800781 62.398438 L 74 56 L 82.398438 56 L 83.398438 62.398438 C 84 62.601562 84.800781 62.800781 85.398438 63.199219 L 90.601562 59.398438 L 96.398438 65.199219 L 92.800781 70.601562 C 93.199219 71.199219 93.398438 72 93.601562 72.601562 L 100 73.601562 L 100 82 L 93.800781 83.199219 C 93.601562 83.800781 93.398438 84.601562 93 85.398438 L 96.800781 90.601562 L 90.800781 96.601562 L 85.398438 93 C 84.601562 93.398438 84 93.601562 83.398438 93.800781 Z M 77.199219 96 L 78.800781 96 L 79.800781 90.398438 L 81 90 C 82.199219 89.601562 83.398438 89.199219 84.601562 88.601562 L 85.601562 88 L 90.199219 91.199219 L 91.398438 90 L 88 85.398438 L 88.800781 84.199219 C 89.398438 83.199219 89.800781 82 90.199219 80.800781 L 90.601562 79.601562 L 96 78.398438 L 96 76.800781 L 90.398438 76 L 90 74.800781 C 89.601562 73.601562 89.199219 72.398438 88.601562 71.199219 L 88 70.199219 L 91.199219 65.601562 L 90.199219 64.601562 L 85.601562 68 L 84.398438 67.199219 C 83.398438 66.601562 82.199219 66.199219 81 65.800781 L 79.800781 65.398438 L 79 60 L 77.398438 60 L 76.398438 65.601562 L 75.199219 65.800781 C 74 66.199219 72.800781 66.800781 71.398438 67.398438 L 70.398438 67.800781 L 65.800781 64.601562 L 64.601562 65.800781 L 67.800781 70.398438 L 67 71.398438 C 66.398438 72.398438 66 73.601562 65.800781 74.601562 L 65.601562 76 L 60 77 L 60 78.601562 L 65.398438 79.601562 L 65.800781 80.800781 C 66.199219 81.800781 66.601562 83.199219 67.199219 84.398438 L 67.800781 85.398438 L 64.601562 90 L 65.800781 91.199219 L 70.601562 88 L 71.800781 88.800781 C 72.800781 89.398438 74 89.800781 75.199219 90.199219 L 76.398438 90.601562 Z M 78 85.800781 C 73.601562 85.800781 70 82.199219 70 77.800781 C 70 73.398438 73.601562 69.800781 78 69.800781 C 82.398438 69.800781 86 73.398438 86 77.800781 C 86 82.398438 82.398438 85.800781 78 85.800781 Z M 78 74 C 75.800781 74 74 75.800781 74 78 C 74 80.199219 75.800781 82 78 82 C 80.199219 82 82 80.199219 82 78 C 82 75.601562 80.199219 74 78 74 Z M 78 74 "/>
</g>
</svg>
