<?xml version="1.0" encoding="UTF-8"?>
<svg xmlns="http://www.w3.org/2000/svg" xmlns:xlink="http://www.w3.org/1999/xlink" viewBox="0 0 100 100" width="100px" height="100px">
<g id="surface30620581">
<path style=" stroke:none;fill-rule:nonzero;fill:rgb(50.196081%,50.196081%,50.196081%);fill-opacity:1;" d="M 50 0.195312 C 45.097656 0.195312 40.953125 2.925781 34.808594 6.085938 C 28.664062 9.246094 20.4375 13.0625 7.570312 15.886719 L 6 16.230469 L 6 17.839844 C 6 48.480469 16.714844 68.941406 27.472656 81.636719 C 38.230469 94.332031 49.160156 99.398438 49.160156 99.398438 L 50.042969 99.804688 L 50.90625 99.363281 C 50.90625 99.363281 94 77.152344 94 17.839844 L 94 16.230469 L 92.429688 15.886719 C 79.5625 13.0625 71.335938 9.246094 65.191406 6.085938 C 59.046875 2.925781 54.902344 0.195312 50 0.195312 Z M 50 4.195312 C 53.292969 4.195312 57.085938 6.417969 63.363281 9.644531 C 69.320312 12.707031 77.722656 16.425781 89.871094 19.289062 C 89.164062 73.550781 52.554688 93.875 49.96875 95.238281 C 48.71875 94.632812 40.0625 90.304688 30.527344 79.050781 C 20.46875 67.179688 10.480469 48.117188 10.125 19.289062 C 22.277344 16.425781 30.679688 12.710938 36.636719 9.644531 C 42.914062 6.417969 46.707031 4.195312 50 4.195312 Z M 46 24 L 44.800781 30.398438 C 44.199219 30.597656 43.402344 30.800781 42.800781 31.199219 L 37.398438 27.398438 L 31.398438 33.398438 L 35 38.398438 C 34.800781 39.199219 34.398438 39.800781 34.199219 40.601562 L 28 41.601562 L 28 50 L 34.199219 51 C 34.398438 51.601562 34.601562 52.398438 35 53 L 31.398438 58.398438 L 37.398438 64.398438 L 42.800781 60.800781 C 43.601562 61.199219 44.199219 61.402344 45 61.601562 L 46 68 L 54.199219 68 L 55.398438 61.800781 C 56 61.601562 56.597656 61.398438 57.398438 61 L 62.800781 64.601562 L 68.800781 58.601562 L 65 53.398438 C 65.398438 52.597656 65.601562 51.800781 65.800781 51.199219 L 72 50 L 72 41.601562 L 65.601562 40.601562 C 65.402344 40 65.199219 39.203125 64.800781 38.601562 L 68.398438 33.199219 L 62.601562 27.398438 L 57.398438 31.199219 C 56.796875 30.800781 56 30.597656 55.398438 30.398438 L 54.398438 24 Z M 49.398438 28 L 51 28 L 51.800781 33.398438 L 53 33.800781 C 54.199219 34.199219 55.398438 34.597656 56.398438 35.199219 L 57.601562 36 L 62.199219 32.601562 L 63.199219 33.601562 L 60 38.199219 L 60.601562 39.199219 C 61.203125 40.398438 61.601562 41.601562 62 42.800781 L 62.398438 44 L 68 44.800781 L 68 46.398438 L 62.601562 47.601562 L 62.199219 48.800781 C 61.800781 50 61.402344 51.199219 60.800781 52.199219 L 60 53.398438 L 63.398438 58 L 62.199219 59.199219 L 57.601562 56 L 56.601562 56.601562 C 55.402344 57.203125 54.199219 57.601562 53 58 L 51.800781 58.398438 L 50.800781 64 L 49.199219 64 L 48.398438 58.601562 L 47.199219 58.199219 C 46 57.800781 44.800781 57.402344 43.800781 56.800781 L 42.601562 56 L 37.800781 59.199219 L 36.601562 58 L 39.800781 53.398438 L 39.199219 52.398438 C 38.597656 51.199219 38.199219 49.800781 37.800781 48.800781 L 37.398438 47.601562 L 32 46.601562 L 32 45 L 37.601562 44 L 37.800781 42.601562 C 38 41.601562 38.398438 40.398438 39 39.398438 L 39.800781 38.398438 L 36.601562 33.800781 L 37.800781 32.601562 L 42.398438 35.800781 L 43.398438 35.398438 C 44.796875 34.796875 46 34.199219 47.199219 33.800781 L 48.398438 33.601562 Z M 50 37.800781 C 45.601562 37.800781 42 41.402344 42 45.800781 C 42 50.199219 45.601562 53.800781 50 53.800781 C 54.398438 53.800781 58 50.402344 58 45.800781 C 58 41.402344 54.398438 37.800781 50 37.800781 Z M 50 42 C 52.199219 42 54 43.601562 54 46 C 54 48.199219 52.199219 50 50 50 C 47.800781 50 46 48.199219 46 46 C 46 43.800781 47.800781 42 50 42 Z M 50 42 "/>
</g>
</svg>
