<?xml version="1.0" encoding="utf-8"?>
<!-- Generator: Adobe Illustrator 25.2.1, SVG Export Plug-In . SVG Version: 6.00 Build 0)  -->
<svg version="1.1" id="Layer_1" xmlns="http://www.w3.org/2000/svg" xmlns:xlink="http://www.w3.org/1999/xlink" x="0px" y="0px"
	 viewBox="0 0 750 500" style="enable-background:new 0 0 750 500;" xml:space="preserve">
<style type="text/css">
	.st0{fill:url(#SVGID_1_);}
	.st1{fill:#46AEEC;}
	.st2{fill:url(#SVGID_2_);}
	.st3{fill:#21343F;}
	.st4{fill:url(#SVGID_3_);}
	.st5{fill:#17262D;}
	.st6{fill:url(#SVGID_4_);}
	.st7{fill:#F4A684;}
	.st8{fill:#EBA7A2;}
	.st9{fill:#193E6D;}
	.st10{fill:#0F324C;}
	.st11{fill:url(#SVGID_5_);}
	.st12{fill:#123656;}
	.st13{fill:url(#SVGID_6_);}
	.st14{fill:#FFFFFF;}
	.st15{opacity:0.5;fill:url(#SVGID_7_);}
	.st16{opacity:0.5;fill:url(#SVGID_8_);}
	.st17{fill:#FFBF9D;}
	.st18{fill:#2B1504;}
	.st19{fill:url(#SVGID_9_);}
	.st20{fill:url(#SVGID_10_);}
	.st21{fill:url(#SVGID_11_);}
	.st22{fill:url(#SVGID_12_);}
	.st23{opacity:0.7;fill:#89D2F7;}
</style>
<g>
	<g>
		
			<linearGradient id="SVGID_1_" gradientUnits="userSpaceOnUse" x1="1965.3617" y1="307.3295" x2="2048.6523" y2="307.3295" gradientTransform="matrix(-1 0 0 1 2454.1411 0)">
			<stop  offset="0" style="stop-color:#FFDFCC"/>
			<stop  offset="0.229" style="stop-color:#FFD1B8"/>
			<stop  offset="1" style="stop-color:#FFA473"/>
		</linearGradient>
		<path class="st0" d="M463.7,247.34l25.08,78.74c0,0-1.77,11.09-10.09,16.08s-65.96,25.16-65.96,25.16l-7.24-21.22
			c0,0,38.97-17.25,38.89-26.13s-17.27-58.78-17.27-58.78L463.7,247.34z"/>
		<path class="st1" d="M315.46,213.26L315.46,213.26c-10.86,6.51-19.58,16.05-25.1,27.44l-18.57,38.28l57.36,12.89v-63.22
			L315.46,213.26z"/>
		<path class="st1" d="M436.35,207.41c0,0,22.9,26.17,31.28,39.92c8.37,13.75,11.28,14.42,12.95,22.27
			c1.66,7.86-52.4,16.43-52.4,16.43L436.35,207.41z"/>
		<linearGradient id="SVGID_2_" gradientUnits="userSpaceOnUse" x1="258.1607" y1="266.4201" x2="310.6367" y2="266.4201">
			<stop  offset="0" style="stop-color:#FFDFCC"/>
			<stop  offset="0.229" style="stop-color:#FFD1B8"/>
			<stop  offset="1" style="stop-color:#FFA473"/>
		</linearGradient>
		<path class="st2" d="M264.33,306.42l-6.17-99.01l21.06-3.96c0,0,31.42,86.44,31.42,106.69
			C310.64,325.56,273.91,346.07,264.33,306.42z"/>
		<path class="st3" d="M407.89,384.96l19.35-10.99c0,0,1.48-65.74-2.71-75.32c-5.59-12.77-5.41-36.86-3.42-49.55
			c0.66-4.21,3.71-3,6.34,0.2c-0.95,6.08-1.26,12.68-0.53,19.6c0.69,6.49,1.39,15.03,2.05,24.51c0.58,8.19,1.13,17.07,1.64,25.95
			c0.95,16.58,1.78,33.15,2.33,45.11c0.04,0.6,0.06,1.18,0.1,1.75c0.44,9.7,0.7,15.93,0.7,15.93L407.89,384.96z"/>
		<linearGradient id="SVGID_3_" gradientUnits="userSpaceOnUse" x1="447.1341" y1="439.1071" x2="478.4953" y2="439.1071">
			<stop  offset="0" style="stop-color:#FFDFCC"/>
			<stop  offset="0.229" style="stop-color:#FFD1B8"/>
			<stop  offset="1" style="stop-color:#FFA473"/>
		</linearGradient>
		<polygon class="st4" points="467.26,426.27 451.99,420.92 447.13,451.29 477.27,457.29 478.5,430.61 		"/>
		<path class="st5" d="M517.42,437.81c0.38,5.47-0.17,10.83-1.53,15.88c-3.13,11.47-10.71,21.21-22.47,26.38
			c-16.95,7.45-18.6-12.39-23.73-18.04c-5.12-5.65-9.27-6.21-9.27-6.21s10.31-7.88,10.3-26.52c0-1.88-1.82-3.5-3.08-5.42
			c0,0,20.59,3.38,27.38,0.06C501.8,420.61,516.23,419.93,517.42,437.81z"/>
		<path class="st3" d="M517.42,437.81c0.38,5.47-0.17,10.83-1.53,15.88c0.6-11.94-4.54-19.8-5.05-21.38
			c-0.7-2.11-6.47-4.37-15.29-3.08c-6.2,0.91-18.27,0.43-24.83,0.06c-0.78-1.71-1.82-3.5-3.08-5.42c0,0,20.59,3.38,27.38,0.06
			C501.8,420.61,516.23,419.93,517.42,437.81z"/>
		<g>
			<linearGradient id="SVGID_4_" gradientUnits="userSpaceOnUse" x1="357.8456" y1="194.2656" x2="401.9623" y2="194.2656">
				<stop  offset="0" style="stop-color:#FFDFCC"/>
				<stop  offset="0.229" style="stop-color:#FFD1B8"/>
				<stop  offset="1" style="stop-color:#FFA473"/>
			</linearGradient>
			<path class="st6" d="M401.96,213.91c0,0-4.45,6.62-6.23,7.39c-7.35,3.18-12.85,3.18-12.85,3.18s-7.42,0-13.63-1.81
				c-1.55-0.45-3.42-2.05-5.12-4.57c-3.37-4.98-6.28-12.26-6.28-12.26c1.65-8.38,3.47-31.51,3.47-31.51s15.28-11.51,25.81-9.92
				c4.72,0.7,7.84-2.12,7.9,1.66c0.02,1.47,2.07,15.29,2.21,16.96c0.26,3.54,0.73,7.42,1.26,11.18
				C399.96,204.45,401.96,213.91,401.96,213.91z"/>
		</g>
		<path class="st7" d="M398.5,194.21c-3.95,4.56-12.1,11.93-28.41,20.75c-2.14,1.16-4.13,2.2-5.97,3.13
			c-3.37-4.98-6.28-12.26-6.28-12.26c1.65-8.38,3.47-31.51,3.47-31.51s23.18-9.85,33.71-8.25l2.21,16.96
			C397.5,186.58,397.96,190.45,398.5,194.21z"/>
		<path class="st8" d="M377.85,212.94l1.56,6.02c0,0-7.28,0.42-7.9-0.93C370.88,216.69,377.85,212.94,377.85,212.94z"/>
		<polygon class="st8" points="384.07,212.91 382.94,219.7 394.24,219.7 		"/>
		<path class="st9" d="M359.05,197.66l-43.59,15.59c0,0,13.69,16.22,2.91,67.38c-3.78,17.95-2.91,94.21-2.91,94.21
			s57.81,6.86,81.52,7.27c23.71,0.42,43.25-6.65,43.25-6.65s-1.71-99.51,0-110.63c1.71-11.12-3.88-57.42-3.88-57.42l-37.15-9.43
			c0,0-2.5,25.25-21.29,20.68C359.13,214.09,359.05,197.66,359.05,197.66z"/>
		<path class="st10" d="M463.02,422.23l13.79,6.97l-13.79,27.06c-0.15-1.03-48.36-2.32-50.66-2.41
			c-49.81-1.65-99.25,1.19-146.97-15.86c-17.49-6.22-37.37-13.19-49.54-28.04c-0.99-1.23-1.88-2.5-2.71-3.82
			c-5.68-9.4-6.47-21.25-2.68-31.66c10.5-29.06,53.63-20.97,76.34-16.29C330.06,367.13,463.02,422.23,463.02,422.23z"/>
		<linearGradient id="SVGID_5_" gradientUnits="userSpaceOnUse" x1="264.3342" y1="434.9812" x2="294.8152" y2="434.9812">
			<stop  offset="0" style="stop-color:#FFDFCC"/>
			<stop  offset="0.229" style="stop-color:#FFD1B8"/>
			<stop  offset="1" style="stop-color:#FFA473"/>
		</linearGradient>
		<polygon class="st11" points="275.74,422.05 291.22,417.34 294.82,447.87 264.45,452.63 264.33,425.92 		"/>
		<path class="st5" d="M282.14,452.58c0,0-4.93-0.33-10.28,5.1c-5.35,5.43-7.82,25.2-24.45,17.05
			c-15.27-7.46-22.88-22.65-22.5-38.88c-0.01-1.45,0.09-2.89,0.26-4.34c1.89-17.82,16.31-16.54,22.96-12.94
			c6.65,3.6,25.17,3.51,25.17,3.51c-1.82,15.81-1.36,20.57,3.64,27.49C278.95,452.36,282.14,452.58,282.14,452.58z"/>
		<path class="st3" d="M282.14,452.58c0,0-4.93-0.33-10.28,5.1c-5.35,5.43-7.82,25.2-24.45,17.05
			c-15.27-7.46-22.88-22.65-22.5-38.88c5.39,18.1,23.57,35.6,31.56,31.62c5.91-2.95,15.04-12.98,20.47-17.9
			C279.7,451.62,282.14,452.58,282.14,452.58z"/>
		<path class="st12" d="M526.83,415.97c-12.78,14.34-32.93,20.47-50.62,25.98c-48.38,15.06-97.69,10.18-147.53,9.77
			c-2.3-0.01-37.86-1.36-38.06-0.34l-15.43,1.42l-8.55-29.54c0,0,147.89-54.78,191.44-61.94c13.49-2.19,34.09-5.3,50.65-1.45
			c11.53,2.72,21.15,8.79,24.99,20.89C537.53,392.81,535.3,406.45,526.83,415.97z"/>
		<g>
			<linearGradient id="SVGID_6_" gradientUnits="userSpaceOnUse" x1="453.0707" y1="248.2187" x2="307.8795" y2="382.4333">
				<stop  offset="0" style="stop-color:#DCE4EA"/>
				<stop  offset="1" style="stop-color:#FFFFFF"/>
			</linearGradient>
			<path class="st13" d="M440.81,383.93h-134.4c-2.64,0-4.93-1.82-5.51-4.4l-17.56-96.98c-0.81-3.54,1.88-6.91,5.51-6.91h171.87
				c3.73,0,6.44,3.55,5.45,7.15l-19.9,96.98C445.59,382.23,443.35,383.93,440.81,383.93z"/>
			<circle class="st14" cx="375.46" cy="329.79" r="10.23"/>
			<linearGradient id="SVGID_7_" gradientUnits="userSpaceOnUse" x1="308.731" y1="329.7896" x2="390.1468" y2="329.7896">
				<stop  offset="0" style="stop-color:#FFFFFF"/>
				<stop  offset="1" style="stop-color:#F4F6F9"/>
			</linearGradient>
			<polygon class="st15" points="325.41,383.93 308.73,383.93 373.47,275.65 390.15,275.65 			"/>
			<linearGradient id="SVGID_8_" gradientUnits="userSpaceOnUse" x1="334.8641" y1="329.7896" x2="431.7032" y2="329.7896">
				<stop  offset="0" style="stop-color:#FFFFFF"/>
				<stop  offset="1" style="stop-color:#F4F6F9"/>
			</linearGradient>
			<polygon class="st16" points="366.97,383.93 334.86,383.93 399.6,275.65 431.7,275.65 			"/>
		</g>
		<path class="st1" d="M377.85,212.94l-16.01,23.08c0,0-10.05-34.71-9.15-37.85c0.9-3.14,6.65-5.35,6.65-5.35
			S366.07,209.96,377.85,212.94z"/>
		<path class="st1" d="M384.07,212.91l16.54,20.62c0,0,6.18-33.48,5.28-36.62s-6.94-3.62-6.94-3.62S395.85,209.92,384.07,212.91z"/>
		<path class="st17" d="M278.54,193.7c0.95-4.1,1.95-8.09,5.46-11.41c4.39-4.15,7.31-10.17,1.56-10.08
			c-2.29,0.03-5.94,1.88-10.1,5.47c0.52-0.39-8.96-10.26-9.66-10.99c-2.82-2.91-6.48-6.8-9.15-10c-1-1.2-2.23-2.09-3.34-3.17
			c-0.88-0.86-1.59-1.27-2.6-0.37c-0.77,0.68-0.92,2.95-1.07,3.99c-0.49,3.37,2.79,6.22,4.73,8.55c0.96,1.15,1.81,2.36,2.41,3.73
			c0.67,1.52,0.82,4.68,0.82,4.68l-11.38,9.48c-2.32,2.85-0.08,8.71,2.19,11.61c1.19,1.52,2.29,2.93,2.67,3.46
			c1,1.35,7.35,11.56,7.35,11.56l18.42-3.67l2.53-0.77C279.63,205.29,278.47,199.66,278.54,193.7z"/>
		<g>
			<path class="st18" d="M325.93,118.99c-3.05,0.06-6.11-0.27-9.09-0.99c0.25,5,2.31,9.89,5.7,13.46c1.08,1.14,2.28,2.15,3.54,3.06
				c2.54,1.85,5.62,3.38,8.66,2.7c0.47-0.11,0.95-0.27,1.33-0.58c0.54-0.45,0.84-1.15,0.98-1.85c0.58-2.81-0.93-5.73-0.45-8.55
				c0.2-1.14,0.71-2.33,0.29-3.4c-0.63-1.61-2.72-1.71-4.39-1.89C330,120.7,327.64,119.69,325.93,118.99z"/>
			<path class="st18" d="M352.75,105.74l-0.28-0.35c3.09-2.65,6-5.58,8.64-8.7l0.26-0.31c1.23-1.46,2.51-2.98,4.24-3.78
				c2.32-1.07,5.28-0.75,8.12,0.89l-0.22,0.4c-2.72-1.57-5.53-1.89-7.72-0.87c-1.64,0.76-2.89,2.24-4.09,3.67l-0.26,0.31
				C358.79,100.14,355.86,103.08,352.75,105.74z"/>
			
				<linearGradient id="SVGID_9_" gradientUnits="userSpaceOnUse" x1="346.5544" y1="188.2016" x2="416.0322" y2="188.2016" gradientTransform="matrix(1 7.823486e-03 -7.823486e-03 1 -11.8537 -42.7953)">
				<stop  offset="0" style="stop-color:#FFDFCC"/>
				<stop  offset="1" style="stop-color:#FFA473"/>
			</linearGradient>
			<path class="st19" d="M334.37,120.11c-2.38,20.47-0.96,40.71,6.19,61.11c0.94,2.68,2.68,6.22,5.13,7.5
				c1.38,0.72,2.99,0.77,4.53,0.73c12.49-0.38,22.63-7.14,30.39-17.28c0.93-1.21,1.83-2.51,3.09-3.34c3.32-2.2,8.24-0.68,10.87-3.65
				c3.61-5.35,7.34-10.99,8.03-17.47c0.8-7.55-2.66-14.85-6.45-21.36c-4.49-7.74-10.21-15.61-18.58-18.19
				c-4.77-1.47-9.88-1.03-14.79-0.19C352.23,109.76,341.66,113.57,334.37,120.11z"/>
			<g>
				<g>
					<g>
						<path class="st18" d="M403.07,94.96c-0.12-1.09-0.28-2.18-0.52-3.26C402.74,92.79,402.91,93.87,403.07,94.96z"/>
						<path class="st18" d="M406.76,106.06c-1.03,0.62-1.98,1.4-2.78,2.32c0.03-4.49-0.28-8.98-0.91-13.42
							c0.61,5.4-0.14,10.96-2.21,15.95c-0.52,0.05,0.37,0.62,1.27,1.19c0.49,0.31,1.21,0.6,1.58,0.14c0.03-0.03,0.04-0.07,0.07-0.11
							c0.33,0.32,0.76,0.55,1.18,0.41c0.51-0.17,0.74-0.77,0.93-1.28c1.19-3.18,3.57-5.87,6.53-7.37
							C410.44,104.37,408.5,105.01,406.76,106.06z"/>
					</g>
				</g>
			</g>
			<path class="st18" d="M413.74,130.38c-0.41,7.29-4.1,14.6-6.24,21.56c-2.14,6.96-10.8,17.2-10.84,16.28
				c-0.01-0.45,1.49-5.19,2.11-7.12c1.6-4.28,1.4-8.49,0.83-12.5c-0.35-2.44-1.07-5.2-3.22-6.28c-1.13-0.57-2.46-0.54-3.69-0.27
				c-4.55,0.99-8.18,5.39-8.42,10.19c-1.57-0.18-2.45,0.07-3.35,0.21c-0.26,0.04-0.53,0.07-0.76-0.04c-0.55-0.24-0.61-1-0.62-1.61
				c-0.04-3.25-0.82-6.43-1.59-9.58c-0.3-1.21-0.6-2.44-1.29-3.46c-0.69-1.02-1.86-1.79-3.05-1.62c-0.82,0.11-1.74,0.62-2.39,0.1
				c-0.24-0.19-0.38-0.49-0.51-0.78c-1.91-4.27-3.83-8.54-5.74-12.81c-0.11-0.25-0.22-0.5-0.33-0.75
				c-9.67-1.81-18.88,1.59-27.02,6.29c-5.03,0.63-8.64-1.98-11.34-4.94c-1.87-2.06-3.52-4.4-4.47-7.05
				c-1.04-2.89-1.63-6.44-0.88-9.43c9.54,1.38,14.47,0.82,20.8-2.36c3.7-1.86,8.25-6.14,18.59-7.87c3.17-0.53,9.48-1.17,9.52-4.48
				c5.17-0.15,10.94,1.76,16.41,2.64c2.47,0.39,4.98,0.81,7.23,1.92c5.01,2.48,7.86,7.93,10.38,13.04c0.54,0.1,1.07,0.26,1.59,0.46
				c3.16,1.25,5.89,4.28,7.15,7.67C414.08,121.77,413.97,126.15,413.74,130.38z"/>
			<path class="st18" d="M328.88,112.43c-1.99-0.02-4.24-0.94-6.7-2.75l0.26-0.37c2.88,2.12,5.43,2.98,7.59,2.56
				c1.69-0.33,3.16-1.45,4.35-3.32c0.4-0.63,0.78-1.28,1.15-1.92c0.78-1.35,1.58-2.74,2.62-3.93c2.04-2.34,4.96-3.75,8-3.89
				c3.04-0.12,6.07,1.02,8.29,3.16l-0.3,0.33c-2.14-2.06-5.05-3.17-7.97-3.04c-2.93,0.13-5.73,1.49-7.69,3.74
				c-1.01,1.16-1.8,2.53-2.57,3.86c-0.37,0.64-0.75,1.3-1.16,1.94c-1.26,1.98-2.82,3.17-4.64,3.52
				C329.71,112.4,329.3,112.44,328.88,112.43z"/>
			<path class="st18" d="M330.32,125.02c-2.59-0.02-5.11-1.19-6.67-2.09c-1.96-1.13-3.33-2.26-4.33-3.56
				c-2.46-3.2-2.76-7.61-2.99-11.16l0.44-0.03c0.28,4.28,0.7,8.05,2.9,10.91c0.96,1.25,2.3,2.34,4.2,3.44
				c2.23,1.29,6.48,3.15,9.92,1.16l0.22,0.4C332.82,124.77,331.56,125.03,330.32,125.02z"/>
			<path class="st18" d="M402.32,113.42l-0.44-0.06c0.36-2.67,0.72-5.43,0.41-8.13c-0.35-3.01-1.55-5.5-3.37-7.04
				c-1.13-0.95-2.63-1.63-4.45-2.03c-1.59-0.35-3.06-0.4-4.37-0.16c-1.42,0.26-2.8,0.89-4.13,1.49c-1.87,0.85-3.81,1.73-5.88,1.61
				l0.02-0.46c1.97,0.12,3.77-0.71,5.67-1.57c1.36-0.62,2.76-1.26,4.23-1.52c1.36-0.25,2.89-0.19,4.53,0.17
				c1.89,0.41,3.45,1.13,4.63,2.13c1.91,1.61,3.17,4.21,3.53,7.34C403.05,107.94,402.68,110.73,402.32,113.42z"/>
			<path class="st18" d="M412.57,135.09l-0.44-0.02c0.13-3.26,1.05-6.44,1.93-9.52c0.34-1.18,0.69-2.4,0.99-3.6
				c0.39-1.55,0.72-3.22,0.55-4.85c-0.27-2.43-1.71-4.67-3.78-5.85c-2.07-1.19-4.67-1.27-6.81-0.21l-0.19-0.41
				c2.26-1.12,5.02-1.03,7.21,0.23c2.19,1.25,3.72,3.63,4,6.2c0.19,1.71-0.16,3.42-0.56,5.02c-0.3,1.21-0.66,2.43-1,3.61
				C413.6,128.73,412.7,131.89,412.57,135.09z"/>
			
				<linearGradient id="SVGID_10_" gradientUnits="userSpaceOnUse" x1="401.0385" y1="146.5978" x2="405.577" y2="196.3241" gradientTransform="matrix(1 7.823486e-03 -7.823486e-03 1 -11.8537 -42.7953)">
				<stop  offset="0" style="stop-color:#2B1504"/>
				<stop  offset="0.1384" style="stop-color:#2F1806"/>
				<stop  offset="0.2803" style="stop-color:#3B200D"/>
				<stop  offset="0.4239" style="stop-color:#502F19"/>
				<stop  offset="0.5686" style="stop-color:#6D4329"/>
				<stop  offset="0.7143" style="stop-color:#925D3E"/>
				<stop  offset="0.8586" style="stop-color:#BF7C57"/>
				<stop  offset="1" style="stop-color:#F2A074"/>
			</linearGradient>
			<path class="st20" d="M413.74,130.38c-0.41,7.29-2.37,14.34-4.51,21.3c-2.14,6.96-8.47,16.54-13.91,21.2
				c-1.05-3.23-1.1-6.4-1.13-7.32c0.39-0.4,2-2.59,2.76-4.48c1.6-4.28,3.23-8.48,2.66-12.49c-0.35-2.44-1.07-5.2-3.22-6.28
				c-1.13-0.57-2.46-0.54-3.69-0.27c-4.55,0.99-8.18,5.39-8.42,10.19c-1.57-0.18-2.45,0.07-3.35,0.21
				c-0.26,0.04-0.53,0.07-0.76-0.04c-0.55-0.24-0.61-1-0.62-1.61c-0.04-3.25-0.82-6.43-1.59-9.58c-0.3-1.21-0.6-2.44-1.29-3.46
				c-0.69-1.02-1.86-1.79-3.05-1.62c-0.82,0.11-1.74,0.62-2.39,0.1c-0.24-0.19-0.38-0.49-0.51-0.78c-1.91-4.27-3.83-8.54-5.74-12.81
				c3.89-0.02,26.92-0.6,39.34-11.56c0.38-0.34,0.76-0.66,1.14-0.95c3.16,1.25,5.89,4.28,7.15,7.67
				C414.08,121.77,413.97,126.15,413.74,130.38z"/>
			<g>
				
					<linearGradient id="SVGID_11_" gradientUnits="userSpaceOnUse" x1="-537.8331" y1="174.4226" x2="-550.2354" y2="169.7283" gradientTransform="matrix(0.9944 0.1054 -0.1054 0.9944 952.3601 40.4459)">
					<stop  offset="0" style="stop-color:#FFC5A3"/>
					<stop  offset="1" style="stop-color:#F07E3C"/>
				</linearGradient>
				<path class="st21" d="M388.75,149.18c0.93-1.68,2.19-3.48,4.1-3.73c0.38-0.05,0.77-0.03,1.12,0.12
					c0.81,0.36,1.16,1.31,1.31,2.18c0.65,3.64-0.54,7.34-1.75,10.83c-0.28,0.8-0.57,1.62-1.13,2.27c-0.56,0.64-1.44,1.07-2.26,0.85
					c-0.77-0.21-1.3-0.94-1.5-1.71c-0.2-0.77-0.13-1.58-0.05-2.37C388.87,154.59,389.15,151.56,388.75,149.18z"/>
				<ellipse transform="matrix(0.0421 -0.9991 0.9991 0.0421 200.3159 500.0996)" cx="360.96" cy="145.59" rx="3.55" ry="2.67"/>
				<path d="M357,136.75c-0.24,0.31-0.48,0.78-0.32,1.14c0.47,1.05,2.26,0.07,3.38-0.22c2.43-0.64,5.04-0.6,7.44,0.13
					c-0.5-0.7-1.36-1.04-2.18-1.29c-1.4-0.44-2.85-0.74-4.31-0.9c-0.79-0.09-1.61-0.13-2.36,0.13
					C357.89,135.99,357.15,136.55,357,136.75z"/>
				<path d="M343.23,138.39c0.21,0.27,0.42,0.67,0.29,0.98c-0.4,0.92-1.96,0.09-2.93-0.15c-2.11-0.53-4.37-0.46-6.45,0.21
					c0.42-0.61,1.16-0.92,1.87-1.15c1.21-0.4,2.46-0.68,3.73-0.84c0.68-0.09,1.39-0.14,2.05,0.08
					C342.44,137.74,343.09,138.21,343.23,138.39z"/>
				<ellipse transform="matrix(0.0421 -0.9991 0.9991 0.0421 178.8392 478.8423)" cx="339.13" cy="146.16" rx="3.21" ry="2.57"/>
				
					<linearGradient id="SVGID_12_" gradientUnits="userSpaceOnUse" x1="-570.6608" y1="108.8923" x2="-586.3391" y2="122.5783" gradientTransform="matrix(0.9991 0.0421 -0.0421 0.9991 935.3992 64.3522)">
					<stop  offset="0" style="stop-color:#FAA878"/>
					<stop  offset="1" style="stop-color:#F07E3C"/>
				</linearGradient>
				<path class="st22" d="M350.68,149.95c0,0-4.54,10.38-4.51,11.99c0.03,1.61,6.08,1.14,6.08,1.14L350.68,149.95z"/>
				<path class="st14" d="M349.94,171.3c2.22-0.27,4.49-0.11,6.72-0.49c3.01-0.51,5.45-0.9,7.17-2.5c-0.37,4.6-6.46,8.58-10.69,9.67
					c-0.64,0.16-1.31,0.26-1.95,0.09c-0.64-0.17-1.64-4.65-1.79-5.33C349.24,172.05,349.66,171.33,349.94,171.3z"/>
			</g>
		</g>
	</g>
	<g>
		<path class="st23" d="M310.8,344.05H133.4c-7.59,0-13.73-6.15-13.73-13.73v-32.68c0-7.59,6.15-13.73,13.73-13.73h177.4
			c7.59,0,13.73,6.15,13.73,13.73v32.68C324.53,337.9,318.38,344.05,310.8,344.05z"/>
		<path class="st1" d="M254.12,310.15h-74.24c-2.06,0-3.73-1.67-3.73-3.73l0,0c0-2.06,1.67-3.73,3.73-3.73h74.24
			c2.06,0,3.73,1.67,3.73,3.73l0,0C257.85,308.48,256.18,310.15,254.12,310.15z"/>
		<path class="st1" d="M297.48,325.27h-117.6c-2.06,0-3.73-1.67-3.73-3.73v0c0-2.06,1.67-3.73,3.73-3.73h117.6
			c2.06,0,3.73,1.67,3.73,3.73v0C301.21,323.6,299.54,325.27,297.48,325.27z"/>
		<g>
			<path class="st1" d="M143.52,325.56l-9.72-9.72c-1.22-1.22-1.22-3.2,0-4.41c1.22-1.22,3.2-1.22,4.41,0l5.31,5.31l13.43-13.42
				c1.22-1.22,3.2-1.22,4.41,0c1.22,1.22,1.22,3.2,0,4.41L143.52,325.56z"/>
		</g>
	</g>
	<g>
		<path class="st23" d="M617.08,356.91H442.5c-7.59,0-13.73-6.15-13.73-13.73v-31.85c0-7.59,6.15-13.73,13.73-13.73h174.58
			c7.59,0,13.73,6.15,13.73,13.73v31.85C630.82,350.76,624.67,356.91,617.08,356.91z"/>
		<path class="st1" d="M561.37,323.47h-73.22c-2.03,0-3.68-1.65-3.68-3.68v0c0-2.03,1.65-3.68,3.68-3.68h73.22
			c2.03,0,3.68,1.65,3.68,3.68v0C565.05,321.82,563.41,323.47,561.37,323.47z"/>
		<path class="st1" d="M604.14,338.39H488.16c-2.03,0-3.68-1.65-3.68-3.68l0,0c0-2.03,1.65-3.68,3.68-3.68h115.98
			c2.03,0,3.68,1.65,3.68,3.68l0,0C607.81,336.74,606.17,338.39,604.14,338.39z"/>
		<g>
			<path class="st1" d="M454.73,339.53l-10.31-10.31c-1.29-1.29-1.29-3.39,0-4.68s3.39-1.29,4.68,0l5.63,5.63l14.23-14.23
				c1.29-1.29,3.39-1.29,4.68,0c1.29,1.29,1.29,3.39,0,4.68L454.73,339.53z"/>
		</g>
	</g>
	<g>
		<path class="st23" d="M652.34,224.51H477.76c-7.59,0-13.73-6.15-13.73-13.73v-31.85c0-7.59,6.15-13.73,13.73-13.73h174.58
			c7.59,0,13.73,6.15,13.73,13.73v31.85C666.08,218.36,659.93,224.51,652.34,224.51z"/>
		<path class="st1" d="M596.63,191.07h-73.22c-2.03,0-3.68-1.65-3.68-3.68v0c0-2.03,1.65-3.68,3.68-3.68h73.22
			c2.03,0,3.68,1.65,3.68,3.68v0C600.31,189.42,598.67,191.07,596.63,191.07z"/>
		<path class="st1" d="M639.39,205.99H523.42c-2.03,0-3.68-1.65-3.68-3.68l0,0c0-2.03,1.65-3.68,3.68-3.68h115.98
			c2.03,0,3.68,1.65,3.68,3.68l0,0C643.07,204.34,641.43,205.99,639.39,205.99z"/>
		<g>
			<path class="st1" d="M489.99,207.13l-10.31-10.31c-1.29-1.29-1.29-3.39,0-4.68c1.29-1.29,3.39-1.29,4.68,0l5.63,5.63l14.23-14.23
				c1.29-1.29,3.39-1.29,4.68,0c1.29,1.29,1.29,3.39,0,4.68L489.99,207.13z"/>
		</g>
	</g>
	<g>
		<path class="st23" d="M272.24,189.56H97.66c-7.59,0-13.73-6.15-13.73-13.73v-31.85c0-7.59,6.15-13.73,13.73-13.73h174.58
			c7.59,0,13.73,6.15,13.73,13.73v31.85C285.97,183.42,279.82,189.56,272.24,189.56z"/>
		<path class="st1" d="M216.53,156.13h-73.22c-2.03,0-3.68-1.65-3.68-3.68l0,0c0-2.03,1.65-3.68,3.68-3.68h73.22
			c2.03,0,3.68,1.65,3.68,3.68l0,0C220.21,154.48,218.56,156.13,216.53,156.13z"/>
		<path class="st1" d="M259.29,171.04H143.31c-2.03,0-3.68-1.65-3.68-3.68v0c0-2.03,1.65-3.68,3.68-3.68h115.98
			c2.03,0,3.68,1.65,3.68,3.68v0C262.97,169.4,261.32,171.04,259.29,171.04z"/>
		<g>
			<path class="st1" d="M109.89,172.19l-10.31-10.31c-1.29-1.29-1.29-3.39,0-4.68c1.29-1.29,3.39-1.29,4.68,0l5.63,5.63l14.23-14.23
				c1.29-1.29,3.39-1.29,4.68,0c1.29,1.29,1.29,3.39,0,4.68L109.89,172.19z"/>
		</g>
	</g>
	<g>
		<path class="st23" d="M462.73,77.59H288.15c-7.59,0-13.73-6.15-13.73-13.73V32.01c0-7.59,6.15-13.73,13.73-13.73h174.58
			c7.59,0,13.73,6.15,13.73,13.73v31.85C476.46,71.44,470.31,77.59,462.73,77.59z"/>
		<path class="st1" d="M407.02,44.15H333.8c-2.03,0-3.68-1.65-3.68-3.68v0c0-2.03,1.65-3.68,3.68-3.68h73.22
			c2.03,0,3.68,1.65,3.68,3.68v0C410.7,42.5,409.05,44.15,407.02,44.15z"/>
		<path class="st1" d="M449.78,59.07H333.8c-2.03,0-3.68-1.65-3.68-3.68v0c0-2.03,1.65-3.68,3.68-3.68h115.98
			c2.03,0,3.68,1.65,3.68,3.68v0C453.46,57.42,451.81,59.07,449.78,59.07z"/>
		<g>
			<path class="st1" d="M300.38,60.21L290.07,49.9c-1.29-1.29-1.29-3.39,0-4.68c1.29-1.29,3.39-1.29,4.68,0l5.63,5.63l14.23-14.23
				c1.29-1.29,3.39-1.29,4.68,0s1.29,3.39,0,4.68L300.38,60.21z"/>
		</g>
	</g>
</g>
</svg>
