<?xml version="1.0" encoding="utf-8"?>
<!-- Generator: Adobe Illustrator 25.2.1, SVG Export Plug-In . SVG Version: 6.00 Build 0)  -->
<svg version="1.1" id="Layer_1" xmlns="http://www.w3.org/2000/svg" xmlns:xlink="http://www.w3.org/1999/xlink" x="0px" y="0px"
	 viewBox="0 0 750 500" style="enable-background:new 0 0 750 500;" xml:space="preserve">
<style type="text/css">
	.st0{fill:#871520;}
	.st1{fill:#E9EFF4;}
	.st2{fill:#DCE4EA;}
	.st3{fill:url(#SVGID_1_);}
	.st4{fill:#193E6D;}
	.st5{fill:#603813;}
	.st6{fill:#2B1504;}
	.st7{fill:#422309;}
	.st8{fill:url(#SVGID_2_);}
	.st9{fill:url(#SVGID_3_);}
	.st10{fill:url(#SVGID_4_);}
	.st11{fill:#F07E3C;}
	.st12{fill:#FFFFFF;}
	.st13{fill:none;}
	.st14{fill:#46AEEC;}
	.st15{fill:url(#SVGID_5_);}
	.st16{fill:#89D2F7;}
	.st17{fill:#2A3330;}
	.st18{fill:url(#SVGID_6_);}
	.st19{fill:#38A8E0;}
	.st20{fill:#5EC198;}
	.st21{fill:#4EAF82;}
	.st22{fill:url(#SVGID_7_);}
	.st23{fill:#AD9FE9;}
	.st24{fill:url(#SVGID_8_);}
	.st25{fill:url(#SVGID_9_);}
	.st26{fill:url(#SVGID_10_);}
	.st27{opacity:0.35;fill:#FFFFFF;}
	.st28{fill:url(#SVGID_11_);}
</style>
<g>
	<g>
		<rect x="609.11" y="352.86" class="st0" width="9.96" height="73.1"/>
		<rect x="479.53" y="352.86" class="st0" width="9.96" height="73.1"/>
		<path class="st1" d="M655.7,287.61c0,0-15.93,63.72-15.93,101.8s-3,55.33-12.04,58.89s-67.14-51.62-67.14-51.62
			s37.54-76.14,37.31-82.48s10.25-50.09,10.25-50.09L655.7,287.61z"/>
		<path class="st1" d="M622.03,295.97c0,0-17.24,116.86-7.93,141.41c9.3,24.55-4.98,0-4.98,0l-129.58-11.42
			c0,0-21.62-104.51,4.98-150.74c26.6-46.23,57.01-53.48,57.01-53.48L622.03,295.97z"/>
		<g>
			<path class="st2" d="M622.03,295.97l-60.7,2.32h-47.08h-15.59c-18.47,0-28.43-9.96-23.79-23.81l25.78-77.06
				c1.96-5.85,11.07-11.31,18.87-11.31h139.91c1.1,0,2.21,0.04,3.19,0.14c1.78,0.16,3.4,0.47,4.89,0.9
				c8.61,2.43,12.55,8.92,9.53,17.23l-26.99,74.19C646.92,287.24,633.88,295.32,622.03,295.97L622.03,295.97z"/>
			<path class="st1" d="M655.7,287.61c-1.29,3.55-6.64,6.88-11.52,7.15l0,0l-22.16,1.21l32.99-98.59c1.45-4.28,6.72-8.37,12.5-10.22
				c1.33-0.43,2.67-0.74,4.01-0.9c11.95,1.11,17.98,8.39,14.45,18.14L655.7,287.61z"/>
		</g>
	</g>
	<g>
		
			<linearGradient id="SVGID_1_" gradientUnits="userSpaceOnUse" x1="239.6818" y1="323.4275" x2="424.05" y2="323.4275" gradientTransform="matrix(0.998 -0.0625 0.0625 0.998 -10.3651 21.0743)">
			<stop  offset="0" style="stop-color:#FFC5A3"/>
			<stop  offset="0.163" style="stop-color:#FCB68E"/>
			<stop  offset="0.5381" style="stop-color:#F59861"/>
			<stop  offset="0.8296" style="stop-color:#F18546"/>
			<stop  offset="1" style="stop-color:#F07E3C"/>
		</linearGradient>
		<path class="st3" d="M252.21,377.87c-1.04,22.27,44.09,0.83,59.65,1.01c2.44,0.04,4.44-0.09,5.91-0.32
			c34.49-5.89,97.81-29.53,108.86-47c8.57-13.64,3.83-67.27,0.6-73.91c-0.27-0.51-8.66,7.21-8.66,7.21l-34.91,15.17l2.47,39.47
			L319,355.52l-29.9-8.65C289.1,346.88,252.57,370.02,252.21,377.87z"/>
		<path class="st4" d="M376.44,300.04c-1.92,15.21-14.4,24.22-20.01,26.99c-25.72,14-43.24,19.83-51.03,22.21
			c2.69,9.12,7.85,35.87,11.12,35.24c14.75-2.87,91.95-13.53,105.89-32.87c15.36-21.3,9.05-67.51,9.05-67.51
			c-10.27-93.41-10.41-76.18-10.41-76.18c-13.97-9.95-23.11,1.94-23.11,1.94C379.55,238.98,376.44,300.04,376.44,300.04z"/>
		<path class="st5" d="M402.4,82.59l3.09-1.21c0,0,8.17,1.26,8.69,4.95c0.52,3.69-2.69,4.9-0.61,6.64c2.08,1.74,7.35,0.91,8.05,5.01
			c0.71,4.1-3.87,6.21-3.87,6.21s3.53-4.27,0.84-6.02c-2.69-1.75-8.03-3.08-8.67-6.45c-0.64-3.37,2.19-5.74-2.64-6.2
			C402.45,85.07,402.4,82.59,402.4,82.59z"/>
		<path class="st6" d="M500.11,58.14c15,9.56,12.42,61.52,25.8,82.66c7.31,11.55,11.17,24.88,17.87,36.8
			c0.43,0.76,0.86,1.57,0.8,2.44c-0.2,3.06-4.8,2.52-7.72,1.6c-14.39-4.5-30.21,6.85-43.64,3.35c-20.14-3.9-41.06-1.35-60.89,3.9
			c-5.9,1.56-13.57,2.75-16.9-2.37c-3.25-5,0.66-11.35,3.54-16.57c8.18-14.84,8.03-32.8,6.17-49.65
			c-1.21-10.99-15.95-37.46-10.94-47.32c5.74-11.28,10.2-16.77,22.15-20.94C455.69,45.31,487.73,48.14,500.11,58.14z"/>
		<path class="st7" d="M426.16,205.06c0.11-2.8,1.72-5.12,2.94-7.58c0.61-1.24,1.1-2.6,1.2-4.06c0.11-1.49-0.39-2.89-0.76-4.17
			c-0.37-1.29-0.67-2.6-0.18-3.63c0.44-1.06,1.65-1.63,2.87-2.29c0.61-0.34,1.26-0.71,1.82-1.25c0.58-0.54,0.99-1.23,1.26-1.94
			c0.53-1.44,0.56-2.91,0.56-4.29c-0.03-1.37-0.04-2.79-0.34-4.22c-0.3-1.46-0.97-2.71-1.34-3.95c-0.4-1.22-0.37-2.48-0.02-3.72
			c0.36-1.24,0.97-2.44,1.6-3.65c1.35-2.38,2.51-5,3.11-7.71c0.59-2.71,0.77-5.52,0.44-8.25c0.11,5.51-1.48,10.89-4.45,15.45
			c-0.7,1.19-1.4,2.43-1.81,3.83c-0.43,1.38-0.48,2.99-0.04,4.39c0.41,1.4,1.03,2.61,1.26,3.86c0.25,1.26,0.25,2.61,0.26,3.98
			c0.02,1.35-0.01,2.68-0.42,3.84c-0.39,1.18-1.28,1.94-2.48,2.58c-0.58,0.33-1.22,0.65-1.82,1.09c-0.6,0.43-1.19,1.03-1.51,1.79
			c-0.33,0.74-0.4,1.57-0.29,2.31c0.1,0.74,0.32,1.43,0.54,2.09c0.44,1.32,0.94,2.56,0.89,3.84c-0.03,1.29-0.43,2.58-0.96,3.83
			C427.51,199.7,425.96,202.24,426.16,205.06z"/>
		<path class="st7" d="M501.11,64.7c2.03,1.84,2.96,4.68,2.53,7.24c-0.1,0.64-0.35,1.26-0.48,1.99c-0.16,0.72-0.05,1.61,0.33,2.27
			c0.72,1.35,1.85,2.23,2.13,3.32c0.33,1.07,0.01,2.34-0.3,3.67c-0.15,0.67-0.3,1.39-0.33,2.16c-0.04,0.76,0.11,1.65,0.48,2.38
			c0.35,0.71,0.76,1.27,1.01,1.78c0.25,0.53,0.3,0.86,0.17,1.31c-0.13,0.48-0.48,1.04-0.77,1.81c-0.14,0.38-0.26,0.84-0.26,1.35
			c0,0.51,0.14,1,0.32,1.4c0.36,0.8,0.83,1.35,1.08,1.85c0.28,0.5,0.47,1.06,0.63,1.64c0.3,1.18,0.41,2.49,0.55,3.87
			c0.15,1.37,0.33,2.86,0.95,4.32c0.3,0.72,0.77,1.46,1.14,1.97c0.38,0.55,0.56,0.91,0.66,1.4c0.21,0.98-0.02,2.24-0.18,3.66
			c-0.15,1.41-0.23,2.84-0.12,4.32c0.11,1.46,0.4,2.98,1.09,4.41c0.33,0.72,0.78,1.4,1.31,2c0.53,0.63,1.13,1.1,1.61,1.52
			c0.48,0.42,0.87,0.81,1.06,1.16c0.19,0.34,0.23,0.64,0.17,1.19c-0.06,0.54-0.25,1.21-0.35,2.03c-0.11,0.86,0.03,1.8,0.31,2.59
			c0.58,1.59,1.53,2.71,2.26,3.79c0.74,1.05,1.26,2.11,1.63,3.29c0.36,1.17,0.52,2.41,0.47,3.63c-0.02,0.63-0.1,1.18-0.22,1.87
			c-0.11,0.68-0.27,1.54-0.05,2.5c0.22,0.95,0.78,1.73,1.35,2.29c0.58,0.57,1.18,0.99,1.74,1.39c1.07,0.72,1.97,1.54,2.64,2.53
			c0.66,0.98,0.97,2.08,0.63,2.99c-0.13,0.46-0.5,0.91-0.93,1.5c-0.44,0.57-0.86,1.42-0.97,2.23c-0.24,1.68,0.33,3.12,0.84,4.4
			c0.55,1.3,1.1,2.46,1.42,3.73c1.42,5.06,0.09,10.87-3.47,15.01c4.02-3.74,5.83-9.74,4.74-15.3c-0.26-1.4-0.82-2.74-1.27-3.98
			c-0.44-1.24-0.78-2.51-0.55-3.55c0.12-0.53,0.34-0.94,0.73-1.44c0.37-0.49,0.94-1.08,1.25-1.93c0.33-0.81,0.38-1.73,0.22-2.55
			c-0.16-0.83-0.49-1.56-0.89-2.23c-0.8-1.31-1.93-2.39-3.09-3.23c-1.09-0.79-2-1.59-2.13-2.37c-0.08-0.38-0.02-0.92,0.12-1.56
			c0.14-0.65,0.27-1.45,0.31-2.18c0.09-1.5-0.07-3.01-0.48-4.45c-0.39-1.44-1.1-2.85-1.92-4.04c-0.8-1.16-1.58-2.2-1.93-3.2
			c-0.16-0.5-0.23-0.94-0.16-1.44c0.06-0.53,0.25-1.18,0.36-1.99c0.13-0.79,0.05-1.92-0.45-2.78c-0.47-0.86-1.09-1.42-1.63-1.89
			c-0.55-0.48-1.03-0.85-1.37-1.27c-0.37-0.41-0.69-0.88-0.93-1.4c-0.51-1.03-0.77-2.23-0.87-3.48c-0.11-1.25-0.05-2.54,0.08-3.85
			c0.11-1.27,0.46-2.76,0.08-4.47c-0.17-0.86-0.67-1.71-1.09-2.26c-0.44-0.59-0.71-1.01-0.95-1.54c-0.48-1.04-0.69-2.3-0.86-3.62
			c-0.17-1.33-0.3-2.75-0.72-4.2c-0.23-0.72-0.5-1.45-0.92-2.13c-0.41-0.69-0.85-1.19-1.06-1.63c-0.21-0.44-0.22-0.68-0.06-1.22
			c0.16-0.52,0.53-1.14,0.74-1.99c0.11-0.42,0.14-0.93,0.06-1.4c-0.08-0.47-0.26-0.88-0.45-1.23c-0.38-0.7-0.82-1.22-1.09-1.73
			c-0.55-0.92-0.44-2.13-0.2-3.46c0.21-1.3,0.6-2.83,0.03-4.39c-0.61-1.55-1.88-2.34-2.48-3.38c-0.32-0.51-0.44-1.05-0.36-1.67
			c0.06-0.62,0.27-1.3,0.34-2.02C504.62,69.19,503.33,66.32,501.11,64.7z"/>
		<path class="st7" d="M501.37,89.43c1.78,2.08,2.34,5.02,1.59,7.5c-0.18,0.62-0.5,1.2-0.73,1.91c-0.25,0.69-0.25,1.59,0.04,2.3
			c0.54,1.43,1.55,2.45,1.7,3.56c0.19,1.11-0.29,2.32-0.76,3.61c-0.23,0.65-0.48,1.34-0.6,2.11c-0.13,0.75-0.1,1.65,0.18,2.42
			c0.26,0.75,0.59,1.36,0.77,1.89c0.18,0.56,0.19,0.89,0,1.32c-0.19,0.46-0.61,0.97-0.99,1.7c-0.19,0.36-0.37,0.8-0.43,1.31
			c-0.07,0.5,0.01,1.01,0.14,1.42c0.26,0.84,0.65,1.44,0.84,1.97c0.22,0.53,0.34,1.11,0.42,1.71c0.15,1.21,0.09,2.53,0.06,3.91
			c-0.02,1.38-0.03,2.87,0.4,4.41c0.2,0.76,0.58,1.54,0.88,2.1c0.3,0.6,0.44,0.98,0.48,1.47c0.08,1-0.3,2.22-0.64,3.61
			c-0.32,1.38-0.59,2.79-0.66,4.27c-0.08,1.47,0.03,3.01,0.53,4.52c0.24,0.75,0.6,1.48,1.05,2.15c0.45,0.69,0.99,1.23,1.4,1.71
			c0.43,0.48,0.76,0.91,0.9,1.28c0.14,0.36,0.15,0.66,0.02,1.2c-0.13,0.53-0.4,1.16-0.6,1.97c-0.21,0.83-0.2,1.79-0.02,2.6
			c0.38,1.65,1.18,2.89,1.76,4.05c0.6,1.13,0.98,2.25,1.2,3.47c0.21,1.21,0.21,2.45,0.01,3.66c-0.1,0.62-0.24,1.16-0.46,1.83
			c-0.2,0.67-0.46,1.49-0.37,2.47c0.09,0.97,0.56,1.81,1.05,2.44c0.5,0.64,1.05,1.14,1.56,1.6c0.97,0.85,1.76,1.78,2.3,2.85
			c0.53,1.06,0.7,2.18,0.25,3.05c-0.19,0.44-0.61,0.84-1.12,1.37c-0.51,0.51-1.03,1.3-1.24,2.09c-0.45,1.64-0.07,3.14,0.28,4.47
			c0.38,1.36,0.79,2.58,0.94,3.88c0.77,5.2-1.28,10.8-5.34,14.45c4.46-3.21,7.02-8.93,6.63-14.59c-0.08-1.43-0.47-2.83-0.76-4.11
			c-0.28-1.28-0.46-2.58-0.1-3.59c0.18-0.52,0.45-0.89,0.91-1.33c0.43-0.44,1.07-0.96,1.49-1.76c0.43-0.76,0.6-1.67,0.54-2.5
			c-0.05-0.84-0.29-1.61-0.61-2.32c-0.63-1.4-1.61-2.62-2.65-3.59c-0.99-0.92-1.79-1.83-1.81-2.62c-0.03-0.39,0.1-0.91,0.31-1.54
			c0.22-0.62,0.45-1.4,0.58-2.12c0.28-1.47,0.31-2.99,0.09-4.48c-0.2-1.48-0.73-2.96-1.4-4.25c-0.65-1.25-1.29-2.38-1.51-3.42
			c-0.1-0.52-0.11-0.96,0.02-1.45c0.12-0.52,0.4-1.14,0.61-1.93c0.23-0.77,0.29-1.9-0.1-2.81c-0.36-0.91-0.91-1.55-1.38-2.09
			c-0.48-0.54-0.91-0.98-1.2-1.43c-0.31-0.46-0.57-0.96-0.75-1.51c-0.37-1.08-0.48-2.31-0.42-3.56c0.05-1.25,0.27-2.53,0.56-3.81
			c0.27-1.25,0.8-2.68,0.65-4.42c-0.06-0.87-0.45-1.78-0.79-2.38c-0.36-0.64-0.58-1.09-0.75-1.64c-0.34-1.09-0.39-2.37-0.4-3.7
			c0-1.34,0.05-2.76-0.18-4.26c-0.13-0.74-0.32-1.5-0.65-2.23c-0.32-0.73-0.69-1.28-0.84-1.75c-0.15-0.47-0.13-0.71,0.1-1.22
			c0.22-0.5,0.67-1.06,0.99-1.88c0.16-0.4,0.26-0.91,0.23-1.38c-0.02-0.48-0.15-0.91-0.29-1.28c-0.29-0.74-0.66-1.32-0.86-1.85
			c-0.43-0.98-0.17-2.17,0.24-3.45c0.37-1.26,0.95-2.73,0.59-4.35c-0.41-1.61-1.57-2.56-2.04-3.66c-0.25-0.55-0.3-1.09-0.15-1.7
			c0.14-0.61,0.43-1.25,0.59-1.96C504.29,94.33,503.37,91.31,501.37,89.43z"/>
		<path class="st7" d="M490.4,89.43c1.78,2.08,2.34,5.02,1.59,7.5c-0.18,0.62-0.5,1.2-0.73,1.91c-0.25,0.69-0.25,1.59,0.04,2.3
			c0.54,1.43,1.55,2.45,1.7,3.56c0.19,1.11-0.29,2.32-0.76,3.61c-0.23,0.65-0.48,1.34-0.6,2.11c-0.13,0.75-0.1,1.65,0.18,2.42
			c0.26,0.75,0.59,1.36,0.77,1.89c0.18,0.56,0.19,0.89,0,1.32c-0.19,0.46-0.61,0.97-0.99,1.7c-0.19,0.36-0.37,0.8-0.43,1.31
			c-0.07,0.5,0.01,1.01,0.14,1.42c0.26,0.84,0.65,1.44,0.84,1.97c0.22,0.53,0.34,1.11,0.42,1.71c0.15,1.21,0.09,2.53,0.06,3.91
			c-0.02,1.38-0.03,2.87,0.4,4.41c0.2,0.76,0.58,1.54,0.88,2.1c0.3,0.6,0.44,0.98,0.48,1.47c0.08,1-0.3,2.22-0.64,3.61
			c-0.32,1.38-0.59,2.79-0.66,4.27c-0.08,1.47,0.03,3.01,0.53,4.52c0.24,0.75,0.6,1.48,1.05,2.15c0.45,0.69,0.99,1.23,1.4,1.71
			c0.43,0.48,0.76,0.91,0.9,1.28c0.14,0.36,0.15,0.66,0.02,1.2c-0.13,0.53-0.4,1.16-0.6,1.97c-0.21,0.83-0.2,1.79-0.02,2.6
			c0.38,1.65,1.18,2.89,1.76,4.05c0.6,1.13,0.98,2.25,1.2,3.47c0.21,1.21,0.21,2.45,0.01,3.66c-0.1,0.62-0.24,1.16-0.46,1.83
			c-0.2,0.67-0.46,1.49-0.37,2.47c0.09,0.97,0.56,1.81,1.05,2.44c0.5,0.64,1.05,1.14,1.56,1.6c0.97,0.85,1.76,1.78,2.3,2.85
			c0.53,1.06,0.7,2.18,0.25,3.05c-0.19,0.44-0.61,0.84-1.12,1.37c-0.51,0.51-1.03,1.3-1.24,2.09c-0.45,1.64-0.07,3.14,0.28,4.47
			c0.38,1.36,0.79,2.58,0.94,3.88c0.77,5.2-1.28,10.8-5.34,14.45c4.46-3.21,7.02-8.93,6.63-14.59c-0.08-1.43-0.47-2.83-0.76-4.11
			c-0.28-1.28-0.46-2.58-0.1-3.59c0.18-0.52,0.45-0.89,0.91-1.33c0.43-0.44,1.07-0.96,1.49-1.76c0.43-0.76,0.6-1.67,0.54-2.5
			c-0.05-0.84-0.29-1.61-0.61-2.32c-0.63-1.4-1.61-2.62-2.65-3.59c-0.99-0.92-1.79-1.83-1.81-2.62c-0.03-0.39,0.1-0.91,0.31-1.54
			c0.22-0.62,0.45-1.4,0.58-2.12c0.28-1.47,0.31-2.99,0.09-4.48c-0.2-1.48-0.73-2.96-1.4-4.25c-0.65-1.25-1.29-2.38-1.51-3.42
			c-0.1-0.52-0.11-0.96,0.02-1.45c0.12-0.52,0.39-1.14,0.61-1.93c0.23-0.77,0.29-1.9-0.1-2.81c-0.36-0.91-0.91-1.55-1.38-2.09
			c-0.48-0.54-0.91-0.98-1.2-1.43c-0.31-0.46-0.57-0.96-0.75-1.51c-0.37-1.08-0.48-2.31-0.42-3.56c0.05-1.25,0.27-2.53,0.56-3.81
			c0.27-1.25,0.8-2.68,0.65-4.42c-0.06-0.87-0.45-1.78-0.79-2.38c-0.36-0.64-0.58-1.09-0.75-1.64c-0.34-1.09-0.39-2.37-0.39-3.7
			c0-1.34,0.05-2.76-0.18-4.26c-0.13-0.74-0.32-1.5-0.65-2.23c-0.32-0.73-0.69-1.28-0.84-1.75c-0.15-0.47-0.13-0.71,0.1-1.22
			c0.22-0.5,0.67-1.06,0.99-1.88c0.16-0.4,0.26-0.91,0.23-1.38c-0.02-0.48-0.15-0.91-0.29-1.28c-0.29-0.74-0.66-1.32-0.86-1.85
			c-0.43-0.98-0.17-2.17,0.24-3.45c0.37-1.26,0.95-2.73,0.59-4.35c-0.41-1.61-1.57-2.56-2.04-3.66c-0.25-0.55-0.3-1.09-0.15-1.7
			c0.14-0.61,0.44-1.25,0.59-1.96C493.32,94.33,492.4,91.31,490.4,89.43z"/>
		<g>
			<path class="st6" d="M529.19,122.99c-5.61-4.46-12.18-13.34-14.17-20.22c-0.48-1.66-0.83-3.38-1.18-5.03
				c-0.52-2.48-1.05-5.04-1.99-7.41c-3.69-9.32-12.88-14.95-22.79-20.35l0.4-0.72c10.04,5.48,19.36,11.19,23.16,20.77
				c0.96,2.44,1.51,5.03,2.03,7.54c0.34,1.64,0.7,3.35,1.17,4.97c1.93,6.72,5.76,9.93,10.69,16.79L529.19,122.99z"/>
		</g>
		<g>
			<path class="st6" d="M538.28,168.31c-2.56-2.63-5.2-5.35-7.05-8.63c-2.09-3.71-2.75-7.6-1.86-10.95
				c0.36-1.34,0.97-2.62,1.56-3.85c0.89-1.87,1.74-3.64,1.76-5.59c0.04-3.75-2.89-6.68-5.73-9.52l-0.79-0.79
				c-7.4-7.48-12.3-16.92-17.04-26.04l0.73-0.38c4.71,9.07,9.58,18.46,16.89,25.84l0.79,0.79c2.82,2.82,6.02,6.01,5.98,10.11
				c-0.03,2.13-0.95,4.06-1.84,5.93c-0.57,1.2-1.16,2.44-1.5,3.71c-0.84,3.14-0.2,6.8,1.79,10.33c1.79,3.18,4.4,5.86,6.92,8.46
				L538.28,168.31z"/>
		</g>
		
			<linearGradient id="SVGID_2_" gradientUnits="userSpaceOnUse" x1="-881.683" y1="287.0013" x2="-832.4376" y2="131.5063" gradientTransform="matrix(1 0 0 1 1317.3223 0)">
			<stop  offset="0.2983" style="stop-color:#FFC5A3"/>
			<stop  offset="0.5912" style="stop-color:#F9A97B"/>
			<stop  offset="1" style="stop-color:#F07E3C"/>
		</linearGradient>
		<path class="st8" d="M497.66,196.99c-0.11,4.05-2.78,7.7-6.18,9.91c-3.39,2.22-2.87,29.55-6.86,30.23
			c-14.93,2.54-45.43,18.84-55.14-10.63c-0.36-1.11,3.43-19.88,2.76-20.84c-1.38-1.98,0.18-4.61,1.58-6.56
			c6.73-9.39,10.81-20.64,11.86-32.15c0.53-5.71,0.31-11.5-0.69-17.15c10.9-7.18,23.93-14.91,37.8-20.54
			c-2.2,16.48,2.57,32.76,8.49,48.5c1.47,3.92,3.01,7.81,4.53,11.67C496.76,191.87,497.72,194.39,497.66,196.99z"/>
		<linearGradient id="SVGID_3_" gradientUnits="userSpaceOnUse" x1="466.2146" y1="198.337" x2="469.0882" y2="146.4065">
			<stop  offset="0" style="stop-color:#FFC5A3"/>
			<stop  offset="0.1916" style="stop-color:#FAAE81"/>
			<stop  offset="0.404" style="stop-color:#F69963"/>
			<stop  offset="0.6127" style="stop-color:#F38A4D"/>
			<stop  offset="0.8142" style="stop-color:#F18140"/>
			<stop  offset="1" style="stop-color:#F07E3C"/>
		</linearGradient>
		<path class="st9" d="M445.68,166.96c0.53-5.71,0.31-11.5-0.69-17.15c10.9-7.18,23.93-14.91,37.8-20.54
			c-2.2,16.48,2.57,32.76,8.49,48.5C468.17,176.02,454.11,171.4,445.68,166.96z"/>
		
			<linearGradient id="SVGID_4_" gradientUnits="userSpaceOnUse" x1="1386.2837" y1="158.2835" x2="1415.0995" y2="67.2962" gradientTransform="matrix(-1 0 0 1 1852.587 0)">
			<stop  offset="0" style="stop-color:#FFC5A3"/>
			<stop  offset="0.163" style="stop-color:#FCB68E"/>
			<stop  offset="0.5381" style="stop-color:#F59861"/>
			<stop  offset="0.8296" style="stop-color:#F18546"/>
			<stop  offset="1" style="stop-color:#F07E3C"/>
		</linearGradient>
		<path class="st10" d="M405.74,86.33c0.9,13.14,3.26,26.21,7.02,38.85c1.29,4.51,2.83,8.95,4.55,13.3c0.59,1.65,1.26,3.3,1.92,4.9
			c1.65,3.92,8.48,15.81,11.81,18.52c6.75,5.45,14.24,3.87,20.38,0.52c9.39-5.12,21.88-13.32,26.35-23.09
			c0.75-1.61,1.29-3.34,2.47-4.67c1.06-1.18,2.51-1.84,3.88-2.63c4.75-2.71,8.87-6.91,10.44-12.16c1.57-5.26,0.08-11.54-4.32-14.79
			c-4.39-3.3-11.58-2.39-14.36,2.32c-7.73-8.32-15.54-16.68-24.84-23.19c-9.26-6.55-20.21-11.22-31.55-11.22
			C415.28,77.81,411.08,82.64,405.74,86.33z"/>
		<path class="st6" d="M416.13,68.36c0,0-9.1,6.01-12.24,16.08s-1.48,19.37-1.48,19.37s19.41,0.47,25.77-2.11V90.53l4.58,10.37
			c0,0,17.78,1.94,23.89,0c6.1-1.94,22.24,0,22.24,0s-12.25-14.26-23.13-23.58C439.49,63.4,416.13,68.36,416.13,68.36z"/>
		<g>
			<path class="st6" d="M453.86,104.02c-2.13,0-4.17-0.11-6.02-0.24c-4.37-0.32-8.98-0.89-13.02-2.97
				c-6.17-3.17-10.39-9.97-10.5-16.9l0.82-0.01c0.11,6.64,4.15,13.14,10.06,16.18c3.91,2.01,8.42,2.58,12.7,2.89
				c5.78,0.41,13.27,0.57,20.04-1.99c1.22-0.46,2.43-1.01,3.6-1.54c1.2-0.55,2.43-1.11,3.69-1.58c3.05-1.15,5.67-1.48,7.99-1.04
				l-0.15,0.81c-2.18-0.41-4.64-0.09-7.55,1.01c-1.23,0.46-2.46,1.02-3.64,1.56c-1.18,0.54-2.41,1.1-3.65,1.57
				C463.49,103.52,458.45,104.02,453.86,104.02z"/>
		</g>
		<g>
			<path class="st6" d="M452.11,102.52c-2.57,0-5.18-0.36-7.76-1.08c-5.76-1.61-11.26-5-15.89-9.8c-2.68-2.78-4.43-5.43-5.35-8.1
				l0.78-0.27c0.88,2.56,2.56,5.11,5.16,7.8c4.53,4.69,9.89,8,15.52,9.58c6.11,1.71,12.65,1.27,17.96-1.19
				c1.68-0.78,3.29-1.78,4.85-2.75c0.86-0.53,1.71-1.06,2.58-1.56c4.96-2.85,10.58-4.76,16.25-5.52l0.11,0.82
				c-5.56,0.75-11.08,2.62-15.95,5.42c-0.87,0.5-1.71,1.02-2.56,1.55c-1.58,0.98-3.21,1.99-4.94,2.79
				C459.57,101.74,455.89,102.52,452.11,102.52z"/>
		</g>
		<g>
			<path class="st11" d="M482.07,114c1.05-2.11,2.51-4.37,4.82-4.78c0.46-0.08,0.94-0.08,1.38,0.09c1.01,0.39,1.48,1.54,1.72,2.6
				c0.99,4.42-0.28,9.01-1.59,13.35c-0.3,1-0.62,2.02-1.26,2.83c-0.65,0.81-1.71,1.39-2.72,1.16c-0.95-0.22-1.64-1.08-1.93-2.01
				c-0.29-0.93-0.24-1.92-0.19-2.9C482.49,120.62,482.68,116.89,482.07,114z"/>
			<ellipse cx="446.38" cy="113.54" rx="3.16" ry="4.19"/>
			<path d="M440.35,103.32c-0.26,0.38-0.52,0.94-0.32,1.36c0.61,1.22,2.67-0.02,3.97-0.43c2.83-0.88,5.91-0.96,8.78-0.22
				c-0.62-0.8-1.65-1.16-2.63-1.42c-1.68-0.44-3.4-0.73-5.13-0.85c-0.94-0.07-1.91-0.08-2.78,0.26S440.53,103.07,440.35,103.32z"/>
			<path d="M424.74,104.07c0.3,0.35,0.61,0.89,0.45,1.32c-0.49,1.27-2.66,0.24-3.99-0.04c-2.91-0.6-5.98-0.37-8.76,0.65
				c0.54-0.86,1.53-1.32,2.48-1.67c1.63-0.61,3.31-1.06,5.02-1.35c0.93-0.16,1.89-0.27,2.79-0.01
				C423.64,103.22,424.54,103.83,424.74,104.07z"/>
			<ellipse cx="419.62" cy="114.87" rx="3.49" ry="4.37"/>
			<path class="st11" d="M433.07,119.26c0,0-5.02,12.94-4.9,14.9c0.12,1.97,7.49,1.08,7.49,1.08L433.07,119.26z"/>
			<path class="st12" d="M436.93,143.62c2.39-0.35,4.76-0.96,6.83-2.13c2.06-1.17,3.79-2.94,4.5-5.08c-0.19,4.37-2.7,8.67-7.24,9.86
				c-0.68,0.18-2.37,0.08-3.06-0.06c-0.7-0.14-1.36-0.58-1.55-1.22C436.21,144.37,436.63,143.67,436.93,143.62z"/>
		</g>
		<circle class="st11" cx="460.86" cy="125.94" r="7.1"/>
		<path class="st11" d="M412.77,125.18c1.29,4.51,2.83,8.95,4.55,13.3c2.39-1.1,4.08-3.57,4.08-6.4c0-3.92-3.18-7.1-7.1-7.1
			C413.79,124.98,413.28,125.02,412.77,125.18z"/>
		<path class="st13" d="M496.36,66.11c-0.1-1.2-0.2-2.43-0.66-3.55c-0.46-1.12-1.35-2.13-2.52-2.42c-1.74-0.43-3.96,0.66-5.17-0.67
			c-0.66-0.72-0.61-1.82-0.52-2.79c-1.75-0.03-3.5-0.17-5.23-0.42c-1.03-0.15-2.37-0.8-2.07-1.8c-1.29,0.08-2.58,0.15-3.87,0.23
			c-0.29,0.02-0.62,0.02-0.84-0.18c-0.16-0.15-0.22-0.38-0.3-0.58c-0.62-1.45-2.67-1.36-4.24-1.19c-2.77,0.3-5.6,0.08-8.28-0.65
			c-1.11-0.3-2.45-0.63-3.27,0.17c-0.4,0.39-0.56,0.96-0.86,1.43c-0.77,1.2-2.33,1.59-3.76,1.72c-1.69,0.15-3.4,0.07-5.07-0.25
			c-1.9-0.36-3.83-1.01-5.71-0.55c-1.86,0.45-3.29,1.92-5.03,2.72s-4.35,0.53-4.87-1.31"/>
		<path class="st7" d="M421.65,67.7c-0.39,3.25,1.25,6.61,3.94,8.59c1.34,1.03,3.06,1.48,4.63,1.78c1.55,0.33,3.17,0.72,3.97,1.89
			c0.83,1.1,0.69,2.94,1.8,4.48c1.06,1.48,2.75,2.35,4.46,2.64c1.77,0.33,3.48-0.21,4.94-0.24c0.75-0.02,1.4,0.11,1.99,0.46
			c0.58,0.34,0.97,0.86,0.98,1.39c0.01,0.28-0.06,0.64-0.13,1.07c-0.06,0.42-0.16,0.96,0.12,1.57c0.27,0.61,0.93,0.95,1.39,1.03
			c0.5,0.11,0.9,0.11,1.3,0.14l4.84,0.35c1.62,0.13,3.23,0.16,4.69,0.58c1.46,0.39,2.78,1.23,3.04,2.64
			c0.15,0.7,0.09,1.54,0.31,2.43c0.24,0.9,0.85,1.67,1.56,2.18c1.43,1.01,3.03,1.4,4.35,2.23c0.66,0.4,1.22,0.93,1.55,1.61
			c0.33,0.68,0.45,1.48,0.53,2.28c0.09,0.8,0.12,1.62,0.33,2.42c0.18,0.8,0.67,1.58,1.44,1.89c-0.74-0.39-1.13-1.15-1.24-1.93
			c-0.15-0.78-0.13-1.59-0.17-2.4c-0.04-0.81-0.1-1.65-0.43-2.45c-0.33-0.81-0.96-1.47-1.65-1.95c-1.39-0.95-3.01-1.42-4.2-2.35
			c-0.59-0.46-1-1.05-1.16-1.73c-0.16-0.69-0.07-1.5-0.21-2.39c-0.15-0.91-0.65-1.8-1.37-2.38c-0.71-0.6-1.54-0.93-2.36-1.18
			c-1.66-0.48-3.32-0.53-4.92-0.68l-4.84-0.41c-0.85-0.05-1.56-0.15-1.62-0.46c-0.07-0.14-0.07-0.44,0-0.81
			c0.06-0.37,0.17-0.8,0.16-1.34c-0.05-1.12-0.84-2-1.65-2.45c-0.81-0.49-1.81-0.65-2.68-0.61c-1.76,0.09-3.25,0.59-4.71,0.32
			c-1.46-0.22-2.87-0.96-3.72-2.11c-0.89-1.1-0.79-2.87-1.92-4.42c-0.57-0.75-1.38-1.23-2.19-1.52c-0.81-0.29-1.63-0.44-2.43-0.58
			c-1.61-0.25-3.12-0.59-4.42-1.5C423.33,74.07,421.56,70.95,421.65,67.7z"/>
		<path class="st7" d="M431.5,69.63c0.39,1.59,1.41,2.99,2.7,4.01c1.29,1.03,2.83,1.74,4.45,2.13c3.27,0.73,6.61,0.25,9.8-0.16
			c1.6-0.21,3.2-0.47,4.53,0.03c0.64,0.25,1.22,0.71,1.52,1.27c0.33,0.56,0.25,1.14,0.11,2c-0.05,0.42-0.13,0.91,0.04,1.47
			c0.16,0.56,0.65,1.04,1.1,1.24c0.46,0.23,0.88,0.32,1.28,0.42c0.41,0.09,0.82,0.22,1.24,0.26c1.67,0.28,3.35,0.29,4.99,0.19
			c3.29-0.24,6.47-0.89,9.64-0.91c1.58-0.01,3.15,0.14,4.64,0.57c0.73,0.21,1.42,0.51,1.86,0.98c0.22,0.22,0.38,0.52,0.58,0.9
			c0.19,0.37,0.5,0.82,0.94,1.11c0.89,0.56,1.8,0.53,2.59,0.59c0.79,0.04,1.56,0.12,1.99,0.56c0.46,0.42,0.47,1.17,0.32,1.93
			c-0.13,0.77-0.41,1.58-0.29,2.5c0.06,0.45,0.26,0.92,0.59,1.25c0.33,0.33,0.72,0.54,1.09,0.72c0.76,0.33,1.45,0.66,2.07,1.16
			c1.22,0.96,2.23,2.45,2.01,4.1c0.37-1.64-0.56-3.3-1.79-4.37c-0.61-0.56-1.37-0.99-2.07-1.34c-0.71-0.36-1.24-0.88-1.26-1.59
			c-0.06-0.71,0.2-1.47,0.38-2.29c0.09-0.41,0.17-0.84,0.13-1.32c-0.03-0.47-0.23-0.98-0.57-1.34c-0.74-0.76-1.74-0.82-2.52-0.91
			c-0.8-0.08-1.6-0.14-2.08-0.5c-0.5-0.29-0.6-1.12-1.28-1.92c-0.67-0.73-1.55-1.07-2.35-1.32c-1.62-0.5-3.31-0.68-4.97-0.68
			c-3.33-0.01-6.55,0.6-9.72,0.8c-1.59,0.12-3.17,0.12-4.7-0.12c-0.39-0.04-0.76-0.15-1.14-0.23c-0.38-0.08-0.76-0.17-1.03-0.31
			c-0.54-0.25-0.6-0.63-0.5-1.44c0.05-0.38,0.13-0.81,0.12-1.3c0-0.5-0.15-1.01-0.4-1.44c-0.49-0.86-1.28-1.44-2.14-1.77
			c-1.78-0.64-3.52-0.21-5.09,0.03c-3.18,0.54-6.39,1.1-9.52,0.53C435.72,74.6,432.6,72.76,431.5,69.63z"/>
		<path class="st7" d="M443.94,65.21c2.29,1.22,4.78,2.07,7.34,2.59c2.57,0.52,5.21,0.62,7.83,0.4c2.64-0.19,5.18-1.07,7.61-1.12
			c1.22-0.02,2.37,0.27,3.33,0.95c0.96,0.65,1.62,1.66,1.59,2.71l-0.02,0.7l0.71-0.07c1.71-0.17,3.44-0.24,5.16-0.22
			c1.72,0.02,3.44,0.1,5.15,0.29l-0.55-0.75l-0.73,3.96l-0.18,0.99c-0.05,0.33-0.18,0.8,0.07,1.36c0.27,0.56,0.84,0.78,1.22,0.85
			c0.42,0.08,0.76,0.08,1.09,0.1l4.02,0.22c0.65,0.05,1.42,0.01,1.86,0.15c0.41,0.12,0.57,0.53,0.55,1.16
			c-0.03,0.59-0.14,1.33-0.13,2.02c0,0.7,0.05,1.39,0.17,2.07c0.23,1.36,0.68,2.69,1.34,3.89c1.3,2.41,3.34,4.43,5.83,5.49
			c-2.36-1.29-4.22-3.36-5.31-5.75c-0.54-1.2-0.93-2.46-1.09-3.75c-0.09-0.64-0.11-1.29-0.08-1.94c0.02-0.66,0.14-1.25,0.21-1.99
			c0.02-0.37,0.02-0.77-0.15-1.2c-0.16-0.43-0.57-0.81-0.99-0.96c-0.85-0.27-1.45-0.2-2.14-0.29l-4.02-0.29
			c-0.69-0.01-1.32-0.15-1.31-0.31c-0.11-0.11,0.12-1,0.23-1.61l0.78-3.95l0.13-0.67l-0.68-0.08c-1.76-0.21-3.52-0.34-5.29-0.35
			c-1.77,0-3.54,0.1-5.3,0.3l0.69,0.63c0.02-1.59-0.99-2.95-2.16-3.72c-1.17-0.82-2.66-1.15-4.02-1.11
			c-1.38,0.03-2.68,0.32-3.94,0.63c-1.26,0.32-2.49,0.58-3.76,0.74c-2.53,0.34-5.1,0.28-7.64-0.04
			C448.82,66.91,446.33,66.2,443.94,65.21z"/>
		<path class="st7" d="M474.07,55.78c4.45,1.87,8.89,3.68,13.46,5.33c2.29,0.81,4.72,1.39,7.23,1.44c1.28-0.04,1.49,0.31,1.43,1.52
			c-0.04,0.55-0.15,1.15-0.19,1.8c-0.04,0.64-0.03,1.39,0.36,2.12c0.37,0.74,1.16,1.17,1.81,1.35c0.67,0.19,1.3,0.24,1.88,0.31
			c0.58,0.07,1.13,0.16,1.56,0.36c0.44,0.2,0.7,0.46,0.93,0.94c0.23,0.46,0.42,1.13,0.86,1.71c0.42,0.57,0.96,1,1.5,1.34
			c1.09,0.69,2.24,1.09,3.2,1.68c0.99,0.57,1.62,1.41,1.98,2.54c0.38,1.12,0.71,2.27,0.99,3.43c0.6,2.32,0.94,4.7,1.15,7.1
			c0.09-2.41-0.13-4.84-0.52-7.23c-0.22-1.2-0.49-2.37-0.82-3.56c-0.18-0.59-0.4-1.21-0.79-1.77c-0.39-0.56-0.9-1-1.42-1.37
			c-1.06-0.73-2.19-1.19-3.13-1.8c-0.46-0.31-0.87-0.66-1.15-1.07c-0.29-0.39-0.43-0.91-0.7-1.54c-0.24-0.63-0.86-1.3-1.53-1.58
			c-0.67-0.3-1.33-0.4-1.94-0.48c-1.2-0.14-2.36-0.29-2.69-1.01c-0.41-0.72-0.14-1.93-0.04-3.19c0.01-0.62,0.08-1.47-0.58-2.19
			c-0.3-0.33-0.72-0.53-1.12-0.61c-0.39-0.08-0.73-0.06-1.03-0.06c-2.32,0.03-4.64-0.5-6.93-1.15c-2.29-0.67-4.57-1.48-6.86-2.22
			C478.68,57.21,476.39,56.46,474.07,55.78z"/>
		<path class="st4" d="M412.4,313.81c18.56,86.54,3.17,94.73,3.17,94.73s56.75,16.07,124.69,1.51c3.3-0.71,1.32,3.45,0.84,2.23
			c-8.97-22.8-18.71-77.38-18.71-77.38c-0.52-1.65,3.01-68.53,3.01-68.53c0.16-1.31-1.31-16-1.18-17.29
			c3.36-27.51,21.86-24.35,27.68-33.44c2.75-4.24-2.59-12.27-2.59-12.27l-53.71-19.71c-2.66,3.02-20.89,28.02-23.56,30.04
			c-11.19,8.51-18.42,9.29-26.12,0.78c-13.7-15.15-6.9-27.19-6.9-27.19c-23.81,8.1-25.19,16.17-35.67,23.16
			c-2.86,3.07-0.82,7.98-1.09,10.42C399.26,246.88,405.02,279.38,412.4,313.81z"/>
		<path class="st14" d="M439.53,184.99c5.69,39.7,5.89,44.63,5.89,83.33c-4.29,36.62-10.96,92.29-14.85,118.44
			c-6.39,13.18-13.57,47.62-25.29,58.73c-12.51-10.13-37.9,8.5-49.62-3.92c11.76-14.59,33.55-51.71,43.1-67.52
			c0.25-9.05,13.44-53.02,13.64-60.24c-9.59-12.65-11.6-29.21-13.13-45.01c-1.54-15.8-1.65-44.16-0.77-61.65
			C410.51,200.7,419.35,196.32,439.53,184.99z"/>
		<path class="st14" d="M492.57,179.5c10.83,3.19,39.56,11.1,56.99,21.94c6.87,21.49,5.97,32.32,2.9,54.67
			c-2.44,17.69,3.98,41.83-1.31,58.88c-10.95,35.27,1.54,82.84,5.13,119.4c-17.41,4.51-114.22,9.7-112.32-4.56
			c4.52-33.83,12.22-119.14,17.38-154.88c5.64-23.33,6.85-24.85,10.7-43.48C477.07,207.14,482.01,201.44,492.57,179.5z"/>
		<linearGradient id="SVGID_5_" gradientUnits="userSpaceOnUse" x1="406.6015" y1="335.3434" x2="590.9697" y2="335.3434">
			<stop  offset="0" style="stop-color:#FFC5A3"/>
			<stop  offset="0.0292" style="stop-color:#FEC29F"/>
			<stop  offset="0.479" style="stop-color:#F79E6A"/>
			<stop  offset="0.8161" style="stop-color:#F28749"/>
			<stop  offset="1" style="stop-color:#F07E3C"/>
		</linearGradient>
		<path class="st15" d="M406.69,384.42c-2.43,22.16,43.96,3.59,59.47,4.73c2.43,0.19,4.44,0.19,5.92,0.05
			c34.79-3.72,99.46-23.36,111.58-40.11c9.4-13.08,8.03-66.9,5.21-73.72c-0.24-0.52-9.1,6.66-9.1,6.66l-35.79,12.96v39.55
			l-69.23,31.76l-29.31-10.5C445.45,355.79,407.55,376.61,406.69,384.42z"/>
		<path class="st4" d="M531.67,310.05c0.78,6.88-3.86,27.77-11.68,31.63c-24.77,13.39-50.67,17.36-58.59,19.25
			c2.46,6.8,7.65,34.78,10.95,34.35c14.9-1.94,92.61-7.76,107.74-26.19c16.66-20.3,13.25-66.81,13.25-66.81
			c-4.42-93.87-43.57-101.95-43.57-101.95c-7.16,0.83-11.85,9.76-11.85,9.76C527.11,242.96,531.67,310.05,531.67,310.05z"/>
		<g>
			
				<ellipse transform="matrix(0.9964 -0.0845 0.0845 0.9964 -7.9083 41.5659)" class="st4" cx="487.22" cy="114.23" rx="19.07" ry="21.52"/>
			<path class="st14" d="M480.14,100.48c-0.15-1.8-13.3-53.31-50.93-45.9c0,0,23.85-10.8,36.12-7.91
				c10.24,2.41,30.35,23.51,32.63,50.49S480.14,100.48,480.14,100.48z"/>
			
				<ellipse transform="matrix(0.9964 -0.0845 0.0845 0.9964 -7.8768 41.8126)" class="st16" cx="490.15" cy="113.98" rx="13.86" ry="18.5"/>
			
				<ellipse transform="matrix(0.9964 -0.0845 0.0845 0.9964 -7.8768 41.8126)" class="st14" cx="490.15" cy="113.98" rx="8.16" ry="10.9"/>
			<path class="st14" d="M479.03,130.53c0,0-13.42,15.34-24.33,16.91c0,0-0.72-0.75-2.09-0.47c-1.38,0.28-2.59,1.33-2.86,1.86
				c-0.55,1.1-0.79,3.01,2.65,2.68c2.22-0.21,18.98-5.48,26.19-15.29C485.36,127.02,479.03,130.53,479.03,130.53z"/>
		</g>
	</g>
	<g>
		<polygon class="st2" points="675.36,390.68 675.73,410.05 71.7,410.05 104.45,390.68 		"/>
		<path class="st4" d="M674.24,410.05H71.7v36.13c0,3.77,3.06,6.83,6.83,6.83h588.88c3.77,0,6.83-3.06,6.83-6.83V410.05z"/>
	</g>
	<g>
		<g>
			
				<rect x="612.69" y="264.46" transform="matrix(0.9847 0.1743 -0.1743 0.9847 63.6638 -102.5992)" class="st17" width="6.78" height="93.56"/>
			
				<rect x="617.11" y="262.65" transform="matrix(0.9847 0.1743 -0.1743 0.9847 57.7482 -104.2268)" class="st14" width="10.51" height="28.13"/>
		</g>
		<g>
			<polygon class="st17" points="600.14,369.65 593.38,369.08 601.2,275.85 605.29,269.89 607.96,276.42 			"/>
		</g>
		<g>
			<linearGradient id="SVGID_6_" gradientUnits="userSpaceOnUse" x1="566.2165" y1="326.366" x2="590.7491" y2="326.366">
				<stop  offset="0" style="stop-color:#DCE4EA"/>
				<stop  offset="1" style="stop-color:#FFFFFF"/>
			</linearGradient>
			<polygon class="st18" points="590.75,374.41 584.09,375.71 566.22,283.88 568.52,277.02 572.87,282.58 			"/>
		</g>
		<g>
			<polygon class="st19" points="605.71,395.77 576.73,395.77 567.23,319.07 615.21,319.07 			"/>
			<polygon class="st14" points="616.63,395.77 587.66,395.77 583.38,319.07 626.13,319.07 			"/>
		</g>
	</g>
	<g id="Plant1_1_">
		<g>
			<path class="st20" d="M193.75,341.76c-9.13,12.43-27.44,14.49-27.44,14.49s-3.51-18.09,5.62-30.52
				c9.13-12.43,27.44-14.49,27.44-14.49S202.88,329.33,193.75,341.76z"/>
			<path class="st20" d="M155.42,334.33c8.37,8.25,7.91,22.28,7.91,22.28s-14.02,0.66-22.39-7.59c-8.37-8.25-7.91-22.28-7.91-22.28
				S147.05,326.08,155.42,334.33z"/>
			<path class="st21" d="M176.16,328.09c1.7,15.33-10.38,29.25-10.38,29.25s-14.83-10.93-16.53-26.26
				c-1.7-15.33,10.38-29.25,10.38-29.25S174.46,312.76,176.16,328.09z"/>
		</g>
		<g>
			<polygon class="st14" points="175.03,399.68 143.26,399.68 132.85,353.34 185.44,353.34 			"/>
			<polygon class="st19" points="187,399.68 155.24,399.68 150.55,353.34 197.42,353.34 			"/>
		</g>
	</g>
	<g id="Mouse_1_">
		<linearGradient id="SVGID_7_" gradientUnits="userSpaceOnUse" x1="245.8294" y1="389.1552" x2="283.4712" y2="389.1552">
			<stop  offset="0" style="stop-color:#DCE4EA"/>
			<stop  offset="1" style="stop-color:#FFFFFF"/>
		</linearGradient>
		<path class="st22" d="M283.47,388.74c0,4.1-7.7,8.24-18.08,8.24c-21.03,0-19.53-4.14-19.53-8.24s8.42-7.41,18.81-7.41
			C275.05,381.33,283.47,384.65,283.47,388.74z"/>
		<path class="st23" d="M261.33,392.29h-1.42c-0.33,0-0.6-0.27-0.6-0.6v-6.06c0-0.33,0.27-0.6,0.6-0.6h1.42c0.33,0,0.6,0.27,0.6,0.6
			v6.06C261.93,392.03,261.66,392.29,261.33,392.29z"/>
	</g>
	<g id="Keyboard_1_">
		<linearGradient id="SVGID_8_" gradientUnits="userSpaceOnUse" x1="318.301" y1="392.6353" x2="426.7315" y2="392.6353">
			<stop  offset="0" style="stop-color:#DCE4EA"/>
			<stop  offset="1" style="stop-color:#FFFFFF"/>
		</linearGradient>
		<rect x="318.3" y="389.16" class="st24" width="108.43" height="6.96"/>
		<linearGradient id="SVGID_9_" gradientUnits="userSpaceOnUse" x1="426.7315" y1="392.6353" x2="455.7149" y2="392.6353">
			<stop  offset="0" style="stop-color:#DCE4EA"/>
			<stop  offset="1" style="stop-color:#FFFFFF"/>
		</linearGradient>
		<polygon class="st25" points="426.73,389.16 455.71,394.54 455.71,396.12 426.73,396.12 		"/>
	</g>
	<g id="PC_1_">
		
			<linearGradient id="SVGID_10_" gradientUnits="userSpaceOnUse" x1="2537.6431" y1="388.8111" x2="2653.8264" y2="167.4745" gradientTransform="matrix(1 0 0 1 -2252.9648 0)">
			<stop  offset="0" style="stop-color:#DCE4EA"/>
			<stop  offset="1" style="stop-color:#FFFFFF"/>
		</linearGradient>
		<path class="st26" d="M447.55,219.92l44.2,137.25c-0.4,5.26-5.46,9.35-11.56,9.35H239.71c-6.1,0-11.16-4.09-11.56-9.35
			l-44.6-137.25c0,0,0-0.05-0.02-0.17c-0.3-5.67,4.95-10.45,11.58-10.45h240.88C442.68,209.3,447.97,214.17,447.55,219.92z"/>
		<path class="st27" d="M447.55,219.92l44.2,137.25c-0.4,5.26-5.46,9.35-11.56,9.35h-44.31c19.31,0,31.29-1.29,38.49-2.61
			c5.8-1.06,10.06-5.32,10.44-10.41L440.2,223.17c0.33-4.34-3.66-8.01-8.7-8.01c-44.91,0.03-217.41-0.01-228.63-0.01
			c-14.7,0-19.31,4.76-19.31,4.76s0-0.05-0.02-0.17c-0.3-5.67,4.95-10.45,11.58-10.45h240.88
			C442.68,209.3,447.97,214.17,447.55,219.92z"/>
		
			<linearGradient id="SVGID_11_" gradientUnits="userSpaceOnUse" x1="-839.8939" y1="401.8562" x2="-839.8939" y2="307.1791" gradientTransform="matrix(-1 0 0 1 -497.4242 0)">
			<stop  offset="0" style="stop-color:#DCE4EA"/>
			<stop  offset="1" style="stop-color:#FFFFFF"/>
		</linearGradient>
		<path class="st28" d="M322.54,310.64c0.84-1.96,3.66-3.47,6.51-3.47h27.21c2.79,0,4.72,1.44,4.49,3.37l-8.53,71.08
			c-0.93,7.75,6.07,14.49,15.04,14.49h18.43c0.41,0,0.8,0.17,1.05,0.45l3.07,3.5c0.65,0.74,0.03,1.79-1.05,1.79h-45.17h-33.93h0
			c-9.97,0-17.07-8.4-14.08-16.66L322.54,310.64z"/>
	</g>
</g>
</svg>
