<svg xmlns="http://www.w3.org/2000/svg" xmlns:xlink="http://www.w3.org/1999/xlink" version="1.1" style="" xml:space="preserve" width="479" height="279"><rect id="backgroundrect" width="100%" height="100%" x="0" y="0" fill="none" stroke="none" class="" style=""/>
<style type="text/css">
	.st0{fill:#DCE4EA;}
	.st1{fill:#193E6D;}
	.st2{fill:#29567F;}
	.st3{fill:#FFFFFF;}
	.st4{fill:#46AEEC;}
	.st5{fill:none;stroke:#DCE4EA;stroke-width:1.5;stroke-miterlimit:10;}
	.st6{fill:none;stroke:#193E6D;stroke-width:1.5;stroke-linecap:round;stroke-linejoin:round;stroke-miterlimit:10;}
	.st7{fill:#5EC198;}
	.st8{fill:#7C5EC1;}
	.st9{fill:#E6E7E8;}
</style>

<g class="currentLayer" style=""><title>Layer 1</title><g id="svg_1" class="">
	<path class="st0" d="M466.7599987792969,278.74000274658204 H12.299998779296885 c-6.79,0 -12.3,-5.51 -12.3,-12.3 V12.300002746582038 c0,-6.79 5.51,-12.3 12.3,-12.3 h454.46 c6.79,0 12.3,5.51 12.3,12.3 v254.14 C479.04999877929686,273.23000274658204 473.54999877929686,278.74000274658204 466.7599987792969,278.74000274658204 z" id="svg_2"/>
	<path class="st1" d="M78.23999877929688,278.74000274658204 h-65.94 c-6.79,0 -12.3,-5.51 -12.3,-12.3 V12.300002746582038 c0,-6.79 5.51,-12.3 12.3,-12.3 h65.94 c6.79,0 12.3,5.51 12.3,12.3 v254.14 C90.53999877929687,273.23000274658204 85.02999877929688,278.74000274658204 78.23999877929688,278.74000274658204 z" id="svg_3"/>
	<rect x="0.0099945068359375" y="53.209999084472656" class="st2" width="90.52999877929688" height="24.59000015258789" id="svg_4"/>
	<path class="st3" d="M187.30999877929685,44.84000274658203 h-82.06 c-2.22,0 -4.02,-1.8 -4.02,-4.02 v-16.52 c0,-2.22 1.8,-4.02 4.02,-4.02 h82.06 c2.22,0 4.02,1.8 4.02,4.02 v16.52 C191.3299987792969,43.04000274658202 189.52999877929688,44.84000274658203 187.30999877929685,44.84000274658203 z" id="svg_5"/>
	<path class="st3" d="M270.35999877929686,160.400002746582 H107.02999877929688 c-3.46,0 -6.26,-2.8 -6.26,-6.26 v-93.7 c0,-3.46 2.8,-6.26 6.26,-6.26 h163.33 c3.46,0 6.26,2.8 6.26,6.26 v93.7 C276.60999877929686,157.60000274658205 273.80999877929685,160.400002746582 270.35999877929686,160.400002746582 z" id="svg_6"/>
	<path class="st3" d="M457.1399987792969,263.53000274658206 H106.77999877929688 c-3.06,0 -5.55,-2.48 -5.55,-5.55 v-82.69 c0,-3.06 2.48,-5.55 5.55,-5.55 h350.36 c3.06,0 5.55,2.48 5.55,5.55 v82.69 C462.68999877929684,261.05000274658204 460.2099987792968,263.53000274658206 457.1399987792969,263.53000274658206 z" id="svg_7"/>
	<path class="st3" d="M456.56999877929684,160.400002746582 H290.05999877929685 c-2.91,0 -5.27,-2.36 -5.27,-5.27 v-95.67 c0,-2.91 2.36,-5.27 5.27,-5.27 h166.51 c2.91,0 5.27,2.36 5.27,5.27 v95.67 C461.8499987792969,158.04000274658205 459.4899987792969,160.400002746582 456.56999877929684,160.400002746582 z" id="svg_8"/>
	<path class="st3" d="M274.4699987792969,44.84000274658203 h-75.09 c-2.31,0 -4.19,-1.87 -4.19,-4.19 V24.470002746582026 c0,-2.31 1.87,-4.19 4.19,-4.19 h75.09 c2.31,0 4.19,1.87 4.19,4.19 v16.19 C278.65999877929687,42.960002746582035 276.7799987792969,44.84000274658203 274.4699987792969,44.84000274658203 z" id="svg_9"/>
	<path class="st3" d="M366.55999877929685,44.84000274658203 h-78.05 c-2.43,0 -4.4,-1.97 -4.4,-4.4 v-15.75 c0,-2.43 1.97,-4.4 4.4,-4.4 h78.05 c2.43,0 4.4,1.97 4.4,4.4 v15.75 C370.9699987792969,42.87000274658203 368.98999877929685,44.84000274658203 366.55999877929685,44.84000274658203 z" id="svg_10"/>
	<path class="st3" d="M458.3999987792969,44.84000274658203 h-78.28 c-2.37,0 -4.29,-1.92 -4.29,-4.29 v-15.99 c0,-2.37 1.92,-4.29 4.29,-4.29 h78.28 c2.37,0 4.29,1.92 4.29,4.29 v15.99 C462.68999877929684,42.92000274658204 460.7699987792969,44.84000274658203 458.3999987792969,44.84000274658203 z" id="svg_11"/>
	<g id="svg_12">
		<rect x="116.55999755859375" y="82.84000396728516" class="st4" width="14.239999771118164" height="59.16999816894531" id="svg_13"/>
		<rect x="135.10000610351562" y="133.09000396728516" class="st1" width="14.239999771118164" height="8.90999984741211" id="svg_14"/>
		<rect x="153.6300048828125" y="117.40999603271484" class="st4" width="14.239999771118164" height="24.59000015258789" id="svg_15"/>
		<rect x="172.17001342773438" y="125.6100082397461" class="st1" width="14.239999771118164" height="16.399999618530273" id="svg_16"/>
		<rect x="190.70999145507812" y="102.79999542236328" class="st4" width="14.239999771118164" height="39.209999084472656" id="svg_17"/>
		<rect x="209.239990234375" y="92.45999908447266" class="st1" width="14.239999771118164" height="49.540000915527344" id="svg_18"/>
		<rect x="227.77999877929688" y="137.37000274658203" class="st4" width="14.239999771118164" height="4.630000114440918" id="svg_19"/>
		<rect x="246.32000732421875" y="119.17000579833984" class="st1" width="14.239999771118164" height="22.84000015258789" id="svg_20"/>
	</g>
	<g id="svg_21">
		<rect x="299.2300109863281" y="117.2300033569336" class="st4" width="14.819999694824219" height="24.770000457763672" id="svg_22"/>
		<rect x="318.5199890136719" y="100.89000701904297" class="st1" width="14.819999694824219" height="41.11000061035156" id="svg_23"/>
		<rect x="337.80999755859375" y="133.81000518798828" class="st4" width="14.819999694824219" height="8.199999809265137" id="svg_24"/>
		<rect x="357.1000061035156" y="86.5300064086914" class="st1" width="14.819999694824219" height="55.470001220703125" id="svg_25"/>
		<rect x="376.3899841308594" y="119.17000579833984" class="st4" width="14.819999694824219" height="22.84000015258789" id="svg_26"/>
		<rect x="395.6800231933594" y="130.59000396728516" class="st1" width="14.819999694824219" height="11.420000076293945" id="svg_27"/>
		<rect x="414.9700012207031" y="137.37000274658203" class="st4" width="14.819999694824219" height="4.630000114440918" id="svg_28"/>
		<rect x="434.2599792480469" y="110.2800064086914" class="st1" width="14.819999694824219" height="31.719999313354492" id="svg_29"/>
	</g>
	<g id="svg_30">
		<rect x="298.7200012207031" y="204.88001251220703" class="st4" width="7.340000152587891" height="7.340000152587891" id="svg_31"/>
		<rect x="311.1600036621094" y="204.88001251220703" class="st4" width="36.939998626708984" height="2.1700000762939453" id="svg_32"/>
		<rect x="311.1600036621094" y="210.06000518798828" class="st4" width="23.8700008392334" height="2.1700000762939453" id="svg_33"/>
	</g>
	<g id="svg_34">
		<rect x="108.28999328613281" y="28.31000518798828" class="st4" width="42.70000076293945" height="2.509999990463257" id="svg_35"/>
		<rect x="108.28999328613281" y="34.290000915527344" class="st4" width="27.59000015258789" height="2.509999990463257" id="svg_36"/>
		<g id="svg_37">
			<g id="svg_38">
				<path class="st0" d="M178.58999877929688,39.54000274658202 c-3.85,0 -6.98,-3.13 -6.98,-6.98 s3.13,-6.98 6.98,-6.98 s6.98,3.13 6.98,6.98 S182.4399987792969,39.54000274658202 178.58999877929688,39.54000274658202 zM178.58999877929688,27.08000274658204 c-3.02,0 -5.48,2.46 -5.48,5.48 s2.46,5.48 5.48,5.48 s5.48,-2.46 5.48,-5.48 S181.60999877929686,27.08000274658204 178.58999877929688,27.08000274658204 z" id="svg_39"/>
			</g>
			<g id="svg_40">
				<path class="st1" d="M173.53999877929687,36.940002746582024 c-0.23,0 -0.46,-0.11000000000000001 -0.6000000000000001,-0.31000000000000005 c-0.8700000000000001,-1.18 -1.33,-2.59 -1.33,-4.07 c0,-3.85 3.13,-6.98 6.98,-6.98 c2.8600000000000003,0 5.4,1.71 6.47,4.36 c0.16000000000000003,0.38000000000000006 -0.030000000000000006,0.8200000000000001 -0.41000000000000003,0.98 c-0.39000000000000007,0.15000000000000002 -0.8200000000000001,-0.030000000000000006 -0.98,-0.41000000000000003 c-0.8400000000000001,-2.08 -2.83,-3.42 -5.07,-3.42 c-3.02,0 -5.48,2.46 -5.48,5.48 c0,1.1600000000000001 0.36000000000000004,2.27 1.03,3.19 c0.25,0.33000000000000007 0.17,0.8 -0.16000000000000003,1.05 C173.84999877929687,36.89000274658204 173.6899987792969,36.940002746582024 173.53999877929687,36.940002746582024 z" id="svg_41"/>
			</g>
			<g id="svg_42">
				<g id="svg_43">
					<path class="st0" d="M175.79999877929686,30.84000274658203 c0,-0.37000000000000005 0.12000000000000001,-0.6700000000000002 0.35000000000000003,-0.91 c0.24000000000000002,-0.24000000000000002 0.54,-0.36000000000000004 0.91,-0.36000000000000004 c0.37000000000000005,0 0.6800000000000002,0.12000000000000001 0.91,0.36000000000000004 c0.23,0.24000000000000002 0.35000000000000003,0.55 0.35000000000000003,0.9400000000000001 v0.30000000000000004 c0,0.37000000000000005 -0.12000000000000001,0.6800000000000002 -0.35000000000000003,0.91 s-0.53,0.35000000000000003 -0.9,0.35000000000000003 c-0.37000000000000005,0 -0.6700000000000002,-0.12000000000000001 -0.91,-0.35000000000000003 s-0.36000000000000004,-0.55 -0.36000000000000004,-0.9400000000000001 V30.84000274658203 zM176.3799987792969,31.160002746582023 c0,0.22000000000000003 0.06000000000000001,0.4 0.19000000000000003,0.54 c0.12000000000000001,0.14 0.29000000000000004,0.21000000000000002 0.5,0.21000000000000002 c0.2,0 0.36000000000000004,-0.07 0.48000000000000004,-0.21000000000000002 c0.12000000000000001,-0.14 0.18000000000000002,-0.33000000000000007 0.18000000000000002,-0.5700000000000001 v-0.31000000000000005 c0,-0.22000000000000003 -0.06000000000000001,-0.4 -0.18000000000000002,-0.55 c-0.12000000000000001,-0.14 -0.29000000000000004,-0.22000000000000003 -0.49000000000000005,-0.22000000000000003 s-0.37000000000000005,0.07 -0.49000000000000005,0.22000000000000003 c-0.12000000000000001,0.14 -0.18000000000000002,0.33000000000000007 -0.18000000000000002,0.56 V31.160002746582023 zM177.23999877929685,35.35000274658202 l-0.44000000000000006,-0.28 l3.01,-4.8100000000000005 l0.44000000000000006,0.28 L177.23999877929685,35.35000274658202 zM178.78999877929687,34.30000274658204 c0,-0.37000000000000005 0.12000000000000001,-0.6700000000000002 0.35000000000000003,-0.91 s0.54,-0.36000000000000004 0.91,-0.36000000000000004 c0.37000000000000005,0 0.6700000000000002,0.12000000000000001 0.91,0.36000000000000004 c0.24000000000000002,0.24000000000000002 0.36000000000000004,0.55 0.36000000000000004,0.9400000000000001 v0.30000000000000004 c0,0.37000000000000005 -0.12000000000000001,0.6700000000000002 -0.35000000000000003,0.91 c-0.24000000000000002,0.24000000000000002 -0.54,0.36000000000000004 -0.9,0.36000000000000004 s-0.6700000000000002,-0.12000000000000001 -0.91,-0.35000000000000003 s-0.36000000000000004,-0.55 -0.36000000000000004,-0.9400000000000001 V34.30000274658204 zM179.3799987792969,34.63000274658202 c0,0.22000000000000003 0.06000000000000001,0.41000000000000003 0.19000000000000003,0.55 c0.12000000000000001,0.14 0.29000000000000004,0.21000000000000002 0.5,0.21000000000000002 c0.2,0 0.37000000000000005,-0.07 0.49000000000000005,-0.21000000000000002 c0.12000000000000001,-0.14 0.18000000000000002,-0.33000000000000007 0.18000000000000002,-0.5700000000000001 v-0.31000000000000005 c0,-0.22000000000000003 -0.06000000000000001,-0.41000000000000003 -0.18000000000000002,-0.55 c-0.12000000000000001,-0.14 -0.29000000000000004,-0.21000000000000002 -0.49000000000000005,-0.21000000000000002 c-0.2,0 -0.36000000000000004,0.07 -0.49000000000000005,0.21000000000000002 c-0.13,0.14 -0.19000000000000003,0.33000000000000007 -0.19000000000000003,0.5700000000000001 V34.63000274658202 z" id="svg_44"/>
				</g>
			</g>
		</g>
	</g>
	<g id="svg_45">
		<rect x="200.73001098632812" y="28.31000518798828" class="st4" width="42.70000076293945" height="2.509999990463257" id="svg_46"/>
		<rect x="200.73001098632812" y="34.290000915527344" class="st4" width="27.59000015258789" height="2.509999990463257" id="svg_47"/>
		<g id="svg_48">
			<circle class="st5" cx="266.0400085449219" cy="32.56000518798828" r="6.230000019073486" id="svg_49"/>
			<path class="st6" d="M265.34999877929687,38.64000274658204 c-1.26,-0.13 -2.48,-0.6500000000000001 -3.49,-1.56 c-2.55,-2.31 -2.75,-6.25 -0.45,-8.8 c1.75,-1.94 4.45,-2.52 6.75,-1.6800000000000002 " id="svg_50"/>
			<g id="svg_51">
				<path class="st0" d="M263.23999877929685,30.84000274658203 c0,-0.37000000000000005 0.12000000000000001,-0.6700000000000002 0.35000000000000003,-0.91 c0.24000000000000002,-0.24000000000000002 0.54,-0.36000000000000004 0.91,-0.36000000000000004 c0.37000000000000005,0 0.6800000000000002,0.12000000000000001 0.91,0.36000000000000004 c0.23,0.24000000000000002 0.35000000000000003,0.55 0.35000000000000003,0.9400000000000001 v0.30000000000000004 c0,0.37000000000000005 -0.12000000000000001,0.6800000000000002 -0.35000000000000003,0.91 c-0.24000000000000002,0.24000000000000002 -0.53,0.35000000000000003 -0.9,0.35000000000000003 c-0.37000000000000005,0 -0.6700000000000002,-0.12000000000000001 -0.91,-0.35000000000000003 s-0.36000000000000004,-0.55 -0.36000000000000004,-0.9400000000000001 V30.84000274658203 zM263.8299987792969,31.160002746582023 c0,0.22000000000000003 0.06000000000000001,0.4 0.19000000000000003,0.54 s0.29000000000000004,0.21000000000000002 0.5,0.21000000000000002 c0.2,0 0.36000000000000004,-0.07 0.48000000000000004,-0.21000000000000002 c0.12000000000000001,-0.14 0.18000000000000002,-0.33000000000000007 0.18000000000000002,-0.5700000000000001 v-0.31000000000000005 c0,-0.22000000000000003 -0.06000000000000001,-0.4 -0.18000000000000002,-0.55 c-0.12000000000000001,-0.14 -0.29000000000000004,-0.22000000000000003 -0.49000000000000005,-0.22000000000000003 s-0.37000000000000005,0.07 -0.49000000000000005,0.22000000000000003 c-0.12000000000000001,0.14 -0.18000000000000002,0.33000000000000007 -0.18000000000000002,0.56 V31.160002746582023 zM264.6899987792969,35.35000274658202 l-0.44000000000000006,-0.28 l3.01,-4.8100000000000005 l0.44000000000000006,0.28 L264.6899987792969,35.35000274658202 zM266.23999877929685,34.30000274658204 c0,-0.37000000000000005 0.12000000000000001,-0.6700000000000002 0.35000000000000003,-0.91 c0.24000000000000002,-0.24000000000000002 0.54,-0.36000000000000004 0.91,-0.36000000000000004 c0.37000000000000005,0 0.6700000000000002,0.12000000000000001 0.91,0.36000000000000004 c0.24000000000000002,0.24000000000000002 0.36000000000000004,0.55 0.36000000000000004,0.9400000000000001 v0.30000000000000004 c0,0.37000000000000005 -0.12000000000000001,0.6700000000000002 -0.35000000000000003,0.91 s-0.54,0.36000000000000004 -0.9,0.36000000000000004 c-0.37000000000000005,0 -0.6700000000000002,-0.12000000000000001 -0.91,-0.35000000000000003 c-0.24000000000000002,-0.24000000000000002 -0.36000000000000004,-0.55 -0.36000000000000004,-0.9400000000000001 V34.30000274658204 zM266.8199987792969,34.63000274658202 c0,0.22000000000000003 0.06000000000000001,0.41000000000000003 0.19000000000000003,0.55 c0.12000000000000001,0.14 0.29000000000000004,0.21000000000000002 0.5,0.21000000000000002 c0.2,0 0.37000000000000005,-0.07 0.49000000000000005,-0.21000000000000002 c0.12000000000000001,-0.14 0.18000000000000002,-0.33000000000000007 0.18000000000000002,-0.5700000000000001 v-0.31000000000000005 c0,-0.22000000000000003 -0.06000000000000001,-0.41000000000000003 -0.18000000000000002,-0.55 c-0.12000000000000001,-0.14 -0.29000000000000004,-0.21000000000000002 -0.49000000000000005,-0.21000000000000002 c-0.2,0 -0.36000000000000004,0.07 -0.49000000000000005,0.21000000000000002 c-0.13,0.14 -0.19000000000000003,0.33000000000000007 -0.19000000000000003,0.5700000000000001 V34.63000274658202 z" id="svg_52"/>
			</g>
		</g>
	</g>
	<g id="svg_53">
		<rect x="290.4200134277344" y="28.31000518798828" class="st4" width="42.70000076293945" height="2.509999990463257" id="svg_54"/>
		<rect x="290.4200134277344" y="34.290000915527344" class="st4" width="27.59000015258789" height="2.509999990463257" id="svg_55"/>
		<g id="svg_56">
			<circle class="st5" cx="357.1000061035156" cy="32.56000518798828" r="6.230000019073486" id="svg_57"/>
			<path class="st6" d="M350.8799987792969,32.190002746582024 c-0.08000000000000002,1.79 0.6100000000000001,3.6 2.04,4.890000000000001 c1,0.9 2.23,1.4300000000000002 3.49,1.56 " id="svg_58"/>
			<g id="svg_59">
				<path class="st0" d="M354.29999877929686,30.84000274658203 c0,-0.37000000000000005 0.12000000000000001,-0.6700000000000002 0.35000000000000003,-0.91 c0.24000000000000002,-0.24000000000000002 0.54,-0.36000000000000004 0.91,-0.36000000000000004 c0.37000000000000005,0 0.6800000000000002,0.12000000000000001 0.91,0.36000000000000004 c0.23,0.24000000000000002 0.35000000000000003,0.55 0.35000000000000003,0.9400000000000001 v0.30000000000000004 c0,0.37000000000000005 -0.12000000000000001,0.6800000000000002 -0.35000000000000003,0.91 s-0.53,0.35000000000000003 -0.9,0.35000000000000003 c-0.37000000000000005,0 -0.6700000000000002,-0.12000000000000001 -0.91,-0.35000000000000003 s-0.36000000000000004,-0.55 -0.36000000000000004,-0.9400000000000001 V30.84000274658203 zM354.8899987792969,31.160002746582023 c0,0.22000000000000003 0.06000000000000001,0.4 0.19000000000000003,0.54 c0.12000000000000001,0.14 0.29000000000000004,0.21000000000000002 0.5,0.21000000000000002 c0.2,0 0.36000000000000004,-0.07 0.48000000000000004,-0.21000000000000002 c0.12000000000000001,-0.14 0.18000000000000002,-0.33000000000000007 0.18000000000000002,-0.5700000000000001 v-0.31000000000000005 c0,-0.22000000000000003 -0.06000000000000001,-0.4 -0.18000000000000002,-0.55 c-0.12000000000000001,-0.14 -0.29000000000000004,-0.22000000000000003 -0.49000000000000005,-0.22000000000000003 s-0.37000000000000005,0.07 -0.49000000000000005,0.22000000000000003 c-0.12000000000000001,0.14 -0.18000000000000002,0.33000000000000007 -0.18000000000000002,0.56 V31.160002746582023 zM355.7499987792969,35.35000274658202 l-0.44000000000000006,-0.28 l3.01,-4.8100000000000005 l0.44000000000000006,0.28 L355.7499987792969,35.35000274658202 zM357.29999877929686,34.30000274658204 c0,-0.37000000000000005 0.12000000000000001,-0.6700000000000002 0.35000000000000003,-0.91 s0.54,-0.36000000000000004 0.91,-0.36000000000000004 c0.37000000000000005,0 0.6700000000000002,0.12000000000000001 0.91,0.36000000000000004 c0.24000000000000002,0.24000000000000002 0.36000000000000004,0.55 0.36000000000000004,0.9400000000000001 v0.30000000000000004 c0,0.37000000000000005 -0.12000000000000001,0.6700000000000002 -0.35000000000000003,0.91 s-0.54,0.36000000000000004 -0.9,0.36000000000000004 s-0.6700000000000002,-0.12000000000000001 -0.91,-0.35000000000000003 s-0.36000000000000004,-0.55 -0.36000000000000004,-0.9400000000000001 V34.30000274658204 zM357.8899987792969,34.63000274658202 c0,0.22000000000000003 0.06000000000000001,0.41000000000000003 0.19000000000000003,0.55 c0.12000000000000001,0.14 0.29000000000000004,0.21000000000000002 0.5,0.21000000000000002 c0.2,0 0.37000000000000005,-0.07 0.49000000000000005,-0.21000000000000002 c0.12000000000000001,-0.14 0.18000000000000002,-0.33000000000000007 0.18000000000000002,-0.5700000000000001 v-0.31000000000000005 c0,-0.22000000000000003 -0.06000000000000001,-0.41000000000000003 -0.18000000000000002,-0.55 c-0.12000000000000001,-0.14 -0.29000000000000004,-0.21000000000000002 -0.49000000000000005,-0.21000000000000002 c-0.2,0 -0.36000000000000004,0.07 -0.49000000000000005,0.21000000000000002 c-0.13,0.14 -0.19000000000000003,0.33000000000000007 -0.19000000000000003,0.5700000000000001 V34.63000274658202 z" id="svg_60"/>
			</g>
		</g>
	</g>
	<g id="svg_61">
		<rect x="382.5699768066406" y="28.31000518798828" class="st4" width="42.70000076293945" height="2.509999990463257" id="svg_62"/>
		<rect x="382.5699768066406" y="34.290000915527344" class="st4" width="27.59000015258789" height="2.509999990463257" id="svg_63"/>
		<g id="svg_64">
			<circle class="st5" cx="448.8000183105469" cy="32.56000518798828" r="6.230000019073486" id="svg_65"/>
			<path class="st6" d="M453.56999877929684,28.680002746582034 c0.8,0.98 1.29,2.21 1.36,3.56 c0.18000000000000002,3.44 -2.47,6.37 -5.9,6.54 c-0.6900000000000002,0.04000000000000001 -1.36,-0.04000000000000001 -1.99,-0.22000000000000003 " id="svg_66"/>
			<g id="svg_67">
				<path class="st0" d="M445.9999987792969,30.84000274658203 c0,-0.37000000000000005 0.12000000000000001,-0.6700000000000002 0.35000000000000003,-0.91 c0.24000000000000002,-0.24000000000000002 0.54,-0.36000000000000004 0.91,-0.36000000000000004 c0.37000000000000005,0 0.6800000000000002,0.12000000000000001 0.91,0.36000000000000004 s0.35000000000000003,0.55 0.35000000000000003,0.9400000000000001 v0.30000000000000004 c0,0.37000000000000005 -0.12000000000000001,0.6800000000000002 -0.35000000000000003,0.91 c-0.24000000000000002,0.24000000000000002 -0.53,0.35000000000000003 -0.9,0.35000000000000003 c-0.37000000000000005,0 -0.6700000000000002,-0.12000000000000001 -0.91,-0.35000000000000003 s-0.36000000000000004,-0.55 -0.36000000000000004,-0.9400000000000001 V30.84000274658203 zM446.5899987792968,31.160002746582023 c0,0.22000000000000003 0.06000000000000001,0.4 0.19000000000000003,0.54 c0.12000000000000001,0.14 0.29000000000000004,0.21000000000000002 0.5,0.21000000000000002 c0.2,0 0.36000000000000004,-0.07 0.48000000000000004,-0.21000000000000002 c0.12000000000000001,-0.14 0.18000000000000002,-0.33000000000000007 0.18000000000000002,-0.5700000000000001 v-0.31000000000000005 c0,-0.22000000000000003 -0.06000000000000001,-0.4 -0.18000000000000002,-0.55 c-0.12000000000000001,-0.14 -0.29000000000000004,-0.22000000000000003 -0.49000000000000005,-0.22000000000000003 s-0.37000000000000005,0.07 -0.49000000000000005,0.22000000000000003 c-0.12000000000000001,0.14 -0.18000000000000002,0.33000000000000007 -0.18000000000000002,0.56 V31.160002746582023 zM447.44999877929683,35.35000274658202 l-0.44000000000000006,-0.28 l3.01,-4.8100000000000005 l0.44000000000000006,0.28 L447.44999877929683,35.35000274658202 zM448.9999987792969,34.30000274658204 c0,-0.37000000000000005 0.12000000000000001,-0.6700000000000002 0.35000000000000003,-0.91 s0.54,-0.36000000000000004 0.91,-0.36000000000000004 c0.37000000000000005,0 0.6700000000000002,0.12000000000000001 0.91,0.36000000000000004 c0.24000000000000002,0.24000000000000002 0.36000000000000004,0.55 0.36000000000000004,0.9400000000000001 v0.30000000000000004 c0,0.37000000000000005 -0.12000000000000001,0.6700000000000002 -0.35000000000000003,0.91 s-0.54,0.36000000000000004 -0.9,0.36000000000000004 s-0.6700000000000002,-0.12000000000000001 -0.91,-0.35000000000000003 s-0.36000000000000004,-0.55 -0.36000000000000004,-0.9400000000000001 V34.30000274658204 zM449.5899987792968,34.63000274658202 c0,0.22000000000000003 0.06000000000000001,0.41000000000000003 0.19000000000000003,0.55 c0.12000000000000001,0.14 0.29000000000000004,0.21000000000000002 0.5,0.21000000000000002 c0.2,0 0.37000000000000005,-0.07 0.49000000000000005,-0.21000000000000002 c0.12000000000000001,-0.14 0.18000000000000002,-0.33000000000000007 0.18000000000000002,-0.5700000000000001 v-0.31000000000000005 c0,-0.22000000000000003 -0.06000000000000001,-0.41000000000000003 -0.18000000000000002,-0.55 c-0.12000000000000001,-0.14 -0.29000000000000004,-0.21000000000000002 -0.49000000000000005,-0.21000000000000002 c-0.2,0 -0.36000000000000004,0.07 -0.49000000000000005,0.21000000000000002 c-0.13,0.14 -0.19000000000000003,0.33000000000000007 -0.19000000000000003,0.5700000000000001 V34.63000274658202 z" id="svg_68"/>
			</g>
		</g>
	</g>
	<g id="svg_69">
		<rect x="298.7200012207031" y="217.5400161743164" class="st7" width="7.340000152587891" height="7.340000152587891" id="svg_70"/>
		<rect x="311.1600036621094" y="217.5400161743164" class="st4" width="36.939998626708984" height="2.1700000762939453" id="svg_71"/>
		<rect x="311.1600036621094" y="222.72000885009766" class="st4" width="23.8700008392334" height="2.1700000762939453" id="svg_72"/>
	</g>
	<g id="svg_73">
		<rect x="298.7200012207031" y="230.93000030517578" class="st8" width="7.340000152587891" height="7.340000152587891" id="svg_74"/>
		<rect x="311.1600036621094" y="230.93000030517578" class="st4" width="36.939998626708984" height="2.1700000762939453" id="svg_75"/>
		<rect x="311.1600036621094" y="236.10001373291016" class="st4" width="23.8700008392334" height="2.1700000762939453" id="svg_76"/>
	</g>
	<g id="svg_77">
		<rect x="298.7200012207031" y="243.59000396728516" class="st1" width="7.340000152587891" height="7.340000152587891" id="svg_78"/>
		<rect x="311.1600036621094" y="243.59000396728516" class="st4" width="36.939998626708984" height="2.1700000762939453" id="svg_79"/>
		<rect x="311.1600036621094" y="248.7699966430664" class="st4" width="23.8700008392334" height="2.1700000762939453" id="svg_80"/>
	</g>
	<g id="svg_81">
		<g id="svg_82">
			<rect x="122.82998657226562" y="229.32001495361328" class="st4" width="10.729999542236328" height="21.75" id="svg_83"/>
		</g>
		<g id="svg_84">
			<rect x="141.26998901367188" y="208.43000030517578" class="st1" width="10.729999542236328" height="42.63999938964844" id="svg_85"/>
		</g>
		<g id="svg_86">
			<rect x="159.70001220703125" y="247.16999053955078" class="st4" width="10.729999542236328" height="3.9000000953674316" id="svg_87"/>
		</g>
		<g id="svg_88">
			<rect x="178.13998413085938" y="237.18000030517578" class="st1" width="10.729999542236328" height="13.890000343322754" id="svg_89"/>
		</g>
		<g id="svg_90">
			<rect x="196.57998657226562" y="214.81000518798828" class="st4" width="10.729999542236328" height="36.2599983215332" id="svg_91"/>
		</g>
		<g id="svg_92">
			<rect x="233.47000122070312" y="244.13001251220703" class="st4" width="10.729999542236328" height="6.940000057220459" id="svg_93"/>
		</g>
		<g id="svg_94">
			<rect x="251.91000366210938" y="240.38001251220703" class="st1" width="10.729999542236328" height="10.680000305175781" id="svg_95"/>
		</g>
		<g id="svg_96">
			<rect x="215.010009765625" y="227.82999420166016" class="st1" width="10.729999542236328" height="23.239999771118164" id="svg_97"/>
		</g>
	</g>
	<g id="svg_98">
		<g id="svg_99">
			<g id="svg_100">
				<path class="st8" d="M381.8799987792969,204.50000274658203 c11.19,-11.85 30.04,-12.49 42.02,-1.42 c11.98,11.07 12.620000000000001,29.72 1.4300000000000002,41.58 c-11.19,11.85 -30.04,12.49 -42.02,1.42 C371.3299987792969,235.01000274658202 370.6899987792969,216.36000274658204 381.8799987792969,204.50000274658203 zM413.9899987792969,234.18000274658203 c5.35,-5.67 5.04,-14.59 -0.6800000000000002,-19.88 c-5.73,-5.29 -14.74,-4.99 -20.09,0.6800000000000002 c-5.35,5.67 -5.04,14.59 0.6800000000000002,19.88 C399.6299987792969,240.16000274658205 408.6399987792969,239.85000274658205 413.9899987792969,234.18000274658203 z" id="svg_101"/>
			</g>
			<g id="svg_102">
				<path class="st4" d="M381.8799987792969,204.50000274658203 c11.19,-11.85 30.04,-12.49 42.02,-1.42 l-10.59,11.22 c-5.73,-5.29 -14.74,-4.99 -20.09,0.6800000000000002 c-5.35,5.67 -5.04,14.59 0.6800000000000002,19.88 l-10.59,11.22 C371.3299987792969,235.01000274658202 370.6899987792969,216.36000274658204 381.8799987792969,204.50000274658203 z" id="svg_103"/>
			</g>
			<g id="svg_104">
				<path class="st7" d="M422.67999877929685,198.28000274658206 c14.68,13.56 16.43,35.61 2.72,50.13 l-14.89,-12.84 c6.55,-6.94 7.98,-16.21 0.9600000000000001,-22.7 L422.67999877929685,198.28000274658206 z" id="svg_105"/>
			</g>
		</g>
		<path class="st1" d="M408.96999877929693,236.50000274658203 l8.84,17.48 c3.93,-1.56 7.21,-3.62 9.64,-6.34 l-15.88,-12.82 L408.96999877929693,236.50000274658203 z" id="svg_106"/>
	</g>
	<g id="svg_107">
		<path class="st9" d="M61.729998779296864,68.30000274658204 h-33.39 c-0.9500000000000001,0 -1.7200000000000002,-0.77 -1.7200000000000002,-1.7200000000000002 l0,0 c0,-0.9500000000000001 0.77,-1.7200000000000002 1.7200000000000002,-1.7200000000000002 h33.39 c0.9500000000000001,0 1.7200000000000002,0.77 1.7200000000000002,1.7200000000000002 l0,0 C63.44999877929686,67.52000274658204 62.67999877929688,68.30000274658204 61.729998779296864,68.30000274658204 z" id="svg_108"/>
		<path class="st9" d="M51.029998779296875,97.15000274658203 h-22.69 c-0.9500000000000001,0 -1.7200000000000002,-0.77 -1.7200000000000002,-1.7200000000000002 l0,0 c0,-0.9500000000000001 0.77,-1.7200000000000002 1.7200000000000002,-1.7200000000000002 h22.69 c0.9500000000000001,0 1.7200000000000002,0.77 1.7200000000000002,1.7200000000000002 l0,0 C52.759998779296865,96.38000274658202 51.98999877929688,97.15000274658203 51.029998779296875,97.15000274658203 z" id="svg_109"/>
		<path class="st9" d="M69.56999877929687,124.00000274658203 h-41.23 c-0.9500000000000001,0 -1.7200000000000002,-0.77 -1.7200000000000002,-1.7200000000000002 l0,0 c0,-0.9500000000000001 0.77,-1.7200000000000002 1.7200000000000002,-1.7200000000000002 h41.23 c0.9500000000000001,0 1.7200000000000002,0.77 1.7200000000000002,1.7200000000000002 l0,0 C71.28999877929687,123.23000274658204 70.51999877929688,124.00000274658203 69.56999877929687,124.00000274658203 z" id="svg_110"/>
		<path class="st9" d="M48.17999877929688,149.85000274658205 h-19.84 c-0.9500000000000001,0 -1.7200000000000002,-0.77 -1.7200000000000002,-1.7200000000000002 l0,0 c0,-0.9500000000000001 0.77,-1.7200000000000002 1.7200000000000002,-1.7200000000000002 h19.84 c0.9500000000000001,0 1.7200000000000002,0.77 1.7200000000000002,1.7200000000000002 l0,0 C49.90999877929687,149.080002746582 49.12999877929687,149.85000274658205 48.17999877929688,149.85000274658205 z" id="svg_111"/>
		<path class="st9" d="M19.069998779296867,71.03000274658203 h-6.06 c-0.8900000000000001,0 -1.6,-0.7200000000000001 -1.6,-1.6 v-5.7 c0,-0.8900000000000001 0.7200000000000001,-1.6 1.6,-1.6 h6.06 c0.8900000000000001,0 1.6,0.7200000000000001 1.6,1.6 v5.7 C20.67999877929688,70.31000274658203 19.959998779296882,71.03000274658203 19.069998779296867,71.03000274658203 z" id="svg_112"/>
		<path class="st9" d="M19.069998779296867,99.88000274658202 h-6.06 c-0.8900000000000001,0 -1.6,-0.7200000000000001 -1.6,-1.6 v-5.7 c0,-0.8900000000000001 0.7200000000000001,-1.6 1.6,-1.6 h6.06 c0.8900000000000001,0 1.6,0.7200000000000001 1.6,1.6 v5.7 C20.67999877929688,99.16000274658202 19.959998779296882,99.88000274658202 19.069998779296867,99.88000274658202 z" id="svg_113"/>
		<path class="st9" d="M19.069998779296867,126.73000274658204 h-6.06 c-0.8900000000000001,0 -1.6,-0.7200000000000001 -1.6,-1.6 v-5.7 c0,-0.8900000000000001 0.7200000000000001,-1.6 1.6,-1.6 h6.06 c0.8900000000000001,0 1.6,0.7200000000000001 1.6,1.6 v5.7 C20.67999877929688,126.01000274658202 19.959998779296882,126.73000274658204 19.069998779296867,126.73000274658204 z" id="svg_114"/>
		<path class="st9" d="M19.069998779296867,152.580002746582 h-6.06 c-0.8900000000000001,0 -1.6,-0.7200000000000001 -1.6,-1.6 v-5.7 c0,-0.8900000000000001 0.7200000000000001,-1.6 1.6,-1.6 h6.06 c0.8900000000000001,0 1.6,0.7200000000000001 1.6,1.6 v5.7 C20.67999877929688,151.86000274658204 19.959998779296882,152.580002746582 19.069998779296867,152.580002746582 z" id="svg_115"/>
	</g>
	<g id="svg_116">
		<path class="st1" d="M186.51999877929688,63.210002746582035 c0,0.91 -0.6600000000000001,1.46 -1.75,1.46 h-1.04 v1.27 h-0.6000000000000001 v-4.2 h1.6400000000000001 C185.85999877929686,61.75000274658203 186.51999877929688,62.30000274658204 186.51999877929688,63.210002746582035 zM185.91999877929686,63.210002746582035 c0,-0.6000000000000001 -0.4,-0.9400000000000001 -1.17,-0.9400000000000001 h-1.02 v1.8800000000000001 h1.02 C185.51999877929688,64.15000274658203 185.91999877929686,63.81000274658203 185.91999877929686,63.210002746582035 z" id="svg_117"/>
		<path class="st1" d="M190.33999877929688,66.01000274658202 l-0.56,-0.56 c-0.37000000000000005,0.35000000000000003 -0.8500000000000001,0.54 -1.4,0.54 c-0.8500000000000001,0 -1.47,-0.45 -1.47,-1.09 c0,-0.52 0.29000000000000004,-0.8800000000000001 1.02,-1.29 c-0.38000000000000006,-0.38000000000000006 -0.5,-0.6500000000000001 -0.5,-0.9600000000000001 c0,-0.56 0.44000000000000006,-0.9400000000000001 1.13,-0.9400000000000001 c0.6400000000000001,0 1.04,0.33000000000000007 1.04,0.8800000000000001 c0,0.43000000000000005 -0.25,0.7300000000000001 -0.8900000000000001,1.1 l1.04,1.03 c0.11000000000000001,-0.22000000000000003 0.2,-0.47000000000000003 0.26,-0.7600000000000001 l0.46,0.15000000000000002 c-0.07,0.37000000000000005 -0.2,0.7000000000000001 -0.37000000000000005,0.9600000000000001 l0.56,0.56 L190.33999877929688,66.01000274658202 zM189.4399987792969,65.12000274658203 l-1.19,-1.19 c-0.5900000000000001,0.33000000000000007 -0.77,0.5800000000000001 -0.77,0.91 c0,0.4 0.38000000000000006,0.6700000000000002 0.9400000000000001,0.6700000000000002 C188.8199987792969,65.51000274658202 189.16999877929686,65.38000274658202 189.4399987792969,65.12000274658203 zM187.95999877929688,62.64000274658204 c0,0.22000000000000003 0.08000000000000002,0.37000000000000005 0.43000000000000005,0.7200000000000001 c0.55,-0.31000000000000005 0.7300000000000001,-0.5 0.7300000000000001,-0.77 c0,-0.28 -0.2,-0.46 -0.56,-0.46 C188.17999877929685,62.13000274658202 187.95999877929688,62.34000274658203 187.95999877929688,62.64000274658204 z" id="svg_118"/>
		<path class="st1" d="M191.3899987792969,61.75000274658203 h0.6000000000000001 v3.68 h2.27 v0.52 h-2.87 V61.75000274658203 z" id="svg_119"/>
	</g>
	<g id="svg_120">
		<path class="st1" d="M167.1299987792969,181.640002746582 v0.52 h-3.05 v-4.2 h2.96 v0.52 h-2.36 v1.29 h2.1 v0.51 h-2.1 v1.36 H167.1299987792969 z" id="svg_121"/>
		<path class="st1" d="M169.96999877929687,182.16000274658205 l-0.92,-1.22 l-0.93,1.22 h-0.6400000000000001 l1.25,-1.62 l-1.19,-1.55 h0.6400000000000001 l0.8800000000000001,1.15 l0.8700000000000001,-1.15 h0.6300000000000001 l-1.2,1.55 l1.27,1.62 H169.96999877929687 z" id="svg_122"/>
		<path class="st1" d="M174.54999877929686,180.57000274658202 c0,0.98 -0.6800000000000002,1.6300000000000001 -1.61,1.6300000000000001 c-0.45,0 -0.8500000000000001,-0.17 -1.11,-0.52 v1.6400000000000001 h-0.5800000000000001 v-4.34 h0.55 v0.5 c0.26,-0.35000000000000003 0.6700000000000002,-0.53 1.13,-0.53 C173.86999877929685,178.960002746582 174.54999877929686,179.60000274658205 174.54999877929686,180.57000274658202 zM173.96999877929687,180.57000274658202 c0,-0.6700000000000002 -0.46,-1.12 -1.07,-1.12 c-0.6100000000000001,0 -1.07,0.44000000000000006 -1.07,1.12 c0,0.6800000000000002 0.46,1.12 1.07,1.12 C173.5099987792969,181.70000274658202 173.96999877929687,181.25000274658203 173.96999877929687,180.57000274658202 z" id="svg_123"/>
		<path class="st1" d="M178.20999877929688,180.770002746582 h-2.58 c0.07,0.56 0.52,0.93 1.15,0.93 c0.37000000000000005,0 0.6800000000000002,-0.13 0.92,-0.38000000000000006 l0.32000000000000006,0.37000000000000005 c-0.29000000000000004,0.33000000000000007 -0.7300000000000001,0.52 -1.25,0.52 c-1.03,0 -1.71,-0.6800000000000002 -1.71,-1.6300000000000001 c0,-0.9400000000000001 0.6800000000000002,-1.62 1.6,-1.62 s1.57,0.6600000000000001 1.57,1.6400000000000001 C178.21999877929687,180.640002746582 178.21999877929687,180.710002746582 178.20999877929688,180.770002746582 zM175.6299987792969,180.35000274658205 h2.04 c-0.06000000000000001,-0.53 -0.46,-0.91 -1.02,-0.91 C176.09999877929687,179.44000274658202 175.6899987792969,179.81000274658203 175.6299987792969,180.35000274658205 z" id="svg_124"/>
		<path class="st1" d="M182.03999877929687,180.330002746582 v1.83 h-0.5800000000000001 v-1.7600000000000002 c0,-0.6200000000000001 -0.31000000000000005,-0.93 -0.8600000000000001,-0.93 c-0.6100000000000001,0 -1.01,0.37000000000000005 -1.01,1.05 v1.6400000000000001 h-0.5800000000000001 v-3.18 h0.55 v0.48000000000000004 c0.23,-0.32000000000000006 0.6400000000000001,-0.51 1.15,-0.51 C181.48999877929685,178.960002746582 182.03999877929687,179.400002746582 182.03999877929687,180.330002746582 z" id="svg_125"/>
		<path class="st1" d="M182.70999877929688,181.830002746582 l0.24000000000000002,-0.46 c0.27,0.19000000000000003 0.7000000000000001,0.33000000000000007 1.12,0.33000000000000007 c0.53,0 0.7600000000000001,-0.16000000000000003 0.7600000000000001,-0.43000000000000005 c0,-0.7100000000000001 -2.01,-0.1 -2.01,-1.36 c0,-0.5700000000000001 0.51,-0.9500000000000001 1.33,-0.9500000000000001 c0.41000000000000003,0 0.8800000000000001,0.11000000000000001 1.1600000000000001,0.29000000000000004 l-0.25,0.46 c-0.29000000000000004,-0.19000000000000003 -0.6100000000000001,-0.25 -0.92,-0.25 c-0.5,0 -0.7500000000000001,0.19000000000000003 -0.7500000000000001,0.44000000000000006 c0,0.7500000000000001 2.02,0.14 2.02,1.37 c0,0.5800000000000001 -0.53,0.9400000000000001 -1.37,0.9400000000000001 C183.48999877929685,182.20000274658202 182.96999877929687,182.04000274658205 182.70999877929688,181.830002746582 z" id="svg_126"/>
		<path class="st1" d="M188.97999877929686,180.770002746582 h-2.58 c0.07,0.56 0.52,0.93 1.15,0.93 c0.37000000000000005,0 0.6800000000000002,-0.13 0.92,-0.38000000000000006 l0.32000000000000006,0.37000000000000005 c-0.29000000000000004,0.33000000000000007 -0.7300000000000001,0.52 -1.25,0.52 c-1.03,0 -1.71,-0.6800000000000002 -1.71,-1.6300000000000001 c0,-0.9400000000000001 0.6800000000000002,-1.62 1.6,-1.62 s1.57,0.6600000000000001 1.57,1.6400000000000001 C188.98999877929685,180.640002746582 188.97999877929686,180.710002746582 188.97999877929686,180.770002746582 zM186.39999877929688,180.35000274658205 h2.04 c-0.06000000000000001,-0.53 -0.46,-0.91 -1.02,-0.91 C186.85999877929686,179.44000274658202 186.45999877929688,179.81000274658203 186.39999877929688,180.35000274658205 z" id="svg_127"/>
		<path class="st1" d="M189.3899987792969,181.830002746582 l0.24000000000000002,-0.46 c0.27,0.19000000000000003 0.7000000000000001,0.33000000000000007 1.12,0.33000000000000007 c0.53,0 0.7600000000000001,-0.16000000000000003 0.7600000000000001,-0.43000000000000005 c0,-0.7100000000000001 -2.01,-0.1 -2.01,-1.36 c0,-0.5700000000000001 0.51,-0.9500000000000001 1.33,-0.9500000000000001 c0.41000000000000003,0 0.8800000000000001,0.11000000000000001 1.1600000000000001,0.29000000000000004 l-0.25,0.46 c-0.29000000000000004,-0.19000000000000003 -0.6100000000000001,-0.25 -0.92,-0.25 c-0.5,0 -0.7500000000000001,0.19000000000000003 -0.7500000000000001,0.44000000000000006 c0,0.7500000000000001 2.02,0.14 2.02,1.37 c0,0.5800000000000001 -0.53,0.9400000000000001 -1.37,0.9400000000000001 C190.16999877929686,182.20000274658202 189.64999877929688,182.04000274658205 189.3899987792969,181.830002746582 z" id="svg_128"/>
		<path class="st1" d="M197.6999987792969,180.57000274658202 c0,0.97 -0.6800000000000002,1.6300000000000001 -1.61,1.6300000000000001 c-0.47000000000000003,0 -0.8800000000000001,-0.18000000000000002 -1.13,-0.54 v0.5 h-0.55 v-4.45 h0.5800000000000001 v1.75 c0.26,-0.3400000000000001 0.6600000000000001,-0.51 1.11,-0.51 C197.01999877929688,178.960002746582 197.6999987792969,179.60000274658205 197.6999987792969,180.57000274658202 zM197.11999877929685,180.57000274658202 c0,-0.6800000000000002 -0.46,-1.12 -1.07,-1.12 c-0.6100000000000001,0 -1.07,0.44000000000000006 -1.07,1.12 c0,0.6800000000000002 0.46,1.12 1.07,1.12 C196.65999877929687,181.70000274658202 197.11999877929685,181.25000274658203 197.11999877929685,180.57000274658202 z" id="svg_129"/>
		<path class="st1" d="M201.21999877929687,178.98000274658204 l-1.54,3.5 c-0.28,0.6700000000000002 -0.6500000000000001,0.8800000000000001 -1.13,0.8800000000000001 c-0.31000000000000005,0 -0.6200000000000001,-0.1 -0.8200000000000001,-0.29000000000000004 l0.25,-0.43000000000000005 c0.16000000000000003,0.15000000000000002 0.35000000000000003,0.23 0.5700000000000001,0.23 c0.28,0 0.45,-0.13 0.6100000000000001,-0.49000000000000005 l0.1,-0.22000000000000003 l-1.4,-3.17 h0.6000000000000001 l1.11,2.54 l1.1,-2.54 H201.21999877929687 z" id="svg_130"/>
		<path class="st1" d="M206.36999877929685,180.04000274658205 h0.5800000000000001 v1.6400000000000001 c-0.42000000000000004,0.35000000000000003 -1,0.53 -1.59,0.53 c-1.29,0 -2.24,-0.91 -2.24,-2.15 c0,-1.24 0.9500000000000001,-2.15 2.25,-2.15 c0.6700000000000002,0 1.23,0.22000000000000003 1.61,0.6500000000000001 l-0.37000000000000005,0.37000000000000005 c-0.35000000000000003,-0.3400000000000001 -0.7400000000000001,-0.49000000000000005 -1.22,-0.49000000000000005 c-0.97,0 -1.6700000000000002,0.6800000000000002 -1.6700000000000002,1.61 c0,0.92 0.7000000000000001,1.61 1.6700000000000002,1.61 c0.35000000000000003,0 0.6800000000000002,-0.08000000000000002 0.98,-0.27 V180.04000274658205 z" id="svg_131"/>
		<path class="st1" d="M209.71999877929687,178.960002746582 v0.56 c-0.05000000000000001,-0.010000000000000002 -0.09000000000000002,-0.010000000000000002 -0.13,-0.010000000000000002 c-0.6200000000000001,0 -1,0.38000000000000006 -1,1.07 v1.58 h-0.5800000000000001 v-3.18 h0.55 v0.53 C208.7599987792969,179.150002746582 209.15999877929687,178.960002746582 209.71999877929687,178.960002746582 z" id="svg_132"/>
		<path class="st1" d="M210.09999877929687,180.57000274658202 c0,-0.9500000000000001 0.7000000000000001,-1.62 1.6500000000000001,-1.62 c0.9500000000000001,0 1.6500000000000001,0.6700000000000002 1.6500000000000001,1.62 c0,0.9500000000000001 -0.7000000000000001,1.6300000000000001 -1.6500000000000001,1.6300000000000001 C210.79999877929686,182.20000274658202 210.09999877929687,181.520002746582 210.09999877929687,180.57000274658202 zM212.8299987792969,180.57000274658202 c0,-0.6800000000000002 -0.46,-1.12 -1.07,-1.12 c-0.6100000000000001,0 -1.07,0.44000000000000006 -1.07,1.12 c0,0.6800000000000002 0.46,1.12 1.07,1.12 C212.36999877929685,181.70000274658202 212.8299987792969,181.25000274658203 212.8299987792969,180.57000274658202 z" id="svg_133"/>
		<path class="st1" d="M217.16999877929686,178.98000274658204 v3.18 h-0.55 v-0.48000000000000004 c-0.23,0.33000000000000007 -0.6300000000000001,0.52 -1.08,0.52 c-0.8200000000000001,0 -1.37,-0.45 -1.37,-1.3900000000000001 v-1.83 h0.5800000000000001 v1.7600000000000002 c0,0.6200000000000001 0.31000000000000005,0.9400000000000001 0.8600000000000001,0.9400000000000001 c0.6000000000000001,0 0.98,-0.37000000000000005 0.98,-1.06 v-1.6400000000000001 H217.16999877929686 z" id="svg_134"/>
		<path class="st1" d="M221.55999877929685,180.57000274658202 c0,0.98 -0.6800000000000002,1.6300000000000001 -1.61,1.6300000000000001 c-0.45,0 -0.8500000000000001,-0.17 -1.11,-0.52 v1.6400000000000001 h-0.5800000000000001 v-4.34 h0.55 v0.5 c0.26,-0.35000000000000003 0.6700000000000002,-0.53 1.13,-0.53 C220.8799987792969,178.960002746582 221.55999877929685,179.60000274658205 221.55999877929685,180.57000274658202 zM220.97999877929686,180.57000274658202 c0,-0.6700000000000002 -0.46,-1.12 -1.07,-1.12 c-0.6100000000000001,0 -1.07,0.44000000000000006 -1.07,1.12 c0,0.6800000000000002 0.46,1.12 1.07,1.12 C220.51999877929688,181.70000274658202 220.97999877929686,181.25000274658203 220.97999877929686,180.57000274658202 z" id="svg_135"/>
	</g>
	<g id="svg_136">
		<path class="st1" d="M363.1999987792969,65.94000274658202 l-0.91,-1.29 c-0.08000000000000002,0.010000000000000002 -0.17,0.010000000000000002 -0.26,0.010000000000000002 h-1.04 v1.28 h-0.6000000000000001 v-4.2 h1.6400000000000001 c1.09,0 1.75,0.55 1.75,1.46 c0,0.6500000000000001 -0.33000000000000007,1.12 -0.92,1.33 l1,1.4100000000000001 H363.1999987792969 zM363.17999877929685,63.210002746582035 c0,-0.6000000000000001 -0.4,-0.9400000000000001 -1.17,-0.9400000000000001 h-1.02 v1.8900000000000001 h1.02 C362.7799987792969,64.16000274658202 363.17999877929685,63.81000274658203 363.17999877929685,63.210002746582035 z" id="svg_137"/>
		<path class="st1" d="M367.5299987792969,64.55000274658204 h-2.58 c0.07,0.56 0.52,0.93 1.15,0.93 c0.37000000000000005,0 0.6800000000000002,-0.13 0.92,-0.38000000000000006 l0.32000000000000006,0.37000000000000005 c-0.29000000000000004,0.3400000000000001 -0.7300000000000001,0.52 -1.25,0.52 c-1.03,0 -1.71,-0.6800000000000002 -1.71,-1.6300000000000001 c0,-0.9400000000000001 0.6800000000000002,-1.62 1.59,-1.62 c0.92,0 1.57,0.6600000000000001 1.57,1.6400000000000001 C367.54999877929686,64.42000274658204 367.53999877929687,64.49000274658204 367.5299987792969,64.55000274658204 zM364.9499987792969,64.13000274658202 h2.04 c-0.06000000000000001,-0.53 -0.46,-0.91 -1.02,-0.91 C365.41999877929686,63.220002746582026 365.0199987792969,63.59000274658203 364.9499987792969,64.13000274658202 z" id="svg_138"/>
		<path class="st1" d="M371.09999877929687,62.77000274658204 l-1.3900000000000001,3.18 h-0.5900000000000001 l-1.3900000000000001,-3.18 h0.6000000000000001 l1.09,2.55 l1.12,-2.55 H371.09999877929687 z" id="svg_139"/>
		<path class="st1" d="M374.40999877929687,64.55000274658204 h-2.58 c0.07,0.56 0.52,0.93 1.15,0.93 c0.37000000000000005,0 0.6800000000000002,-0.13 0.92,-0.38000000000000006 l0.32000000000000006,0.37000000000000005 c-0.29000000000000004,0.3400000000000001 -0.7300000000000001,0.52 -1.25,0.52 c-1.03,0 -1.71,-0.6800000000000002 -1.71,-1.6300000000000001 c0,-0.9400000000000001 0.6800000000000002,-1.62 1.59,-1.62 c0.92,0 1.57,0.6600000000000001 1.57,1.6400000000000001 C374.41999877929686,64.42000274658204 374.41999877929686,64.49000274658204 374.40999877929687,64.55000274658204 zM371.8299987792969,64.13000274658202 h2.04 c-0.06000000000000001,-0.53 -0.46,-0.91 -1.02,-0.91 C372.29999877929686,63.220002746582026 371.8899987792969,63.59000274658203 371.8299987792969,64.13000274658202 z" id="svg_140"/>
		<path class="st1" d="M378.2399987792969,64.11000274658204 v1.83 h-0.5800000000000001 v-1.7600000000000002 c0,-0.6200000000000001 -0.31000000000000005,-0.93 -0.8600000000000001,-0.93 c-0.6100000000000001,0 -1.01,0.37000000000000005 -1.01,1.06 v1.6400000000000001 h-0.5800000000000001 v-3.18 h0.55 v0.48000000000000004 c0.23,-0.32000000000000006 0.6400000000000001,-0.51 1.15,-0.51 C377.68999877929684,62.740002746582036 378.2399987792969,63.18000274658203 378.2399987792969,64.11000274658204 z" id="svg_141"/>
		<path class="st1" d="M382.2699987792969,62.77000274658204 v3.18 h-0.55 v-0.48000000000000004 c-0.23,0.33000000000000007 -0.6300000000000001,0.52 -1.08,0.52 c-0.8200000000000001,0 -1.37,-0.45 -1.37,-1.3900000000000001 v-1.83 h0.5800000000000001 v1.7600000000000002 c0,0.6200000000000001 0.31000000000000005,0.9400000000000001 0.8600000000000001,0.9400000000000001 c0.6000000000000001,0 0.98,-0.37000000000000005 0.98,-1.06 v-1.6400000000000001 H382.2699987792969 z" id="svg_142"/>
		<path class="st1" d="M386.2299987792969,64.55000274658204 h-2.58 c0.07,0.56 0.52,0.93 1.15,0.93 c0.37000000000000005,0 0.6800000000000002,-0.13 0.92,-0.38000000000000006 l0.32000000000000006,0.37000000000000005 c-0.29000000000000004,0.3400000000000001 -0.7300000000000001,0.52 -1.25,0.52 c-1.03,0 -1.71,-0.6800000000000002 -1.71,-1.6300000000000001 c0,-0.9400000000000001 0.6800000000000002,-1.62 1.6,-1.62 c0.92,0 1.57,0.6600000000000001 1.57,1.6400000000000001 C386.2399987792969,64.42000274658204 386.2399987792969,64.49000274658204 386.2299987792969,64.55000274658204 zM383.6499987792969,64.13000274658202 h2.04 c-0.06000000000000001,-0.53 -0.46,-0.91 -1.02,-0.91 C384.1199987792969,63.220002746582026 383.7099987792968,63.59000274658203 383.6499987792969,64.13000274658202 z" id="svg_143"/>
	</g>
	<g id="svg_144">
		<path class="st1" d="M337.6299987792969,182.16000274658205 l-0.91,-1.29 c-0.08000000000000002,0.010000000000000002 -0.17,0.010000000000000002 -0.26,0.010000000000000002 h-1.04 v1.28 h-0.6000000000000001 v-4.2 h1.6400000000000001 c1.09,0 1.75,0.55 1.75,1.46 c0,0.6500000000000001 -0.3400000000000001,1.12 -0.92,1.33 l1,1.4100000000000001 H337.6299987792969 zM337.61999877929685,179.43000274658203 c0,-0.6000000000000001 -0.4,-0.9400000000000001 -1.17,-0.9400000000000001 h-1.02 v1.8900000000000001 h1.02 C337.2099987792969,180.38000274658202 337.61999877929685,180.03000274658206 337.61999877929685,179.43000274658203 z" id="svg_145"/>
		<path class="st1" d="M341.9699987792969,180.770002746582 h-2.58 c0.07,0.56 0.52,0.93 1.15,0.93 c0.37000000000000005,0 0.6800000000000002,-0.13 0.92,-0.38000000000000006 l0.32000000000000006,0.37000000000000005 c-0.29000000000000004,0.33000000000000007 -0.7300000000000001,0.52 -1.25,0.52 c-1.03,0 -1.71,-0.6800000000000002 -1.71,-1.6300000000000001 c0,-0.9400000000000001 0.6800000000000002,-1.62 1.6,-1.62 c0.92,0 1.57,0.6600000000000001 1.57,1.6400000000000001 C341.97999877929686,180.640002746582 341.9699987792969,180.710002746582 341.9699987792969,180.770002746582 zM339.3899987792969,180.35000274658205 h2.04 c-0.06000000000000001,-0.53 -0.46,-0.91 -1.02,-0.91 C339.85999877929686,179.44000274658202 339.4499987792969,179.81000274658203 339.3899987792969,180.35000274658205 z" id="svg_146"/>
		<path class="st1" d="M342.3799987792969,181.830002746582 l0.24000000000000002,-0.46 c0.27,0.19000000000000003 0.7000000000000001,0.33000000000000007 1.12,0.33000000000000007 c0.53,0 0.7600000000000001,-0.16000000000000003 0.7600000000000001,-0.43000000000000005 c0,-0.7100000000000001 -2.01,-0.1 -2.01,-1.36 c0,-0.5700000000000001 0.51,-0.9500000000000001 1.33,-0.9500000000000001 c0.41000000000000003,0 0.8800000000000001,0.11000000000000001 1.1600000000000001,0.29000000000000004 l-0.25,0.46 c-0.29000000000000004,-0.19000000000000003 -0.6100000000000001,-0.25 -0.92,-0.25 c-0.5,0 -0.7500000000000001,0.19000000000000003 -0.7500000000000001,0.44000000000000006 c0,0.7500000000000001 2.02,0.14 2.02,1.37 c0,0.5800000000000001 -0.53,0.9400000000000001 -1.37,0.9400000000000001 C343.15999877929687,182.20000274658202 342.6399987792969,182.04000274658205 342.3799987792969,181.830002746582 z" id="svg_147"/>
		<path class="st1" d="M348.6499987792969,180.770002746582 h-2.58 c0.07,0.56 0.52,0.93 1.15,0.93 c0.37000000000000005,0 0.6800000000000002,-0.13 0.92,-0.38000000000000006 l0.32000000000000006,0.37000000000000005 c-0.29000000000000004,0.33000000000000007 -0.7300000000000001,0.52 -1.25,0.52 c-1.03,0 -1.71,-0.6800000000000002 -1.71,-1.6300000000000001 c0,-0.9400000000000001 0.6800000000000002,-1.62 1.59,-1.62 c0.92,0 1.57,0.6600000000000001 1.57,1.6400000000000001 C348.65999877929687,180.640002746582 348.6499987792969,180.710002746582 348.6499987792969,180.770002746582 zM346.0699987792969,180.35000274658205 h2.04 c-0.06000000000000001,-0.53 -0.46,-0.91 -1.02,-0.91 C346.5299987792969,179.44000274658202 346.1299987792969,179.81000274658203 346.0699987792969,180.35000274658205 z" id="svg_148"/>
		<path class="st1" d="M351.16999877929686,178.960002746582 v0.56 c-0.05000000000000001,-0.010000000000000002 -0.09000000000000002,-0.010000000000000002 -0.13,-0.010000000000000002 c-0.6200000000000001,0 -1,0.38000000000000006 -1,1.07 v1.58 h-0.5800000000000001 v-3.18 h0.55 v0.53 C350.2099987792969,179.150002746582 350.60999877929686,178.960002746582 351.16999877929686,178.960002746582 z" id="svg_149"/>
		<path class="st1" d="M354.8199987792969,178.98000274658204 l-1.3900000000000001,3.18 h-0.5900000000000001 l-1.3900000000000001,-3.18 h0.6000000000000001 l1.09,2.55 l1.12,-2.55 H354.8199987792969 z" id="svg_150"/>
		<path class="st1" d="M357.7799987792969,180.24000274658204 v1.92 h-0.55 v-0.42000000000000004 c-0.19000000000000003,0.29000000000000004 -0.55,0.46 -1.04,0.46 c-0.7200000000000001,0 -1.17,-0.38000000000000006 -1.17,-0.9400000000000001 c0,-0.51 0.33000000000000007,-0.93 1.28,-0.93 h0.91 v-0.11000000000000001 c0,-0.49000000000000005 -0.28,-0.77 -0.8500000000000001,-0.77 c-0.38000000000000006,0 -0.7600000000000001,0.13 -1.01,0.3400000000000001 l-0.24000000000000002,-0.43000000000000005 c0.33000000000000007,-0.26 0.8,-0.41000000000000003 1.31,-0.41000000000000003 C357.28999877929687,178.960002746582 357.7799987792969,179.37000274658203 357.7799987792969,180.24000274658204 zM357.1999987792969,181.19000274658202 v-0.44000000000000006 h-0.8900000000000001 c-0.5700000000000001,0 -0.7300000000000001,0.22000000000000003 -0.7300000000000001,0.49000000000000005 c0,0.32000000000000006 0.26,0.52 0.7000000000000001,0.52 C356.7199987792969,181.76000274658202 357.05999877929685,181.56000274658203 357.1999987792969,181.19000274658202 z" id="svg_151"/>
		<path class="st1" d="M360.6299987792969,181.98000274658204 c-0.17,0.15000000000000002 -0.44000000000000006,0.22000000000000003 -0.7000000000000001,0.22000000000000003 c-0.6400000000000001,0 -1.01,-0.35000000000000003 -1.01,-1 v-1.75 h-0.54 v-0.47000000000000003 h0.54 v-0.7000000000000001 h0.5800000000000001 v0.7000000000000001 h0.91 v0.47000000000000003 h-0.91 v1.7200000000000002 c0,0.3400000000000001 0.18000000000000002,0.53 0.5,0.53 c0.17,0 0.33000000000000007,-0.05000000000000001 0.45,-0.15000000000000002 L360.6299987792969,181.98000274658204 z" id="svg_152"/>
		<path class="st1" d="M361.22999877929686,178.00000274658203 c0,-0.21000000000000002 0.17,-0.38000000000000006 0.39000000000000007,-0.38000000000000006 s0.39000000000000007,0.16000000000000003 0.39000000000000007,0.37000000000000005 c0,0.22000000000000003 -0.16000000000000003,0.38000000000000006 -0.39000000000000007,0.38000000000000006 C361.3999987792969,178.37000274658203 361.22999877929686,178.210002746582 361.22999877929686,178.00000274658203 zM361.3299987792969,178.98000274658204 h0.5800000000000001 v3.18 h-0.5800000000000001 V178.98000274658204 z" id="svg_153"/>
		<path class="st1" d="M362.7099987792969,180.57000274658202 c0,-0.9500000000000001 0.7000000000000001,-1.62 1.6500000000000001,-1.62 c0.9500000000000001,0 1.6500000000000001,0.6700000000000002 1.6500000000000001,1.62 c0,0.9500000000000001 -0.7000000000000001,1.6300000000000001 -1.6500000000000001,1.6300000000000001 C363.40999877929687,182.20000274658202 362.7099987792969,181.520002746582 362.7099987792969,180.57000274658202 zM365.42999877929685,180.57000274658202 c0,-0.6800000000000002 -0.46,-1.12 -1.07,-1.12 c-0.6100000000000001,0 -1.07,0.44000000000000006 -1.07,1.12 c0,0.6800000000000002 0.46,1.12 1.07,1.12 C364.97999877929686,181.70000274658202 365.42999877929685,181.25000274658203 365.42999877929685,180.57000274658202 z" id="svg_154"/>
		<path class="st1" d="M369.8299987792969,180.330002746582 v1.83 h-0.5800000000000001 v-1.7600000000000002 c0,-0.6200000000000001 -0.31000000000000005,-0.93 -0.8600000000000001,-0.93 c-0.6100000000000001,0 -1.01,0.37000000000000005 -1.01,1.05 v1.6400000000000001 h-0.5800000000000001 v-3.18 h0.55 v0.48000000000000004 c0.23,-0.32000000000000006 0.6400000000000001,-0.51 1.15,-0.51 C369.2799987792969,178.960002746582 369.8299987792969,179.400002746582 369.8299987792969,180.330002746582 z" id="svg_155"/>
		<path class="st1" d="M370.4999987792969,181.830002746582 l0.24000000000000002,-0.46 c0.27,0.19000000000000003 0.7000000000000001,0.33000000000000007 1.12,0.33000000000000007 c0.53,0 0.7600000000000001,-0.16000000000000003 0.7600000000000001,-0.43000000000000005 c0,-0.7100000000000001 -2.01,-0.1 -2.01,-1.36 c0,-0.5700000000000001 0.51,-0.9500000000000001 1.33,-0.9500000000000001 c0.41000000000000003,0 0.8800000000000001,0.11000000000000001 1.1600000000000001,0.29000000000000004 l-0.25,0.46 c-0.29000000000000004,-0.19000000000000003 -0.6100000000000001,-0.25 -0.92,-0.25 c-0.5,0 -0.7500000000000001,0.19000000000000003 -0.7500000000000001,0.44000000000000006 c0,0.7500000000000001 2.02,0.14 2.02,1.37 c0,0.5800000000000001 -0.53,0.9400000000000001 -1.37,0.9400000000000001 C371.2799987792969,182.20000274658202 370.7599987792969,182.04000274658205 370.4999987792969,181.830002746582 z" id="svg_156"/>
		<path class="st1" d="M378.80999877929685,180.57000274658202 c0,0.98 -0.6800000000000002,1.6300000000000001 -1.61,1.6300000000000001 c-0.45,0 -0.8500000000000001,-0.17 -1.11,-0.52 v1.6400000000000001 h-0.5800000000000001 v-4.34 h0.55 v0.5 c0.26,-0.35000000000000003 0.6700000000000002,-0.53 1.13,-0.53 C378.1299987792969,178.960002746582 378.80999877929685,179.60000274658205 378.80999877929685,180.57000274658202 zM378.2299987792969,180.57000274658202 c0,-0.6700000000000002 -0.46,-1.12 -1.07,-1.12 c-0.6100000000000001,0 -1.07,0.44000000000000006 -1.07,1.12 c0,0.6800000000000002 0.46,1.12 1.07,1.12 C377.7699987792969,181.70000274658202 378.2299987792969,181.25000274658203 378.2299987792969,180.57000274658202 z" id="svg_157"/>
		<path class="st1" d="M382.46999877929693,180.770002746582 h-2.58 c0.07,0.56 0.52,0.93 1.15,0.93 c0.37000000000000005,0 0.6800000000000002,-0.13 0.92,-0.38000000000000006 l0.32000000000000006,0.37000000000000005 c-0.29000000000000004,0.33000000000000007 -0.7300000000000001,0.52 -1.25,0.52 c-1.03,0 -1.71,-0.6800000000000002 -1.71,-1.6300000000000001 c0,-0.9400000000000001 0.6800000000000002,-1.62 1.6,-1.62 c0.92,0 1.57,0.6600000000000001 1.57,1.6400000000000001 C382.4799987792969,180.640002746582 382.4799987792969,180.710002746582 382.46999877929693,180.770002746582 zM379.8899987792969,180.35000274658205 h2.04 c-0.06000000000000001,-0.53 -0.46,-0.91 -1.02,-0.91 C380.3599987792969,179.44000274658202 379.94999877929683,179.81000274658203 379.8899987792969,180.35000274658205 z" id="svg_158"/>
		<path class="st1" d="M384.9899987792969,178.960002746582 v0.56 c-0.05000000000000001,-0.010000000000000002 -0.09000000000000002,-0.010000000000000002 -0.13,-0.010000000000000002 c-0.6200000000000001,0 -1,0.38000000000000006 -1,1.07 v1.58 h-0.5800000000000001 v-3.18 h0.55 v0.53 C384.03999877929687,179.150002746582 384.43999877929684,178.960002746582 384.9899987792969,178.960002746582 z" id="svg_159"/>
		<path class="st1" d="M387.0999987792969,180.06000274658203 c0,-1.24 0.9500000000000001,-2.15 2.23,-2.15 c0.6500000000000001,0 1.21,0.22000000000000003 1.59,0.6500000000000001 l-0.39000000000000007,0.38000000000000006 c-0.32000000000000006,-0.3400000000000001 -0.7200000000000001,-0.5 -1.18,-0.5 c-0.9500000000000001,0 -1.6500000000000001,0.6800000000000002 -1.6500000000000001,1.61 c0,0.93 0.7000000000000001,1.61 1.6500000000000001,1.61 c0.46,0 0.8600000000000001,-0.16000000000000003 1.18,-0.5 l0.39000000000000007,0.38000000000000006 c-0.38000000000000006,0.43000000000000005 -0.9500000000000001,0.6600000000000001 -1.6,0.6600000000000001 C388.04999877929686,182.210002746582 387.0999987792969,181.31000274658203 387.0999987792969,180.06000274658203 z" id="svg_160"/>
		<path class="st1" d="M394.7099987792968,180.330002746582 v1.83 h-0.5800000000000001 v-1.7600000000000002 c0,-0.6200000000000001 -0.31000000000000005,-0.93 -0.8600000000000001,-0.93 c-0.6100000000000001,0 -1.01,0.37000000000000005 -1.01,1.05 v1.6400000000000001 h-0.5800000000000001 v-4.45 h0.5800000000000001 v1.7200000000000002 c0.24000000000000002,-0.31000000000000005 0.6400000000000001,-0.48000000000000004 1.12,-0.48000000000000004 C394.16999877929686,178.960002746582 394.7099987792968,179.400002746582 394.7099987792968,180.330002746582 z" id="svg_161"/>
		<path class="st1" d="M398.29999877929686,180.24000274658204 v1.92 h-0.55 v-0.42000000000000004 c-0.19000000000000003,0.29000000000000004 -0.55,0.46 -1.04,0.46 c-0.7200000000000001,0 -1.17,-0.38000000000000006 -1.17,-0.9400000000000001 c0,-0.51 0.33000000000000007,-0.93 1.28,-0.93 h0.91 v-0.11000000000000001 c0,-0.49000000000000005 -0.28,-0.77 -0.8500000000000001,-0.77 c-0.38000000000000006,0 -0.7600000000000001,0.13 -1.01,0.3400000000000001 l-0.24000000000000002,-0.43000000000000005 c0.33000000000000007,-0.26 0.8,-0.41000000000000003 1.31,-0.41000000000000003 C397.80999877929685,178.960002746582 398.29999877929686,179.37000274658203 398.29999877929686,180.24000274658204 zM397.71999877929693,181.19000274658202 v-0.44000000000000006 h-0.8900000000000001 c-0.5700000000000001,0 -0.7300000000000001,0.22000000000000003 -0.7300000000000001,0.49000000000000005 c0,0.32000000000000006 0.26,0.52 0.7000000000000001,0.52 C397.2399987792969,181.76000274658202 397.57999877929683,181.56000274658203 397.71999877929693,181.19000274658202 z" id="svg_162"/>
		<path class="st1" d="M402.3899987792969,180.330002746582 v1.83 h-0.5800000000000001 v-1.7600000000000002 c0,-0.6200000000000001 -0.31000000000000005,-0.93 -0.8600000000000001,-0.93 c-0.6100000000000001,0 -1.01,0.37000000000000005 -1.01,1.05 v1.6400000000000001 h-0.5800000000000001 v-3.18 h0.55 v0.48000000000000004 c0.23,-0.32000000000000006 0.6400000000000001,-0.51 1.15,-0.51 C401.8399987792968,178.960002746582 402.3899987792969,179.400002746582 402.3899987792969,180.330002746582 z" id="svg_163"/>
		<path class="st1" d="M406.46999877929693,180.330002746582 v1.83 h-0.5800000000000001 v-1.7600000000000002 c0,-0.6200000000000001 -0.31000000000000005,-0.93 -0.8600000000000001,-0.93 c-0.6100000000000001,0 -1.01,0.37000000000000005 -1.01,1.05 v1.6400000000000001 h-0.5800000000000001 v-3.18 h0.55 v0.48000000000000004 c0.23,-0.32000000000000006 0.6400000000000001,-0.51 1.15,-0.51 C405.92999877929685,178.960002746582 406.46999877929693,179.400002746582 406.46999877929693,180.330002746582 z" id="svg_164"/>
		<path class="st1" d="M410.41999877929686,180.770002746582 h-2.58 c0.07,0.56 0.52,0.93 1.15,0.93 c0.37000000000000005,0 0.6800000000000002,-0.13 0.92,-0.38000000000000006 l0.32000000000000006,0.37000000000000005 c-0.29000000000000004,0.33000000000000007 -0.7300000000000001,0.52 -1.25,0.52 c-1.03,0 -1.71,-0.6800000000000002 -1.71,-1.6300000000000001 c0,-0.9400000000000001 0.6800000000000002,-1.62 1.6,-1.62 c0.92,0 1.57,0.6600000000000001 1.57,1.6400000000000001 C410.42999877929685,180.640002746582 410.42999877929685,180.710002746582 410.41999877929686,180.770002746582 zM407.8399987792968,180.35000274658205 h2.04 c-0.06000000000000001,-0.53 -0.46,-0.91 -1.02,-0.91 C408.30999877929685,179.44000274658202 407.8999987792969,179.81000274658203 407.8399987792968,180.35000274658205 z" id="svg_165"/>
		<path class="st1" d="M411.2299987792969,177.710002746582 h0.5800000000000001 v4.45 h-0.5800000000000001 V177.710002746582 z" id="svg_166"/>
	</g>
	<path class="st0" d="M281.9599987792969,189.25000274658203 c0.21000000000000002,5.39 0.30000000000000004,10.79 0.38000000000000006,16.18 c0.08000000000000002,5.39 0.07,10.79 0.12000000000000001,16.18 c-0.04000000000000001,5.39 -0.04000000000000001,10.79 -0.11000000000000001,16.18 l-0.14,8.09 c-0.08000000000000002,2.7 -0.13,5.39 -0.25,8.09 c-0.11000000000000001,-2.7 -0.16000000000000003,-5.39 -0.25,-8.09 l-0.14,-8.09 c-0.08000000000000002,-5.39 -0.08000000000000002,-10.79 -0.11000000000000001,-16.18 c0.04000000000000001,-5.39 0.030000000000000006,-10.79 0.12000000000000001,-16.18 C281.65999877929687,200.04000274658205 281.7499987792969,194.650002746582 281.9599987792969,189.25000274658203 z" id="svg_167"/>
	<path class="st9" d="M52.15999877929687,37.80000274658204 h-14.26 c-2.12,0 -3.84,-1.7200000000000002 -3.84,-3.84 v-14.26 c0,-2.12 1.7200000000000002,-3.84 3.84,-3.84 h14.26 c2.12,0 3.84,1.7200000000000002 3.84,3.84 v14.26 C55.999998779296874,36.09000274658203 54.279998779296875,37.80000274658204 52.15999877929687,37.80000274658204 z" id="svg_168"/>
	<g id="svg_169">
		<rect x="161.95999145507812" y="149.85001373291016" class="st4" width="14.329999923706055" height="3.059999942779541" id="svg_170"/>
		<rect x="195.739990234375" y="149.85001373291016" class="st1" width="13.9399995803833" height="3.059999942779541" id="svg_171"/>
		<g id="svg_172">
			<path d="M180.8799987792969,152.57000274658202 v0.35000000000000003 h-2.01 v-0.27 l1.1400000000000001,-1.1 c0.30000000000000004,-0.29000000000000004 0.35000000000000003,-0.46 0.35000000000000003,-0.6400000000000001 c0,-0.29000000000000004 -0.2,-0.46 -0.6000000000000001,-0.46 c-0.30000000000000004,0 -0.54,0.1 -0.7100000000000001,0.30000000000000004 l-0.27,-0.24000000000000002 c0.22000000000000003,-0.27 0.5900000000000001,-0.42000000000000004 1.02,-0.42000000000000004 c0.5800000000000001,0 0.9600000000000001,0.30000000000000004 0.9600000000000001,0.78 c0,0.27 -0.08000000000000002,0.52 -0.46,0.8800000000000001 l-0.8600000000000001,0.8200000000000001 H180.8799987792969 z" id="svg_173"/>
			<path d="M181.1899987792969,151.51000274658202 c0,-0.91 0.49000000000000005,-1.4300000000000002 1.1400000000000001,-1.4300000000000002 c0.6500000000000001,0 1.1400000000000001,0.52 1.1400000000000001,1.4300000000000002 c0,0.91 -0.49000000000000005,1.4300000000000002 -1.1400000000000001,1.4300000000000002 C181.67999877929685,152.95000274658202 181.1899987792969,152.43000274658203 181.1899987792969,151.51000274658202 zM183.0799987792969,151.51000274658202 c0,-0.7200000000000001 -0.30000000000000004,-1.08 -0.7400000000000001,-1.08 c-0.44000000000000006,0 -0.7400000000000001,0.36000000000000004 -0.7400000000000001,1.08 s0.30000000000000004,1.08 0.7400000000000001,1.08 C182.76999877929688,152.59000274658206 183.0799987792969,152.23000274658204 183.0799987792969,151.51000274658202 z" id="svg_174"/>
			<path d="M185.8199987792969,152.57000274658202 v0.35000000000000003 h-2.01 v-0.27 l1.1400000000000001,-1.1 c0.30000000000000004,-0.29000000000000004 0.35000000000000003,-0.46 0.35000000000000003,-0.6400000000000001 c0,-0.29000000000000004 -0.2,-0.46 -0.6000000000000001,-0.46 c-0.30000000000000004,0 -0.54,0.1 -0.7100000000000001,0.30000000000000004 l-0.27,-0.24000000000000002 c0.22000000000000003,-0.27 0.5900000000000001,-0.42000000000000004 1.02,-0.42000000000000004 c0.5800000000000001,0 0.9600000000000001,0.30000000000000004 0.9600000000000001,0.78 c0,0.27 -0.08000000000000002,0.52 -0.46,0.8800000000000001 l-0.8600000000000001,0.8200000000000001 H185.8199987792969 z" id="svg_175"/>
			<path d="M186.1299987792969,151.51000274658202 c0,-0.91 0.49000000000000005,-1.4300000000000002 1.1400000000000001,-1.4300000000000002 c0.6500000000000001,0 1.1400000000000001,0.52 1.1400000000000001,1.4300000000000002 c0,0.91 -0.49000000000000005,1.4300000000000002 -1.1400000000000001,1.4300000000000002 C186.61999877929685,152.95000274658202 186.1299987792969,152.43000274658203 186.1299987792969,151.51000274658202 zM188.01999877929688,151.51000274658202 c0,-0.7200000000000001 -0.30000000000000004,-1.08 -0.7400000000000001,-1.08 c-0.44000000000000006,0 -0.7400000000000001,0.36000000000000004 -0.7400000000000001,1.08 s0.30000000000000004,1.08 0.7400000000000001,1.08 C187.70999877929688,152.59000274658206 188.01999877929688,152.23000274658204 188.01999877929688,151.51000274658202 z" id="svg_176"/>
		</g>
		<g id="svg_177">
			<path d="M213.45999877929688,152.57000274658202 v0.35000000000000003 h-2.01 v-0.27 l1.1400000000000001,-1.1 c0.30000000000000004,-0.29000000000000004 0.35000000000000003,-0.46 0.35000000000000003,-0.6400000000000001 c0,-0.29000000000000004 -0.2,-0.46 -0.6000000000000001,-0.46 c-0.30000000000000004,0 -0.54,0.1 -0.7100000000000001,0.30000000000000004 l-0.27,-0.24000000000000002 c0.22000000000000003,-0.27 0.5900000000000001,-0.42000000000000004 1.02,-0.42000000000000004 c0.5800000000000001,0 0.9600000000000001,0.30000000000000004 0.9600000000000001,0.78 c0,0.27 -0.08000000000000002,0.52 -0.46,0.8800000000000001 l-0.8600000000000001,0.8200000000000001 H213.45999877929688 z" id="svg_178"/>
			<path d="M213.77999877929688,151.51000274658202 c0,-0.91 0.49000000000000005,-1.4300000000000002 1.1400000000000001,-1.4300000000000002 c0.6500000000000001,0 1.1400000000000001,0.52 1.1400000000000001,1.4300000000000002 c0,0.91 -0.49000000000000005,1.4300000000000002 -1.1400000000000001,1.4300000000000002 C214.26999877929688,152.95000274658202 213.77999877929688,152.43000274658203 213.77999877929688,151.51000274658202 zM215.65999877929687,151.51000274658202 c0,-0.7200000000000001 -0.30000000000000004,-1.08 -0.7400000000000001,-1.08 c-0.44000000000000006,0 -0.7400000000000001,0.36000000000000004 -0.7400000000000001,1.08 s0.30000000000000004,1.08 0.7400000000000001,1.08 C215.35999877929686,152.59000274658206 215.65999877929687,152.23000274658204 215.65999877929687,151.51000274658202 z" id="svg_179"/>
			<path d="M217.29999877929686,150.12000274658203 v2.8 h-0.4 v-2.45 h-0.6300000000000001 v-0.35000000000000003 H217.29999877929686 z" id="svg_180"/>
			<path d="M219.9999987792969,151.48000274658204 c0,0.9600000000000001 -0.54,1.47 -1.32,1.47 c-0.26,0 -0.52,-0.05000000000000001 -0.7000000000000001,-0.16000000000000003 l0.15000000000000002,-0.31000000000000005 c0.15000000000000002,0.1 0.33000000000000007,0.13 0.54,0.13 c0.5700000000000001,0 0.93,-0.36000000000000004 0.93,-1.06 v-0.1 c-0.16000000000000003,0.24000000000000002 -0.46,0.37000000000000005 -0.81,0.37000000000000005 c-0.56,0 -0.9600000000000001,-0.33000000000000007 -0.9600000000000001,-0.8500000000000001 c0,-0.54 0.43000000000000005,-0.8800000000000001 0.99,-0.8800000000000001 C219.5699987792969,150.080002746582 219.9999987792969,150.59000274658206 219.9999987792969,151.48000274658204 zM219.5099987792969,150.95000274658202 c0,-0.29000000000000004 -0.23,-0.54 -0.6700000000000002,-0.54 c-0.36000000000000004,0 -0.6200000000000001,0.21000000000000002 -0.6200000000000001,0.54 c0,0.33000000000000007 0.24000000000000002,0.54 0.6400000000000001,0.54 C219.23999877929685,151.49000274658204 219.5099987792969,151.26000274658202 219.5099987792969,150.95000274658202 z" id="svg_181"/>
		</g>
	</g>
	<g id="svg_182">
		<rect x="345.4700012207031" y="149.85001373291016" class="st4" width="14.329999923706055" height="3.059999942779541" id="svg_183"/>
		<rect x="379.2499694824219" y="149.85001373291016" class="st1" width="13.9399995803833" height="3.059999942779541" id="svg_184"/>
		<g id="svg_185">
			<path d="M364.3899987792969,152.57000274658202 v0.35000000000000003 h-2.01 v-0.27 l1.1400000000000001,-1.1 c0.30000000000000004,-0.29000000000000004 0.35000000000000003,-0.46 0.35000000000000003,-0.6400000000000001 c0,-0.29000000000000004 -0.2,-0.46 -0.6000000000000001,-0.46 c-0.30000000000000004,0 -0.54,0.1 -0.7100000000000001,0.30000000000000004 l-0.27,-0.24000000000000002 c0.22000000000000003,-0.27 0.5900000000000001,-0.42000000000000004 1.02,-0.42000000000000004 c0.5800000000000001,0 0.9600000000000001,0.30000000000000004 0.9600000000000001,0.78 c0,0.27 -0.08000000000000002,0.52 -0.46,0.8800000000000001 l-0.8600000000000001,0.8200000000000001 H364.3899987792969 z" id="svg_186"/>
			<path d="M364.6999987792969,151.51000274658202 c0,-0.91 0.49000000000000005,-1.4300000000000002 1.1400000000000001,-1.4300000000000002 c0.6500000000000001,0 1.1400000000000001,0.52 1.1400000000000001,1.4300000000000002 c0,0.91 -0.49000000000000005,1.4300000000000002 -1.1400000000000001,1.4300000000000002 C365.1899987792969,152.95000274658202 364.6999987792969,152.43000274658203 364.6999987792969,151.51000274658202 zM366.5899987792969,151.51000274658202 c0,-0.7200000000000001 -0.30000000000000004,-1.08 -0.7400000000000001,-1.08 c-0.44000000000000006,0 -0.7400000000000001,0.36000000000000004 -0.7400000000000001,1.08 s0.30000000000000004,1.08 0.7400000000000001,1.08 C366.2799987792969,152.59000274658206 366.5899987792969,152.23000274658204 366.5899987792969,151.51000274658202 z" id="svg_187"/>
			<path d="M369.3299987792969,152.57000274658202 v0.35000000000000003 h-2.01 v-0.27 l1.1400000000000001,-1.1 c0.30000000000000004,-0.29000000000000004 0.35000000000000003,-0.46 0.35000000000000003,-0.6400000000000001 c0,-0.29000000000000004 -0.2,-0.46 -0.6000000000000001,-0.46 c-0.30000000000000004,0 -0.54,0.1 -0.7100000000000001,0.30000000000000004 l-0.27,-0.24000000000000002 c0.22000000000000003,-0.27 0.5900000000000001,-0.42000000000000004 1.02,-0.42000000000000004 c0.5800000000000001,0 0.9600000000000001,0.30000000000000004 0.9600000000000001,0.78 c0,0.27 -0.08000000000000002,0.52 -0.46,0.8800000000000001 l-0.8600000000000001,0.8200000000000001 H369.3299987792969 z" id="svg_188"/>
			<path d="M369.6399987792969,151.51000274658202 c0,-0.91 0.49000000000000005,-1.4300000000000002 1.1400000000000001,-1.4300000000000002 c0.6500000000000001,0 1.1400000000000001,0.52 1.1400000000000001,1.4300000000000002 c0,0.91 -0.49000000000000005,1.4300000000000002 -1.1400000000000001,1.4300000000000002 C370.1299987792969,152.95000274658202 369.6399987792969,152.43000274658203 369.6399987792969,151.51000274658202 zM371.5199987792969,151.51000274658202 c0,-0.7200000000000001 -0.30000000000000004,-1.08 -0.7400000000000001,-1.08 c-0.44000000000000006,0 -0.7400000000000001,0.36000000000000004 -0.7400000000000001,1.08 s0.30000000000000004,1.08 0.7400000000000001,1.08 C371.2199987792969,152.59000274658206 371.5199987792969,152.23000274658204 371.5199987792969,151.51000274658202 z" id="svg_189"/>
		</g>
		<g id="svg_190">
			<path d="M396.96999877929693,152.57000274658202 v0.35000000000000003 h-2.01 v-0.27 l1.1400000000000001,-1.1 c0.30000000000000004,-0.29000000000000004 0.35000000000000003,-0.46 0.35000000000000003,-0.6400000000000001 c0,-0.29000000000000004 -0.2,-0.46 -0.6000000000000001,-0.46 c-0.30000000000000004,0 -0.54,0.1 -0.7100000000000001,0.30000000000000004 l-0.27,-0.24000000000000002 c0.22000000000000003,-0.27 0.5900000000000001,-0.42000000000000004 1.02,-0.42000000000000004 c0.5800000000000001,0 0.9600000000000001,0.30000000000000004 0.9600000000000001,0.78 c0,0.27 -0.08000000000000002,0.52 -0.46,0.8800000000000001 L395.5299987792969,152.57000274658202 H396.96999877929693 z" id="svg_191"/>
			<path d="M397.28999877929687,151.51000274658202 c0,-0.91 0.49000000000000005,-1.4300000000000002 1.1400000000000001,-1.4300000000000002 c0.6500000000000001,0 1.1400000000000001,0.52 1.1400000000000001,1.4300000000000002 c0,0.91 -0.49000000000000005,1.4300000000000002 -1.1400000000000001,1.4300000000000002 C397.7699987792969,152.95000274658202 397.28999877929687,152.43000274658203 397.28999877929687,151.51000274658202 zM399.16999877929686,151.51000274658202 c0,-0.7200000000000001 -0.30000000000000004,-1.08 -0.7400000000000001,-1.08 c-0.44000000000000006,0 -0.7400000000000001,0.36000000000000004 -0.7400000000000001,1.08 s0.30000000000000004,1.08 0.7400000000000001,1.08 C398.8699987792969,152.59000274658206 399.16999877929686,152.23000274658204 399.16999877929686,151.51000274658202 z" id="svg_192"/>
			<path d="M400.80999877929685,150.12000274658203 v2.8 h-0.4 v-2.45 h-0.6300000000000001 v-0.35000000000000003 H400.80999877929685 z" id="svg_193"/>
			<path d="M403.5099987792969,151.48000274658204 c0,0.9600000000000001 -0.54,1.47 -1.32,1.47 c-0.26,0 -0.52,-0.05000000000000001 -0.7000000000000001,-0.16000000000000003 l0.15000000000000002,-0.31000000000000005 c0.15000000000000002,0.1 0.33000000000000007,0.13 0.54,0.13 c0.5700000000000001,0 0.93,-0.36000000000000004 0.93,-1.06 v-0.1 c-0.16000000000000003,0.24000000000000002 -0.46,0.37000000000000005 -0.81,0.37000000000000005 c-0.56,0 -0.9600000000000001,-0.33000000000000007 -0.9600000000000001,-0.8500000000000001 c0,-0.54 0.43000000000000005,-0.8800000000000001 0.99,-0.8800000000000001 C403.07999877929683,150.080002746582 403.5099987792969,150.59000274658206 403.5099987792969,151.48000274658204 zM403.0099987792969,150.95000274658202 c0,-0.29000000000000004 -0.23,-0.54 -0.6700000000000002,-0.54 c-0.36000000000000004,0 -0.6200000000000001,0.21000000000000002 -0.6200000000000001,0.54 c0,0.33000000000000007 0.24000000000000002,0.54 0.6400000000000001,0.54 C402.7499987792969,151.49000274658204 403.0099987792969,151.26000274658202 403.0099987792969,150.95000274658202 z" id="svg_194"/>
		</g>
	</g>
</g></g></svg>