<svg xmlns="http://www.w3.org/2000/svg" xmlns:xlink="http://www.w3.org/1999/xlink" version="1.1" style="enable-background:new 0 0 750 500;" xml:space="preserve" width="641" height="417"><rect id="backgroundrect" width="100%" height="100%" x="0" y="0" fill="none" stroke="none"/>
<style type="text/css">
	.st0{fill:#193E6D;}
	.st1{fill:#46AEEC;}
	.st2{fill:#DCE4EA;}
	.st3{fill:#89D2F7;}
	.st4{fill:#FFFFFF;}
	.st5{opacity:0.13;fill:#193E6D;}
	.st6{fill:#A6CAE1;}
	.st7{fill:#FF5A5F;}
	.st8{fill:url(#SVGID_1_);}
</style>

<g class="currentLayer" style=""><title>Layer 1</title><g id="svg_1" class="">
	<polygon class="st0" points="334.2699890136719,406.96998596191406 217.72000122070312,406.96998596191406 241.1300048828125,355.0599822998047 311.05999755859375,355.0599822998047 " id="svg_2"/>
	<path class="st1" d="M551.3099963378907,308.75999450683594 v34.97 c0,11.43 -10.82,20.69 -24.17,20.69 H24.169996337890623 c-13.35,0 -24.17,-9.26 -24.17,-20.69 v-34.97 H551.3099963378907 z" id="svg_3"/>
	<path class="st0" d="M551.2999963378907,22.879994506835942 v285.88 H-0.000003662109378410605 V22.879994506835942 c0,-12.64 10.82,-22.88 24.17,-22.88 h502.97 C540.4999963378906,-0.00000549316406051048 551.2999963378907,10.229994506835936 551.2999963378907,22.879994506835942 z" id="svg_4"/>
	<path class="st2" d="M543.0699963378906,29.98999450683594 v266.76 H8.21999633789062 V29.98999450683594 c0,-11.8 10.5,-21.35 23.45,-21.35 h487.96 C532.5899963378906,8.63999450683594 543.0699963378906,18.199994506835935 543.0699963378906,29.98999450683594 z" id="svg_5"/>
	<path class="st1" d="M372.7999963378906,406.97999450683596 c0,2.7800000000000002 -0.8800000000000001,5.29 -2.31,7.11 c-1.4300000000000002,1.82 -3.4,2.94 -5.59,2.94 H184.37999633789065 c-4.35,0 -7.88,-4.5 -7.88,-10.05 c0,-2.7800000000000002 0.8800000000000001,-5.3 2.31,-7.12 c1.4300000000000002,-1.82 3.39,-2.94 5.57,-2.94 h180.53 C369.26999633789063,396.91999450683596 372.7999963378906,401.4099945068359 372.7999963378906,406.97999450683596 z" id="svg_6"/>
	<circle class="st3" cx="274.6499938964844" cy="336.58998107910156" r="15.420001029968262" id="svg_7"/>
	<path class="st4" d="M514.6999963378906,296.74999450683595 h-474.3 c-7.79,0 -14.11,-6.32 -14.11,-14.11 V36.10999450683593 c0,-7.79 6.32,-14.11 14.11,-14.11 h474.3 c7.79,0 14.11,6.32 14.11,14.11 v246.52 C528.8199963378906,290.42999450683595 522.4999963378906,296.74999450683595 514.6999963378906,296.74999450683595 z" id="svg_8"/>
	<path class="st5" d="M385.87999633789065,368.49999450683595 c0,0 56.15,-36.17 100.59,-23.92 c44.44,12.25 136.78,7.24 136.78,7.24 s-10.38,-62.4 -38.32,-90.24 c-27.94,-27.83 -268.23,22.48 -268.23,22.48 L385.87999633789065,368.49999450683595 z" id="svg_9"/>
	<g id="svg_10">
		<rect x="250.6099853515625" y="177.13999938964844" class="st1" width="67.6500015258789" height="9.619999885559082" id="svg_11"/>
		<rect x="150.17999267578125" y="205.5399932861328" class="st1" width="268.510009765625" height="9.619999885559082" id="svg_12"/>
		<g id="svg_13">
			<g id="svg_14">
				<g id="svg_15">
					<path class="st6" d="M138.05999633789062,258.57999450683593 c-0.6600000000000001,0 -1.32,-0.22000000000000003 -1.87,-0.6700000000000002 l-10.16,-8.42 c-1.24,-1.03 -1.42,-2.87 -0.39000000000000007,-4.12 s2.88,-1.4100000000000001 4.12,-0.39000000000000007 l10.16,8.42 c1.24,1.03 1.42,2.87 0.39000000000000007,4.12 C139.7299963378906,258.2199945068359 138.89999633789063,258.57999450683593 138.05999633789062,258.57999450683593 z" id="svg_16"/>
				</g>
				<g id="svg_17">
					<path class="st6" d="M127.89999633789063,258.57999450683593 c-0.8400000000000001,0 -1.6700000000000002,-0.36000000000000004 -2.25,-1.06 c-1.03,-1.24 -0.8600000000000001,-3.09 0.39000000000000007,-4.12 l10.16,-8.42 c1.24,-1.03 3.09,-0.8600000000000001 4.12,0.39000000000000007 c1.03,1.24 0.8600000000000001,3.09 -0.39000000000000007,4.12 l-10.16,8.42 C129.21999633789062,258.35999450683596 128.54999633789063,258.57999450683593 127.89999633789063,258.57999450683593 z" id="svg_18"/>
				</g>
			</g>
			<g id="svg_19">
				<g id="svg_20">
					<path class="st6" d="M440.9699963378906,258.57999450683593 c-0.6600000000000001,0 -1.32,-0.22000000000000003 -1.87,-0.6700000000000002 l-10.17,-8.42 c-1.24,-1.03 -1.4100000000000001,-2.87 -0.39000000000000007,-4.12 c1.04,-1.25 2.88,-1.4100000000000001 4.12,-0.39000000000000007 l10.17,8.42 c1.24,1.03 1.4100000000000001,2.87 0.39000000000000007,4.12 C442.64999633789057,258.2199945068359 441.80999633789065,258.57999450683593 440.9699963378906,258.57999450683593 z" id="svg_21"/>
				</g>
				<g id="svg_22">
					<path class="st6" d="M430.80999633789065,258.57999450683593 c-0.8400000000000001,0 -1.6700000000000002,-0.36000000000000004 -2.25,-1.06 c-1.03,-1.24 -0.8600000000000001,-3.09 0.39000000000000007,-4.12 l10.17,-8.42 c1.24,-1.02 3.09,-0.8600000000000001 4.12,0.39000000000000007 c1.03,1.24 0.8600000000000001,3.09 -0.39000000000000007,4.12 l-10.17,8.42 C432.1299963378906,258.35999450683596 431.45999633789063,258.57999450683593 430.80999633789065,258.57999450683593 z" id="svg_23"/>
				</g>
			</g>
			<g id="svg_24">
				<g id="svg_25">
					<path class="st6" d="M394.3699963378906,258.57999450683593 c-0.6600000000000001,0 -1.32,-0.22000000000000003 -1.87,-0.6700000000000002 l-10.17,-8.42 c-1.24,-1.03 -1.42,-2.87 -0.39000000000000007,-4.12 c1.03,-1.24 2.88,-1.4100000000000001 4.12,-0.39000000000000007 l10.17,8.42 c1.24,1.03 1.42,2.87 0.39000000000000007,4.12 C396.0499963378906,258.2199945068359 395.20999633789063,258.57999450683593 394.3699963378906,258.57999450683593 z" id="svg_26"/>
				</g>
				<g id="svg_27">
					<path class="st6" d="M384.20999633789063,258.57999450683593 c-0.8400000000000001,0 -1.6700000000000002,-0.36000000000000004 -2.25,-1.06 c-1.03,-1.24 -0.8600000000000001,-3.09 0.39000000000000007,-4.12 l10.17,-8.42 c1.24,-1.03 3.09,-0.8600000000000001 4.12,0.39000000000000007 c1.03,1.24 0.8600000000000001,3.09 -0.39000000000000007,4.12 l-10.17,8.42 C385.5299963378906,258.35999450683596 384.8699963378906,258.57999450683593 384.20999633789063,258.57999450683593 z" id="svg_28"/>
				</g>
			</g>
			<g id="svg_29">
				<g id="svg_30">
					<path class="st6" d="M371.06999633789064,258.57999450683593 c-0.6600000000000001,0 -1.32,-0.22000000000000003 -1.87,-0.6700000000000002 l-10.17,-8.42 c-1.24,-1.03 -1.42,-2.87 -0.39000000000000007,-4.12 c1.03,-1.24 2.87,-1.4100000000000001 4.12,-0.39000000000000007 l10.17,8.42 c1.24,1.03 1.42,2.87 0.39000000000000007,4.12 C372.7399963378906,258.2199945068359 371.9099963378906,258.57999450683593 371.06999633789064,258.57999450683593 z" id="svg_31"/>
				</g>
				<g id="svg_32">
					<path class="st6" d="M360.9099963378906,258.57999450683593 c-0.8400000000000001,0 -1.6700000000000002,-0.36000000000000004 -2.25,-1.06 c-1.03,-1.24 -0.8600000000000001,-3.09 0.39000000000000007,-4.12 l10.17,-8.42 c1.24,-1.03 3.09,-0.8600000000000001 4.12,0.39000000000000007 c1.03,1.24 0.8600000000000001,3.09 -0.39000000000000007,4.12 l-10.17,8.42 C362.2299963378906,258.35999450683596 361.55999633789065,258.57999450683593 360.9099963378906,258.57999450683593 z" id="svg_33"/>
				</g>
			</g>
			<g id="svg_34">
				<g id="svg_35">
					<path class="st6" d="M347.76999633789063,258.57999450683593 c-0.6600000000000001,0 -1.32,-0.22000000000000003 -1.87,-0.6700000000000002 l-10.17,-8.42 c-1.24,-1.03 -1.42,-2.87 -0.39000000000000007,-4.12 c1.03,-1.24 2.87,-1.4100000000000001 4.12,-0.39000000000000007 l10.17,8.42 c1.24,1.03 1.42,2.87 0.39000000000000007,4.12 C349.43999633789065,258.2199945068359 348.6099963378906,258.57999450683593 347.76999633789063,258.57999450683593 z" id="svg_36"/>
				</g>
				<g id="svg_37">
					<path class="st6" d="M337.5999963378906,258.57999450683593 c-0.8400000000000001,0 -1.6700000000000002,-0.36000000000000004 -2.25,-1.06 c-1.03,-1.24 -0.8600000000000001,-3.09 0.39000000000000007,-4.12 l10.17,-8.42 c1.24,-1.03 3.08,-0.8600000000000001 4.12,0.39000000000000007 c1.03,1.24 0.8600000000000001,3.09 -0.39000000000000007,4.12 l-10.17,8.42 C338.9299963378906,258.35999450683596 338.25999633789064,258.57999450683593 337.5999963378906,258.57999450683593 z" id="svg_38"/>
				</g>
			</g>
			<g id="svg_39">
				<g id="svg_40">
					<path class="st6" d="M324.4699963378906,258.57999450683593 c-0.6600000000000001,0 -1.32,-0.22000000000000003 -1.87,-0.6700000000000002 l-10.17,-8.42 c-1.24,-1.03 -1.42,-2.87 -0.39000000000000007,-4.12 c1.03,-1.24 2.87,-1.4100000000000001 4.12,-0.39000000000000007 l10.17,8.42 c1.24,1.03 1.42,2.87 0.39000000000000007,4.12 C326.13999633789064,258.2199945068359 325.30999633789065,258.57999450683593 324.4699963378906,258.57999450683593 z" id="svg_41"/>
				</g>
				<g id="svg_42">
					<path class="st6" d="M314.2999963378906,258.57999450683593 c-0.8400000000000001,0 -1.6700000000000002,-0.36000000000000004 -2.25,-1.06 c-1.03,-1.24 -0.8600000000000001,-3.09 0.39000000000000007,-4.12 l10.17,-8.42 c1.24,-1.03 3.09,-0.8600000000000001 4.12,0.39000000000000007 c1.03,1.24 0.8600000000000001,3.09 -0.39000000000000007,4.12 l-10.17,8.42 C315.6199963378906,258.35999450683596 314.95999633789063,258.57999450683593 314.2999963378906,258.57999450683593 z" id="svg_43"/>
				</g>
			</g>
			<g id="svg_44">
				<g id="svg_45">
					<path class="st6" d="M301.1699963378906,258.57999450683593 c-0.6600000000000001,0 -1.32,-0.22000000000000003 -1.87,-0.6700000000000002 l-10.16,-8.42 c-1.24,-1.03 -1.42,-2.87 -0.39000000000000007,-4.12 c1.03,-1.24 2.88,-1.4100000000000001 4.12,-0.39000000000000007 l10.16,8.42 c1.24,1.03 1.42,2.87 0.39000000000000007,4.12 C302.8399963378906,258.2199945068359 302.00999633789064,258.57999450683593 301.1699963378906,258.57999450683593 z" id="svg_46"/>
				</g>
				<g id="svg_47">
					<path class="st6" d="M290.99999633789065,258.57999450683593 c-0.8400000000000001,0 -1.6700000000000002,-0.36000000000000004 -2.25,-1.06 c-1.03,-1.24 -0.8600000000000001,-3.09 0.39000000000000007,-4.12 l10.16,-8.42 c1.24,-1.03 3.09,-0.8600000000000001 4.12,0.39000000000000007 c1.03,1.24 0.8600000000000001,3.09 -0.39000000000000007,4.12 l-10.16,8.42 C292.32999633789063,258.35999450683596 291.6599963378906,258.57999450683593 290.99999633789065,258.57999450683593 z" id="svg_48"/>
				</g>
			</g>
			<g id="svg_49">
				<g id="svg_50">
					<path class="st6" d="M417.66999633789067,258.57999450683593 c-0.6600000000000001,0 -1.32,-0.22000000000000003 -1.87,-0.6700000000000002 l-10.17,-8.42 c-1.24,-1.03 -1.42,-2.87 -0.39000000000000007,-4.12 c1.03,-1.24 2.87,-1.4100000000000001 4.12,-0.39000000000000007 l10.17,8.42 c1.24,1.03 1.4100000000000001,2.87 0.39000000000000007,4.12 C419.3499963378906,258.2199945068359 418.5099963378906,258.57999450683593 417.66999633789067,258.57999450683593 z" id="svg_51"/>
				</g>
				<g id="svg_52">
					<path class="st6" d="M407.50999633789064,258.57999450683593 c-0.8400000000000001,0 -1.6700000000000002,-0.36000000000000004 -2.25,-1.06 c-1.03,-1.24 -0.8600000000000001,-3.09 0.39000000000000007,-4.12 l10.17,-8.42 c1.24,-1.02 3.09,-0.8600000000000001 4.12,0.39000000000000007 c1.03,1.24 0.8600000000000001,3.09 -0.39000000000000007,4.12 l-10.17,8.42 C408.82999633789063,258.35999450683596 408.1699963378906,258.57999450683593 407.50999633789064,258.57999450683593 z" id="svg_53"/>
				</g>
			</g>
			<g id="svg_54">
				<g id="svg_55">
					<path class="st6" d="M254.55999633789065,258.57999450683593 c-0.6600000000000001,0 -1.32,-0.22000000000000003 -1.87,-0.6700000000000002 l-10.16,-8.42 c-1.24,-1.03 -1.42,-2.87 -0.39000000000000007,-4.12 c1.03,-1.24 2.88,-1.4100000000000001 4.12,-0.39000000000000007 l10.16,8.42 c1.24,1.03 1.42,2.87 0.39000000000000007,4.12 C256.2399963378906,258.2199945068359 255.39999633789063,258.57999450683593 254.55999633789065,258.57999450683593 z" id="svg_56"/>
				</g>
				<g id="svg_57">
					<path class="st6" d="M244.39999633789063,258.57999450683593 c-0.8400000000000001,0 -1.6700000000000002,-0.36000000000000004 -2.25,-1.06 c-1.03,-1.24 -0.8600000000000001,-3.09 0.39000000000000007,-4.12 l10.16,-8.42 c1.24,-1.03 3.08,-0.8600000000000001 4.12,0.39000000000000007 s0.8600000000000001,3.09 -0.39000000000000007,4.12 l-10.16,8.42 C245.71999633789062,258.35999450683596 245.05999633789065,258.57999450683593 244.39999633789063,258.57999450683593 z" id="svg_58"/>
				</g>
			</g>
			<g id="svg_59">
				<g id="svg_60">
					<path class="st6" d="M231.26999633789063,258.57999450683593 c-0.6600000000000001,0 -1.32,-0.22000000000000003 -1.87,-0.6700000000000002 l-10.17,-8.42 c-1.24,-1.03 -1.42,-2.87 -0.39000000000000007,-4.12 c1.03,-1.24 2.87,-1.4100000000000001 4.12,-0.39000000000000007 l10.17,8.42 c1.24,1.03 1.42,2.87 0.39000000000000007,4.12 C232.93999633789065,258.2199945068359 232.1099963378906,258.57999450683593 231.26999633789063,258.57999450683593 z" id="svg_61"/>
				</g>
				<g id="svg_62">
					<path class="st6" d="M221.09999633789062,258.57999450683593 c-0.8400000000000001,0 -1.6700000000000002,-0.36000000000000004 -2.25,-1.06 c-1.03,-1.24 -0.8600000000000001,-3.09 0.39000000000000007,-4.12 l10.17,-8.42 c1.24,-1.03 3.09,-0.8600000000000001 4.12,0.39000000000000007 c1.03,1.24 0.8600000000000001,3.09 -0.39000000000000007,4.12 l-10.17,8.42 C222.4199963378906,258.35999450683596 221.75999633789064,258.57999450683593 221.09999633789062,258.57999450683593 z" id="svg_63"/>
				</g>
			</g>
			<g id="svg_64">
				<g id="svg_65">
					<path class="st6" d="M184.65999633789062,258.57999450683593 c-0.6600000000000001,0 -1.32,-0.22000000000000003 -1.87,-0.6700000000000002 l-10.17,-8.42 c-1.24,-1.03 -1.42,-2.87 -0.39000000000000007,-4.12 c1.03,-1.24 2.87,-1.4100000000000001 4.12,-0.39000000000000007 l10.17,8.42 c1.24,1.03 1.42,2.87 0.39000000000000007,4.12 C186.33999633789062,258.2199945068359 185.49999633789065,258.57999450683593 184.65999633789062,258.57999450683593 z" id="svg_66"/>
				</g>
				<g id="svg_67">
					<path class="st6" d="M174.49999633789065,258.57999450683593 c-0.8400000000000001,0 -1.6700000000000002,-0.36000000000000004 -2.25,-1.06 c-1.03,-1.24 -0.8600000000000001,-3.09 0.39000000000000007,-4.12 l10.17,-8.42 c1.24,-1.03 3.08,-0.8600000000000001 4.12,0.39000000000000007 c1.03,1.24 0.8600000000000001,3.09 -0.39000000000000007,4.12 l-10.17,8.42 C175.81999633789064,258.35999450683596 175.14999633789063,258.57999450683593 174.49999633789065,258.57999450683593 z" id="svg_68"/>
				</g>
			</g>
			<g id="svg_69">
				<g id="svg_70">
					<path class="st6" d="M161.3599963378906,258.57999450683593 c-0.6600000000000001,0 -1.32,-0.22000000000000003 -1.87,-0.6700000000000002 l-10.17,-8.42 c-1.24,-1.03 -1.42,-2.87 -0.39000000000000007,-4.12 c1.03,-1.24 2.88,-1.4100000000000001 4.12,-0.39000000000000007 l10.17,8.42 c1.24,1.03 1.42,2.87 0.39000000000000007,4.12 C163.02999633789062,258.2199945068359 162.19999633789064,258.57999450683593 161.3599963378906,258.57999450683593 z" id="svg_71"/>
				</g>
				<g id="svg_72">
					<path class="st6" d="M151.19999633789064,258.57999450683593 c-0.8400000000000001,0 -1.6700000000000002,-0.36000000000000004 -2.25,-1.06 c-1.03,-1.24 -0.8600000000000001,-3.09 0.39000000000000007,-4.12 l10.17,-8.42 c1.24,-1.03 3.09,-0.8600000000000001 4.12,0.39000000000000007 c1.03,1.24 0.8600000000000001,3.09 -0.39000000000000007,4.12 l-10.17,8.42 C152.51999633789063,258.35999450683596 151.84999633789062,258.57999450683593 151.19999633789064,258.57999450683593 z" id="svg_73"/>
				</g>
			</g>
			<g id="svg_74">
				<g id="svg_75">
					<path class="st6" d="M207.95999633789063,258.57999450683593 c-0.6600000000000001,0 -1.32,-0.22000000000000003 -1.87,-0.6700000000000002 l-10.17,-8.42 c-1.24,-1.03 -1.42,-2.87 -0.39000000000000007,-4.12 c1.03,-1.24 2.88,-1.4100000000000001 4.12,-0.39000000000000007 l10.17,8.42 c1.24,1.03 1.42,2.87 0.39000000000000007,4.12 C209.63999633789064,258.2199945068359 208.7999963378906,258.57999450683593 207.95999633789063,258.57999450683593 z" id="svg_76"/>
				</g>
				<g id="svg_77">
					<path class="st6" d="M197.7999963378906,258.57999450683593 c-0.8400000000000001,0 -1.6700000000000002,-0.36000000000000004 -2.25,-1.06 c-1.03,-1.24 -0.8600000000000001,-3.09 0.39000000000000007,-4.12 l10.17,-8.42 c1.24,-1.03 3.09,-0.8600000000000001 4.12,0.39000000000000007 c1.03,1.24 0.8600000000000001,3.09 -0.39000000000000007,4.12 l-10.17,8.42 C199.1199963378906,258.35999450683596 198.45999633789063,258.57999450683593 197.7999963378906,258.57999450683593 z" id="svg_78"/>
				</g>
			</g>
			<g id="svg_79">
				<g id="svg_80">
					<path class="st6" d="M277.8699963378906,258.57999450683593 c-0.6600000000000001,0 -1.32,-0.22000000000000003 -1.87,-0.6700000000000002 l-10.16,-8.42 c-1.24,-1.03 -1.42,-2.87 -0.39000000000000007,-4.12 c1.03,-1.24 2.87,-1.4100000000000001 4.12,-0.39000000000000007 l10.16,8.42 c1.24,1.03 1.42,2.87 0.39000000000000007,4.12 C279.5399963378906,258.2199945068359 278.69999633789064,258.57999450683593 277.8699963378906,258.57999450683593 z" id="svg_81"/>
				</g>
				<g id="svg_82">
					<path class="st6" d="M267.69999633789064,258.57999450683593 c-0.8400000000000001,0 -1.6700000000000002,-0.36000000000000004 -2.25,-1.06 c-1.03,-1.24 -0.8600000000000001,-3.09 0.39000000000000007,-4.12 l10.16,-8.42 c1.24,-1.03 3.09,-0.8600000000000001 4.12,0.39000000000000007 c1.03,1.24 0.8600000000000001,3.09 -0.39000000000000007,4.12 l-10.16,8.42 C269.01999633789063,258.35999450683596 268.3599963378906,258.57999450683593 267.69999633789064,258.57999450683593 z" id="svg_83"/>
				</g>
			</g>
		</g>
		<path class="st7" d="M122.58999633789062,71.55999450683593 c-0.25,-0.6000000000000001 -0.5,-1.26 -0.7500000000000001,-1.81 c-0.4,-0.91 -0.8,-1.7600000000000002 -1.1600000000000001,-2.56 l-0.05000000000000001,-0.05000000000000001 c-3.47,-7.54 -7.19,-15.19 -11.11,-22.73 l-0.15000000000000002,-0.30000000000000004 c-0.4,-0.7500000000000001 -0.8,-1.56 -1.21,-2.36 c-0.5,-0.91 -1.01,-1.86 -1.81,-2.77 c-1.61,-2.01 -3.92,-3.12 -6.39,-3.12 c-2.51,0 -4.78,1.11 -6.44,3.02 c-0.7500000000000001,0.91 -1.31,1.86 -1.81,2.77 c-0.4,0.8 -0.8,1.61 -1.21,2.36 l-0.15000000000000002,0.30000000000000004 c-3.87,7.54 -7.640000000000001,15.19 -11.11,22.73 l-0.05000000000000001,0.1 c-0.35000000000000003,0.8 -0.7500000000000001,1.6600000000000001 -1.1600000000000001,2.56 c-0.25,0.55 -0.5,1.1600000000000001 -0.7500000000000001,1.81 c-0.6500000000000001,1.86 -0.8500000000000001,3.62 -0.6000000000000001,5.43 c0.55,3.77 3.07,6.94 6.54,8.35 c1.31,0.55 2.66,0.8 4.07,0.8 c0.4,0 0.91,-0.05000000000000001 1.31,-0.1 c1.6600000000000001,-0.2 3.37,-0.7500000000000001 5.03,-1.71 c2.06,-1.1600000000000001 4.02,-2.8200000000000003 6.24,-5.23 c2.21,2.41 4.22,4.07 6.24,5.23 c1.6600000000000001,0.9600000000000001 3.37,1.51 5.03,1.71 c0.4,0.05000000000000001 0.91,0.1 1.31,0.1 c1.4100000000000001,0 2.8200000000000003,-0.25 4.07,-0.8 c3.52,-1.4100000000000001 5.98,-4.63 6.54,-8.35 C123.44999633789064,75.17999450683594 123.24999633789062,73.41999450683593 122.58999633789062,71.55999450683593 zM99.90999633789062,74.17999450683594 c-2.72,-3.42 -4.48,-6.640000000000001 -5.08,-9.35 c-0.25,-1.1600000000000001 -0.30000000000000004,-2.16 -0.15000000000000002,-3.07 c0.1,-0.8 0.4,-1.51 0.8,-2.11 c0.9600000000000001,-1.36 2.56,-2.21 4.42,-2.21 c1.86,0 3.52,0.8 4.42,2.21 c0.4,0.6000000000000001 0.7000000000000001,1.31 0.8,2.11 c0.15000000000000002,0.91 0.1,1.96 -0.15000000000000002,3.07 C104.38999633789064,67.48999450683594 102.62999633789062,70.70999450683594 99.90999633789062,74.17999450683594 zM119.97999633789061,76.53999450683594 c-0.35000000000000003,2.6100000000000003 -2.11,4.88 -4.58,5.88 c-1.21,0.5 -2.51,0.6500000000000001 -3.8200000000000003,0.5 c-1.26,-0.15000000000000002 -2.51,-0.55 -3.8200000000000003,-1.31 c-1.81,-1.01 -3.62,-2.56 -5.73,-4.88 c3.3200000000000003,-4.07 5.33,-7.79 6.08,-11.11 c0.35000000000000003,-1.56 0.4,-2.9699999999999998 0.25,-4.27 c-0.2,-1.26 -0.6500000000000001,-2.41 -1.36,-3.42 c-1.56,-2.26 -4.17,-3.5700000000000003 -7.09,-3.5700000000000003 c-2.92,0 -5.53,1.36 -7.09,3.5700000000000003 c-0.7000000000000001,1.01 -1.1600000000000001,2.16 -1.36,3.42 c-0.2,1.31 -0.15000000000000002,2.77 0.25,4.27 c0.7500000000000001,3.3200000000000003 2.8200000000000003,7.09 6.08,11.16 c-2.06,2.31 -3.92,3.87 -5.73,4.88 c-1.31,0.7500000000000001 -2.56,1.1600000000000001 -3.8200000000000003,1.31 c-1.36,0.15000000000000002 -2.66,-0.05000000000000001 -3.8200000000000003,-0.5 c-2.46,-1.01 -4.22,-3.27 -4.58,-5.88 c-0.15000000000000002,-1.26 -0.05000000000000001,-2.51 0.45,-3.92 c0.15000000000000002,-0.5 0.4,-1.01 0.6500000000000001,-1.61 c0.35000000000000003,-0.8 0.7500000000000001,-1.6600000000000001 1.1600000000000001,-2.51 l0.05000000000000001,-0.1 c3.47,-7.49 7.19,-15.14 11.06,-22.58 l0.15000000000000002,-0.30000000000000004 c0.4,-0.7500000000000001 0.8,-1.56 1.21,-2.31 c0.4,-0.8 0.8500000000000001,-1.56 1.4100000000000001,-2.21 c1.06,-1.21 2.46,-1.86 4.02,-1.86 c1.56,0 2.9699999999999998,0.6500000000000001 4.02,1.86 c0.55,0.6500000000000001 1.01,1.4100000000000001 1.4100000000000001,2.21 c0.4,0.7500000000000001 0.8,1.56 1.21,2.31 l0.15000000000000002,0.30000000000000004 c3.8200000000000003,7.49 7.54,15.14 11.01,22.63 v0.05000000000000001 c0.4,0.8 0.7500000000000001,1.71 1.1600000000000001,2.51 c0.25,0.6000000000000001 0.5,1.11 0.6500000000000001,1.61 C120.02999633789062,73.97999450683594 120.17999633789063,75.22999450683594 119.97999633789061,76.53999450683594 z" id="svg_84"/>
		<g id="svg_85">
			<path class="st0" d="M254.89999633789063,142.73999450683593 c-1.81,-0.25 -3.51,-0.7400000000000001 -5.09,-1.49 c-1.59,-0.7400000000000001 -2.94,-1.6600000000000001 -4.05,-2.7600000000000002 l1.7600000000000002,-2.63 c0.15000000000000002,-0.23 0.36000000000000004,-0.42000000000000004 0.6200000000000001,-0.5700000000000001 s0.52,-0.22000000000000003 0.8,-0.22000000000000003 c0.3400000000000001,0 0.7100000000000001,0.12000000000000001 1.09,0.36000000000000004 c0.39000000000000007,0.24000000000000002 0.8300000000000001,0.52 1.32,0.8500000000000001 c0.5,0.33000000000000007 1.06,0.6500000000000001 1.6900000000000002,0.98 c0.6300000000000001,0.33000000000000007 1.3900000000000001,0.5700000000000001 2.25,0.7200000000000001 l0.8800000000000001,-10.4 c-1.1,-0.31000000000000005 -2.19,-0.6700000000000002 -3.26,-1.09 c-1.07,-0.42000000000000004 -2.04,-0.98 -2.9,-1.6700000000000002 c-0.8600000000000001,-0.6900000000000002 -1.55,-1.56 -2.08,-2.62 c-0.53,-1.06 -0.79,-2.38 -0.79,-3.96 c0,-1.18 0.24000000000000002,-2.33 0.7100000000000001,-3.46 c0.47000000000000003,-1.13 1.1600000000000001,-2.13 2.05,-3.02 c0.9,-0.8800000000000001 2,-1.62 3.3200000000000003,-2.19 c1.31,-0.5700000000000001 2.8200000000000003,-0.8600000000000001 4.53,-0.8600000000000001 l0.26,-2.96 c0.030000000000000006,-0.37000000000000005 0.18000000000000002,-0.7100000000000001 0.46,-1.01 s0.6400000000000001,-0.45 1.09,-0.45 h2.11 l-0.39000000000000007,4.5600000000000005 c1.6400000000000001,0.26 3.06,0.7300000000000001 4.25,1.3900000000000001 c1.19,0.6700000000000002 2.23,1.42 3.11,2.25 l-1.3900000000000001,2.11 c-0.22000000000000003,0.31000000000000005 -0.43000000000000005,0.54 -0.6500000000000001,0.7000000000000001 c-0.22000000000000003,0.15000000000000002 -0.48000000000000004,0.23 -0.79,0.23 c-0.23,0 -0.51,-0.07 -0.8200000000000001,-0.22000000000000003 c-0.32000000000000006,-0.15000000000000002 -0.6800000000000002,-0.33000000000000007 -1.09,-0.53 s-0.8600000000000001,-0.42000000000000004 -1.36,-0.6400000000000001 s-1.04,-0.39000000000000007 -1.6500000000000001,-0.53 l-0.81,9.61 c1.11,0.3400000000000001 2.22,0.7200000000000001 3.31,1.13 s2.07,0.9400000000000001 2.95,1.59 c0.8700000000000001,0.6500000000000001 1.58,1.46 2.12,2.43 c0.54,0.97 0.81,2.18 0.81,3.63 c0,1.44 -0.24000000000000002,2.79 -0.7200000000000001,4.05 c-0.48000000000000004,1.26 -1.18,2.38 -2.1,3.34 c-0.92,0.97 -2.05,1.75 -3.4,2.36 c-1.34,0.6000000000000001 -2.88,0.97 -4.62,1.09 l-0.28,3.41 c-0.030000000000000006,0.36000000000000004 -0.19000000000000003,0.6800000000000002 -0.47000000000000003,0.99 c-0.28,0.30000000000000004 -0.6400000000000001,0.45 -1.09,0.45 h-2.11 L254.89999633789063,142.73999450683593 zM252.55999633789065,117.70999450683593 c0,0.5900000000000001 0.1,1.11 0.30000000000000004,1.55 c0.2,0.45 0.48000000000000004,0.8500000000000001 0.8500000000000001,1.2 c0.36000000000000004,0.35000000000000003 0.79,0.6600000000000001 1.29,0.93 c0.49000000000000005,0.27 1.04,0.52 1.62,0.7300000000000001 l0.7200000000000001,-8.59 c-0.8500000000000001,0.11000000000000001 -1.58,0.29000000000000004 -2.18,0.55 c-0.6000000000000001,0.26 -1.1,0.5700000000000001 -1.48,0.9400000000000001 c-0.39000000000000007,0.37000000000000005 -0.6700000000000002,0.79 -0.8500000000000001,1.24 C252.64999633789063,116.71999450683595 252.55999633789065,117.19999450683594 252.55999633789065,117.70999450683593 zM263.8399963378906,132.89999450683592 c0,-0.5900000000000001 -0.11000000000000001,-1.1 -0.31000000000000005,-1.54 c-0.21000000000000002,-0.44000000000000006 -0.5,-0.8300000000000001 -0.8800000000000001,-1.17 c-0.38000000000000006,-0.3400000000000001 -0.8200000000000001,-0.6300000000000001 -1.33,-0.8800000000000001 c-0.51,-0.25 -1.07,-0.47000000000000003 -1.6700000000000002,-0.6700000000000002 l-0.79,9.42 c1.6400000000000001,-0.22000000000000003 2.88,-0.77 3.73,-1.6600000000000001 S263.8399963378906,134.32999450683593 263.8399963378906,132.89999450683592 z" id="svg_86"/>
			<path class="st0" d="M281.81999633789064,142.73999450683593 c-1.81,-0.25 -3.51,-0.7400000000000001 -5.1,-1.49 c-1.58,-0.7400000000000001 -2.93,-1.6600000000000001 -4.05,-2.7600000000000002 l1.7600000000000002,-2.63 c0.15000000000000002,-0.23 0.36000000000000004,-0.42000000000000004 0.6100000000000001,-0.5700000000000001 c0.26,-0.15000000000000002 0.52,-0.22000000000000003 0.8,-0.22000000000000003 c0.3400000000000001,0 0.7000000000000001,0.12000000000000001 1.09,0.36000000000000004 c0.39000000000000007,0.24000000000000002 0.8300000000000001,0.52 1.32,0.8500000000000001 c0.5,0.33000000000000007 1.06,0.6500000000000001 1.6900000000000002,0.98 c0.6300000000000001,0.33000000000000007 1.3900000000000001,0.5700000000000001 2.25,0.7200000000000001 l0.8800000000000001,-10.4 c-1.1,-0.31000000000000005 -2.19,-0.6700000000000002 -3.26,-1.09 c-1.08,-0.42000000000000004 -2.04,-0.98 -2.9,-1.6700000000000002 c-0.8600000000000001,-0.6900000000000002 -1.55,-1.56 -2.08,-2.62 c-0.53,-1.06 -0.79,-2.38 -0.79,-3.96 c0,-1.18 0.24000000000000002,-2.33 0.7100000000000001,-3.46 c0.47000000000000003,-1.13 1.1600000000000001,-2.13 2.05,-3.02 c0.9,-0.8800000000000001 2,-1.62 3.3200000000000003,-2.19 c1.32,-0.5700000000000001 2.8200000000000003,-0.8600000000000001 4.53,-0.8600000000000001 l0.26,-2.96 c0.030000000000000006,-0.37000000000000005 0.19000000000000003,-0.7100000000000001 0.47000000000000003,-1.01 s0.6400000000000001,-0.45 1.09,-0.45 h2.11 l-0.39000000000000007,4.5600000000000005 c1.6400000000000001,0.26 3.06,0.7300000000000001 4.25,1.3900000000000001 c1.19,0.6700000000000002 2.23,1.42 3.11,2.25 l-1.3900000000000001,2.11 c-0.22000000000000003,0.31000000000000005 -0.43000000000000005,0.54 -0.6500000000000001,0.7000000000000001 c-0.22000000000000003,0.15000000000000002 -0.48000000000000004,0.23 -0.79,0.23 c-0.23,0 -0.51,-0.07 -0.8200000000000001,-0.22000000000000003 c-0.32000000000000006,-0.15000000000000002 -0.6800000000000002,-0.33000000000000007 -1.09,-0.53 c-0.41000000000000003,-0.21000000000000002 -0.8600000000000001,-0.42000000000000004 -1.36,-0.6400000000000001 c-0.5,-0.22000000000000003 -1.04,-0.39000000000000007 -1.6500000000000001,-0.53 l-0.81,9.61 c1.11,0.3400000000000001 2.22,0.7200000000000001 3.31,1.13 c1.09,0.41000000000000003 2.07,0.9400000000000001 2.95,1.59 c0.8700000000000001,0.6500000000000001 1.58,1.46 2.12,2.43 c0.54,0.97 0.81,2.18 0.81,3.63 c0,1.44 -0.24000000000000002,2.79 -0.7200000000000001,4.05 c-0.48000000000000004,1.26 -1.18,2.38 -2.1,3.34 c-0.92,0.97 -2.05,1.75 -3.4,2.36 c-1.35,0.6000000000000001 -2.89,0.97 -4.62,1.09 l-0.28,3.41 c-0.030000000000000006,0.36000000000000004 -0.18000000000000002,0.6800000000000002 -0.46,0.99 c-0.28,0.30000000000000004 -0.6400000000000001,0.45 -1.09,0.45 h-2.11 L281.81999633789064,142.73999450683593 zM279.4799963378906,117.70999450683593 c0,0.5900000000000001 0.1,1.11 0.30000000000000004,1.55 c0.2,0.45 0.48000000000000004,0.8500000000000001 0.8500000000000001,1.2 c0.36000000000000004,0.35000000000000003 0.79,0.6600000000000001 1.29,0.93 c0.5,0.27 1.04,0.52 1.6300000000000001,0.7300000000000001 l0.7200000000000001,-8.59 c-0.8500000000000001,0.11000000000000001 -1.58,0.29000000000000004 -2.18,0.55 c-0.6000000000000001,0.26 -1.1,0.5700000000000001 -1.49,0.9400000000000001 c-0.39000000000000007,0.37000000000000005 -0.6700000000000002,0.79 -0.8500000000000001,1.24 C279.56999633789064,116.71999450683595 279.4799963378906,117.19999450683594 279.4799963378906,117.70999450683593 zM290.75999633789064,132.89999450683592 c0,-0.5900000000000001 -0.1,-1.1 -0.31000000000000005,-1.54 c-0.21000000000000002,-0.44000000000000006 -0.5,-0.8300000000000001 -0.8800000000000001,-1.17 s-0.8200000000000001,-0.6300000000000001 -1.33,-0.8800000000000001 c-0.51,-0.25 -1.07,-0.47000000000000003 -1.6700000000000002,-0.6700000000000002 l-0.79,9.42 c1.6400000000000001,-0.22000000000000003 2.88,-0.77 3.73,-1.6600000000000001 C290.3399963378906,135.49999450683595 290.75999633789064,134.32999450683593 290.75999633789064,132.89999450683592 z" id="svg_87"/>
			<path class="st0" d="M308.7399963378906,142.73999450683593 c-1.81,-0.25 -3.51,-0.7400000000000001 -5.09,-1.49 c-1.59,-0.7400000000000001 -2.94,-1.6600000000000001 -4.05,-2.7600000000000002 l1.7600000000000002,-2.63 c0.15000000000000002,-0.23 0.36000000000000004,-0.42000000000000004 0.6200000000000001,-0.5700000000000001 s0.52,-0.22000000000000003 0.8,-0.22000000000000003 c0.3400000000000001,0 0.7100000000000001,0.12000000000000001 1.09,0.36000000000000004 c0.39000000000000007,0.24000000000000002 0.8300000000000001,0.52 1.32,0.8500000000000001 c0.5,0.33000000000000007 1.06,0.6500000000000001 1.6900000000000002,0.98 c0.6300000000000001,0.33000000000000007 1.3900000000000001,0.5700000000000001 2.25,0.7200000000000001 l0.8800000000000001,-10.4 c-1.1,-0.31000000000000005 -2.19,-0.6700000000000002 -3.26,-1.09 c-1.07,-0.42000000000000004 -2.04,-0.98 -2.9,-1.6700000000000002 c-0.8600000000000001,-0.6900000000000002 -1.55,-1.56 -2.08,-2.62 c-0.53,-1.06 -0.79,-2.38 -0.79,-3.96 c0,-1.18 0.24000000000000002,-2.33 0.7100000000000001,-3.46 c0.47000000000000003,-1.13 1.1600000000000001,-2.13 2.05,-3.02 c0.9,-0.8800000000000001 2,-1.62 3.3200000000000003,-2.19 c1.31,-0.5700000000000001 2.8200000000000003,-0.8600000000000001 4.53,-0.8600000000000001 l0.26,-2.96 c0.030000000000000006,-0.37000000000000005 0.18000000000000002,-0.7100000000000001 0.46,-1.01 s0.6400000000000001,-0.45 1.09,-0.45 h2.11 l-0.39000000000000007,4.5600000000000005 c1.6400000000000001,0.26 3.06,0.7300000000000001 4.25,1.3900000000000001 c1.19,0.6700000000000002 2.23,1.42 3.11,2.25 l-1.3900000000000001,2.11 c-0.22000000000000003,0.31000000000000005 -0.43000000000000005,0.54 -0.6500000000000001,0.7000000000000001 c-0.22000000000000003,0.15000000000000002 -0.48000000000000004,0.23 -0.79,0.23 c-0.23,0 -0.51,-0.07 -0.8200000000000001,-0.22000000000000003 c-0.32000000000000006,-0.15000000000000002 -0.6800000000000002,-0.33000000000000007 -1.09,-0.53 c-0.41000000000000003,-0.21000000000000002 -0.8600000000000001,-0.42000000000000004 -1.36,-0.6400000000000001 c-0.5,-0.22000000000000003 -1.04,-0.39000000000000007 -1.6500000000000001,-0.53 l-0.81,9.61 c1.11,0.3400000000000001 2.22,0.7200000000000001 3.31,1.13 s2.07,0.9400000000000001 2.95,1.59 c0.8700000000000001,0.6500000000000001 1.58,1.46 2.12,2.43 c0.54,0.97 0.81,2.18 0.81,3.63 c0,1.44 -0.24000000000000002,2.79 -0.7200000000000001,4.05 c-0.48000000000000004,1.26 -1.18,2.38 -2.1,3.34 c-0.92,0.97 -2.05,1.75 -3.4,2.36 c-1.34,0.6000000000000001 -2.88,0.97 -4.62,1.09 l-0.28,3.41 c-0.030000000000000006,0.36000000000000004 -0.19000000000000003,0.6800000000000002 -0.47000000000000003,0.99 c-0.28,0.30000000000000004 -0.6400000000000001,0.45 -1.09,0.45 h-2.11 L308.7399963378906,142.73999450683593 zM306.3999963378906,117.70999450683593 c0,0.5900000000000001 0.1,1.11 0.30000000000000004,1.55 c0.2,0.45 0.48000000000000004,0.8500000000000001 0.8500000000000001,1.2 c0.36000000000000004,0.35000000000000003 0.79,0.6600000000000001 1.29,0.93 c0.49000000000000005,0.27 1.04,0.52 1.62,0.7300000000000001 l0.7200000000000001,-8.59 c-0.8500000000000001,0.11000000000000001 -1.58,0.29000000000000004 -2.18,0.55 c-0.6000000000000001,0.26 -1.1,0.5700000000000001 -1.48,0.9400000000000001 c-0.39000000000000007,0.37000000000000005 -0.6700000000000002,0.79 -0.8500000000000001,1.24 C306.4899963378906,116.71999450683595 306.3999963378906,117.19999450683594 306.3999963378906,117.70999450683593 zM317.6799963378906,132.89999450683592 c0,-0.5900000000000001 -0.11000000000000001,-1.1 -0.31000000000000005,-1.54 c-0.21000000000000002,-0.44000000000000006 -0.5,-0.8300000000000001 -0.8800000000000001,-1.17 c-0.38000000000000006,-0.3400000000000001 -0.8200000000000001,-0.6300000000000001 -1.33,-0.8800000000000001 c-0.51,-0.25 -1.07,-0.47000000000000003 -1.6700000000000002,-0.6700000000000002 l-0.79,9.42 c1.6400000000000001,-0.22000000000000003 2.88,-0.77 3.73,-1.6600000000000001 S317.6799963378906,134.32999450683593 317.6799963378906,132.89999450683592 z" id="svg_88"/>
		</g>
		<g id="svg_89">
			<path class="st0" d="M200.43999633789065,51.96999450683593 c4.7,0 7.06,2.72 7.06,5.99 c0,2.38 -1.32,4.79 -4.45,5.63 l4.68,7.92 h-4.54 l-4.3100000000000005,-7.62 h-1.85 v7.62 h-3.92 V51.96999450683593 H200.43999633789065 zM200.2999963378906,55.21999450683593 h-3.2800000000000002 v5.74 h3.2800000000000002 c2.18,0 3.16,-1.15 3.16,-2.91 C203.45999633789063,56.309994506835935 202.4799963378906,55.21999450683593 200.2999963378906,55.21999450683593 z" id="svg_90"/>
			<path class="st0" d="M222.38999633789064,55.13999450683593 h-7.42 v4.9 h6.58 v3.11 h-6.58 v5.18 h7.42 v3.19 h-11.34 V51.949994506835935 h11.34 V55.13999450683593 z" id="svg_91"/>
			<path class="st0" d="M232.69999633789064,71.70999450683594 c-4.06,0 -7.2,-2.13 -7.25,-5.82 h4.2 c0.11000000000000001,1.57 1.15,2.6 2.9699999999999998,2.6 c1.85,0 2.94,-0.98 2.94,-2.38 c0,-4.23 -10.08,-1.6800000000000002 -10.05,-8.76 c0,-3.5300000000000002 2.8600000000000003,-5.66 6.890000000000001,-5.66 c4,0 6.75,2.04 7,5.57 h-4.3100000000000005 c-0.08000000000000002,-1.29 -1.12,-2.3 -2.8,-2.3200000000000003 c-1.54,-0.06000000000000001 -2.6900000000000004,0.7000000000000001 -2.6900000000000004,2.3 c0,3.92 10.02,1.7400000000000002 10.02,8.620000000000001 C239.6099963378906,68.93999450683594 237.14999633789063,71.70999450683594 232.69999633789064,71.70999450683594 z" id="svg_92"/>
			<path class="st0" d="M254.33999633789062,55.13999450683593 h-7.42 v4.9 h6.58 v3.11 h-6.58 v5.18 h7.42 v3.19 h-11.34 V51.949994506835935 h11.34 V55.13999450683593 z" id="svg_93"/>
			<path class="st0" d="M265.2299963378906,51.96999450683593 c4.7,0 7.06,2.72 7.06,5.99 c0,2.38 -1.32,4.79 -4.45,5.63 l4.68,7.92 h-4.54 l-4.3100000000000005,-7.62 h-1.85 v7.62 h-3.92 V51.96999450683593 H265.2299963378906 zM265.0899963378906,55.21999450683593 h-3.2800000000000002 v5.74 H265.0899963378906 c2.18,0 3.16,-1.15 3.16,-2.91 C268.24999633789065,56.309994506835935 267.26999633789063,55.21999450683593 265.0899963378906,55.21999450683593 z" id="svg_94"/>
			<path class="st0" d="M289.2299963378906,51.96999450683593 h4.17 l-7.17,19.54 h-4.76 l-7.17,-19.54 h4.2 l5.38,15.54 L289.2299963378906,51.96999450683593 z" id="svg_95"/>
			<path class="st0" d="M307.7299963378906,67.78999450683594 h-7.78 l-1.29,3.72 h-4.12 l7.03,-19.57 h4.5600000000000005 l7.03,19.57 h-4.14 L307.7299963378906,67.78999450683594 zM303.8399963378906,56.479994506835936 l-2.83,8.18 h5.66 L303.8399963378906,56.479994506835936 z" id="svg_96"/>
			<path class="st0" d="M314.75999633789064,51.96999450683593 h14.34 v3.16 h-5.21 v16.38 h-3.92 V55.13999450683593 h-5.21 V51.96999450683593 z" id="svg_97"/>
			<path class="st0" d="M331.94999633789064,51.96999450683593 h3.92 v19.54 h-3.92 V51.96999450683593 z" id="svg_98"/>
			<path class="st0" d="M348.80999633789065,71.70999450683594 c-5.52,0 -10.02,-4.14 -10.02,-10.02 c0,-5.85 4.51,-10 10.02,-10 c5.57,0 10,4.14 10,10 C358.80999633789065,67.56999450683594 354.3499963378906,71.70999450683594 348.80999633789065,71.70999450683594 zM348.80999633789065,68.20999450683594 c3.5300000000000002,0 5.96,-2.55 5.96,-6.52 c0,-3.98 -2.44,-6.47 -5.96,-6.47 c-3.56,0 -5.99,2.49 -5.99,6.47 C342.81999633789064,65.66999450683593 345.24999633789065,68.20999450683594 348.80999633789065,68.20999450683594 z" id="svg_99"/>
			<path class="st0" d="M378.4299963378906,51.949994506835935 v19.57 h-3.92 l-8.88,-13.41 v13.41 h-3.92 V51.949994506835935 h3.92 l8.88,13.44 V51.949994506835935 H378.4299963378906 z" id="svg_100"/>
		</g>
	</g>
	<g id="svg_101">
		
			<linearGradient id="SVGID_1_" gradientUnits="userSpaceOnUse" x1="555.8635864257812" y1="293.8399963378906" x2="873.7316284179688" y2="293.8399963378906" gradientTransform="matrix(0.9802 0.1979 -0.1979 0.9802 -73.111 -117.54)" transform="translate(-94.91000366210938,-41.49000549316406) ">
			<stop offset="0" style="stop-color:#FFFFFF"/>
			<stop offset="1" style="stop-color:#F4F6F9"/>
		</linearGradient>
		<path class="st8" d="M314.8699963378906,258.0399945068359 c0,0 21.31,-20.48 53.78,-28.81 c26.34,-6.76 103.83,-17.97 124.59,-24.16 c37.94,-11.31 70.83,-32.54 70.83,-32.54 l76.64,77.76 c0,0 -23.82,19.54 -53.31,33.11 c-29.86,13.74 -101.1,9.41 -140.9,30.04 c-25.77,13.36 -60.62,55.04 -60.62,55.04 L314.8699963378906,258.0399945068359 z" id="svg_102"/>
		<g id="svg_103">
			<path class="st0" d="M538.5499963378907,230.56999450683594 c-1.19,0.5800000000000001 -2.4,1.02 -3.64,1.32 c-1.24,0.30000000000000004 -2.4,0.43000000000000005 -3.48,0.41000000000000003 l0.09000000000000002,-1.7200000000000002 c0.010000000000000002,-0.15000000000000002 0.06000000000000001,-0.31000000000000005 0.16000000000000003,-0.46 c0.1,-0.16000000000000003 0.23,-0.29000000000000004 0.4,-0.39000000000000007 c0.21000000000000002,-0.13 0.47000000000000003,-0.22000000000000003 0.8,-0.27 c0.32000000000000006,-0.05000000000000001 0.7000000000000001,-0.1 1.12,-0.16000000000000003 c0.42000000000000004,-0.06000000000000001 0.8800000000000001,-0.14 1.3900000000000001,-0.24000000000000002 c0.51,-0.11000000000000001 1.05,-0.29000000000000004 1.6300000000000001,-0.56 l-3.34,-4.53 c-0.78,0.29000000000000004 -1.58,0.55 -2.38,0.79 c-0.81,0.24000000000000002 -1.6,0.38000000000000006 -2.38,0.42000000000000004 c-0.78,0.04000000000000001 -1.52,-0.05000000000000001 -2.23,-0.28 c-0.7100000000000001,-0.23 -1.36,-0.6600000000000001 -1.9500000000000002,-1.3 c-0.44000000000000006,-0.48000000000000004 -0.7300000000000001,-1.03 -0.8600000000000001,-1.6600000000000001 c-0.13,-0.6300000000000001 -0.09000000000000002,-1.3 0.12000000000000001,-1.99 c0.21000000000000002,-0.7000000000000001 0.6100000000000001,-1.4100000000000001 1.2,-2.13 s1.3900000000000001,-1.4100000000000001 2.42,-2.05 l-0.9500000000000001,-1.29 c-0.12000000000000001,-0.16000000000000003 -0.15000000000000002,-0.36000000000000004 -0.09000000000000002,-0.5800000000000001 s0.22000000000000003,-0.42000000000000004 0.5,-0.5900000000000001 l1.28,-0.8 l1.46,1.99 c1.09,-0.51 2.12,-0.8600000000000001 3.09,-1.04 c0.97,-0.18000000000000002 1.8800000000000001,-0.27 2.72,-0.26 l-0.06000000000000001,1.3800000000000001 c-0.020000000000000004,0.21000000000000002 -0.06000000000000001,0.38000000000000006 -0.13,0.53 c-0.07,0.14 -0.2,0.27 -0.39000000000000007,0.39000000000000007 c-0.14,0.09000000000000002 -0.33000000000000007,0.16000000000000003 -0.5800000000000001,0.22000000000000003 c-0.25,0.06000000000000001 -0.53,0.13 -0.8600000000000001,0.2 s-0.6800000000000002,0.15000000000000002 -1.06,0.25 s-0.78,0.23 -1.2,0.4 l3.09,4.19 c0.8,-0.28 1.61,-0.55 2.42,-0.79 s1.61,-0.4 2.38,-0.47000000000000003 c0.77,-0.07 1.5,-0.010000000000000002 2.19,0.18000000000000002 c0.6900000000000002,0.19000000000000003 1.3,0.5700000000000001 1.85,1.1600000000000001 c0.54,0.5800000000000001 0.8900000000000001,1.22 1.07,1.9100000000000001 c0.18000000000000002,0.6900000000000002 0.17,1.4 -0.030000000000000006,2.14 c-0.2,0.7400000000000001 -0.5900000000000001,1.48 -1.18,2.23 c-0.5900000000000001,0.7500000000000001 -1.3900000000000001,1.48 -2.39,2.18 l1.1,1.48 c0.11000000000000001,0.16000000000000003 0.14,0.35000000000000003 0.09000000000000002,0.5700000000000001 c-0.06000000000000001,0.23 -0.22000000000000003,0.42000000000000004 -0.49000000000000005,0.5900000000000001 l-1.28,0.8 L538.5499963378907,230.56999450683594 zM527.8099963378907,221.3499945068359 c0.22000000000000003,0.24000000000000002 0.47000000000000003,0.41000000000000003 0.7600000000000001,0.51 c0.29000000000000004,0.11000000000000001 0.6100000000000001,0.16000000000000003 0.9600000000000001,0.16000000000000003 c0.35000000000000003,0 0.7300000000000001,-0.030000000000000006 1.13,-0.11000000000000001 c0.4,-0.08000000000000002 0.8200000000000001,-0.18000000000000002 1.26,-0.32000000000000006 l-2.7600000000000002,-3.74 c-0.48000000000000004,0.36000000000000004 -0.8500000000000001,0.7100000000000001 -1.12,1.04 c-0.27,0.33000000000000007 -0.45,0.6400000000000001 -0.55,0.9400000000000001 c-0.1,0.30000000000000004 -0.11000000000000001,0.5700000000000001 -0.05000000000000001,0.8200000000000001 C527.4899963378906,220.90999450683591 527.6199963378906,221.13999450683593 527.8099963378907,221.3499945068359 zM540.2999963378907,223.22999450683596 c-0.22000000000000003,-0.24000000000000002 -0.47000000000000003,-0.4 -0.7600000000000001,-0.5 c-0.29000000000000004,-0.1 -0.6100000000000001,-0.15000000000000002 -0.97,-0.14 c-0.36000000000000004,0.010000000000000002 -0.7400000000000001,0.05000000000000001 -1.1400000000000001,0.15000000000000002 c-0.4,0.09000000000000002 -0.8200000000000001,0.21000000000000002 -1.26,0.36000000000000004 l3.03,4.1 c0.91,-0.7100000000000001 1.46,-1.4 1.6400000000000001,-2.07 C541.0199963378906,224.43999450683594 540.8399963378906,223.80999450683595 540.2999963378907,223.22999450683596 z" id="svg_104"/>
			<path class="st0" d="M554.8699963378906,220.41999450683596 c-1.19,0.5800000000000001 -2.4,1.02 -3.64,1.32 c-1.24,0.30000000000000004 -2.4,0.43000000000000005 -3.48,0.41000000000000003 l0.09000000000000002,-1.73 c0.010000000000000002,-0.15000000000000002 0.06000000000000001,-0.31000000000000005 0.16000000000000003,-0.46 c0.1,-0.16000000000000003 0.23,-0.29000000000000004 0.4,-0.39000000000000007 c0.21000000000000002,-0.13 0.47000000000000003,-0.22000000000000003 0.8,-0.27 c0.32000000000000006,-0.05000000000000001 0.7000000000000001,-0.1 1.12,-0.16000000000000003 c0.42000000000000004,-0.06000000000000001 0.8800000000000001,-0.14 1.3900000000000001,-0.24000000000000002 c0.51,-0.11000000000000001 1.05,-0.29000000000000004 1.6300000000000001,-0.56 l-3.34,-4.53 c-0.78,0.29000000000000004 -1.58,0.55 -2.38,0.79 c-0.81,0.24000000000000002 -1.6,0.38000000000000006 -2.38,0.42000000000000004 c-0.78,0.05000000000000001 -1.52,-0.05000000000000001 -2.23,-0.28 c-0.7100000000000001,-0.23 -1.36,-0.6600000000000001 -1.9500000000000002,-1.3 c-0.44000000000000006,-0.48000000000000004 -0.7300000000000001,-1.03 -0.8600000000000001,-1.6600000000000001 c-0.13,-0.6300000000000001 -0.09000000000000002,-1.3 0.12000000000000001,-1.99 c0.21000000000000002,-0.7000000000000001 0.6100000000000001,-1.4100000000000001 1.2,-2.13 c0.5800000000000001,-0.7300000000000001 1.3900000000000001,-1.4100000000000001 2.42,-2.05 l-0.9500000000000001,-1.29 c-0.12000000000000001,-0.16000000000000003 -0.15000000000000002,-0.36000000000000004 -0.09000000000000002,-0.5800000000000001 s0.22000000000000003,-0.42000000000000004 0.49000000000000005,-0.5900000000000001 l1.28,-0.8 l1.46,1.99 c1.09,-0.51 2.12,-0.8600000000000001 3.09,-1.04 c0.97,-0.18000000000000002 1.8800000000000001,-0.27 2.72,-0.26 l-0.06000000000000001,1.3800000000000001 c-0.020000000000000004,0.21000000000000002 -0.06000000000000001,0.38000000000000006 -0.13,0.53 s-0.2,0.27 -0.39000000000000007,0.39000000000000007 c-0.14,0.09000000000000002 -0.33000000000000007,0.16000000000000003 -0.5800000000000001,0.22000000000000003 c-0.25,0.06000000000000001 -0.53,0.12000000000000001 -0.8600000000000001,0.19000000000000003 c-0.33000000000000007,0.07 -0.6800000000000002,0.15000000000000002 -1.06,0.25 c-0.38000000000000006,0.1 -0.78,0.23 -1.2,0.41000000000000003 l3.09,4.19 c0.8,-0.28 1.61,-0.55 2.42,-0.79 c0.81,-0.25 1.61,-0.4 2.38,-0.47000000000000003 c0.77,-0.07 1.5,-0.010000000000000002 2.19,0.18000000000000002 c0.6900000000000002,0.19000000000000003 1.3,0.5700000000000001 1.85,1.1600000000000001 c0.54,0.5800000000000001 0.8900000000000001,1.22 1.07,1.9100000000000001 c0.18000000000000002,0.6900000000000002 0.17,1.4 -0.030000000000000006,2.14 s-0.5900000000000001,1.48 -1.18,2.23 c-0.5900000000000001,0.7500000000000001 -1.3900000000000001,1.48 -2.39,2.18 l1.1,1.48 c0.11000000000000001,0.16000000000000003 0.14,0.35000000000000003 0.09000000000000002,0.5700000000000001 c-0.06000000000000001,0.23 -0.22000000000000003,0.43000000000000005 -0.49000000000000005,0.5900000000000001 l-1.28,0.8 L554.8699963378906,220.41999450683596 zM544.1299963378906,211.19999450683594 c0.22000000000000003,0.24000000000000002 0.47000000000000003,0.41000000000000003 0.7600000000000001,0.51 c0.29000000000000004,0.11000000000000001 0.6100000000000001,0.16000000000000003 0.9600000000000001,0.16000000000000003 c0.35000000000000003,0 0.7300000000000001,-0.030000000000000006 1.13,-0.11000000000000001 c0.4,-0.08000000000000002 0.8200000000000001,-0.18000000000000002 1.26,-0.32000000000000006 l-2.7600000000000002,-3.74 c-0.48000000000000004,0.36000000000000004 -0.8500000000000001,0.7100000000000001 -1.12,1.04 c-0.27,0.33000000000000007 -0.45,0.6400000000000001 -0.55,0.9400000000000001 c-0.1,0.30000000000000004 -0.11000000000000001,0.5700000000000001 -0.05000000000000001,0.8200000000000001 C543.8099963378907,210.76999450683593 543.9399963378906,210.98999450683593 544.1299963378906,211.19999450683594 zM556.6199963378906,213.07999450683593 c-0.22000000000000003,-0.24000000000000002 -0.47000000000000003,-0.41000000000000003 -0.7600000000000001,-0.5 c-0.29000000000000004,-0.1 -0.6100000000000001,-0.15000000000000002 -0.97,-0.14 s-0.7400000000000001,0.05000000000000001 -1.1400000000000001,0.15000000000000002 c-0.4,0.09000000000000002 -0.8200000000000001,0.21000000000000002 -1.26,0.36000000000000004 l3.03,4.1 c0.91,-0.7100000000000001 1.46,-1.4 1.6400000000000001,-2.07 C557.3299963378906,214.28999450683594 557.1499963378906,213.65999450683594 556.6199963378906,213.07999450683593 z" id="svg_105"/>
			<path class="st0" d="M571.1799963378907,210.27999450683595 c-1.19,0.5800000000000001 -2.4,1.02 -3.64,1.32 c-1.24,0.30000000000000004 -2.4,0.43000000000000005 -3.48,0.41000000000000003 l0.09000000000000002,-1.7200000000000002 c0.010000000000000002,-0.15000000000000002 0.06000000000000001,-0.31000000000000005 0.16000000000000003,-0.46 c0.1,-0.16000000000000003 0.23,-0.29000000000000004 0.4,-0.39000000000000007 c0.21000000000000002,-0.13 0.47000000000000003,-0.22000000000000003 0.8,-0.27 c0.32000000000000006,-0.05000000000000001 0.7000000000000001,-0.1 1.12,-0.16000000000000003 c0.42000000000000004,-0.06000000000000001 0.8800000000000001,-0.14 1.3900000000000001,-0.24000000000000002 c0.51,-0.11000000000000001 1.05,-0.29000000000000004 1.6300000000000001,-0.56 l-3.34,-4.53 c-0.78,0.29000000000000004 -1.58,0.55 -2.38,0.79 c-0.81,0.24000000000000002 -1.6,0.38000000000000006 -2.38,0.42000000000000004 c-0.78,0.04000000000000001 -1.52,-0.05000000000000001 -2.23,-0.28 c-0.7100000000000001,-0.23 -1.36,-0.6600000000000001 -1.9500000000000002,-1.3 c-0.44000000000000006,-0.48000000000000004 -0.7300000000000001,-1.03 -0.8600000000000001,-1.6600000000000001 c-0.13,-0.6300000000000001 -0.09000000000000002,-1.3 0.12000000000000001,-1.99 s0.6100000000000001,-1.4100000000000001 1.2,-2.13 c0.5800000000000001,-0.7300000000000001 1.3900000000000001,-1.4100000000000001 2.42,-2.05 l-0.9500000000000001,-1.29 c-0.12000000000000001,-0.16000000000000003 -0.15000000000000002,-0.36000000000000004 -0.09000000000000002,-0.5800000000000001 s0.22000000000000003,-0.42000000000000004 0.5,-0.5900000000000001 l1.28,-0.8 l1.46,1.99 c1.09,-0.51 2.12,-0.8600000000000001 3.09,-1.04 c0.97,-0.18000000000000002 1.8800000000000001,-0.27 2.72,-0.26 l-0.06000000000000001,1.3800000000000001 c-0.020000000000000004,0.21000000000000002 -0.06000000000000001,0.38000000000000006 -0.13,0.53 c-0.07,0.14 -0.2,0.27 -0.39000000000000007,0.39000000000000007 c-0.14,0.09000000000000002 -0.33000000000000007,0.16000000000000003 -0.5800000000000001,0.22000000000000003 c-0.25,0.06000000000000001 -0.53,0.13 -0.8600000000000001,0.2 c-0.33000000000000007,0.07 -0.6800000000000002,0.15000000000000002 -1.06,0.25 c-0.38000000000000006,0.1 -0.78,0.23 -1.2,0.4 l3.09,4.19 c0.8,-0.28 1.61,-0.55 2.42,-0.79 s1.61,-0.4 2.38,-0.47000000000000003 c0.77,-0.07 1.5,-0.010000000000000002 2.19,0.18000000000000002 c0.6900000000000002,0.19000000000000003 1.3,0.5700000000000001 1.85,1.1600000000000001 c0.54,0.5800000000000001 0.8900000000000001,1.22 1.07,1.9100000000000001 c0.18000000000000002,0.6900000000000002 0.17,1.4 -0.030000000000000006,2.14 c-0.2,0.7400000000000001 -0.5900000000000001,1.48 -1.18,2.23 c-0.5900000000000001,0.7500000000000001 -1.3900000000000001,1.48 -2.39,2.18 l1.1,1.48 c0.11000000000000001,0.16000000000000003 0.14,0.35000000000000003 0.09000000000000002,0.5700000000000001 c-0.06000000000000001,0.23 -0.22000000000000003,0.42000000000000004 -0.49000000000000005,0.5900000000000001 l-1.28,0.8 L571.1799963378907,210.27999450683595 zM560.4399963378906,201.05999450683595 c0.22000000000000003,0.24000000000000002 0.47000000000000003,0.41000000000000003 0.7600000000000001,0.51 c0.29000000000000004,0.11000000000000001 0.6100000000000001,0.16000000000000003 0.9600000000000001,0.16000000000000003 c0.35000000000000003,0 0.7300000000000001,-0.030000000000000006 1.13,-0.11000000000000001 c0.4,-0.08000000000000002 0.8200000000000001,-0.18000000000000002 1.26,-0.32000000000000006 l-2.7600000000000002,-3.74 c-0.48000000000000004,0.36000000000000004 -0.8500000000000001,0.7100000000000001 -1.12,1.04 c-0.27,0.33000000000000007 -0.45,0.6400000000000001 -0.55,0.9400000000000001 c-0.1,0.30000000000000004 -0.11000000000000001,0.5700000000000001 -0.05000000000000001,0.8200000000000001 S560.2499963378906,200.84999450683594 560.4399963378906,201.05999450683595 zM572.9399963378906,202.93999450683594 c-0.22000000000000003,-0.24000000000000002 -0.47000000000000003,-0.4 -0.7600000000000001,-0.5 c-0.29000000000000004,-0.1 -0.6100000000000001,-0.15000000000000002 -0.97,-0.14 c-0.36000000000000004,0.010000000000000002 -0.7400000000000001,0.05000000000000001 -1.1400000000000001,0.15000000000000002 c-0.4,0.09000000000000002 -0.8200000000000001,0.21000000000000002 -1.26,0.36000000000000004 l3.03,4.1 c0.91,-0.7100000000000001 1.46,-1.4 1.6400000000000001,-2.07 C573.6499963378906,204.14999450683592 573.4699963378906,203.51999450683593 572.9399963378906,202.93999450683594 z" id="svg_106"/>
		</g>
		<g id="svg_107">
			<g id="svg_108">
				<path class="st1" d="M343.9099963378906,263.6499945068359 c0.6700000000000002,0.8200000000000001 1,1.23 1.6300000000000001,2.05 c-0.37000000000000005,0.29000000000000004 -0.55,0.44000000000000006 -0.91,0.7400000000000001 c-1.7000000000000002,-2.21 -2.64,-3.29 -4.69,-5.41 c0.8200000000000001,-0.7100000000000001 1.24,-1.06 2.1,-1.75 c0.6300000000000001,-0.5 1.3,-0.7300000000000001 1.97,-0.6900000000000002 c0.6700000000000002,0.04000000000000001 1.24,0.33000000000000007 1.6900000000000002,0.8700000000000001 c0.46,0.55 0.6200000000000001,1.12 0.49000000000000005,1.6900000000000002 c-0.13,0.5700000000000001 -0.52,1.1 -1.1600000000000001,1.6 C344.57999633789063,263.10999450683596 344.3499963378906,263.2899945068359 343.9099963378906,263.6499945068359 zM343.26999633789063,262.87999450683594 c0.45,-0.37000000000000005 0.6800000000000002,-0.55 1.1400000000000001,-0.91 c0.3400000000000001,-0.27 0.54,-0.55 0.5900000000000001,-0.8500000000000001 c0.05000000000000001,-0.30000000000000004 -0.05000000000000001,-0.6000000000000001 -0.31000000000000005,-0.91 c-0.26,-0.30000000000000004 -0.56,-0.47000000000000003 -0.91,-0.5 c-0.35000000000000003,-0.04000000000000001 -0.6900000000000002,0.07 -1.02,0.32000000000000006 c-0.48000000000000004,0.38000000000000006 -0.7200000000000001,0.5700000000000001 -1.18,0.9600000000000001 C342.2799963378906,261.73999450683596 342.6099963378906,262.11999450683595 343.26999633789063,262.87999450683594 z" id="svg_109"/>
				<path class="st1" d="M352.3499963378906,261.0399945068359 c-0.1,-0.06000000000000001 -0.23,-0.17 -0.4,-0.3400000000000001 c-0.11000000000000001,0.52 -0.4,0.92 -0.8700000000000001,1.21 c-0.45,0.28 -0.9,0.39000000000000007 -1.36,0.32000000000000006 c-0.45,-0.06000000000000001 -0.81,-0.28 -1.08,-0.6400000000000001 c-0.3400000000000001,-0.46 -0.43000000000000005,-0.92 -0.26,-1.4 c0.17,-0.48000000000000004 0.5900000000000001,-0.93 1.27,-1.35 c0.26,-0.16000000000000003 0.39000000000000007,-0.24000000000000002 0.6400000000000001,-0.39000000000000007 c-0.09000000000000002,-0.11000000000000001 -0.13,-0.17 -0.21000000000000002,-0.29000000000000004 c-0.17,-0.22000000000000003 -0.38000000000000006,-0.36000000000000004 -0.6200000000000001,-0.42000000000000004 c-0.24000000000000002,-0.05000000000000001 -0.5,0.010000000000000002 -0.78,0.18000000000000002 c-0.24000000000000002,0.15000000000000002 -0.39000000000000007,0.33000000000000007 -0.45,0.53 c-0.06000000000000001,0.21000000000000002 -0.030000000000000006,0.39000000000000007 0.1,0.56 c-0.41000000000000003,0.26 -0.6100000000000001,0.4 -1.01,0.6700000000000002 c-0.19000000000000003,-0.23 -0.28,-0.5 -0.28,-0.8200000000000001 c0,-0.31000000000000005 0.09000000000000002,-0.6200000000000001 0.29000000000000004,-0.92 s0.47000000000000003,-0.5700000000000001 0.8300000000000001,-0.8 c0.55,-0.3400000000000001 1.1,-0.49000000000000005 1.6300000000000001,-0.43000000000000005 c0.53,0.06000000000000001 0.98,0.32000000000000006 1.34,0.78 c0.5900000000000001,0.79 0.8700000000000001,1.19 1.42,1.99 c0.27,0.4 0.54,0.6800000000000002 0.8200000000000001,0.8600000000000001 c0.020000000000000004,0.030000000000000006 0.030000000000000006,0.04000000000000001 0.05000000000000001,0.07 C352.9899963378906,260.66999450683596 352.7799963378906,260.7899945068359 352.3499963378906,261.0399945068359 zM350.7299963378906,261.00999450683594 c0.2,-0.12000000000000001 0.36000000000000004,-0.29000000000000004 0.48000000000000004,-0.49000000000000005 c0.11000000000000001,-0.2 0.16000000000000003,-0.41000000000000003 0.14,-0.6200000000000001 c-0.23,-0.33000000000000007 -0.35000000000000003,-0.5 -0.5900000000000001,-0.8300000000000001 c-0.23,0.14 -0.3400000000000001,0.2 -0.56,0.3400000000000001 c-0.39000000000000007,0.24000000000000002 -0.6300000000000001,0.48000000000000004 -0.7200000000000001,0.7200000000000001 c-0.1,0.25 -0.06000000000000001,0.48000000000000004 0.11000000000000001,0.7100000000000001 c0.14,0.19000000000000003 0.31000000000000005,0.29000000000000004 0.51,0.32000000000000006 C350.2999963378906,261.19999450683594 350.50999633789064,261.13999450683593 350.7299963378906,261.00999450683594 z" id="svg_110"/>
				<path class="st1" d="M355.38999633789064,257.4699945068359 c-0.4,-1.4300000000000002 -0.6200000000000001,-2.15 -1.09,-3.58 c0.5,-0.24000000000000002 0.7500000000000001,-0.36000000000000004 1.26,-0.6000000000000001 c0.6600000000000001,2.49 0.9400000000000001,3.74 1.42,6.22 c0.16000000000000003,0.91 -0.14,1.54 -0.8400000000000001,1.9 c-0.16000000000000003,0.08000000000000002 -0.35000000000000003,0.14 -0.5700000000000001,0.19000000000000003 c-0.19000000000000003,-0.32000000000000006 -0.28,-0.47000000000000003 -0.48000000000000004,-0.79 c0.08000000000000002,-0.04000000000000001 0.13,-0.06000000000000001 0.21000000000000002,-0.09000000000000002 c0.27,-0.14 0.45,-0.29000000000000004 0.54,-0.46 c0.08000000000000002,-0.16000000000000003 0.1,-0.38000000000000006 0.04000000000000001,-0.6400000000000001 c-0.030000000000000006,-0.19000000000000003 -0.05000000000000001,-0.28 -0.08000000000000002,-0.47000000000000003 c-1.83,-1.46 -2.8,-2.17 -4.84,-3.5300000000000002 c0.48000000000000004,-0.27 0.7200000000000001,-0.4 1.21,-0.6600000000000001 C353.49999633789065,255.93999450683594 354.1499963378906,256.44999450683594 355.38999633789064,257.4699945068359 z" id="svg_111"/>
				<path class="st1" d="M360.18999633789065,249.90999450683591 c0.32000000000000006,0.46 0.47000000000000003,0.6900000000000002 0.78,1.1600000000000001 c0.41000000000000003,-0.15000000000000002 0.6100000000000001,-0.22000000000000003 1.02,-0.36000000000000004 c0.21000000000000002,0.32000000000000006 0.31000000000000005,0.48000000000000004 0.51,0.8 c-0.41000000000000003,0.14 -0.6100000000000001,0.21000000000000002 -1.01,0.36000000000000004 c0.6800000000000002,1.07 1.01,1.6 1.62,2.67 c0.11000000000000001,0.18000000000000002 0.22000000000000003,0.30000000000000004 0.35000000000000003,0.35000000000000003 c0.13,0.05000000000000001 0.31000000000000005,0.04000000000000001 0.53,-0.030000000000000006 c0.15000000000000002,-0.05000000000000001 0.29000000000000004,-0.11000000000000001 0.42000000000000004,-0.19000000000000003 c0.19000000000000003,0.3400000000000001 0.28,0.5 0.46,0.8400000000000001 c-0.25,0.16000000000000003 -0.51,0.29000000000000004 -0.78,0.38000000000000006 c-0.97,0.32000000000000006 -1.6800000000000002,0.04000000000000001 -2.22,-0.8600000000000001 c-0.6300000000000001,-1.08 -0.97,-1.62 -1.6700000000000002,-2.6900000000000004 c-0.37000000000000005,0.14 -0.55,0.21000000000000002 -0.92,0.36000000000000004 c-0.21000000000000002,-0.31000000000000005 -0.31000000000000005,-0.47000000000000003 -0.52,-0.78 c0.37000000000000005,-0.15000000000000002 0.55,-0.22000000000000003 0.92,-0.36000000000000004 c-0.31000000000000005,-0.46 -0.46,-0.6900000000000002 -0.78,-1.1400000000000001 C359.4099963378906,250.19999450683594 359.6699963378906,250.0999945068359 360.18999633789065,249.90999450683591 z" id="svg_112"/>
				<path class="st1" d="M364.2999963378906,252.77999450683592 c-0.28,-0.48000000000000004 -0.42000000000000004,-0.9400000000000001 -0.43000000000000005,-1.3900000000000001 c-0.010000000000000002,-0.45 0.13,-0.8500000000000001 0.42000000000000004,-1.19 c0.29000000000000004,-0.3400000000000001 0.7100000000000001,-0.5900000000000001 1.26,-0.7500000000000001 c0.8200000000000001,-0.24000000000000002 1.62,-0.21000000000000002 2.39,0.09000000000000002 c0.77,0.30000000000000004 1.3800000000000001,0.81 1.81,1.52 c0.06000000000000001,0.11000000000000001 0.09000000000000002,0.16000000000000003 0.15000000000000002,0.26 c0.26,0.5 0.38000000000000006,0.97 0.35000000000000003,1.4100000000000001 c-0.030000000000000006,0.44000000000000006 -0.21000000000000002,0.8200000000000001 -0.53,1.1400000000000001 c-0.32000000000000006,0.32000000000000006 -0.7500000000000001,0.54 -1.29,0.6900000000000002 c-0.8300000000000001,0.22000000000000003 -1.6,0.18000000000000002 -2.34,-0.14 c-0.7400000000000001,-0.31000000000000005 -1.32,-0.8400000000000001 -1.7600000000000002,-1.6 C364.31999633789064,252.81999450683594 364.31999633789064,252.79999450683596 364.2999963378906,252.77999450683592 zM365.6699963378906,252.46999450683592 c0.29000000000000004,0.5 0.6300000000000001,0.8600000000000001 1.03,1.08 c0.41000000000000003,0.21000000000000002 0.8300000000000001,0.26 1.28,0.14 c0.45,-0.12000000000000001 0.7300000000000001,-0.36000000000000004 0.8200000000000001,-0.7200000000000001 c0.1,-0.36000000000000004 0,-0.8200000000000001 -0.31000000000000005,-1.3900000000000001 c-0.28,-0.5 -0.6300000000000001,-0.8700000000000001 -1.07,-1.09 c-0.43000000000000005,-0.22000000000000003 -0.8800000000000001,-0.27 -1.33,-0.14 c-0.44000000000000006,0.13 -0.7000000000000001,0.37000000000000005 -0.79,0.7400000000000001 S365.3499963378906,251.90999450683591 365.6699963378906,252.46999450683592 z" id="svg_113"/>
			</g>
			<circle class="st1" cx="372.94000244140625" cy="247.24998474121094" r="0.6100000143051147" id="svg_114"/>
			<circle class="st1" cx="375.05999755859375" cy="251.0399932861328" r="0.6100000143051147" id="svg_115"/>
		</g>
		<path class="st1" d="M365.1499963378906,298.41999450683596 c1.11,-0.77 2.16,-1.46 3.25,-2.16 c1.08,-0.7000000000000001 2.17,-1.37 3.26,-2.05 c2.19,-1.34 4.4,-2.63 6.62,-3.89 c4.45,-2.52 8.98,-4.9 13.57,-7.15 c4.59,-2.25 9.24,-4.36 13.95,-6.36 c4.7,-1.99 9.48,-3.8200000000000003 14.28,-5.57 c9.63,-3.4 19.45,-6.32 29.42,-8.54 c9.98,-2.22 20.1,-3.81 30.29,-4.66 c1.27,-0.13 2.55,-0.2 3.8200000000000003,-0.27 l3.83,-0.23 c2.55,-0.11000000000000001 5.11,-0.14 7.67,-0.21000000000000002 l7.66,0.09000000000000002 l3.77,0.05000000000000001 c0.6300000000000001,0.010000000000000002 1.26,0.020000000000000004 1.8800000000000001,0.020000000000000004 l1.8800000000000001,-0.030000000000000006 l3.77,-0.07 l3.7600000000000002,-0.19000000000000003 l1.8800000000000001,-0.1 l1.8800000000000001,-0.16000000000000003 c1.25,-0.11000000000000001 2.5,-0.2 3.75,-0.32000000000000006 c4.99,-0.52 9.95,-1.28 14.870000000000001,-2.2800000000000002 c9.81,-2.04 19.41,-5.16 28.39,-9.59 c4.49,-2.2 8.79,-4.78 12.86,-7.68 c2.02,-1.46 3.98,-3.01 5.84,-4.66 c0.93,-0.8200000000000001 1.84,-1.6800000000000002 2.71,-2.55 c0.44000000000000006,-0.44000000000000006 0.8600000000000001,-0.8900000000000001 1.28,-1.34 c0.4,-0.45 0.8300000000000001,-0.93 1.17,-1.36 l1.8900000000000001,1.42 c-0.44000000000000006,0.5700000000000001 -0.8500000000000001,1.04 -1.29,1.54 c-0.44000000000000006,0.49000000000000005 -0.8800000000000001,0.9600000000000001 -1.33,1.4300000000000002 c-0.91,0.93 -1.84,1.83 -2.79,2.6900000000000004 c-1.92,1.73 -3.92,3.35 -5.99,4.88 c-4.16,3.03 -8.55,5.72 -13.14,8.03 c-9.16,4.640000000000001 -18.96,7.93 -28.97,10.12 c-5.01,1.07 -10.07,1.8900000000000001 -15.15,2.48 c-1.27,0.14 -2.55,0.25 -3.8200000000000003,0.37000000000000005 l-1.9100000000000001,0.18000000000000002 l-1.9100000000000001,0.12000000000000001 l-3.83,0.23 l-3.83,0.11000000000000001 l-1.92,0.05000000000000001 c-0.6400000000000001,0.010000000000000002 -1.28,0 -1.92,0 l-3.83,-0.010000000000000002 l-7.55,-0.010000000000000002 c-2.51,0.09000000000000002 -5.02,0.15000000000000002 -7.53,0.28 l-3.7600000000000002,0.26 c-1.25,0.09000000000000002 -2.51,0.16000000000000003 -3.75,0.31000000000000005 c-10,0.9400000000000001 -19.94,2.6100000000000003 -29.72,4.890000000000001 c-9.79,2.29 -19.41,5.26 -28.86,8.7 c-4.71,1.7600000000000002 -9.38,3.6100000000000003 -13.99,5.62 c-4.61,2.01 -9.16,4.14 -13.65,6.39 c-4.49,2.25 -8.92,4.640000000000001 -13.26,7.16 c-2.17,1.26 -4.32,2.55 -6.44,3.88 c-1.06,0.6700000000000002 -2.11,1.34 -3.16,2.02 c-1.03,0.6800000000000002 -2.09,1.3900000000000001 -3.06,2.07 L365.1499963378906,298.41999450683596 z" id="svg_116"/>
		<path class="st1" d="M380.3699963378906,316.05999450683595 c1.03,-0.8800000000000001 1.99,-1.6500000000000001 3.01,-2.45 c1,-0.79 2.01,-1.56 3.03,-2.3200000000000003 c2.03,-1.52 4.1,-2.98 6.19,-4.42 c4.18,-2.8600000000000003 8.45,-5.57 12.81,-8.13 c4.36,-2.56 8.81,-4.97 13.32,-7.24 c4.51,-2.29 9.12,-4.36 13.77,-6.35 c9.34,-3.88 18.91,-7.23 28.72,-9.73 c9.8,-2.52 19.79,-4.33 29.87,-5.28 c2.52,-0.2 5.05,-0.39000000000000007 7.57,-0.55 l3.8,-0.13 c1.27,-0.030000000000000006 2.5300000000000002,-0.12000000000000001 3.8,-0.09000000000000002 l7.5600000000000005,0.06000000000000001 l3.71,0.04000000000000001 c1.24,0.030000000000000006 2.47,-0.04000000000000001 3.71,-0.05000000000000001 c9.89,-0.19000000000000003 19.76,-1.26 29.39,-3.38 c9.63,-2.12 19.01,-5.38 27.72,-9.92 c4.35,-2.27 8.51,-4.91 12.41,-7.86 c1.9500000000000002,-1.48 3.81,-3.06 5.58,-4.73 c0.8900000000000001,-0.8300000000000001 1.7400000000000002,-1.6900000000000002 2.56,-2.58 c0.41000000000000003,-0.44000000000000006 0.81,-0.8900000000000001 1.2,-1.34 l0.5700000000000001,-0.6800000000000002 c0.18000000000000002,-0.22000000000000003 0.38000000000000006,-0.47000000000000003 0.51,-0.6600000000000001 l2.88,2.02 c-0.23,0.33000000000000007 -0.42000000000000004,0.5700000000000001 -0.6300000000000001,0.8300000000000001 l-0.6300000000000001,0.77 c-0.42000000000000004,0.5 -0.8500000000000001,0.99 -1.29,1.46 c-0.8800000000000001,0.9500000000000001 -1.78,1.87 -2.71,2.7600000000000002 c-1.86,1.77 -3.81,3.44 -5.84,5 c-4.06,3.11 -8.37,5.88 -12.88,8.26 c-9.02,4.77 -18.69,8.19 -28.59,10.42 c-9.91,2.24 -20.03,3.4 -30.14,3.64 c-1.26,0.020000000000000004 -2.5300000000000002,0.1 -3.79,0.08000000000000002 l-3.79,-0.020000000000000004 l-7.45,-0.020000000000000004 c-1.24,-0.030000000000000006 -2.47,0.07 -3.71,0.1 l-3.71,0.14 c-2.47,0.17 -4.93,0.36000000000000004 -7.39,0.5700000000000001 c-9.84,0.99 -19.6,2.81 -29.17,5.33 c-9.58,2.49 -18.93,5.83 -28.05,9.68 c-4.54,1.97 -9.05,4.03 -13.46,6.3 c-4.41,2.26 -8.75,4.640000000000001 -13.01,7.17 c-4.26,2.5300000000000002 -8.43,5.2 -12.49,8.02 c-2.03,1.42 -4.04,2.85 -6.01,4.34 c-0.98,0.7400000000000001 -1.96,1.49 -2.92,2.26 c-0.9500000000000001,0.7600000000000001 -1.9300000000000002,1.55 -2.8,2.31 L380.3699963378906,316.05999450683595 z" id="svg_117"/>
		<g id="svg_118">
			<g id="svg_119">
				<path class="st0" d="M355.94999633789064,277.5199945068359 c-0.5700000000000001,0.38000000000000006 -0.8600000000000001,0.5800000000000001 -1.4300000000000002,0.97 c0.97,1.4 1.46,2.1 2.43,3.5 c-0.6600000000000001,0.47000000000000003 -1,0.7100000000000001 -1.6600000000000001,1.19 c-2.59,-3.6500000000000004 -3.88,-5.47 -6.47,-9.12 c1.31,-0.9 1.96,-1.33 3.25,-2.18 c2.12,-1.3800000000000001 4.04,-0.7400000000000001 5.1,0.8500000000000001 C358.1099963378906,274.10999450683596 358.1499963378906,276.04999450683596 355.94999633789064,277.5199945068359 zM354.8699963378906,276.0999945068359 c0.98,-0.6400000000000001 1.07,-1.4300000000000002 0.52,-2.24 c-0.5700000000000001,-0.8400000000000001 -1.35,-1.07 -2.34,-0.42000000000000004 c-0.56,0.36000000000000004 -0.8400000000000001,0.55 -1.4,0.92 c0.7400000000000001,1.07 1.11,1.6 1.85,2.66 C354.0399963378906,276.63999450683593 354.31999633789064,276.4599945068359 354.8699963378906,276.0999945068359 z" id="svg_120"/>
				<path class="st0" d="M364.2299963378906,277.11999450683595 c-0.6800000000000002,0.43000000000000005 -1.01,0.6500000000000001 -1.6900000000000002,1.08 c-1.9100000000000001,-2.8600000000000003 -2.8,-4.26 -4.76,-7.18 c0.7000000000000001,-0.42000000000000004 1.05,-0.6300000000000001 1.75,-1.05 c0.30000000000000004,0.45 0.45,0.6800000000000002 0.7500000000000001,1.13 c-0.05000000000000001,-1 0.35000000000000003,-1.9100000000000001 1.32,-2.46 c0.51,0.77 0.7600000000000001,1.1600000000000001 1.26,1.9100000000000001 c-0.18000000000000002,0.11000000000000001 -0.28,0.16000000000000003 -0.46,0.27 c-1.04,0.6000000000000001 -1.3800000000000001,1.3900000000000001 -0.48000000000000004,2.7600000000000002 C362.82999633789063,274.99999450683595 363.2899963378906,275.69999450683594 364.2299963378906,277.11999450683595 z" id="svg_121"/>
				<path class="st0" d="M370.50999633789064,273.4699945068359 c-1.97,1.1400000000000001 -4.36,0.6300000000000001 -5.79,-1.58 c-1.4300000000000002,-2.22 -0.8300000000000001,-4.57 1.19,-5.63 s4.57,-0.41000000000000003 5.93,1.7200000000000002 C373.19999633789064,270.0999945068359 372.4899963378906,272.31999450683594 370.50999633789064,273.4699945068359 zM369.5299963378906,271.94999450683594 c0.92,-0.52 1.3800000000000001,-1.6600000000000001 0.51,-3.02 c-0.8700000000000001,-1.37 -2.19,-1.59 -3.12,-1.09 c-0.93,0.5 -1.33,1.6400000000000001 -0.43000000000000005,3.04 C367.37999633789065,272.25999450683594 368.5999963378906,272.47999450683596 369.5299963378906,271.94999450683594 z" id="svg_122"/>
				<path class="st0" d="M375.01999633789063,261.7799945068359 c1.85,-0.8500000000000001 4.25,-0.07 5.51,1.94 c1.26,2.01 0.6900000000000002,4.01 -1.11,4.92 c-1.1,0.56 -2.22,0.45 -2.99,0.14 c1.05,1.6400000000000001 1.58,2.45 2.85,4.21 c-0.7000000000000001,0.38000000000000006 -1.05,0.5700000000000001 -1.7400000000000002,0.9500000000000001 c-3,-4.23 -3.8200000000000003,-5.86 -6.61,-10.07 c0.7200000000000001,-0.35000000000000003 1.08,-0.52 1.8,-0.8700000000000001 c0.27,0.41000000000000003 0.4,0.6100000000000001 0.6600000000000001,1.01 C373.4299963378906,263.2199945068359 373.8999963378906,262.2899945068359 375.01999633789063,261.7799945068359 zM375.5499963378906,263.5399945068359 c-0.97,0.45 -1.42,1.62 -0.6200000000000001,2.88 c0.8,1.26 2.13,1.48 3.09,1.01 c0.97,-0.48000000000000004 1.44,-1.61 0.6600000000000001,-2.84 C377.8999963378906,263.3499945068359 376.5299963378906,263.07999450683593 375.5499963378906,263.5399945068359 z" id="svg_123"/>
				<path class="st0" d="M387.06999633789064,264.9699945068359 c-2.09,0.9500000000000001 -4.41,0.39000000000000007 -5.67,-1.62 c-1.26,-2.02 -0.6900000000000002,-4.1 1.54,-5.02 c2.17,-0.9 4.61,-0.13 5.71,1.73 c0.12000000000000001,0.2 0.22000000000000003,0.41000000000000003 0.30000000000000004,0.6300000000000001 c-2.18,0.9 -3.26,1.36 -5.39,2.31 c0.6700000000000002,0.8900000000000001 1.7200000000000002,1.08 2.64,0.6700000000000002 c0.79,-0.35000000000000003 1.01,-0.8800000000000001 1,-1.3900000000000001 c0.8,-0.3400000000000001 1.2,-0.52 2.01,-0.8500000000000001 C389.4899963378906,262.72999450683596 388.8499963378906,264.1599945068359 387.06999633789064,264.9699945068359 zM382.9099963378906,261.91999450683596 c1.3900000000000001,-0.6100000000000001 2.09,-0.91 3.51,-1.5 c-0.53,-0.8200000000000001 -1.6600000000000001,-1.05 -2.63,-0.6500000000000001 C382.88999633789064,260.1499945068359 382.50999633789064,260.9699945068359 382.9099963378906,261.91999450683596 z" id="svg_124"/>
				<path class="st0" d="M393.7899963378906,261.93999450683594 c-0.7500000000000001,0.31000000000000005 -1.12,0.46 -1.87,0.78 c-1.54,-2.5 -2.01,-3.55 -3.7600000000000002,-6.34 c0.78,-0.31000000000000005 1.18,-0.46 1.9500000000000002,-0.77 c0.27,0.43000000000000005 0.39000000000000007,0.6400000000000001 0.6400000000000001,1.06 c0.08000000000000002,-0.8800000000000001 0.5900000000000001,-1.6700000000000002 1.6300000000000001,-2.1 c0.45,0.7400000000000001 0.6500000000000001,1.1 1.05,1.79 c-0.2,0.08000000000000002 -0.30000000000000004,0.12000000000000001 -0.5,0.21000000000000002 c-1.12,0.46 -1.58,1.13 -0.91,2.33 C392.7199963378906,260.10999450683596 393.0399963378906,260.69999450683594 393.7899963378906,261.93999450683594 z" id="svg_125"/>
				<path class="st0" d="M394.82999633789063,255.41999450683596 c-0.35000000000000003,0.15000000000000002 -0.53,0.22000000000000003 -0.8900000000000001,0.37000000000000005 c-0.31000000000000005,-0.55 -0.47000000000000003,-0.8200000000000001 -0.8200000000000001,-1.4 c0.36000000000000004,-0.15000000000000002 0.54,-0.22000000000000003 0.8900000000000001,-0.37000000000000005 c-0.41000000000000003,-0.6900000000000002 -0.6300000000000001,-1.05 -1.11,-1.8 c0.77,-0.31000000000000005 1.15,-0.47000000000000003 1.9100000000000001,-0.78 c0.47000000000000003,0.7500000000000001 0.6800000000000002,1.11 1.09,1.8 c0.6600000000000001,-0.27 0.99,-0.41000000000000003 1.6500000000000001,-0.6800000000000002 c0.3400000000000001,0.5800000000000001 0.49000000000000005,0.8600000000000001 0.8,1.4100000000000001 c-0.6500000000000001,0.27 -0.98,0.41000000000000003 -1.6400000000000001,0.6800000000000002 c0.7200000000000001,1.28 1.02,1.87 1.6800000000000002,3.06 c0.23,0.41000000000000003 0.52,0.51 1.1,0.27 c0.3400000000000001,-0.14 0.51,-0.21000000000000002 0.8600000000000001,-0.35000000000000003 c0.29000000000000004,0.53 0.44000000000000006,0.79 0.7400000000000001,1.33 c-0.46,0.19000000000000003 -0.6900000000000002,0.28 -1.1600000000000001,0.47000000000000003 c-1.4,0.5700000000000001 -2.64,0.45 -3.42,-0.97 C395.8599963378906,257.2799945068359 395.5499963378906,256.68999450683594 394.82999633789063,255.41999450683596 z" id="svg_126"/>
				<path class="st0" d="M403.8599963378906,249.93999450683594 c0.78,-0.32000000000000006 1.1600000000000001,-0.47000000000000003 1.94,-0.78 c0.53,4.86 0.14,6.62 0.8900000000000001,11.39 c-0.77,0.31000000000000005 -1.1600000000000001,0.46 -1.9300000000000002,0.78 c-0.25,-1.6300000000000001 -0.29000000000000004,-2.38 -0.37000000000000005,-3.89 c-2.54,-2 -3.6100000000000003,-2.85 -6.35,-5.09 c0.8300000000000001,-0.35000000000000003 1.24,-0.52 2.06,-0.8600000000000001 c1.87,1.6400000000000001 2.67,2.34 4.36,3.8 C404.26999633789063,253.22999450683596 404.20999633789063,252.20999450683593 403.8599963378906,249.93999450683594 z" id="svg_127"/>
				<path class="st0" d="M408.82999633789063,245.66999450683596 c0.8400000000000001,-0.32000000000000006 1.26,-0.47000000000000003 2.11,-0.78 c2.75,2.38 3.9699999999999998,3.35 6.5,5.38 c-0.13,-2.84 -0.21000000000000002,-4.26 -0.47000000000000003,-7.42 c0.8800000000000001,-0.27 1.32,-0.41000000000000003 2.22,-0.6700000000000002 c1.9500000000000002,3.71 2.83,5.25 4.61,8.53 c-0.78,0.23 -1.17,0.35000000000000003 -1.94,0.6000000000000001 c-1.1600000000000001,-2.13 -1.73,-3.16 -2.95,-5.4 c0.19000000000000003,2.5700000000000003 0.24000000000000002,3.77 0.4,6.23 c-0.5800000000000001,0.19000000000000003 -0.8600000000000001,0.29000000000000004 -1.4300000000000002,0.48000000000000004 c-2.18,-1.78 -3.23,-2.62 -5.45,-4.49 c1.22,2.23 1.7600000000000002,3.24 2.93,5.36 c-0.7500000000000001,0.26 -1.12,0.4 -1.86,0.6700000000000002 C411.68999633789065,250.89999450683592 410.9799963378906,249.45999450683593 408.82999633789063,245.66999450683596 z" id="svg_128"/>
				<path class="st0" d="M425.20999633789063,242.5399945068359 c1.31,-0.33000000000000007 2.5,-0.010000000000000002 3.29,0.44000000000000006 c-0.2,-0.39000000000000007 -0.30000000000000004,-0.5800000000000001 -0.5,-0.98 c0.8600000000000001,-0.19000000000000003 1.29,-0.28 2.16,-0.46 c1.35,2.74 2.09,4.01 3.39,6.5600000000000005 c-0.8400000000000001,0.2 -1.26,0.30000000000000004 -2.08,0.5 c-0.2,-0.38000000000000006 -0.29000000000000004,-0.56 -0.49000000000000005,-0.9400000000000001 c-0.19000000000000003,0.6800000000000002 -0.8600000000000001,1.3900000000000001 -2.12,1.73 c-2.01,0.54 -4.3,-0.33000000000000007 -5.43,-2.39 S423.1399963378906,243.05999450683595 425.20999633789063,242.5399945068359 zM426.53999633789067,243.92999450683595 c-1.1,0.28 -1.7600000000000002,1.25 -1.08,2.5 c0.6800000000000002,1.25 2.07,1.6700000000000002 3.16,1.3900000000000001 c1.12,-0.29000000000000004 1.8,-1.21 1.13,-2.45 S427.67999633789066,243.64999450683592 426.53999633789067,243.92999450683595 z" id="svg_129"/>
				<path class="st0" d="M439.5199963378906,242.95999450683593 c-0.51,-1.03 -1.53,-1.46 -2.66,-1.25 c-1.1600000000000001,0.22000000000000003 -1.61,0.93 -1.08,1.97 c0.7200000000000001,1.4300000000000002 1.09,2.13 1.78,3.52 c-0.8200000000000001,0.17 -1.22,0.26 -2.02,0.44000000000000006 c-1.27,-2.5300000000000002 -1.99,-3.8 -3.3,-6.51 c0.8300000000000001,-0.16000000000000003 1.25,-0.24000000000000002 2.1,-0.4 c0.16000000000000003,0.33000000000000007 0.24000000000000002,0.5 0.4,0.8300000000000001 c0.27,-0.6700000000000002 1.01,-1.2 2.11,-1.3900000000000001 c1.99,-0.36000000000000004 3.88,0.4 4.74,2.17 c0.7300000000000001,1.5 1.11,2.24 1.82,3.71 c-0.8700000000000001,0.16000000000000003 -1.29,0.24000000000000002 -2.15,0.4 C440.56999633789064,245.06999450683594 440.2199963378906,244.36999450683595 439.5199963378906,242.95999450683593 z" id="svg_130"/>
				<path class="st0" d="M445.81999633789064,238.61999450683595 c1.4300000000000002,-0.24000000000000002 2.63,0.09000000000000002 3.4,0.54 c-0.17,-0.37000000000000005 -0.25,-0.55 -0.4,-0.92 c0.91,-0.15000000000000002 1.37,-0.23 2.2800000000000002,-0.38000000000000006 c1.1,2.6 1.79,3.8600000000000003 3.02,6.42 c-0.92,0.14 -1.37,0.22000000000000003 -2.29,0.36000000000000004 c-0.18000000000000002,-0.37000000000000005 -0.27,-0.56 -0.45,-0.93 c-0.27,0.6400000000000001 -1.05,1.28 -2.46,1.51 c-2.24,0.37000000000000005 -4.62,-0.6200000000000001 -5.59,-2.6 C442.3699963378906,240.61999450683595 443.55999633789065,238.98999450683596 445.81999633789064,238.61999450683595 zM447.03999633789067,239.95999450683593 c-1.2,0.2 -2.03,1.05 -1.45,2.25 s2.05,1.6900000000000002 3.25,1.49 c1.23,-0.2 2.03,-1.05 1.45,-2.26 C449.70999633789063,240.23999450683596 448.2799963378907,239.74999450683595 447.03999633789067,239.95999450683593 z" id="svg_131"/>
				<path class="st0" d="M456.79999633789066,236.76999450683593 c1.4100000000000001,-0.24000000000000002 2.62,0.05000000000000001 3.41,0.52 c-0.16000000000000003,-0.37000000000000005 -0.24000000000000002,-0.56 -0.4,-0.93 c0.91,-0.16000000000000003 1.37,-0.25 2.2800000000000002,-0.41000000000000003 c1.08,2.6500000000000004 1.81,3.96 3.11,6.65 c0.8800000000000001,1.81 0.010000000000000002,3.5 -2.99,3.92 c-2.5700000000000003,0.36000000000000004 -4.75,-0.31000000000000005 -5.68,-1.7600000000000002 c0.91,-0.14 1.36,-0.21000000000000002 2.27,-0.35000000000000003 c0.51,0.55 1.54,0.8200000000000001 2.6900000000000004,0.6500000000000001 c1.26,-0.19000000000000003 2.01,-0.8700000000000001 1.4100000000000001,-2.1 c-0.2,-0.41000000000000003 -0.30000000000000004,-0.6100000000000001 -0.5,-1.02 c-0.26,0.6600000000000001 -1.04,1.33 -2.46,1.55 c-2.31,0.36000000000000004 -4.79,-0.6900000000000002 -5.75,-2.7 C453.2299963378906,238.76999450683593 454.5099963378906,237.15999450683591 456.79999633789066,236.76999450683593 zM458.0099963378906,238.10999450683596 c-1.22,0.21000000000000002 -2.08,1.06 -1.49,2.2800000000000002 c0.5900000000000001,1.22 2.09,1.7400000000000002 3.31,1.54 c1.25,-0.2 2.05,-1.08 1.46,-2.31 C460.68999633789065,238.37999450683594 459.2499963378906,237.89999450683592 458.0099963378906,238.10999450683596 z" id="svg_132"/>
				<path class="st0" d="M471.29999633789066,241.62999450683594 c-2.55,0.45 -5.13,-0.6100000000000001 -6.13,-2.6900000000000004 c-1,-2.09 0.32000000000000006,-3.75 2.9,-4.27 c2.52,-0.51 4.75,0.42000000000000004 5.7,2.46 c0.1,0.22000000000000003 0.19000000000000003,0.45 0.25,0.6800000000000002 c-2.49,0.52 -3.7600000000000002,0.7600000000000001 -6.34,1.23 c0.5900000000000001,0.97 1.7600000000000002,1.37 2.87,1.17 c0.9500000000000001,-0.17 1.28,-0.6400000000000001 1.34,-1.15 c0.9400000000000001,-0.18000000000000002 1.4100000000000001,-0.27 2.34,-0.46 C474.3899963378906,239.95999450683593 473.4799963378906,241.24999450683595 471.29999633789066,241.62999450683594 zM467.16999633789067,237.89999450683592 c1.6700000000000002,-0.31000000000000005 2.5,-0.47000000000000003 4.14,-0.81 c-0.44000000000000006,-0.8900000000000001 -1.58,-1.25 -2.72,-1.03 C467.5299963378907,236.26999450683593 466.9099963378907,236.94999450683594 467.16999633789067,237.89999450683592 z" id="svg_133"/>
				<path class="st0" d="M479.17999633789066,239.98999450683596 c-0.8300000000000001,0.18000000000000002 -1.26,0.26 -2.11,0.44000000000000006 c-1.36,-2.84 -2.11,-4.2 -3.15,-6.91 c0.8500000000000001,-0.2 1.27,-0.30000000000000004 2.11,-0.5 c0.16000000000000003,0.42000000000000004 0.24000000000000002,0.6400000000000001 0.42000000000000004,1.06 c0.23,-0.8300000000000001 0.93,-1.5 2.06,-1.8 c0.26,0.7300000000000001 0.41000000000000003,1.1 0.7200000000000001,1.84 c-0.22000000000000003,0.06000000000000001 -0.32000000000000006,0.08000000000000002 -0.54,0.14 c-1.21,0.31000000000000005 -1.81,0.8700000000000001 -1.19,2.22 C478.14999633789057,237.85999450683596 478.4999963378906,238.55999450683595 479.17999633789066,239.98999450683596 z" id="svg_134"/>
			</g>
		</g>
	</g>
</g></g></svg>