<?xml version="1.0" encoding="utf-8"?>
<svg width="490px" height="460px" viewbox="0 0 490 460" version="1.1" xmlns:xlink="http://www.w3.org/1999/xlink" xmlns="http://www.w3.org/2000/svg">
  <defs>
    <path d="M0 0L490 0L490 460L0 460L0 0Z" id="path_1" />
    <clipPath id="mask_1">
      <use xlink:href="#path_1" />
    </clipPath>
  </defs>
  <g id="Group-6">
    <g id="Group-5">
      <g id="Group-4">
        <g id="Group-2">
          <g id="Group">
            <g id="Profitability-(3)">
              <path d="M0 0L490 0L490 460L0 460L0 0Z" id="Background" fill="none" fill-rule="evenodd" stroke="none" />
              <g clip-path="url(#mask_1)">
                <g id="Group-2" transform="translate(-3.0517578E-05 82.39749)">
                  <g id="Group">
                    <g id="Group">
                      <path d="M71.365 30.5425L60.365 19.5425L60.365 6.83251C60.365 4.53251 58.505 2.67251 56.205 2.67251C53.905 2.67251 52.045 4.53251 52.045 6.83251L52.045 11.2225L43.855 3.03251C39.805 -1.01749 32.765 -1.0075 28.725 3.04251L1.215 30.5525C-0.404999 32.1825 -0.404999 34.8125 1.215 36.4325C2.83499 38.0625 5.47501 38.0625 7.10501 36.4325L34.605 8.92251C35.505 8.03251 37.085 8.03251 37.975 8.92251L65.485 36.4325C66.305 37.2425 67.365 37.6525 68.425 37.6525C69.495 37.6525 70.555 37.2525 71.365 36.4325C72.985 34.8025 72.985 32.1725 71.365 30.5425L71.365 30.5425Z" id="Shape" fill="#193E6D" fill-rule="evenodd" stroke="none" />
                      <path d="M27.68 0.599998C26.88 -0.200001 25.59 -0.200001 24.79 0.599998L0.600006 24.79C0.220001 25.17 0 25.69 0 26.24L0 43.88C0 48.02 3.35999 51.38 7.5 51.38L19.48 51.38L19.48 32.82L33 32.82L33 51.37L44.98 51.37C49.12 51.37 52.48 48.01 52.48 43.87L52.48 26.23C52.48 25.69 52.27 25.16 51.88 24.78L27.68 0.599998L27.68 0.599998Z" transform="translate(10.054993 16.222507)" id="Shape" fill="#193E6D" fill-rule="evenodd" stroke="none" />
                    </g>
                  </g>
                </g>
                <g id="Group" transform="translate(-0.41131592 1)">
                  <g id="Group-3" transform="translate(69.048935 95.26773)">
                    <path d="M0 177.357C0 79.4053 78.7504 0 175.894 0C273.038 0 351.788 79.4053 351.788 177.357C351.788 275.308 273.038 354.713 175.894 354.713C78.7504 354.713 0 275.308 0 177.357Z" id="Circle" fill="#DCE4EA" fill-rule="evenodd" stroke="none" />
                    <path d="M0 136.287C0 61.0178 60.5146 0 135.163 0C209.812 0 270.326 61.0178 270.326 136.287C270.326 211.557 209.812 272.574 135.163 272.574C60.5146 272.574 0 211.557 0 136.287Z" transform="translate(40.73082 41.06955)" id="Circle" fill="#46AEEC" fill-rule="evenodd" stroke="none" />
                    <path d="M0 97.6429C0 43.7162 43.3557 0 96.8376 0C150.32 0 193.675 43.7162 193.675 97.6429C193.675 151.57 150.32 195.286 96.8376 195.286C43.3557 195.286 0 151.57 0 97.6429Z" transform="translate(79.0564 79.71383)" id="Circle" fill="#FFFFFF" fill-rule="evenodd" stroke="none" />
                  </g>
                  <g id="Group" transform="translate(194.62334 252.54416)">
                    <g id="Group">
                      <g id="Group">
                        <path d="M99.3348 42.881L84.0185 27.4373L84.0185 9.59842C84.0185 6.37138 81.4244 3.75569 78.224 3.75569C75.0236 3.75569 72.4393 6.37138 72.4393 9.59842L72.4393 15.7518L61.0391 4.25678C55.4035 -1.42561 45.6035 -1.41559 39.9779 4.26681L1.69213 42.871C-0.564054 45.156 -0.564054 48.854 1.69213 51.129C3.94832 53.414 7.62584 53.414 9.88202 51.129L48.1678 12.5248C49.4102 11.2721 51.6167 11.2721 52.8492 12.5248L91.135 51.129C92.268 52.2715 93.749 52.8427 95.2299 52.8427C96.7108 52.8427 98.1918 52.2715 99.3248 51.129C101.591 48.864 101.591 45.166 99.3348 42.881L99.3348 42.881Z" id="Shape" fill="#193E6D" fill-rule="evenodd" stroke="none" />
                        <path d="M38.5343 0.841832C37.4211 -0.280611 35.6221 -0.280611 34.5089 0.841832L0.834889 34.7858C0.308113 35.317 0 36.0486 0 36.8203L0 61.5843C0 67.3969 4.67144 72.1072 10.4362 72.1072L27.1141 72.1072L27.1141 46.0704L45.939 46.0704L45.939 72.1072L62.617 72.1072C68.3817 72.1072 73.0531 67.3969 73.0531 61.5843L73.0531 36.8203C73.0531 36.0586 72.755 35.327 72.2182 34.7858L38.5343 0.841832L38.5343 0.841832Z" transform="translate(13.986918 22.777178)" id="Shape" fill="#193E6D" fill-rule="evenodd" stroke="none" />
                      </g>
                    </g>
                  </g>
                  <g id="Group" transform="translate(417.04633 80.49434)">
                    <g id="Group">
                      <g id="Group">
                        <path d="M71.7412 30.9638L60.6789 19.8094L60.6789 6.93136C60.6789 4.60628 58.8103 2.71215 56.4944 2.71215C54.1885 2.71215 52.31 4.59627 52.31 6.93136L52.31 11.3811L44.0803 3.07295C40.0053 -1.02598 32.9286 -1.02598 28.8734 3.08297L1.2225 30.9638C-0.407541 32.6174 -0.407541 35.2832 1.2225 36.9268C2.85255 38.5804 5.50629 38.5804 7.13634 36.9268L34.7872 9.04597C35.6916 8.14401 37.272 8.14401 38.1764 9.04597L65.8273 36.9268C66.6523 37.7486 67.7158 38.1595 68.7892 38.1595C69.8626 38.1595 70.9261 37.7486 71.751 36.9268C73.3712 35.2832 73.3712 32.6074 71.7412 30.9638L71.7412 30.9638Z" id="Shape" fill="#193E6D" fill-rule="evenodd" stroke="none" />
                        <path d="M27.8297 0.608826C27.0246 -0.202942 25.7226 -0.202942 24.9275 0.608826L0.606277 25.1223C0.218633 25.5131 0 26.0343 0 26.5855L0 44.4645C0 48.6636 3.37935 52.061 7.53393 52.061L19.5802 52.061L19.5802 33.27L33.1771 33.27L33.1771 52.0711L45.2234 52.0711C49.3879 52.0711 52.7573 48.6736 52.7573 44.4745L52.7573 26.5955C52.7573 26.0443 52.5387 25.5131 52.151 25.1323L27.8297 0.608826L27.8297 0.608826Z" transform="translate(10.09832 16.434595)" id="Shape" fill="#193E6D" fill-rule="evenodd" stroke="none" />
                      </g>
                    </g>
                  </g>
                  <g id="Group" transform="translate(0 389.85013)">
                    <g id="Group">
                      <g id="Group">
                        <path d="M71.7412 30.9638L60.6788 19.8095L60.6788 6.93137C60.6788 4.6063 58.8103 2.71218 56.4944 2.71218C54.1885 2.71218 52.31 4.5963 52.31 6.93137L52.31 11.3811L44.0804 3.07295C40.0053 -1.02598 32.9286 -1.02598 28.8734 3.08299L1.22252 30.9638C-0.407503 32.6174 -0.407503 35.2832 1.22252 36.9268C2.85255 38.5804 5.50632 38.5804 7.13635 36.9268L34.7872 9.046C35.6917 8.14404 37.272 8.14404 38.1765 9.046L65.8273 36.9268C66.6523 37.7486 67.7158 38.1595 68.7892 38.1595C69.8626 38.1595 70.9261 37.7486 71.7511 36.9268C73.3712 35.2832 73.3712 32.6174 71.7412 30.9638L71.7412 30.9638Z" id="Shape" fill="#193E6D" fill-rule="evenodd" stroke="none" />
                        <path d="M27.8298 0.60881C27.0247 -0.202957 25.7227 -0.202957 24.9275 0.60881L0.606292 25.1223C0.218664 25.5131 0 26.0342 0 26.5854L0 44.4644C0 48.6636 3.37932 52.061 7.53391 52.061L19.5802 52.061L19.5802 33.26L33.1771 33.26L33.1771 52.061L45.2234 52.061C49.3879 52.061 52.7573 48.6636 52.7573 44.4644L52.7573 26.5854C52.7573 26.0342 52.5386 25.5031 52.151 25.1223L27.8298 0.60881L27.8298 0.60881Z" transform="translate(10.09826 16.444672)" id="Shape" fill="#193E6D" fill-rule="evenodd" stroke="none" />
                      </g>
                    </g>
                  </g>
                  <g id="Group" transform="translate(209.17455 0)">
                    <g id="Group">
                      <g id="Group">
                        <path d="M70.9311 30.6093L59.998 19.5852L59.998 6.84744C59.998 4.54241 58.1493 2.67835 55.8633 2.67835C53.5773 2.67835 51.7286 4.54241 51.7286 6.84744L51.7286 11.247L43.5884 3.03913C39.563 -1.01972 32.5658 -1.0097 28.5504 3.04915L1.20761 30.6193C-0.402536 32.2528 -0.402536 34.8886 1.20761 36.5121C2.81775 38.1457 5.44172 38.1457 7.06181 36.5121L34.3946 8.94201C35.2891 8.05006 36.8595 8.05006 37.7441 8.94201L65.0869 36.5121C65.9019 37.3239 66.9554 37.7348 68.009 37.7348C69.0725 37.7348 70.126 37.3339 70.9311 36.5121C72.5413 34.8786 72.5413 32.2428 70.9311 30.6093L70.9311 30.6093Z" id="Shape" fill="#193E6D" fill-rule="evenodd" stroke="none" />
                        <path d="M27.5117 0.60131C26.7166 -0.200438 25.4344 -0.200438 24.6393 0.60131L0.596358 24.8442C0.218664 25.225 0 25.7461 0 26.2973L0 43.9759C0 48.1249 3.33956 51.4923 7.4544 51.4923L19.3616 51.4923L19.3616 32.8917L32.7994 32.8917L32.7994 51.4823L44.7065 51.4823C48.8214 51.4823 52.1609 48.1149 52.1609 43.9659L52.1609 26.2873C52.1609 25.7461 51.9522 25.215 51.5646 24.8342L27.5117 0.60131L27.5117 0.60131Z" transform="translate(9.993856 16.257956)" id="Shape" fill="#193E6D" fill-rule="evenodd" stroke="none" />
                      </g>
                    </g>
                  </g>
                  <g id="Group-2" transform="translate(417.85516 390.85226)">
                    <g id="Group">
                      <g id="Group">
                        <path d="M70.9311 30.6093L59.998 19.5852L59.998 6.84744C59.998 4.54241 58.1493 2.67835 55.8633 2.67835C53.5773 2.67835 51.7286 4.54241 51.7286 6.84744L51.7286 11.247L43.5884 3.03913C39.563 -1.01972 32.5658 -1.0097 28.5504 3.04915L1.20761 30.6193C-0.402536 32.2528 -0.402536 34.8886 1.20761 36.5121C2.81775 38.1457 5.44172 38.1457 7.06181 36.5121L34.3946 8.94201C35.2891 8.05006 36.8595 8.05006 37.7441 8.94201L65.0869 36.5121C65.9019 37.3239 66.9554 37.7348 68.009 37.7348C69.0725 37.7348 70.1261 37.3339 70.9311 36.5121C72.5413 34.8786 72.5413 32.2428 70.9311 30.6093L70.9311 30.6093Z" id="Shape" fill="#193E6D" fill-rule="evenodd" stroke="none" />
                        <path d="M27.5117 0.60131C26.7166 -0.200438 25.4344 -0.200438 24.6393 0.60131L0.596358 24.8442C0.218664 25.225 0 25.7461 0 26.2973L0 43.9759C0 48.1249 3.33956 51.4923 7.4544 51.4923L19.3616 51.4923L19.3616 32.8917L32.7994 32.8917L32.7994 51.4823L44.7065 51.4823C48.8214 51.4823 52.1609 48.1149 52.1609 43.9659L52.1609 26.2873C52.1609 25.7461 51.9522 25.215 51.5646 24.8342L27.5117 0.60131L27.5117 0.60131Z" transform="translate(9.993858 16.257956)" id="Shape" fill="#193E6D" fill-rule="evenodd" stroke="none" />
                      </g>
                    </g>
                  </g>
                </g>
              </g>
            </g>
          </g>
        </g>
        <g id="Group-3" transform="translate(209.99998 199.6)">
          <path d="M7.95834 35.7922C6.38235 35.5595 4.90212 35.1033 3.5264 34.4052C2.14196 33.7163 0.966484 32.8599 0 31.836L1.53247 29.3877C1.66307 29.1737 1.84592 28.9968 2.07231 28.8571C2.29871 28.7175 2.52508 28.6523 2.76888 28.6523C3.06492 28.6523 3.38708 28.764 3.71795 28.9875C4.05755 29.2109 4.44064 29.4715 4.86731 29.7787C5.30267 30.0859 5.79027 30.3838 6.33882 30.691C6.88738 30.9982 7.54913 31.2216 8.29794 31.3612L9.06417 21.6801C8.10638 21.3915 7.1573 21.0564 6.22562 20.6654C5.29395 20.2745 4.44935 19.7532 3.70055 19.1109C2.95174 18.4686 2.35095 17.6587 1.88947 16.672C1.42799 15.6853 1.20159 14.4565 1.20159 12.9857C1.20159 11.8873 1.41056 10.8168 1.8198 9.76489C2.22903 8.713 2.82983 7.78212 3.60476 6.95364C4.3884 6.13447 5.34619 5.44563 6.49554 4.91502C7.63618 4.38442 8.95097 4.11447 10.4399 4.11447L10.6663 1.35907C10.6924 1.01465 10.823 0.698142 11.0668 0.418891C11.3106 0.13964 11.6241 0 12.0159 0L13.8531 0L13.5135 4.24479C14.9415 4.48681 16.1779 4.92433 17.214 5.53871C18.2502 6.16239 19.1558 6.86055 19.922 7.63318L18.7117 9.59732C18.5201 9.88589 18.3373 10.1 18.1457 10.2489C17.9541 10.3886 17.7277 10.463 17.4578 10.463C17.2575 10.463 17.0137 10.3979 16.7438 10.2582C16.4652 10.1186 16.1517 9.95105 15.7947 9.76488C15.4378 9.5787 15.0459 9.37391 14.6106 9.16912C14.1752 8.96432 13.705 8.80607 13.1739 8.67575L12.4686 17.6215C13.4351 17.938 14.4016 18.2917 15.3507 18.6734C16.2998 19.055 17.1531 19.5484 17.9193 20.1535C18.6768 20.7585 19.295 21.5125 19.7652 22.4155C20.2354 23.3184 20.4705 24.4448 20.4705 25.7946C20.4705 27.135 20.2616 28.3917 19.8436 29.5646C19.4257 30.7375 18.8162 31.7801 18.0151 32.6737C17.214 33.5767 16.2301 34.3028 15.0547 34.8706C13.8879 35.4291 12.547 35.7735 11.0319 35.8852L10.7881 39.0595C10.762 39.3946 10.6227 39.6925 10.3789 39.9811C10.1351 40.2604 9.82164 40.4 9.42983 40.4L7.59263 40.4L7.95834 35.7922L7.95834 35.7922ZM5.92087 12.4924C5.92087 13.0416 6.00795 13.5256 6.18207 13.9352C6.35623 14.3541 6.60003 14.7265 6.92219 15.0523C7.23563 15.3781 7.61006 15.6667 8.04542 15.918C8.47206 16.1693 8.95097 16.402 9.45598 16.5975L10.0829 8.6013C9.34278 8.70369 8.70717 8.87124 8.18474 9.11328C7.6623 9.3553 7.22694 9.64389 6.89607 9.98831C6.55647 10.3327 6.31267 10.7237 6.15595 11.1426C5.99923 11.5708 5.92087 12.0176 5.92087 12.4924L5.92087 12.4924ZM15.7426 26.6324C15.7426 26.0832 15.6468 25.6084 15.4726 25.1988C15.2898 24.7892 15.0373 24.4262 14.7064 24.1097C14.3755 23.7932 13.9924 23.5232 13.5484 23.2905C13.1043 23.0578 12.6167 22.853 12.0943 22.6668L11.4064 31.4357C12.8344 31.2309 13.914 30.7189 14.6542 29.8904C15.3943 29.0619 15.7426 27.9635 15.7426 26.6324L15.7426 26.6324Z" id="Shape" fill="#193E6D" fill-rule="evenodd" stroke="none" />
          <path d="M7.96706 35.7922C6.39106 35.5595 4.91083 35.1033 3.5264 34.4052C2.15067 33.7163 0.975199 32.8599 0 31.836L1.53247 29.3877C1.66307 29.1737 1.84592 28.9968 2.0636 28.8571C2.28999 28.7175 2.51636 28.6523 2.76016 28.6523C3.0562 28.6523 3.36967 28.764 3.70924 28.9875C4.04883 29.2109 4.43192 29.4715 4.85859 29.7787C5.29395 30.0859 5.78155 30.3838 6.33011 30.691C6.87866 30.9982 7.54042 31.2216 8.28922 31.3612L9.05546 21.6801C8.09766 21.3915 7.14858 21.0564 6.21691 20.6654C5.27655 20.2745 4.44064 19.7532 3.69183 19.1109C2.94303 18.4686 2.34223 17.6587 1.88075 16.672C1.41927 15.6853 1.19288 14.4565 1.19288 12.9857C1.19288 11.8873 1.40184 10.8168 1.81108 9.76489C2.22032 8.713 2.82112 7.78212 3.59604 6.95364C4.37968 6.13447 5.33748 5.44563 6.48683 4.91502C7.63618 4.38442 8.94226 4.11447 10.4312 4.11447L10.6576 1.35907C10.6837 1.01465 10.823 0.698142 11.0668 0.418891C11.3106 0.13964 11.6241 0 12.0159 0L13.8531 0L13.5135 4.24479C14.9415 4.48681 16.1779 4.92433 17.214 5.53871C18.2502 6.16239 19.1558 6.86055 19.922 7.63318L18.7117 9.59732C18.5201 9.88589 18.3373 10.1 18.1457 10.2489C17.9541 10.3886 17.7277 10.463 17.4578 10.463C17.2575 10.463 17.0137 10.3979 16.7438 10.2582C16.4652 10.1186 16.1517 9.95105 15.7947 9.76488C15.4378 9.56939 15.0459 9.37391 14.6106 9.16912C14.1752 8.96432 13.705 8.80607 13.1739 8.67575L12.4686 17.6215C13.4351 17.938 14.4016 18.2917 15.3507 18.6734C16.2998 19.055 17.1531 19.5484 17.9193 20.1535C18.6768 20.7585 19.295 21.5125 19.7652 22.4155C20.2354 23.3184 20.4705 24.4448 20.4705 25.7946C20.4705 27.135 20.2616 28.3917 19.8436 29.5646C19.4257 30.7375 18.8162 31.7801 18.0151 32.6737C17.214 33.5767 16.2301 34.3028 15.0547 34.8706C13.8792 35.4291 12.5383 35.7735 11.0319 35.8852L10.7881 39.0595C10.762 39.3946 10.6314 39.6925 10.3876 39.9811C10.1438 40.2604 9.83035 40.4 9.43855 40.4L7.60135 40.4L7.96706 35.7922L7.96706 35.7922ZM5.92958 12.4924C5.92958 13.0416 6.01666 13.5256 6.19079 13.9352C6.36494 14.3541 6.60874 14.7265 6.9309 15.0523C7.24435 15.3781 7.61878 15.6667 8.05414 15.918C8.48949 16.1693 8.95969 16.402 9.47341 16.5975L10.1003 8.6013C9.36021 8.70369 8.72461 8.87124 8.20217 9.11328C7.67973 9.3553 7.24438 9.64389 6.90481 9.98831C6.56522 10.3327 6.32142 10.7237 6.16469 11.1426C6.00795 11.5708 5.92958 12.0176 5.92958 12.4924L5.92958 12.4924ZM15.7513 26.6324C15.7513 26.0832 15.6642 25.6084 15.4814 25.1988C15.2985 24.7892 15.046 24.4262 14.7151 24.1097C14.3842 23.7932 14.0011 23.5232 13.5571 23.2905C13.113 23.0578 12.6254 22.853 12.103 22.6668L11.4151 31.4357C12.8431 31.2309 13.9228 30.7189 14.6629 29.8904C15.3856 29.0526 15.7513 27.9635 15.7513 26.6324L15.7513 26.6324Z" transform="translate(23.43101 0)" id="Shape" fill="#193E6D" fill-rule="evenodd" stroke="none" />
          <path d="M7.95834 35.7922C6.38235 35.5595 4.90212 35.1033 3.5264 34.4052C2.14196 33.7163 0.966484 32.8599 0 31.836L1.53247 29.3877C1.66307 29.1737 1.84592 28.9968 2.07231 28.8571C2.29871 28.7175 2.52508 28.6523 2.76888 28.6523C3.06492 28.6523 3.38708 28.764 3.71795 28.9875C4.05755 29.2109 4.44064 29.4715 4.86731 29.7787C5.30267 30.0859 5.79027 30.3838 6.33882 30.691C6.88738 30.9982 7.54913 31.2216 8.29794 31.3612L9.06417 21.6801C8.10638 21.3915 7.1573 21.0564 6.22563 20.6654C5.29395 20.2745 4.44935 19.7532 3.70055 19.1109C2.95175 18.4686 2.35095 17.6587 1.88947 16.672C1.42799 15.6853 1.20159 14.4565 1.20159 12.9857C1.20159 11.8873 1.41056 10.8168 1.8198 9.76489C2.22903 8.713 2.82983 7.78212 3.60476 6.95364C4.3884 6.13447 5.34619 5.44563 6.49555 4.91502C7.63618 4.38442 8.95098 4.11447 10.4399 4.11447L10.6663 1.35907C10.6924 1.01465 10.823 0.698142 11.0668 0.418891C11.3106 0.13964 11.6241 0 12.0159 0L13.8531 0L13.5135 4.24479C14.9415 4.48681 16.1779 4.92433 17.214 5.53871C18.2502 6.16239 19.1558 6.86055 19.922 7.63318L18.7117 9.59732C18.5201 9.88589 18.3373 10.1 18.1457 10.2489C17.9541 10.3886 17.7277 10.463 17.4578 10.463C17.2575 10.463 17.0137 10.3979 16.7438 10.2582C16.4652 10.1186 16.1517 9.95105 15.7947 9.76488C15.4378 9.56939 15.0459 9.37391 14.6106 9.16912C14.1752 8.96432 13.705 8.80607 13.1739 8.67575L12.4686 17.6215C13.4351 17.938 14.4016 18.2917 15.3507 18.6734C16.2998 19.055 17.1531 19.5484 17.9193 20.1535C18.6768 20.7585 19.2951 21.5125 19.7652 22.4155C20.2354 23.3184 20.4705 24.4448 20.4705 25.7946C20.4705 27.135 20.2616 28.3917 19.8436 29.5646C19.4257 30.7375 18.8162 31.7801 18.0151 32.6737C17.214 33.5767 16.2301 34.3028 15.0547 34.8706C13.8879 35.4291 12.547 35.7735 11.0319 35.8852L10.7881 39.0595C10.762 39.3946 10.6227 39.6925 10.3789 39.9811C10.1351 40.2604 9.82164 40.4 9.42983 40.4L7.59263 40.4L7.95834 35.7922L7.95834 35.7922ZM5.92087 12.4924C5.92087 13.0416 6.00795 13.5256 6.18207 13.9352C6.35623 14.3541 6.60003 14.7265 6.92219 15.0523C7.23563 15.3781 7.61006 15.6667 8.04542 15.918C8.47206 16.1693 8.95098 16.402 9.45598 16.5975L10.0829 8.6013C9.34278 8.70369 8.70718 8.87124 8.18474 9.11328C7.6623 9.3553 7.22694 9.64389 6.89607 9.98831C6.55648 10.3327 6.31268 10.7237 6.15595 11.1426C5.99923 11.5708 5.92087 12.0176 5.92087 12.4924L5.92087 12.4924ZM15.7426 26.6324C15.7426 26.0832 15.6468 25.6084 15.4726 25.1988C15.2898 24.7892 15.0373 24.4262 14.7064 24.1097C14.3755 23.7932 13.9924 23.5232 13.5484 23.2905C13.1043 23.0578 12.6167 22.853 12.0943 22.6668L11.4064 31.4357C12.8344 31.2309 13.914 30.7189 14.6542 29.8904C15.3943 29.0619 15.7426 27.9635 15.7426 26.6324L15.7426 26.6324Z" transform="translate(46.87942 0)" id="Shape" fill="#193E6D" fill-rule="evenodd" stroke="none" />
        </g>
      </g>
    </g>
  </g>
</svg>