<svg xmlns="http://www.w3.org/2000/svg" xmlns:xlink="http://www.w3.org/1999/xlink" version="1.1" style="enable-background:new 0 0 750 500;" xml:space="preserve" width="482" height="427"><rect id="backgroundrect" width="100%" height="100%" x="0" y="0" fill="none" stroke="none"/>
<style type="text/css">
	.st0{fill:#DCE4EA;}
	.st1{fill:#46AEEC;}
	.st2{fill:#A6CAE1;}
	.st3{fill:#193E6D;}
	.st4{fill:#072F54;}
	.st5{fill:#FBC108;}
	.st6{fill:#E9EFF4;}
	.st7{fill-rule:evenodd;clip-rule:evenodd;fill:#0C3B7C;}
	.st8{fill:#FFFFFF;}
	.st9{fill:#00BAFC;}
	.st10{fill:url(#SVGID_1_);}
	.st11{fill:#FF5A5F;}
</style>

<g class="currentLayer" style=""><title>Layer 1</title><g id="svg_1" class="">
	<g id="svg_2">
		
			<rect x="41.610262785504204" y="25.335978091062557" transform="matrix(0.9804,-0.197,0.197,0.9804,-45.7859,63.9435) " class="st0" width="256.54998779296875" height="352.79998779296875" id="svg_3"/>
		
			<rect x="69.93027010972298" y="173.50597626000786" transform="matrix(0.9804,-0.197,0.197,0.9804,-42.0877,51.5858) " class="st1" width="79.4000015258789" height="6.940000057220459" id="svg_4"/>
		
			<rect x="74.65027133042608" y="198.28595978051567" transform="matrix(0.9804,-0.197,0.197,0.9804,-47.1348,50.4355) " class="st1" width="53.349998474121094" height="6.940000057220459" id="svg_5"/>
		
			<rect x="78.94026461655892" y="218.78595978051567" transform="matrix(0.9804,-0.197,0.197,0.9804,-50.9161,53.4141) " class="st1" width="70.91999816894531" height="6.940000057220459" id="svg_6"/>
		
			<rect x="83.2102688890198" y="239.0059610012188" transform="matrix(0.9804,-0.197,0.197,0.9804,-54.6201,56.6445) " class="st1" width="91.1500015258789" height="6.940000057220459" id="svg_7"/>
		
			<rect x="87.16026583726202" y="255.96598297387504" transform="matrix(0.9804,-0.197,0.197,0.9804,-57.3604,63.0181) " class="st1" width="144.5800018310547" height="6.940000057220459" id="svg_8"/>
		
			<rect x="92.24026766831668" y="281.7559610012188" transform="matrix(0.9804,-0.197,0.197,0.9804,-61.1576,69.9383) " class="st2" width="200.16000366210938" height="0.44999998807907104" id="svg_9"/>
		
			<rect x="98.42026034409798" y="308.7559610012188" transform="matrix(0.9804,-0.197,0.197,0.9804,-68.179,66.3352) " class="st3" width="144.5800018310547" height="13.430000305175781" id="svg_10"/>
		
			<rect x="239.3102597337464" y="144.63598114282036" transform="matrix(0.9804,-0.197,0.197,0.9804,-33.5836,79.3219) " class="st3" width="27.90999984741211" height="6.940000057220459" id="svg_11"/>
		
			<rect x="150.1002682786683" y="98.02598053246881" transform="matrix(0.9804,-0.197,0.197,0.9804,-25.8552,60.8013) " class="st1" width="27.90999984741211" height="3.9700000286102295" id="svg_12"/>
		
			<rect x="110.9802579026917" y="109.5159707668438" transform="matrix(0.9804,-0.197,0.197,0.9804,-28.0738,61.4816) " class="st1" width="110.77999877929688" height="3.9700000286102295" id="svg_13"/>
		
			<rect x="251.6002682786683" y="166.07596832543754" transform="matrix(0.9804,-0.197,0.197,0.9804,-37.6452,81.3858) " class="st3" width="20.010000228881836" height="6.940000057220459" id="svg_14"/>
		
			<rect x="248.2402524095276" y="189.07596832543754" transform="matrix(0.9804,-0.197,0.197,0.9804,-42.1657,81.9532) " class="st3" width="27.90999984741211" height="6.940000057220459" id="svg_15"/>
		
			<rect x="252.71025363023077" y="211.29596954614067" transform="matrix(0.9804,-0.197,0.197,0.9804,-46.4568,83.2689) " class="st3" width="27.90999984741211" height="6.940000057220459" id="svg_16"/>
		
			<rect x="265.0002621751526" y="232.74598175317195" transform="matrix(0.9804,-0.197,0.197,0.9804,-50.5185,85.3329) " class="st1" width="20.010000228881836" height="6.940000057220459" id="svg_17"/>
		
			<rect x="276.26027194077767" y="285.5259805324688" transform="matrix(0.9804,-0.197,0.197,0.9804,-61.3371,88.65) " class="st3" width="20.010000228881836" height="13.430000305175781" id="svg_18"/>
		<g id="svg_19">
			<g id="svg_20">
				<g id="svg_21">
					<path class="st2" d="M97.08620239257812,174.2945932006836 c-0.27,0.05000000000000001 -0.55,0.020000000000000004 -0.81,-0.12000000000000001 l-4.79,-2.58 c-0.5900000000000001,-0.32000000000000006 -0.81,-1.05 -0.49000000000000005,-1.6300000000000001 c0.32000000000000006,-0.5900000000000001 1.05,-0.81 1.6300000000000001,-0.49000000000000005 l4.79,2.58 c0.5900000000000001,0.32000000000000006 0.81,1.05 0.49000000000000005,1.6300000000000001 C97.72620239257813,174.0145932006836 97.42620239257812,174.2245932006836 97.08620239257812,174.2945932006836 z" id="svg_22"/>
				</g>
				<g id="svg_23">
					<path class="st2" d="M92.97620239257813,175.1245932006836 c-0.3400000000000001,0.07 -0.7100000000000001,-0.010000000000000002 -1,-0.24000000000000002 c-0.52,-0.42000000000000004 -0.6000000000000001,-1.18 -0.18000000000000002,-1.7000000000000002 l3.43,-4.23 c0.42000000000000004,-0.52 1.18,-0.6000000000000001 1.7000000000000002,-0.18000000000000002 c0.52,0.42000000000000004 0.6000000000000001,1.18 0.18000000000000002,1.7000000000000002 l-3.43,4.23 C93.48620239257812,174.9245932006836 93.23620239257812,175.0645932006836 92.97620239257813,175.1245932006836 z" id="svg_24"/>
				</g>
			</g>
			<g id="svg_25">
				<g id="svg_26">
					<path class="st2" d="M219.6062023925781,149.6745932006836 c-0.27,0.05000000000000001 -0.55,0.020000000000000004 -0.81,-0.12000000000000001 l-4.8,-2.58 c-0.5900000000000001,-0.32000000000000006 -0.81,-1.05 -0.49000000000000005,-1.6300000000000001 c0.32000000000000006,-0.5900000000000001 1.05,-0.8 1.6300000000000001,-0.49000000000000005 l4.8,2.58 c0.5900000000000001,0.32000000000000006 0.81,1.05 0.49000000000000005,1.6300000000000001 C220.25620239257813,149.3945932006836 219.94620239257813,149.60459320068358 219.6062023925781,149.6745932006836 z" id="svg_27"/>
				</g>
				<g id="svg_28">
					<path class="st2" d="M215.49620239257814,150.4945932006836 c-0.3400000000000001,0.07 -0.7100000000000001,-0.010000000000000002 -1,-0.24000000000000002 c-0.52,-0.42000000000000004 -0.6000000000000001,-1.18 -0.18000000000000002,-1.7000000000000002 l3.43,-4.23 c0.42000000000000004,-0.51 1.18,-0.6000000000000001 1.7000000000000002,-0.18000000000000002 c0.52,0.42000000000000004 0.6000000000000001,1.18 0.18000000000000002,1.7000000000000002 l-3.43,4.23 C216.01620239257812,150.3045932006836 215.76620239257812,150.44459320068358 215.49620239257814,150.4945932006836 z" id="svg_29"/>
				</g>
			</g>
			<g id="svg_30">
				<g id="svg_31">
					<path class="st2" d="M200.75620239257813,153.4645932006836 c-0.27,0.05000000000000001 -0.55,0.020000000000000004 -0.81,-0.12000000000000001 l-4.8,-2.58 c-0.5900000000000001,-0.32000000000000006 -0.81,-1.05 -0.49000000000000005,-1.6300000000000001 c0.32000000000000006,-0.5900000000000001 1.05,-0.81 1.6300000000000001,-0.49000000000000005 l4.8,2.58 c0.5900000000000001,0.32000000000000006 0.81,1.05 0.49000000000000005,1.6300000000000001 C201.4062023925781,153.1745932006836 201.0962023925781,153.3945932006836 200.75620239257813,153.4645932006836 z" id="svg_32"/>
				</g>
				<g id="svg_33">
					<path class="st2" d="M196.64620239257812,154.2845932006836 c-0.3400000000000001,0.07 -0.7100000000000001,-0.010000000000000002 -1,-0.24000000000000002 c-0.52,-0.42000000000000004 -0.6000000000000001,-1.18 -0.18000000000000002,-1.7000000000000002 l3.43,-4.23 c0.42000000000000004,-0.52 1.18,-0.6000000000000001 1.7000000000000002,-0.18000000000000002 c0.52,0.42000000000000004 0.6000000000000001,1.18 0.18000000000000002,1.7000000000000002 l-3.43,4.23 C197.1662023925781,154.0945932006836 196.9162023925781,154.2345932006836 196.64620239257812,154.2845932006836 z" id="svg_34"/>
				</g>
			</g>
			<g id="svg_35">
				<g id="svg_36">
					<path class="st2" d="M191.33620239257812,155.35459320068358 c-0.27,0.05000000000000001 -0.55,0.020000000000000004 -0.81,-0.12000000000000001 l-4.8,-2.58 c-0.5900000000000001,-0.32000000000000006 -0.81,-1.05 -0.49000000000000005,-1.6300000000000001 c0.32000000000000006,-0.5900000000000001 1.05,-0.81 1.6300000000000001,-0.49000000000000005 l4.8,2.58 c0.5900000000000001,0.32000000000000006 0.81,1.05 0.49000000000000005,1.6300000000000001 C191.9762023925781,155.07459320068358 191.67620239257815,155.2845932006836 191.33620239257812,155.35459320068358 z" id="svg_37"/>
				</g>
				<g id="svg_38">
					<path class="st2" d="M187.2262023925781,156.1845932006836 c-0.3400000000000001,0.07 -0.7100000000000001,-0.010000000000000002 -1,-0.24000000000000002 c-0.52,-0.42000000000000004 -0.6000000000000001,-1.18 -0.18000000000000002,-1.7000000000000002 l3.43,-4.23 c0.42000000000000004,-0.52 1.18,-0.6000000000000001 1.7000000000000002,-0.18000000000000002 c0.52,0.42000000000000004 0.6000000000000001,1.18 0.18000000000000002,1.7000000000000002 l-3.43,4.23 C187.73620239257815,155.9845932006836 187.48620239257815,156.1245932006836 187.2262023925781,156.1845932006836 z" id="svg_39"/>
				</g>
			</g>
			<g id="svg_40">
				<g id="svg_41">
					<path class="st2" d="M181.9062023925781,157.2445932006836 c-0.27,0.05000000000000001 -0.55,0.020000000000000004 -0.81,-0.12000000000000001 l-4.8,-2.58 c-0.5900000000000001,-0.32000000000000006 -0.81,-1.05 -0.49000000000000005,-1.6300000000000001 c0.32000000000000006,-0.5900000000000001 1.05,-0.81 1.6300000000000001,-0.49000000000000005 l4.8,2.58 c0.5900000000000001,0.32000000000000006 0.81,1.05 0.49000000000000005,1.6300000000000001 C182.55620239257814,156.9645932006836 182.24620239257814,157.1845932006836 181.9062023925781,157.2445932006836 z" id="svg_42"/>
				</g>
				<g id="svg_43">
					<path class="st2" d="M177.79620239257815,158.07459320068358 c-0.3400000000000001,0.07 -0.7100000000000001,-0.010000000000000002 -1,-0.24000000000000002 c-0.52,-0.42000000000000004 -0.6000000000000001,-1.18 -0.18000000000000002,-1.7000000000000002 l3.43,-4.23 c0.42000000000000004,-0.52 1.18,-0.6000000000000001 1.7000000000000002,-0.18000000000000002 s0.6000000000000001,1.18 0.18000000000000002,1.7000000000000002 l-3.43,4.23 C178.31620239257813,157.8745932006836 178.06620239257813,158.0245932006836 177.79620239257815,158.07459320068358 z" id="svg_44"/>
				</g>
			</g>
			<g id="svg_45">
				<g id="svg_46">
					<path class="st2" d="M172.48620239257815,159.1445932006836 c-0.27,0.05000000000000001 -0.55,0.020000000000000004 -0.81,-0.12000000000000001 l-4.8,-2.58 c-0.5900000000000001,-0.32000000000000006 -0.81,-1.05 -0.49000000000000005,-1.6300000000000001 c0.31000000000000005,-0.5900000000000001 1.05,-0.81 1.6300000000000001,-0.49000000000000005 l4.8,2.58 c0.5900000000000001,0.32000000000000006 0.81,1.05 0.49000000000000005,1.6300000000000001 C173.12620239257814,158.8645932006836 172.82620239257812,159.07459320068358 172.48620239257815,159.1445932006836 z" id="svg_47"/>
				</g>
				<g id="svg_48">
					<path class="st2" d="M168.37620239257814,159.9645932006836 c-0.3400000000000001,0.07 -0.7100000000000001,-0.010000000000000002 -1,-0.24000000000000002 c-0.52,-0.42000000000000004 -0.6000000000000001,-1.18 -0.18000000000000002,-1.7000000000000002 l3.43,-4.23 c0.42000000000000004,-0.52 1.18,-0.6000000000000001 1.7000000000000002,-0.18000000000000002 c0.52,0.42000000000000004 0.6000000000000001,1.18 0.18000000000000002,1.7000000000000002 l-3.43,4.23 C168.88620239257813,159.7745932006836 168.63620239257813,159.91459320068358 168.37620239257814,159.9645932006836 z" id="svg_49"/>
				</g>
			</g>
			<g id="svg_50">
				<g id="svg_51">
					<path class="st2" d="M163.05620239257814,161.0345932006836 c-0.27,0.05000000000000001 -0.55,0.020000000000000004 -0.81,-0.12000000000000001 l-4.79,-2.58 c-0.5900000000000001,-0.32000000000000006 -0.81,-1.05 -0.49000000000000005,-1.6300000000000001 c0.32000000000000006,-0.5900000000000001 1.05,-0.81 1.6300000000000001,-0.49000000000000005 l4.79,2.58 c0.5900000000000001,0.32000000000000006 0.81,1.05 0.49000000000000005,1.6300000000000001 C163.70620239257812,160.7545932006836 163.39620239257812,160.9645932006836 163.05620239257814,161.0345932006836 z" id="svg_52"/>
				</g>
				<g id="svg_53">
					<path class="st2" d="M158.94620239257813,161.8645932006836 c-0.3400000000000001,0.07 -0.7100000000000001,-0.010000000000000002 -1,-0.24000000000000002 c-0.52,-0.42000000000000004 -0.6000000000000001,-1.18 -0.18000000000000002,-1.7000000000000002 l3.43,-4.23 c0.42000000000000004,-0.52 1.18,-0.6000000000000001 1.7000000000000002,-0.18000000000000002 c0.52,0.42000000000000004 0.6000000000000001,1.18 0.18000000000000002,1.7000000000000002 l-3.43,4.23 C159.4662023925781,161.66459320068358 159.2162023925781,161.8145932006836 158.94620239257813,161.8645932006836 z" id="svg_54"/>
				</g>
			</g>
			<g id="svg_55">
				<g id="svg_56">
					<path class="st2" d="M210.18620239257814,151.5645932006836 c-0.27,0.05000000000000001 -0.55,0.020000000000000004 -0.81,-0.12000000000000001 l-4.8,-2.58 c-0.5900000000000001,-0.32000000000000006 -0.81,-1.05 -0.49000000000000005,-1.6300000000000001 c0.32000000000000006,-0.5900000000000001 1.05,-0.81 1.6300000000000001,-0.49000000000000005 l4.8,2.58 c0.5900000000000001,0.32000000000000006 0.81,1.05 0.49000000000000005,1.6300000000000001 C210.83620239257812,151.2845932006836 210.5262023925781,151.4945932006836 210.18620239257814,151.5645932006836 z" id="svg_57"/>
				</g>
				<g id="svg_58">
					<path class="st2" d="M206.07620239257812,152.3945932006836 c-0.3400000000000001,0.07 -0.7100000000000001,-0.010000000000000002 -1,-0.24000000000000002 c-0.52,-0.42000000000000004 -0.6000000000000001,-1.18 -0.18000000000000002,-1.7000000000000002 l3.43,-4.23 c0.42000000000000004,-0.51 1.18,-0.6000000000000001 1.7000000000000002,-0.18000000000000002 c0.52,0.42000000000000004 0.6000000000000001,1.18 0.18000000000000002,1.7000000000000002 l-3.43,4.23 C206.58620239257812,152.19459320068358 206.33620239257812,152.3345932006836 206.07620239257812,152.3945932006836 z" id="svg_59"/>
				</g>
			</g>
			<g id="svg_60">
				<g id="svg_61">
					<path class="st2" d="M144.20620239257812,164.82459320068358 c-0.27,0.05000000000000001 -0.55,0.020000000000000004 -0.81,-0.12000000000000001 l-4.79,-2.58 c-0.5900000000000001,-0.32000000000000006 -0.81,-1.05 -0.49000000000000005,-1.6300000000000001 c0.31000000000000005,-0.5900000000000001 1.05,-0.81 1.6300000000000001,-0.49000000000000005 l4.79,2.58 c0.5900000000000001,0.32000000000000006 0.81,1.05 0.49000000000000005,1.6300000000000001 C144.8562023925781,164.5445932006836 144.54620239257815,164.7545932006836 144.20620239257812,164.82459320068358 z" id="svg_62"/>
				</g>
				<g id="svg_63">
					<path class="st2" d="M140.0962023925781,165.6545932006836 c-0.3400000000000001,0.07 -0.7100000000000001,-0.010000000000000002 -1,-0.24000000000000002 c-0.52,-0.42000000000000004 -0.6000000000000001,-1.18 -0.18000000000000002,-1.7000000000000002 l3.43,-4.23 c0.42000000000000004,-0.52 1.18,-0.6000000000000001 1.7000000000000002,-0.18000000000000002 c0.52,0.42000000000000004 0.6000000000000001,1.18 0.18000000000000002,1.7000000000000002 l-3.43,4.23 C140.61620239257815,165.4545932006836 140.36620239257815,165.5945932006836 140.0962023925781,165.6545932006836 z" id="svg_64"/>
				</g>
			</g>
			<g id="svg_65">
				<g id="svg_66">
					<path class="st2" d="M134.7862023925781,166.7245932006836 c-0.27,0.05000000000000001 -0.55,0.020000000000000004 -0.81,-0.12000000000000001 l-4.8,-2.58 c-0.5900000000000001,-0.32000000000000006 -0.81,-1.05 -0.49000000000000005,-1.6300000000000001 c0.32000000000000006,-0.5900000000000001 1.05,-0.81 1.6300000000000001,-0.49000000000000005 l4.8,2.58 c0.5900000000000001,0.32000000000000006 0.81,1.05 0.49000000000000005,1.6300000000000001 C135.43620239257814,166.4345932006836 135.12620239257814,166.6545932006836 134.7862023925781,166.7245932006836 z" id="svg_67"/>
				</g>
				<g id="svg_68">
					<path class="st2" d="M130.67620239257815,167.5445932006836 c-0.3400000000000001,0.07 -0.7100000000000001,-0.010000000000000002 -1,-0.24000000000000002 c-0.52,-0.42000000000000004 -0.6000000000000001,-1.18 -0.18000000000000002,-1.7000000000000002 l3.43,-4.23 c0.42000000000000004,-0.52 1.18,-0.6000000000000001 1.7000000000000002,-0.18000000000000002 c0.52,0.42000000000000004 0.6000000000000001,1.18 0.18000000000000002,1.7000000000000002 l-3.43,4.23 C131.18620239257814,167.35459320068358 130.93620239257814,167.4945932006836 130.67620239257815,167.5445932006836 z" id="svg_69"/>
				</g>
			</g>
			<g id="svg_70">
				<g id="svg_71">
					<path class="st2" d="M115.93620239257814,170.5045932006836 c-0.27,0.05000000000000001 -0.55,0.020000000000000004 -0.81,-0.12000000000000001 l-4.8,-2.58 c-0.5900000000000001,-0.32000000000000006 -0.81,-1.05 -0.49000000000000005,-1.6300000000000001 c0.32000000000000006,-0.5900000000000001 1.05,-0.81 1.6300000000000001,-0.49000000000000005 l4.8,2.58 c0.5900000000000001,0.32000000000000006 0.81,1.05 0.49000000000000005,1.6300000000000001 C116.58620239257812,170.2245932006836 116.27620239257811,170.44459320068358 115.93620239257814,170.5045932006836 z" id="svg_72"/>
				</g>
				<g id="svg_73">
					<path class="st2" d="M111.82620239257812,171.3345932006836 c-0.3400000000000001,0.07 -0.7100000000000001,-0.010000000000000002 -1,-0.24000000000000002 c-0.52,-0.42000000000000004 -0.6000000000000001,-1.18 -0.18000000000000002,-1.7000000000000002 l3.43,-4.23 c0.42000000000000004,-0.52 1.18,-0.6000000000000001 1.7000000000000002,-0.18000000000000002 c0.52,0.42000000000000004 0.6000000000000001,1.18 0.18000000000000002,1.7000000000000002 l-3.43,4.23 C112.33620239257812,171.13459320068358 112.08620239257812,171.2845932006836 111.82620239257812,171.3345932006836 z" id="svg_74"/>
				</g>
			</g>
			<g id="svg_75">
				<g id="svg_76">
					<path class="st2" d="M106.50620239257813,172.4045932006836 c-0.27,0.05000000000000001 -0.55,0.020000000000000004 -0.81,-0.12000000000000001 l-4.8,-2.58 c-0.5900000000000001,-0.32000000000000006 -0.81,-1.05 -0.49000000000000005,-1.6300000000000001 c0.31000000000000005,-0.5900000000000001 1.05,-0.81 1.6300000000000001,-0.49000000000000005 l4.8,2.58 c0.5900000000000001,0.32000000000000006 0.81,1.05 0.49000000000000005,1.6300000000000001 C107.15620239257814,172.1245932006836 106.84620239257814,172.3345932006836 106.50620239257813,172.4045932006836 z" id="svg_77"/>
				</g>
				<g id="svg_78">
					<path class="st2" d="M102.39620239257812,173.2245932006836 c-0.3400000000000001,0.07 -0.7100000000000001,-0.010000000000000002 -1,-0.24000000000000002 c-0.52,-0.42000000000000004 -0.6000000000000001,-1.18 -0.18000000000000002,-1.7000000000000002 l3.43,-4.23 c0.42000000000000004,-0.52 1.18,-0.6000000000000001 1.7000000000000002,-0.18000000000000002 c0.52,0.42000000000000004 0.6000000000000001,1.18 0.18000000000000002,1.7000000000000002 l-3.43,4.23 C102.91620239257813,173.0345932006836 102.66620239257813,173.1745932006836 102.39620239257812,173.2245932006836 z" id="svg_79"/>
				</g>
			</g>
			<g id="svg_80">
				<g id="svg_81">
					<path class="st2" d="M125.3562023925781,168.6145932006836 c-0.27,0.05000000000000001 -0.55,0.020000000000000004 -0.81,-0.12000000000000001 l-4.8,-2.58 c-0.5900000000000001,-0.32000000000000006 -0.81,-1.05 -0.49000000000000005,-1.6300000000000001 c0.32000000000000006,-0.5900000000000001 1.05,-0.81 1.6300000000000001,-0.49000000000000005 l4.8,2.58 c0.5900000000000001,0.32000000000000006 0.81,1.05 0.49000000000000005,1.6300000000000001 C126.00620239257813,168.3345932006836 125.69620239257813,168.5445932006836 125.3562023925781,168.6145932006836 z" id="svg_82"/>
				</g>
				<g id="svg_83">
					<path class="st2" d="M121.24620239257814,169.44459320068358 c-0.3400000000000001,0.07 -0.7100000000000001,-0.010000000000000002 -1,-0.24000000000000002 c-0.52,-0.42000000000000004 -0.6000000000000001,-1.18 -0.18000000000000002,-1.7000000000000002 l3.43,-4.23 c0.42000000000000004,-0.52 1.18,-0.6000000000000001 1.7000000000000002,-0.18000000000000002 c0.52,0.42000000000000004 0.6000000000000001,1.18 0.18000000000000002,1.7000000000000002 l-3.43,4.23 C121.76620239257812,169.2445932006836 121.51620239257812,169.38459320068358 121.24620239257814,169.44459320068358 z" id="svg_84"/>
				</g>
			</g>
			<g id="svg_85">
				<g id="svg_86">
					<path class="st2" d="M153.63620239257813,162.9345932006836 c-0.27,0.05000000000000001 -0.55,0.020000000000000004 -0.81,-0.12000000000000001 l-4.79,-2.58 c-0.5900000000000001,-0.32000000000000006 -0.81,-1.05 -0.49000000000000005,-1.6300000000000001 c0.32000000000000006,-0.5900000000000001 1.05,-0.81 1.6300000000000001,-0.49000000000000005 l4.79,2.58 c0.5900000000000001,0.32000000000000006 0.81,1.05 0.49000000000000005,1.6300000000000001 C154.2762023925781,162.6545932006836 153.9762023925781,162.8645932006836 153.63620239257813,162.9345932006836 z" id="svg_87"/>
				</g>
				<g id="svg_88">
					<path class="st2" d="M149.5262023925781,163.7545932006836 c-0.3400000000000001,0.07 -0.7100000000000001,-0.010000000000000002 -1,-0.24000000000000002 c-0.52,-0.42000000000000004 -0.6000000000000001,-1.18 -0.18000000000000002,-1.7000000000000002 l3.43,-4.23 c0.42000000000000004,-0.52 1.18,-0.6000000000000001 1.7000000000000002,-0.18000000000000002 c0.52,0.42000000000000004 0.6000000000000001,1.18 0.18000000000000002,1.7000000000000002 l-3.43,4.23 C150.0362023925781,163.5645932006836 149.7862023925781,163.7045932006836 149.5262023925781,163.7545932006836 z" id="svg_89"/>
				</g>
			</g>
		</g>
		<g id="svg_90">
			<path class="st3" d="M119.79620239257815,108.1145932006836 l-2.7600000000000002,-13.74 l2.48,-0.5 l2.7600000000000002,13.74 L119.79620239257815,108.1145932006836 z" id="svg_91"/>
			<path class="st3" d="M125.23620239257815,107.0245932006836 l-2.7600000000000002,-13.74 l1.75,-0.35000000000000003 l4.92,7.17 l-1.58,-7.84 l2.07,-0.42000000000000004 l2.7600000000000002,13.74 l-1.6600000000000001,0.33000000000000007 l-5.01,-7.54 l1.6500000000000001,8.21 L125.23620239257815,107.0245932006836 z" id="svg_92"/>
			<path class="st3" d="M137.43620239257814,104.57459320068358 l-5.53,-13.19 l2.22,-0.45 l3.77,9.36 l-0.26,-10.06 l2.27,-0.46 l0,14.3 L137.43620239257814,104.57459320068358 z" id="svg_93"/>
			<path class="st3" d="M148.55620239257814,102.53459320068359 c-0.97,0.2 -1.78,0.17 -2.43,-0.08000000000000002 c-0.6500000000000001,-0.25 -1.17,-0.6800000000000002 -1.55,-1.31 c-0.39000000000000007,-0.6300000000000001 -0.6700000000000002,-1.4100000000000001 -0.8600000000000001,-2.33 l-1.03,-5.14 c-0.19000000000000003,-0.93 -0.22000000000000003,-1.75 -0.11000000000000001,-2.46 c0.12000000000000001,-0.7100000000000001 0.43000000000000005,-1.3 0.93,-1.77 c0.51,-0.47000000000000003 1.25,-0.8 2.22,-0.99 c1,-0.2 1.81,-0.18000000000000002 2.46,0.05000000000000001 c0.6400000000000001,0.24000000000000002 1.1600000000000001,0.6600000000000001 1.54,1.27 c0.39000000000000007,0.6100000000000001 0.6700000000000002,1.3800000000000001 0.8600000000000001,2.31 l1.04,5.16 c0.18000000000000002,0.92 0.22000000000000003,1.7400000000000002 0.1,2.46 c-0.12000000000000001,0.7200000000000001 -0.43000000000000005,1.33 -0.92,1.81 C150.29620239257815,101.9945932006836 149.55620239257814,102.3345932006836 148.55620239257814,102.53459320068359 zM148.18620239257814,100.6845932006836 c0.42000000000000004,-0.08000000000000002 0.7100000000000001,-0.24000000000000002 0.8700000000000001,-0.46 c0.16000000000000003,-0.22000000000000003 0.24000000000000002,-0.5 0.25,-0.8300000000000001 c0,-0.33000000000000007 -0.030000000000000006,-0.6800000000000002 -0.11000000000000001,-1.06 l-1.27,-6.33 c-0.08000000000000002,-0.38000000000000006 -0.18000000000000002,-0.7200000000000001 -0.31000000000000005,-1.01 c-0.13,-0.29000000000000004 -0.31000000000000005,-0.5 -0.54,-0.6400000000000001 c-0.23,-0.14 -0.56,-0.16000000000000003 -0.98,-0.08000000000000002 c-0.4,0.08000000000000002 -0.6800000000000002,0.23 -0.8500000000000001,0.44000000000000006 s-0.26,0.48000000000000004 -0.26,0.8 c-0.010000000000000002,0.32000000000000006 0.030000000000000006,0.6700000000000002 0.11000000000000001,1.06 l1.27,6.33 c0.08000000000000002,0.37000000000000005 0.18000000000000002,0.7100000000000001 0.30000000000000004,1.02 c0.13,0.30000000000000004 0.31000000000000005,0.53 0.55,0.6700000000000002 C147.45620239257812,100.7345932006836 147.7762023925781,100.7645932006836 148.18620239257814,100.6845932006836 z" id="svg_94"/>
			<path class="st3" d="M155.25620239257813,100.9945932006836 l-2.7600000000000002,-13.74 l2.48,-0.5 l2.7600000000000002,13.74 L155.25620239257813,100.9945932006836 z" id="svg_95"/>
			<path class="st3" d="M164.43620239257814,99.34459320068359 c-1.01,0.2 -1.84,0.16000000000000003 -2.49,-0.12000000000000001 c-0.6500000000000001,-0.28 -1.1600000000000001,-0.7400000000000001 -1.52,-1.3800000000000001 c-0.36000000000000004,-0.6400000000000001 -0.6400000000000001,-1.4 -0.8200000000000001,-2.3 l-0.99,-4.9 c-0.19000000000000003,-0.9400000000000001 -0.24000000000000002,-1.78 -0.15000000000000002,-2.51 c0.09000000000000002,-0.7400000000000001 0.38000000000000006,-1.35 0.8800000000000001,-1.84 c0.5,-0.49000000000000005 1.25,-0.8300000000000001 2.25,-1.04 c0.9500000000000001,-0.19000000000000003 1.73,-0.18000000000000002 2.33,0.04000000000000001 c0.6000000000000001,0.21000000000000002 1.08,0.6000000000000001 1.42,1.15 c0.35000000000000003,0.55 0.6000000000000001,1.23 0.7600000000000001,2.02 l0.23,1.15 l-2.41,0.48000000000000004 l-0.24000000000000002,-1.19 c-0.08000000000000002,-0.38000000000000006 -0.17,-0.7300000000000001 -0.27,-1.04 c-0.1,-0.31000000000000005 -0.26,-0.54 -0.47000000000000003,-0.6900000000000002 c-0.21000000000000002,-0.15000000000000002 -0.53,-0.18000000000000002 -0.9600000000000001,-0.1 s-0.7200000000000001,0.25 -0.8800000000000001,0.49000000000000005 c-0.16000000000000003,0.24000000000000002 -0.23,0.53 -0.22000000000000003,0.8700000000000001 c0.010000000000000002,0.35000000000000003 0.06000000000000001,0.7300000000000001 0.14,1.15 l1.2,5.97 c0.1,0.5 0.22000000000000003,0.9 0.37000000000000005,1.21 c0.14,0.31000000000000005 0.3400000000000001,0.52 0.5800000000000001,0.6400000000000001 s0.54,0.15000000000000002 0.91,0.07 c0.42000000000000004,-0.08000000000000002 0.6900000000000002,-0.24000000000000002 0.8300000000000001,-0.48000000000000004 c0.14,-0.23 0.19000000000000003,-0.52 0.17,-0.8600000000000001 c-0.020000000000000004,-0.3400000000000001 -0.07,-0.7100000000000001 -0.15000000000000002,-1.12 l-0.25,-1.24 l2.41,-0.48000000000000004 l0.22000000000000003,1.1 c0.16000000000000003,0.81 0.2,1.56 0.11000000000000001,2.23 c-0.09000000000000002,0.6700000000000002 -0.37000000000000005,1.24 -0.8300000000000001,1.7000000000000002 C166.12620239257814,98.81459320068359 165.4162023925781,99.1445932006836 164.43620239257814,99.34459320068359 z" id="svg_96"/>
			<path class="st3" d="M170.7162023925781,97.88459320068358 l-2.7600000000000002,-13.74 l5.77,-1.1600000000000001 l0.35000000000000003,1.7600000000000002 l-3.26,0.6500000000000001 l0.79,3.95 l2.56,-0.51 l0.35000000000000003,1.75 l-2.56,0.51 l0.91,4.55 l3.29,-0.6600000000000001 l0.35000000000000003,1.73 L170.7162023925781,97.88459320068358 z" id="svg_97"/>
		</g>
		<g id="svg_98">
			<path id="path4382" class="st4" d="M84.62620239257814,129.9945932006836 c-1.18,0.25 -2.11,-0.52 -2.35,-1.6500000000000001 c-0.26,-1.2 0.4,-2.23 1.47,-2.46 c1.05,-0.23 2.07,0.43000000000000005 2.33,1.6500000000000001 C86.33620239257812,128.7545932006836 85.68620239257814,129.7745932006836 84.62620239257814,129.9945932006836 M83.70620239257812,125.6745932006836 c-1.2,0.26 -2.04,1.3900000000000001 -1.75,2.75 c0.28,1.29 1.4100000000000001,2.07 2.72,1.79 c1.18,-0.25 2.02,-1.3800000000000001 1.73,-2.75 C86.11620239257812,126.10459320068358 84.90620239257814,125.41459320068358 83.70620239257812,125.6745932006836 "/>
			<path id="path4386" class="st4" d="M83.62620239257814,127.87459320068359 l-0.18000000000000002,-0.8400000000000001 l0.56,-0.12000000000000001 c0.29000000000000004,-0.06000000000000001 0.6300000000000001,-0.1 0.7000000000000001,0.25 c0.09000000000000002,0.42000000000000004 -0.22000000000000003,0.5 -0.56,0.5800000000000001 C84.13620239257813,127.7645932006836 83.62620239257814,127.87459320068359 83.62620239257814,127.87459320068359 zM85.11620239257812,127.13459320068358 c-0.12000000000000001,-0.55 -0.49000000000000005,-0.7100000000000001 -1.15,-0.5700000000000001 l-1.02,0.22000000000000003 l0.5800000000000001,2.6900000000000004 l0.44000000000000006,-0.09000000000000002 l-0.25,-1.15 l0.42000000000000004,-0.09000000000000002 l0.9400000000000001,1 l0.51,-0.11000000000000001 l-1,-1.02 C84.97620239257813,127.8945932006836 85.22620239257813,127.62459320068359 85.11620239257812,127.13459320068358 "/>
			<path id="path4398" class="st4" d="M63.95620239257812,108.4645932006836 l-1.3800000000000001,-2.25 l-9.44,-8.22 l1.24,-0.6100000000000001 l14.97,8.22 l6.98,-3.72 c0.8300000000000001,-0.41000000000000003 1.81,-0.6700000000000002 2.56,-0.8300000000000001 c-3.41,-4.54 -8.58,-7.76 -14.65,-8.55 c-11.99,-1.59 -23.01,6.87 -24.59,18.88 c-0.5,3.72 -0.010000000000000002,7.34 1.23,10.61 l16.47,-9.99 L63.95620239257812,108.4645932006836 z"/>
			<path id="path4402" class="st4" d="M80.09620239257814,102.79459320068361 c-0.56,0.56 -1.4100000000000001,1.33 -2.29,1.84 l-7,3.72 l-1.54,17.02 l-1.2,0.6900000000000002 l-1.55,-12.4 l-1.12,-2.4 l-6.55,3.49 l-17.54,8.26 c2.99,6.77 9.34,11.9 17.22,12.93 c12.01,1.59 23.01,-6.87 24.6,-18.88 C83.79620239257812,111.9245932006836 82.61620239257812,106.9345932006836 80.09620239257814,102.79459320068361 "/>
			<path id="path4406" class="st5" d="M65.36620239257812,111.25459320068359 l1.12,2.4 l1.55,12.4 l1.2,-0.6900000000000002 l1.54,-17.02 l7,-3.72 c0.8800000000000001,-0.51 1.73,-1.26 2.29,-1.84 c-0.38000000000000006,-0.6000000000000001 -0.77,-1.19 -1.19,-1.7600000000000002 c-0.7600000000000001,0.16000000000000003 -1.7400000000000002,0.41000000000000003 -2.56,0.8300000000000001 l-6.98,3.72 l-14.97,-8.22 l-1.24,0.6100000000000001 l9.42,8.23 l1.3800000000000001,2.25 l-6.6,3.52 l-16.47,9.99 c0.13,0.35000000000000003 0.29000000000000004,0.7200000000000001 0.44000000000000006,1.07 l17.52,-8.3 L65.36620239257812,111.25459320068359 L65.36620239257812,111.25459320068359 z"/>
		</g>
	</g>
	<g id="svg_99">
		
			<rect x="184.33330801630763" y="57.22011912856501" transform="matrix(0.9734,0.2293,-0.2293,0.9734,65.9651,-97.9657) " class="st6" width="256.5499877929687" height="352.7999877929687" id="svg_100"/>
		
			<rect x="228.44332388544825" y="182.54012263808647" transform="matrix(0.9734,0.2293,-0.2293,0.9734,53.8656,-89.0409) " class="st1" width="79.40000152587889" height="6.940000057220458" id="svg_101"/>
		
			<rect x="223.59331778193263" y="201.62012446914116" transform="matrix(0.9734,0.2293,-0.2293,0.9734,57.7629,-84.4347) " class="st1" width="53.34999847412109" height="6.940000057220458" id="svg_102"/>
		
			<rect x="218.16332510615138" y="225.70012630019582" transform="matrix(0.9734,0.2293,-0.2293,0.9734,63.3719,-84.5622) " class="st1" width="70.9199981689453" height="6.940000057220458" id="svg_103"/>
		
			<rect x="212.70333365107325" y="250.08011592421926" transform="matrix(0.9734,0.2293,-0.2293,0.9734,69.0853,-84.9785) " class="st1" width="91.15000152587889" height="6.940000057220458" id="svg_104"/>
		
			<rect x="206.79332998896388" y="278.2701183656255" transform="matrix(0.9734,0.2293,-0.2293,0.9734,76.1019,-88.9983) " class="st1" width="144.58000183105466" height="6.940000057220458" id="svg_105"/>
		
			<rect x="199.503321444042" y="315.7001110414067" transform="matrix(0.9734,0.2293,-0.2293,0.9734,84.486,-92.7873) " class="st2" width="200.16000366210935" height="0.449999988079071" id="svg_106"/>
		
			<rect x="193.69332388544825" y="330.650123248438" transform="matrix(0.9734,0.2293,-0.2293,0.9734,88.5052,-84.5132) " class="st3" width="144.58000183105466" height="13.43000030517578" id="svg_107"/>
		
			<rect x="396.7932994713857" y="216.13011897597707" transform="matrix(0.9734,0.2293,-0.2293,0.9734,65.3642,-120.8398) " class="st3" width="27.909999847412106" height="6.940000057220458" id="svg_108"/>
		
			<rect x="335.7333324303701" y="136.7301250794927" transform="matrix(0.9734,0.2293,-0.2293,0.9734,45.1938,-108.9947) " class="st1" width="27.909999847412106" height="3.970000028610229" id="svg_109"/>
		
			<rect x="291.6133067956045" y="148.14011348281298" transform="matrix(0.9734,0.2293,-0.2293,0.9734,47.7373,-108.0749) " class="st1" width="110.77999877929686" height="3.970000028610229" id="svg_110"/>
		
			<rect x="399.40334585810444" y="239.10012019668022" transform="matrix(0.9734,0.2293,-0.2293,0.9734,70.594,-119.9187) " class="st3" width="20.010000228881832" height="6.940000057220458" id="svg_111"/>
		
			<rect x="386.40334585810444" y="260.2601086000005" transform="matrix(0.9734,0.2293,-0.2293,0.9734,75.2035,-117.2818) " class="st3" width="27.909999847412106" height="6.940000057220458" id="svg_112"/>
		
			<rect x="381.2133434166982" y="282.3201061585942" transform="matrix(0.9734,0.2293,-0.2293,0.9734,80.1231,-115.5029) " class="st3" width="27.909999847412106" height="6.940000057220458" id="svg_113"/>
		
			<rect x="383.8133190026357" y="305.2901073792974" transform="matrix(0.9734,0.2293,-0.2293,0.9734,85.353,-114.5818) " class="st1" width="20.010000228881832" height="6.940000057220458" id="svg_114"/>
		
			<rect x="370.7133434166982" y="357.67011226210985" transform="matrix(0.9734,0.2293,-0.2293,0.9734,97.7563,-110.0967) " class="st3" width="20.010000228881832" height="13.43000030517578" id="svg_115"/>
		<g id="svg_116">
			<g id="svg_117">
				<g id="svg_118">
					<path class="st2" d="M281.48620239257815,125.63459320068358 c-0.26,-0.06000000000000001 -0.51,-0.21000000000000002 -0.6900000000000002,-0.45 l-3.2800000000000002,-4.34 c-0.4,-0.53 -0.30000000000000004,-1.29 0.23,-1.6900000000000002 c0.53,-0.4 1.29,-0.30000000000000004 1.6900000000000002,0.23 l3.2800000000000002,4.34 c0.4,0.53 0.30000000000000004,1.29 -0.23,1.6900000000000002 C282.18620239257814,125.6445932006836 281.81620239257813,125.7145932006836 281.48620239257815,125.63459320068358 z" id="svg_119"/>
				</g>
				<g id="svg_120">
					<path class="st2" d="M277.4062023925781,124.6745932006836 c-0.3400000000000001,-0.08000000000000002 -0.6400000000000001,-0.30000000000000004 -0.8,-0.6400000000000001 c-0.30000000000000004,-0.6000000000000001 -0.05000000000000001,-1.32 0.54,-1.62 l4.88,-2.42 c0.5900000000000001,-0.30000000000000004 1.32,-0.05000000000000001 1.62,0.54 c0.30000000000000004,0.6000000000000001 0.05000000000000001,1.32 -0.54,1.62 l-4.88,2.42 C277.9562023925781,124.7045932006836 277.6662023925781,124.7345932006836 277.4062023925781,124.6745932006836 z" id="svg_121"/>
				</g>
			</g>
			<g id="svg_122">
				<g id="svg_123">
					<path class="st2" d="M403.1262023925781,154.2845932006836 c-0.26,-0.06000000000000001 -0.51,-0.21000000000000002 -0.6900000000000002,-0.45 l-3.29,-4.34 c-0.4,-0.53 -0.30000000000000004,-1.29 0.23,-1.6900000000000002 c0.53,-0.4 1.29,-0.29000000000000004 1.6900000000000002,0.23 l3.29,4.34 c0.4,0.53 0.30000000000000004,1.29 -0.23,1.6900000000000002 C403.8362023925781,154.2945932006836 403.4662023925781,154.3645932006836 403.1262023925781,154.2845932006836 z" id="svg_124"/>
				</g>
				<g id="svg_125">
					<path class="st2" d="M399.04620239257815,153.32459320068358 c-0.3400000000000001,-0.08000000000000002 -0.6400000000000001,-0.30000000000000004 -0.8,-0.6400000000000001 c-0.30000000000000004,-0.6000000000000001 -0.05000000000000001,-1.32 0.54,-1.62 l4.88,-2.42 c0.6000000000000001,-0.29000000000000004 1.32,-0.05000000000000001 1.62,0.54 c0.30000000000000004,0.6000000000000001 0.05000000000000001,1.32 -0.54,1.62 l-4.88,2.42 C399.5962023925781,153.35459320068358 399.30620239257814,153.38459320068358 399.04620239257815,153.32459320068358 z" id="svg_126"/>
				</g>
			</g>
			<g id="svg_127">
				<g id="svg_128">
					<path class="st2" d="M384.41620239257816,149.8745932006836 c-0.26,-0.06000000000000001 -0.51,-0.21000000000000002 -0.6900000000000002,-0.45 l-3.29,-4.34 c-0.4,-0.53 -0.30000000000000004,-1.29 0.23,-1.6900000000000002 c0.53,-0.4 1.29,-0.30000000000000004 1.6900000000000002,0.23 l3.29,4.34 c0.4,0.53 0.30000000000000004,1.29 -0.23,1.6900000000000002 C385.1262023925781,149.88459320068358 384.7562023925781,149.9545932006836 384.41620239257816,149.8745932006836 z" id="svg_129"/>
				</g>
				<g id="svg_130">
					<path class="st2" d="M380.3362023925781,148.91459320068358 c-0.3400000000000001,-0.08000000000000002 -0.6400000000000001,-0.30000000000000004 -0.8,-0.6400000000000001 c-0.30000000000000004,-0.6000000000000001 -0.05000000000000001,-1.32 0.54,-1.62 l4.88,-2.42 c0.5900000000000001,-0.30000000000000004 1.32,-0.05000000000000001 1.62,0.54 c0.30000000000000004,0.6000000000000001 0.05000000000000001,1.32 -0.54,1.62 l-4.88,2.42 C380.88620239257807,148.9545932006836 380.5962023925781,148.9745932006836 380.3362023925781,148.91459320068358 z" id="svg_131"/>
				</g>
			</g>
			<g id="svg_132">
				<g id="svg_133">
					<path class="st2" d="M375.05620239257814,147.6745932006836 c-0.26,-0.06000000000000001 -0.51,-0.21000000000000002 -0.6900000000000002,-0.45 l-3.29,-4.34 c-0.4,-0.53 -0.30000000000000004,-1.29 0.23,-1.6900000000000002 c0.53,-0.4 1.29,-0.30000000000000004 1.6900000000000002,0.23 l3.29,4.34 c0.4,0.53 0.30000000000000004,1.29 -0.23,1.6900000000000002 C375.7662023925782,147.6845932006836 375.3962023925782,147.7545932006836 375.05620239257814,147.6745932006836 z" id="svg_134"/>
				</g>
				<g id="svg_135">
					<path class="st2" d="M370.9762023925781,146.7045932006836 c-0.3400000000000001,-0.08000000000000002 -0.6400000000000001,-0.30000000000000004 -0.8,-0.6400000000000001 c-0.30000000000000004,-0.6000000000000001 -0.05000000000000001,-1.32 0.54,-1.62 l4.88,-2.42 c0.6000000000000001,-0.30000000000000004 1.32,-0.05000000000000001 1.62,0.54 c0.30000000000000004,0.6000000000000001 0.05000000000000001,1.32 -0.54,1.62 l-4.88,2.42 C371.5262023925781,146.7445932006836 371.23620239257815,146.7745932006836 370.9762023925781,146.7045932006836 z" id="svg_136"/>
				</g>
			</g>
			<g id="svg_137">
				<g id="svg_138">
					<path class="st2" d="M365.69620239257813,145.4645932006836 c-0.26,-0.06000000000000001 -0.51,-0.21000000000000002 -0.6900000000000002,-0.45 l-3.29,-4.34 c-0.4,-0.53 -0.30000000000000004,-1.29 0.23,-1.6900000000000002 c0.53,-0.4 1.29,-0.30000000000000004 1.6900000000000002,0.23 l3.29,4.34 c0.4,0.53 0.30000000000000004,1.29 -0.23,1.6900000000000002 C366.4062023925781,145.4845932006836 366.0362023925781,145.5445932006836 365.69620239257813,145.4645932006836 z" id="svg_139"/>
				</g>
				<g id="svg_140">
					<path class="st2" d="M361.61620239257815,144.5045932006836 c-0.3400000000000001,-0.08000000000000002 -0.6400000000000001,-0.30000000000000004 -0.8,-0.6400000000000001 c-0.30000000000000004,-0.6000000000000001 -0.05000000000000001,-1.32 0.54,-1.62 l4.88,-2.42 c0.5900000000000001,-0.30000000000000004 1.32,-0.05000000000000001 1.62,0.54 s0.05000000000000001,1.32 -0.54,1.62 l-4.88,2.42 C362.1662023925781,144.5445932006836 361.8862023925781,144.5645932006836 361.61620239257815,144.5045932006836 z" id="svg_141"/>
				</g>
			</g>
			<g id="svg_142">
				<g id="svg_143">
					<path class="st2" d="M356.3462023925781,143.2645932006836 c-0.26,-0.06000000000000001 -0.51,-0.21000000000000002 -0.6900000000000002,-0.45 l-3.29,-4.34 c-0.4,-0.53 -0.30000000000000004,-1.29 0.23,-1.6900000000000002 c0.53,-0.4 1.29,-0.30000000000000004 1.6900000000000002,0.23 l3.29,4.34 c0.4,0.53 0.30000000000000004,1.29 -0.23,1.6900000000000002 C357.04620239257815,143.2745932006836 356.67620239257815,143.3445932006836 356.3462023925781,143.2645932006836 z" id="svg_144"/>
				</g>
				<g id="svg_145">
					<path class="st2" d="M352.25620239257813,142.3045932006836 c-0.3400000000000001,-0.08000000000000002 -0.6400000000000001,-0.30000000000000004 -0.8,-0.6400000000000001 c-0.30000000000000004,-0.6000000000000001 -0.05000000000000001,-1.32 0.54,-1.62 l4.88,-2.42 c0.6000000000000001,-0.30000000000000004 1.32,-0.05000000000000001 1.62,0.54 c0.30000000000000004,0.6000000000000001 0.05000000000000001,1.32 -0.54,1.62 l-4.88,2.42 C352.81620239257813,142.3345932006836 352.5262023925781,142.3645932006836 352.25620239257813,142.3045932006836 z" id="svg_146"/>
				</g>
			</g>
			<g id="svg_147">
				<g id="svg_148">
					<path class="st2" d="M346.98620239257815,141.0545932006836 c-0.26,-0.06000000000000001 -0.51,-0.21000000000000002 -0.6900000000000002,-0.45 l-3.2800000000000002,-4.34 c-0.4,-0.53 -0.30000000000000004,-1.29 0.23,-1.6900000000000002 c0.53,-0.4 1.29,-0.30000000000000004 1.6900000000000002,0.23 l3.2800000000000002,4.34 c0.4,0.53 0.30000000000000004,1.29 -0.23,1.6900000000000002 C347.69620239257813,141.07459320068358 347.3262023925781,141.13459320068358 346.98620239257815,141.0545932006836 z" id="svg_149"/>
				</g>
				<g id="svg_150">
					<path class="st2" d="M342.9062023925781,140.0945932006836 c-0.3400000000000001,-0.08000000000000002 -0.6400000000000001,-0.30000000000000004 -0.8,-0.6400000000000001 c-0.30000000000000004,-0.6000000000000001 -0.05000000000000001,-1.32 0.54,-1.62 l4.88,-2.42 c0.5900000000000001,-0.30000000000000004 1.32,-0.05000000000000001 1.62,0.54 c0.30000000000000004,0.6000000000000001 0.05000000000000001,1.32 -0.54,1.62 l-4.88,2.42 C343.4562023925781,140.13459320068358 343.1662023925781,140.16459320068358 342.9062023925781,140.0945932006836 z" id="svg_151"/>
				</g>
			</g>
			<g id="svg_152">
				<g id="svg_153">
					<path class="st2" d="M393.77620239257817,152.07459320068358 c-0.26,-0.06000000000000001 -0.51,-0.21000000000000002 -0.6900000000000002,-0.45 l-3.29,-4.34 c-0.4,-0.53 -0.30000000000000004,-1.29 0.23,-1.6900000000000002 c0.53,-0.4 1.29,-0.30000000000000004 1.6900000000000002,0.23 l3.29,4.34 c0.4,0.53 0.30000000000000004,1.29 -0.23,1.6900000000000002 C394.4762023925781,152.0945932006836 394.1062023925781,152.1545932006836 393.77620239257817,152.07459320068358 z" id="svg_154"/>
				</g>
				<g id="svg_155">
					<path class="st2" d="M389.68620239257814,151.1145932006836 c-0.3400000000000001,-0.08000000000000002 -0.6400000000000001,-0.30000000000000004 -0.8,-0.6400000000000001 c-0.30000000000000004,-0.6000000000000001 -0.05000000000000001,-1.32 0.54,-1.62 l4.88,-2.42 c0.6000000000000001,-0.29000000000000004 1.32,-0.05000000000000001 1.62,0.54 c0.30000000000000004,0.6000000000000001 0.05000000000000001,1.32 -0.54,1.62 l-4.88,2.42 C390.2462023925781,151.1545932006836 389.9562023925781,151.1745932006836 389.68620239257814,151.1145932006836 z" id="svg_156"/>
				</g>
			</g>
			<g id="svg_157">
				<g id="svg_158">
					<path class="st2" d="M328.2662023925781,136.6545932006836 c-0.26,-0.06000000000000001 -0.51,-0.21000000000000002 -0.6900000000000002,-0.45 l-3.2800000000000002,-4.34 c-0.4,-0.53 -0.30000000000000004,-1.29 0.23,-1.6900000000000002 c0.53,-0.4 1.29,-0.30000000000000004 1.6900000000000002,0.23 l3.2800000000000002,4.34 c0.4,0.53 0.30000000000000004,1.29 -0.23,1.6900000000000002 C328.9762023925781,136.66459320068358 328.6062023925781,136.7345932006836 328.2662023925781,136.6545932006836 z" id="svg_159"/>
				</g>
				<g id="svg_160">
					<path class="st2" d="M324.18620239257814,135.69459320068358 c-0.3400000000000001,-0.08000000000000002 -0.6400000000000001,-0.30000000000000004 -0.8,-0.6400000000000001 c-0.30000000000000004,-0.6000000000000001 -0.05000000000000001,-1.32 0.54,-1.62 l4.88,-2.42 c0.5900000000000001,-0.30000000000000004 1.32,-0.05000000000000001 1.62,0.54 c0.30000000000000004,0.6000000000000001 0.05000000000000001,1.32 -0.54,1.62 l-4.88,2.42 C324.73620239257815,135.7245932006836 324.4562023925781,135.7545932006836 324.18620239257814,135.69459320068358 z" id="svg_161"/>
				</g>
			</g>
			<g id="svg_162">
				<g id="svg_163">
					<path class="st2" d="M318.9162023925781,134.44459320068358 c-0.26,-0.06000000000000001 -0.51,-0.21000000000000002 -0.6900000000000002,-0.45 l-3.29,-4.34 c-0.4,-0.53 -0.30000000000000004,-1.29 0.23,-1.6900000000000002 c0.53,-0.4 1.29,-0.30000000000000004 1.6900000000000002,0.23 l3.29,4.34 c0.4,0.53 0.30000000000000004,1.29 -0.23,1.6900000000000002 C319.61620239257815,134.4645932006836 319.25620239257813,134.5245932006836 318.9162023925781,134.44459320068358 z" id="svg_164"/>
				</g>
				<g id="svg_165">
					<path class="st2" d="M314.8362023925781,133.4845932006836 c-0.3400000000000001,-0.08000000000000002 -0.6400000000000001,-0.30000000000000004 -0.8,-0.6400000000000001 c-0.30000000000000004,-0.6000000000000001 -0.05000000000000001,-1.32 0.54,-1.62 l4.88,-2.42 c0.5900000000000001,-0.30000000000000004 1.32,-0.05000000000000001 1.62,0.54 c0.30000000000000004,0.6000000000000001 0.05000000000000001,1.32 -0.54,1.62 l-4.88,2.42 C315.3862023925781,133.5245932006836 315.0962023925781,133.5445932006836 314.8362023925781,133.4845932006836 z" id="svg_166"/>
				</g>
			</g>
			<g id="svg_167">
				<g id="svg_168">
					<path class="st2" d="M300.19620239257813,130.0345932006836 c-0.26,-0.06000000000000001 -0.51,-0.21000000000000002 -0.6900000000000002,-0.45 l-3.29,-4.34 c-0.4,-0.53 -0.30000000000000004,-1.29 0.23,-1.6900000000000002 c0.53,-0.4 1.29,-0.30000000000000004 1.6900000000000002,0.23 l3.29,4.34 c0.4,0.53 0.30000000000000004,1.29 -0.23,1.6900000000000002 C300.9062023925781,130.0545932006836 300.5362023925781,130.1145932006836 300.19620239257813,130.0345932006836 z" id="svg_169"/>
				</g>
				<g id="svg_170">
					<path class="st2" d="M296.11620239257815,129.07459320068358 c-0.3400000000000001,-0.08000000000000002 -0.6400000000000001,-0.30000000000000004 -0.8,-0.6400000000000001 c-0.30000000000000004,-0.6000000000000001 -0.05000000000000001,-1.32 0.54,-1.62 l4.88,-2.42 c0.5900000000000001,-0.30000000000000004 1.32,-0.05000000000000001 1.62,0.54 s0.05000000000000001,1.32 -0.54,1.62 l-4.88,2.42 C296.6662023925781,129.1145932006836 296.37620239257814,129.1445932006836 296.11620239257815,129.07459320068358 z" id="svg_171"/>
				</g>
			</g>
			<g id="svg_172">
				<g id="svg_173">
					<path class="st2" d="M290.8462023925781,127.8345932006836 c-0.26,-0.06000000000000001 -0.51,-0.21000000000000002 -0.6900000000000002,-0.45 l-3.29,-4.34 c-0.4,-0.53 -0.30000000000000004,-1.29 0.23,-1.6900000000000002 c0.53,-0.4 1.29,-0.30000000000000004 1.6900000000000002,0.23 l3.29,4.34 c0.4,0.53 0.30000000000000004,1.29 -0.23,1.6900000000000002 C291.54620239257815,127.84459320068359 291.17620239257815,127.91459320068358 290.8462023925781,127.8345932006836 z" id="svg_174"/>
				</g>
				<g id="svg_175">
					<path class="st2" d="M286.75620239257813,126.87459320068359 c-0.3400000000000001,-0.08000000000000002 -0.6400000000000001,-0.30000000000000004 -0.8,-0.6400000000000001 c-0.30000000000000004,-0.6000000000000001 -0.05000000000000001,-1.32 0.54,-1.62 l4.88,-2.42 c0.6000000000000001,-0.30000000000000004 1.32,-0.05000000000000001 1.62,0.54 c0.30000000000000004,0.6000000000000001 0.05000000000000001,1.32 -0.54,1.62 l-4.88,2.42 C287.30620239257814,126.91459320068358 287.0262023925781,126.9345932006836 286.75620239257813,126.87459320068359 z" id="svg_176"/>
				</g>
			</g>
			<g id="svg_177">
				<g id="svg_178">
					<path class="st2" d="M309.55620239257814,132.2445932006836 c-0.26,-0.06000000000000001 -0.51,-0.21000000000000002 -0.6900000000000002,-0.45 l-3.29,-4.34 c-0.4,-0.53 -0.30000000000000004,-1.29 0.23,-1.6900000000000002 c0.53,-0.4 1.29,-0.30000000000000004 1.6900000000000002,0.23 l3.29,4.34 c0.4,0.53 0.30000000000000004,1.29 -0.23,1.6900000000000002 C310.2662023925781,132.2545932006836 309.8962023925781,132.32459320068358 309.55620239257814,132.2445932006836 z" id="svg_179"/>
				</g>
				<g id="svg_180">
					<path class="st2" d="M305.4762023925781,131.2845932006836 c-0.3400000000000001,-0.08000000000000002 -0.6400000000000001,-0.30000000000000004 -0.8,-0.6400000000000001 c-0.30000000000000004,-0.6000000000000001 -0.05000000000000001,-1.32 0.54,-1.62 l4.88,-2.42 c0.6000000000000001,-0.30000000000000004 1.32,-0.05000000000000001 1.62,0.54 c0.30000000000000004,0.6000000000000001 0.05000000000000001,1.32 -0.54,1.62 l-4.88,2.42 C306.0262023925781,131.3145932006836 305.73620239257815,131.3445932006836 305.4762023925781,131.2845932006836 z" id="svg_181"/>
				</g>
			</g>
			<g id="svg_182">
				<g id="svg_183">
					<path class="st2" d="M337.62620239257814,138.85459320068358 c-0.26,-0.06000000000000001 -0.51,-0.21000000000000002 -0.6900000000000002,-0.45 l-3.2800000000000002,-4.34 c-0.4,-0.53 -0.30000000000000004,-1.29 0.23,-1.6900000000000002 c0.53,-0.4 1.29,-0.30000000000000004 1.6900000000000002,0.23 l3.2800000000000002,4.34 c0.4,0.53 0.30000000000000004,1.29 -0.23,1.6900000000000002 C338.3362023925781,138.8645932006836 337.9662023925781,138.9345932006836 337.62620239257814,138.85459320068358 z" id="svg_184"/>
				</g>
				<g id="svg_185">
					<path class="st2" d="M333.54620239257815,137.8945932006836 c-0.3400000000000001,-0.08000000000000002 -0.6400000000000001,-0.30000000000000004 -0.8,-0.6400000000000001 c-0.30000000000000004,-0.6000000000000001 -0.05000000000000001,-1.32 0.54,-1.62 l4.88,-2.42 c0.6000000000000001,-0.30000000000000004 1.32,-0.05000000000000001 1.62,0.54 c0.30000000000000004,0.6000000000000001 0.05000000000000001,1.32 -0.54,1.62 l-4.88,2.42 C334.0962023925781,137.9345932006836 333.80620239257814,137.9545932006836 333.54620239257815,137.8945932006836 z" id="svg_186"/>
				</g>
			</g>
		</g>
		<g id="svg_187">
			<path class="st3" d="M330.5762023925781,75.40459320068359 l3.21,-13.65 l2.46,0.5800000000000001 l-3.21,13.65 L330.5762023925781,75.40459320068359 z" id="svg_188"/>
			<path class="st3" d="M335.98620239257815,76.6845932006836 l3.21,-13.65 l1.7400000000000002,0.41000000000000003 l1.49,8.56 l1.83,-7.78 l2.06,0.48000000000000004 l-3.21,13.65 l-1.6500000000000001,-0.39000000000000007 l-1.42,-8.94 l-1.92,8.15 L335.98620239257815,76.6845932006836 z" id="svg_189"/>
			<path class="st3" d="M348.0962023925781,79.53459320068359 l0.47000000000000003,-14.29 l2.21,0.52 l-0.47000000000000003,10.08 l3.96,-9.26 l2.26,0.53 l-5.96,13 L348.0962023925781,79.53459320068359 z" id="svg_190"/>
			<path class="st3" d="M359.05620239257814,82.3045932006836 c-0.97,-0.23 -1.6900000000000002,-0.5900000000000001 -2.18,-1.08 c-0.49000000000000005,-0.49000000000000005 -0.78,-1.11 -0.8600000000000001,-1.84 c-0.09000000000000002,-0.7300000000000001 -0.020000000000000004,-1.56 0.19000000000000003,-2.48 l1.2,-5.1 c0.22000000000000003,-0.92 0.53,-1.6800000000000002 0.93,-2.2800000000000002 c0.4,-0.6000000000000001 0.93,-1.01 1.58,-1.22 c0.6500000000000001,-0.21000000000000002 1.46,-0.21000000000000002 2.43,0.020000000000000004 c0.99,0.23 1.7200000000000002,0.5900000000000001 2.21,1.07 c0.49000000000000005,0.48000000000000004 0.78,1.08 0.8700000000000001,1.8 c0.1,0.7200000000000001 0.04000000000000001,1.53 -0.18000000000000002,2.46 l-1.21,5.12 c-0.21000000000000002,0.91 -0.53,1.6700000000000002 -0.9400000000000001,2.2800000000000002 c-0.41000000000000003,0.6100000000000001 -0.9400000000000001,1.03 -1.59,1.26 C360.8562023925781,82.5445932006836 360.0362023925781,82.5445932006836 359.05620239257814,82.3045932006836 zM359.48620239257815,80.4745932006836 c0.42000000000000004,0.1 0.7400000000000001,0.08000000000000002 0.98,-0.05000000000000001 c0.24000000000000002,-0.13 0.43000000000000005,-0.35000000000000003 0.5700000000000001,-0.6500000000000001 c0.14,-0.30000000000000004 0.26,-0.6300000000000001 0.3400000000000001,-1 l1.48,-6.28 c0.09000000000000002,-0.38000000000000006 0.14,-0.7300000000000001 0.14,-1.05 c0,-0.32000000000000006 -0.07,-0.5900000000000001 -0.23,-0.81 c-0.16000000000000003,-0.22000000000000003 -0.44000000000000006,-0.38000000000000006 -0.8600000000000001,-0.48000000000000004 c-0.39000000000000007,-0.09000000000000002 -0.7100000000000001,-0.08000000000000002 -0.9500000000000001,0.05000000000000001 c-0.24000000000000002,0.13 -0.43000000000000005,0.33000000000000007 -0.5700000000000001,0.6200000000000001 c-0.14,0.29000000000000004 -0.25,0.6200000000000001 -0.3400000000000001,1 l-1.48,6.28 c-0.09000000000000002,0.37000000000000005 -0.14,0.7200000000000001 -0.15000000000000002,1.05 c-0.010000000000000002,0.33000000000000007 0.06000000000000001,0.6100000000000001 0.22000000000000003,0.8300000000000001 C358.79620239257815,80.2145932006836 359.0762023925781,80.37459320068359 359.48620239257815,80.4745932006836 z" id="svg_191"/>
			<path class="st3" d="M365.7862023925781,83.6945932006836 l3.21,-13.65 l2.46,0.5800000000000001 l-3.21,13.65 L365.7862023925781,83.6945932006836 z" id="svg_192"/>
			<path class="st3" d="M374.81620239257813,86.0245932006836 c-1,-0.24000000000000002 -1.7400000000000002,-0.6200000000000001 -2.21,-1.1400000000000001 c-0.47000000000000003,-0.53 -0.7400000000000001,-1.1600000000000001 -0.81,-1.8900000000000001 c-0.07,-0.7300000000000001 0.010000000000000002,-1.54 0.22000000000000003,-2.43 l1.15,-4.87 c0.22000000000000003,-0.93 0.52,-1.71 0.91,-2.35 c0.39000000000000007,-0.6300000000000001 0.91,-1.07 1.56,-1.3 c0.6500000000000001,-0.24000000000000002 1.48,-0.24000000000000002 2.48,0 c0.9400000000000001,0.22000000000000003 1.6400000000000001,0.56 2.1,1 c0.46,0.45 0.7300000000000001,0.99 0.81,1.6400000000000001 c0.08000000000000002,0.6500000000000001 0.030000000000000006,1.37 -0.15000000000000002,2.15 l-0.27,1.15 l-2.39,-0.56 l0.28,-1.18 c0.09000000000000002,-0.38000000000000006 0.15000000000000002,-0.7300000000000001 0.19000000000000003,-1.06 c0.030000000000000006,-0.32000000000000006 -0.010000000000000002,-0.6000000000000001 -0.14,-0.8300000000000001 c-0.13,-0.23 -0.41000000000000003,-0.39000000000000007 -0.8400000000000001,-0.49000000000000005 s-0.7600000000000001,-0.08000000000000002 -1.01,0.07 c-0.24000000000000002,0.15000000000000002 -0.43000000000000005,0.38000000000000006 -0.56,0.7000000000000001 c-0.13,0.32000000000000006 -0.25,0.6900000000000002 -0.35000000000000003,1.1 l-1.4,5.93 c-0.12000000000000001,0.49000000000000005 -0.17,0.91 -0.17,1.25 c0,0.3400000000000001 0.09000000000000002,0.6100000000000001 0.26,0.8300000000000001 c0.17,0.21000000000000002 0.43000000000000005,0.36000000000000004 0.79,0.44000000000000006 c0.42000000000000004,0.1 0.7300000000000001,0.07 0.9500000000000001,-0.09000000000000002 c0.22000000000000003,-0.16000000000000003 0.39000000000000007,-0.39000000000000007 0.51,-0.7100000000000001 c0.12000000000000001,-0.32000000000000006 0.23,-0.6700000000000002 0.33000000000000007,-1.08 l0.29000000000000004,-1.23 l2.39,0.56 l-0.26,1.1 c-0.19000000000000003,0.81 -0.46,1.5 -0.8300000000000001,2.07 c-0.36000000000000004,0.5700000000000001 -0.8500000000000001,0.97 -1.46,1.2 C376.5762023925781,86.25459320068359 375.78620239257816,86.25459320068359 374.81620239257813,86.0245932006836 z" id="svg_193"/>
			<path class="st3" d="M381.1262023925781,87.31459320068359 l3.21,-13.65 l5.73,1.35 l-0.41000000000000003,1.75 l-3.23,-0.7600000000000001 l-0.92,3.93 l2.54,0.6000000000000001 l-0.41000000000000003,1.7400000000000002 l-2.54,-0.6000000000000001 l-1.06,4.51 l3.27,0.77 l-0.4,1.7200000000000002 L381.1262023925781,87.31459320068359 z" id="svg_194"/>
		</g>
		<g id="svg_195">
			<path class="st7" d="M302.25620239257813,46.5545932006836 c1.06,-3.87 -1.23,-7.87 -5.1,-8.93 l-23.31,-6.37 c-3.87,-1.06 -7.87,1.22 -8.93,5.09 l-6.15,22.49 c-1.06,3.87 1.23,7.87 5.1,8.93 l23.31,6.37 c3.87,1.06 7.87,-1.23 8.93,-5.09 L302.25620239257813,46.5545932006836 z" id="svg_196"/>
			<path class="st7" d="M260.6362023925781,52.0245932006836 l18.65,5.1 l-3.7800000000000002,13.83 l-18.65,-5.1 L260.6362023925781,52.0245932006836 z" id="svg_197"/>
			<g id="svg_198">
				<path class="st8" d="M277.19620239257813,58.14459320068359 l-3.01,-0.8300000000000001 l0.98,-3.6 c0.21000000000000002,-0.77 0.6200000000000001,-1.09 1.3,-1 l2.05,0.56 c1.46,0.4 2.16,1.58 1.75,3.07 C279.8562023925781,57.89459320068359 278.68620239257814,58.5545932006836 277.19620239257813,58.14459320068359 L277.19620239257813,58.14459320068359 zM276.8362023925781,47.62459320068359 l0.26,-0.9500000000000001 c0.23,-0.8300000000000001 0.6800000000000002,-1.13 1.47,-0.97 l1.54,0.42000000000000004 c1.32,0.36000000000000004 1.8900000000000001,1.37 1.53,2.6900000000000004 c-0.28,1.01 -1.1400000000000001,2.03 -2.66,1.62 l-2.71,-0.7400000000000001 L276.8362023925781,47.62459320068359 zM282.7062023925781,53.0845932006836 l-0.46,-0.45 l0.5900000000000001,-0.28 c0.6800000000000002,-0.32000000000000006 1.9,-1.1400000000000001 2.4,-2.98 c0.77,-2.8200000000000003 -0.92,-5.24 -4.3100000000000005,-6.17 l-3.8600000000000003,-1.06 l0,0 l-0.44000000000000006,-0.12000000000000001 c-1.01,-0.24000000000000002 -2.04,0.36000000000000004 -2.33,1.37 l-4.38,16.01 l6.2,1.7000000000000002 c3.7600000000000002,1.03 6.75,-0.36000000000000004 7.62,-3.5300000000000002 C284.2062023925781,55.8645932006836 283.81620239257813,54.1945932006836 282.7062023925781,53.0845932006836 " id="svg_199"/>
				<path class="st9" d="M284.5262023925781,61.0245932006836 c0.33000000000000007,-1.22 1.59,-1.94 2.81,-1.61 c1.22,0.33000000000000007 1.94,1.59 1.6,2.8200000000000003 c-0.33000000000000007,1.22 -1.6,1.94 -2.81,1.61 C284.9162023925781,63.50459320068359 284.19620239257813,62.244593200683596 284.5262023925781,61.0245932006836 " id="svg_200"/>
			</g>
		</g>
	</g>
	<g id="svg_201">
		<linearGradient id="SVGID_1_" gradientUnits="userSpaceOnUse" x1="243.54930114746094" y1="284.3555908203125" x2="500.10430908203125" y2="284.3555908203125" transform="translate(-137.92379760742188,-33.815406799316406) ">
			<stop offset="0" style="stop-color:#FFFFFF"/>
			<stop offset="1" style="stop-color:#F4F6F9"/>
		</linearGradient>
		<rect x="105.62620544433594" y="74.13459014892578" class="st10" width="256.54998779296875" height="352.79998779296875" id="svg_202"/>
		<rect x="140.00619506835938" y="210.91458892822266" class="st1" width="79.4000015258789" height="6.940000057220459" id="svg_203"/>
		<rect x="140.00619506835938" y="233.58458709716797" class="st1" width="53.349998474121094" height="6.940000057220459" id="svg_204"/>
		<rect x="140.00619506835938" y="256.25460052490234" class="st1" width="70.91999816894531" height="6.940000057220459" id="svg_205"/>
		<rect x="140.00619506835938" y="278.9146041870117" class="st1" width="91.1500015258789" height="6.940000057220459" id="svg_206"/>
		<rect x="140.00619506835938" y="301.58458709716797" class="st1" width="144.5800018310547" height="6.940000057220459" id="svg_207"/>
		<rect x="140.00619506835938" y="333.4045944213867" class="st2" width="200.16000366210938" height="0.44999998807907104" id="svg_208"/>
		<rect x="140.00619506835938" y="355.48458099365234" class="st3" width="144.5800018310547" height="13.430000305175781" id="svg_209"/>
		<rect x="312.2662048339844" y="210.91458892822266" class="st3" width="27.90999984741211" height="6.940000057220459" id="svg_210"/>
		<rect x="234.28619384765625" y="147.67459869384766" class="st1" width="27.90999984741211" height="3.9700000286102295" id="svg_211"/>
		<rect x="192.84619140625" y="159.39459991455078" class="st1" width="110.77999877929688" height="3.9700000286102295" id="svg_212"/>
		<rect x="320.16619873046875" y="233.58458709716797" class="st3" width="20.010000228881836" height="6.940000057220459" id="svg_213"/>
		<rect x="312.2662048339844" y="256.25460052490234" class="st3" width="27.90999984741211" height="6.940000057220459" id="svg_214"/>
		<rect x="312.2662048339844" y="278.9146041870117" class="st3" width="27.90999984741211" height="6.940000057220459" id="svg_215"/>
		<rect x="320.16619873046875" y="301.58458709716797" class="st1" width="20.010000228881836" height="6.940000057220459" id="svg_216"/>
		<rect x="320.16619873046875" y="355.48458099365234" class="st3" width="20.010000228881836" height="13.430000305175781" id="svg_217"/>
		<g id="svg_218">
			<g id="svg_219">
				<g id="svg_220">
					<path class="st2" d="M182.33620239257812,185.1445932006836 c-0.27,0 -0.55,-0.09000000000000002 -0.77,-0.28 l-4.19,-3.47 c-0.51,-0.42000000000000004 -0.5800000000000001,-1.19 -0.16000000000000003,-1.7000000000000002 s1.19,-0.5800000000000001 1.7000000000000002,-0.16000000000000003 l4.19,3.47 c0.51,0.42000000000000004 0.5800000000000001,1.19 0.16000000000000003,1.7000000000000002 C183.0262023925781,185.0045932006836 182.68620239257814,185.1445932006836 182.33620239257812,185.1445932006836 z" id="svg_221"/>
				</g>
				<g id="svg_222">
					<path class="st2" d="M178.14620239257812,185.1445932006836 c-0.35000000000000003,0 -0.6900000000000002,-0.15000000000000002 -0.93,-0.44000000000000006 c-0.43000000000000005,-0.51 -0.35000000000000003,-1.27 0.16000000000000003,-1.7000000000000002 l4.19,-3.47 c0.51,-0.42000000000000004 1.28,-0.35000000000000003 1.7000000000000002,0.16000000000000003 c0.43000000000000005,0.51 0.35000000000000003,1.27 -0.16000000000000003,1.7000000000000002 l-4.19,3.47 C178.69620239257813,185.0545932006836 178.4162023925781,185.1445932006836 178.14620239257812,185.1445932006836 z" id="svg_223"/>
				</g>
			</g>
			<g id="svg_224">
				<g id="svg_225">
					<path class="st2" d="M307.31620239257813,185.1445932006836 c-0.27,0 -0.55,-0.09000000000000002 -0.77,-0.28 l-4.19,-3.47 c-0.51,-0.42000000000000004 -0.5800000000000001,-1.19 -0.16000000000000003,-1.7000000000000002 c0.43000000000000005,-0.51 1.19,-0.5800000000000001 1.7000000000000002,-0.16000000000000003 l4.19,3.47 c0.51,0.42000000000000004 0.5800000000000001,1.19 0.16000000000000003,1.7000000000000002 C308.00620239257813,185.0045932006836 307.6562023925781,185.1445932006836 307.31620239257813,185.1445932006836 z" id="svg_226"/>
				</g>
				<g id="svg_227">
					<path class="st2" d="M303.11620239257815,185.1445932006836 c-0.35000000000000003,0 -0.6900000000000002,-0.15000000000000002 -0.93,-0.44000000000000006 c-0.42000000000000004,-0.51 -0.35000000000000003,-1.27 0.16000000000000003,-1.7000000000000002 l4.19,-3.47 c0.51,-0.42000000000000004 1.27,-0.36000000000000004 1.7000000000000002,0.16000000000000003 c0.42000000000000004,0.51 0.35000000000000003,1.27 -0.16000000000000003,1.7000000000000002 l-4.19,3.47 C303.6662023925781,185.0545932006836 303.3962023925781,185.1445932006836 303.11620239257815,185.1445932006836 z" id="svg_228"/>
				</g>
			</g>
			<g id="svg_229">
				<g id="svg_230">
					<path class="st2" d="M288.0862023925781,185.1445932006836 c-0.27,0 -0.55,-0.09000000000000002 -0.77,-0.28 l-4.19,-3.47 c-0.51,-0.42000000000000004 -0.5800000000000001,-1.19 -0.16000000000000003,-1.7000000000000002 c0.42000000000000004,-0.51 1.19,-0.5800000000000001 1.7000000000000002,-0.16000000000000003 l4.19,3.47 c0.51,0.42000000000000004 0.5800000000000001,1.19 0.16000000000000003,1.7000000000000002 C288.7762023925781,185.0045932006836 288.43620239257814,185.1445932006836 288.0862023925781,185.1445932006836 z" id="svg_231"/>
				</g>
				<g id="svg_232">
					<path class="st2" d="M283.8962023925781,185.1445932006836 c-0.35000000000000003,0 -0.6900000000000002,-0.15000000000000002 -0.93,-0.44000000000000006 c-0.43000000000000005,-0.51 -0.35000000000000003,-1.27 0.16000000000000003,-1.7000000000000002 l4.19,-3.47 c0.51,-0.42000000000000004 1.28,-0.35000000000000003 1.7000000000000002,0.16000000000000003 c0.43000000000000005,0.51 0.35000000000000003,1.27 -0.16000000000000003,1.7000000000000002 l-4.19,3.47 C284.43620239257814,185.0545932006836 284.1662023925781,185.1445932006836 283.8962023925781,185.1445932006836 z" id="svg_233"/>
				</g>
			</g>
			<g id="svg_234">
				<g id="svg_235">
					<path class="st2" d="M278.4762023925781,185.1445932006836 c-0.27,0 -0.55,-0.09000000000000002 -0.77,-0.28 l-4.19,-3.47 c-0.51,-0.42000000000000004 -0.5800000000000001,-1.19 -0.16000000000000003,-1.7000000000000002 c0.43000000000000005,-0.51 1.19,-0.5800000000000001 1.7000000000000002,-0.16000000000000003 l4.19,3.47 c0.51,0.42000000000000004 0.5800000000000001,1.19 0.16000000000000003,1.7000000000000002 C279.1662023925781,185.0045932006836 278.8262023925781,185.1445932006836 278.4762023925781,185.1445932006836 z" id="svg_236"/>
				</g>
				<g id="svg_237">
					<path class="st2" d="M274.2762023925781,185.1445932006836 c-0.35000000000000003,0 -0.6900000000000002,-0.15000000000000002 -0.93,-0.44000000000000006 c-0.43000000000000005,-0.51 -0.35000000000000003,-1.27 0.16000000000000003,-1.7000000000000002 l4.19,-3.47 c0.51,-0.42000000000000004 1.27,-0.35000000000000003 1.7000000000000002,0.16000000000000003 c0.43000000000000005,0.51 0.35000000000000003,1.27 -0.16000000000000003,1.7000000000000002 l-4.19,3.47 C274.8262023925781,185.0545932006836 274.55620239257814,185.1445932006836 274.2762023925781,185.1445932006836 z" id="svg_238"/>
				</g>
			</g>
			<g id="svg_239">
				<g id="svg_240">
					<path class="st2" d="M268.86620239257815,185.1445932006836 c-0.27,0 -0.55,-0.09000000000000002 -0.77,-0.28 l-4.19,-3.47 c-0.51,-0.42000000000000004 -0.5800000000000001,-1.19 -0.16000000000000003,-1.7000000000000002 c0.42000000000000004,-0.51 1.18,-0.5800000000000001 1.7000000000000002,-0.16000000000000003 l4.19,3.47 c0.51,0.42000000000000004 0.5800000000000001,1.19 0.16000000000000003,1.7000000000000002 C269.55620239257814,185.0045932006836 269.2062023925781,185.1445932006836 268.86620239257815,185.1445932006836 z" id="svg_241"/>
				</g>
				<g id="svg_242">
					<path class="st2" d="M264.6662023925781,185.1445932006836 c-0.35000000000000003,0 -0.6900000000000002,-0.15000000000000002 -0.93,-0.44000000000000006 c-0.43000000000000005,-0.51 -0.35000000000000003,-1.27 0.16000000000000003,-1.7000000000000002 l4.19,-3.47 c0.51,-0.42000000000000004 1.27,-0.35000000000000003 1.7000000000000002,0.16000000000000003 c0.43000000000000005,0.51 0.35000000000000003,1.27 -0.16000000000000003,1.7000000000000002 l-4.19,3.47 C265.2162023925781,185.0545932006836 264.93620239257814,185.1445932006836 264.6662023925781,185.1445932006836 z" id="svg_243"/>
				</g>
			</g>
			<g id="svg_244">
				<g id="svg_245">
					<path class="st2" d="M259.24620239257814,185.1445932006836 c-0.27,0 -0.55,-0.09000000000000002 -0.77,-0.28 l-4.19,-3.47 c-0.51,-0.42000000000000004 -0.5800000000000001,-1.19 -0.16000000000000003,-1.7000000000000002 c0.42000000000000004,-0.51 1.19,-0.5800000000000001 1.7000000000000002,-0.16000000000000003 l4.19,3.47 c0.51,0.42000000000000004 0.5800000000000001,1.19 0.16000000000000003,1.7000000000000002 C259.93620239257814,185.0045932006836 259.5962023925781,185.1445932006836 259.24620239257814,185.1445932006836 z" id="svg_246"/>
				</g>
				<g id="svg_247">
					<path class="st2" d="M255.05620239257814,185.1445932006836 c-0.35000000000000003,0 -0.6900000000000002,-0.15000000000000002 -0.93,-0.44000000000000006 c-0.43000000000000005,-0.51 -0.35000000000000003,-1.27 0.16000000000000003,-1.7000000000000002 l4.19,-3.47 c0.51,-0.42000000000000004 1.27,-0.35000000000000003 1.7000000000000002,0.16000000000000003 c0.43000000000000005,0.51 0.35000000000000003,1.27 -0.16000000000000003,1.7000000000000002 l-4.19,3.47 C255.5962023925781,185.0545932006836 255.32620239257812,185.1445932006836 255.05620239257814,185.1445932006836 z" id="svg_248"/>
				</g>
			</g>
			<g id="svg_249">
				<g id="svg_250">
					<path class="st2" d="M249.63620239257813,185.1445932006836 c-0.27,0 -0.55,-0.09000000000000002 -0.77,-0.28 l-4.19,-3.47 c-0.51,-0.42000000000000004 -0.5800000000000001,-1.19 -0.16000000000000003,-1.7000000000000002 s1.19,-0.5800000000000001 1.7000000000000002,-0.16000000000000003 l4.19,3.47 c0.51,0.42000000000000004 0.5800000000000001,1.19 0.16000000000000003,1.7000000000000002 C250.32620239257812,185.0045932006836 249.9762023925781,185.1445932006836 249.63620239257813,185.1445932006836 z" id="svg_251"/>
				</g>
				<g id="svg_252">
					<path class="st2" d="M245.44620239257813,185.1445932006836 c-0.35000000000000003,0 -0.6900000000000002,-0.15000000000000002 -0.93,-0.44000000000000006 c-0.43000000000000005,-0.51 -0.35000000000000003,-1.27 0.16000000000000003,-1.7000000000000002 l4.19,-3.47 c0.51,-0.42000000000000004 1.28,-0.35000000000000003 1.7000000000000002,0.16000000000000003 c0.43000000000000005,0.51 0.35000000000000003,1.27 -0.16000000000000003,1.7000000000000002 l-4.19,3.47 C245.98620239257815,185.0545932006836 245.7162023925781,185.1445932006836 245.44620239257813,185.1445932006836 z" id="svg_253"/>
				</g>
			</g>
			<g id="svg_254">
				<g id="svg_255">
					<path class="st2" d="M297.7062023925781,185.1445932006836 c-0.27,0 -0.55,-0.09000000000000002 -0.77,-0.28 l-4.19,-3.47 c-0.51,-0.42000000000000004 -0.5800000000000001,-1.19 -0.16000000000000003,-1.7000000000000002 c0.42000000000000004,-0.51 1.19,-0.5800000000000001 1.7000000000000002,-0.16000000000000003 l4.19,3.47 c0.51,0.42000000000000004 0.5800000000000001,1.19 0.16000000000000003,1.7000000000000002 C298.3962023925781,185.0045932006836 298.04620239257815,185.1445932006836 297.7062023925781,185.1445932006836 z" id="svg_256"/>
				</g>
				<g id="svg_257">
					<path class="st2" d="M293.50620239257813,185.1445932006836 c-0.35000000000000003,0 -0.6900000000000002,-0.15000000000000002 -0.93,-0.44000000000000006 c-0.43000000000000005,-0.51 -0.35000000000000003,-1.27 0.16000000000000003,-1.7000000000000002 l4.19,-3.47 c0.51,-0.42000000000000004 1.27,-0.36000000000000004 1.7000000000000002,0.16000000000000003 c0.42000000000000004,0.51 0.35000000000000003,1.27 -0.16000000000000003,1.7000000000000002 l-4.19,3.47 C294.05620239257814,185.0545932006836 293.7762023925781,185.1445932006836 293.50620239257813,185.1445932006836 z" id="svg_258"/>
				</g>
			</g>
			<g id="svg_259">
				<g id="svg_260">
					<path class="st2" d="M230.4062023925781,185.1445932006836 c-0.27,0 -0.55,-0.09000000000000002 -0.77,-0.28 l-4.19,-3.47 c-0.51,-0.42000000000000004 -0.5800000000000001,-1.19 -0.16000000000000003,-1.7000000000000002 c0.42000000000000004,-0.51 1.19,-0.5800000000000001 1.7000000000000002,-0.16000000000000003 l4.19,3.47 c0.51,0.42000000000000004 0.5800000000000001,1.19 0.16000000000000003,1.7000000000000002 C231.0962023925781,185.0045932006836 230.75620239257813,185.1445932006836 230.4062023925781,185.1445932006836 z" id="svg_261"/>
				</g>
				<g id="svg_262">
					<path class="st2" d="M226.2162023925781,185.1445932006836 c-0.35000000000000003,0 -0.6900000000000002,-0.15000000000000002 -0.93,-0.44000000000000006 c-0.43000000000000005,-0.51 -0.35000000000000003,-1.27 0.16000000000000003,-1.7000000000000002 l4.19,-3.47 c0.51,-0.42000000000000004 1.27,-0.35000000000000003 1.7000000000000002,0.16000000000000003 s0.35000000000000003,1.27 -0.16000000000000003,1.7000000000000002 l-4.19,3.47 C226.75620239257813,185.0545932006836 226.48620239257815,185.1445932006836 226.2162023925781,185.1445932006836 z" id="svg_263"/>
				</g>
			</g>
			<g id="svg_264">
				<g id="svg_265">
					<path class="st2" d="M220.79620239257815,185.1445932006836 c-0.27,0 -0.55,-0.09000000000000002 -0.77,-0.28 l-4.19,-3.47 c-0.51,-0.42000000000000004 -0.5800000000000001,-1.19 -0.16000000000000003,-1.7000000000000002 c0.42000000000000004,-0.51 1.19,-0.5800000000000001 1.7000000000000002,-0.16000000000000003 l4.19,3.47 c0.51,0.42000000000000004 0.5800000000000001,1.19 0.16000000000000003,1.7000000000000002 C221.48620239257815,185.0045932006836 221.13620239257813,185.1445932006836 220.79620239257815,185.1445932006836 z" id="svg_266"/>
				</g>
				<g id="svg_267">
					<path class="st2" d="M216.5962023925781,185.1445932006836 c-0.35000000000000003,0 -0.6900000000000002,-0.15000000000000002 -0.93,-0.44000000000000006 c-0.43000000000000005,-0.51 -0.35000000000000003,-1.27 0.16000000000000003,-1.7000000000000002 l4.19,-3.47 c0.51,-0.42000000000000004 1.28,-0.35000000000000003 1.7000000000000002,0.16000000000000003 c0.43000000000000005,0.51 0.35000000000000003,1.27 -0.16000000000000003,1.7000000000000002 l-4.19,3.47 C217.14620239257812,185.0545932006836 216.87620239257814,185.1445932006836 216.5962023925781,185.1445932006836 z" id="svg_268"/>
				</g>
			</g>
			<g id="svg_269">
				<g id="svg_270">
					<path class="st2" d="M201.56620239257813,185.1445932006836 c-0.27,0 -0.55,-0.09000000000000002 -0.77,-0.28 l-4.19,-3.47 c-0.51,-0.42000000000000004 -0.5800000000000001,-1.19 -0.16000000000000003,-1.7000000000000002 c0.42000000000000004,-0.51 1.19,-0.5800000000000001 1.7000000000000002,-0.16000000000000003 l4.19,3.47 c0.51,0.42000000000000004 0.5800000000000001,1.19 0.16000000000000003,1.7000000000000002 C202.25620239257813,185.0045932006836 201.9162023925781,185.1445932006836 201.56620239257813,185.1445932006836 z" id="svg_271"/>
				</g>
				<g id="svg_272">
					<path class="st2" d="M197.37620239257814,185.1445932006836 c-0.35000000000000003,0 -0.6900000000000002,-0.15000000000000002 -0.93,-0.44000000000000006 c-0.43000000000000005,-0.51 -0.35000000000000003,-1.27 0.16000000000000003,-1.7000000000000002 l4.19,-3.47 c0.51,-0.42000000000000004 1.27,-0.35000000000000003 1.7000000000000002,0.16000000000000003 s0.35000000000000003,1.27 -0.16000000000000003,1.7000000000000002 l-4.19,3.47 C197.9162023925781,185.0545932006836 197.64620239257812,185.1445932006836 197.37620239257814,185.1445932006836 z" id="svg_273"/>
				</g>
			</g>
			<g id="svg_274">
				<g id="svg_275">
					<path class="st2" d="M191.95620239257812,185.1445932006836 c-0.27,0 -0.55,-0.09000000000000002 -0.77,-0.28 l-4.19,-3.47 c-0.51,-0.42000000000000004 -0.5800000000000001,-1.19 -0.16000000000000003,-1.7000000000000002 c0.42000000000000004,-0.51 1.19,-0.5800000000000001 1.7000000000000002,-0.16000000000000003 l4.19,3.47 c0.51,0.42000000000000004 0.5800000000000001,1.19 0.16000000000000003,1.7000000000000002 C192.64620239257812,185.0045932006836 192.29620239257815,185.1445932006836 191.95620239257812,185.1445932006836 z" id="svg_276"/>
				</g>
				<g id="svg_277">
					<path class="st2" d="M187.75620239257813,185.1445932006836 c-0.35000000000000003,0 -0.6900000000000002,-0.15000000000000002 -0.93,-0.44000000000000006 c-0.43000000000000005,-0.51 -0.35000000000000003,-1.27 0.16000000000000003,-1.7000000000000002 l4.19,-3.47 c0.51,-0.42000000000000004 1.27,-0.35000000000000003 1.7000000000000002,0.16000000000000003 c0.43000000000000005,0.51 0.35000000000000003,1.27 -0.16000000000000003,1.7000000000000002 l-4.19,3.47 C188.30620239257814,185.0545932006836 188.0262023925781,185.1445932006836 187.75620239257813,185.1445932006836 z" id="svg_278"/>
				</g>
			</g>
			<g id="svg_279">
				<g id="svg_280">
					<path class="st2" d="M211.17620239257815,185.1445932006836 c-0.27,0 -0.55,-0.09000000000000002 -0.77,-0.28 l-4.19,-3.47 c-0.51,-0.42000000000000004 -0.5800000000000001,-1.19 -0.16000000000000003,-1.7000000000000002 s1.19,-0.5800000000000001 1.7000000000000002,-0.16000000000000003 l4.19,3.47 c0.51,0.42000000000000004 0.5800000000000001,1.19 0.16000000000000003,1.7000000000000002 C211.87620239257814,185.0045932006836 211.5262023925781,185.1445932006836 211.17620239257815,185.1445932006836 z" id="svg_281"/>
				</g>
				<g id="svg_282">
					<path class="st2" d="M206.98620239257815,185.1445932006836 c-0.35000000000000003,0 -0.6900000000000002,-0.15000000000000002 -0.93,-0.44000000000000006 c-0.43000000000000005,-0.51 -0.35000000000000003,-1.27 0.16000000000000003,-1.7000000000000002 l4.19,-3.47 c0.51,-0.42000000000000004 1.27,-0.35000000000000003 1.7000000000000002,0.16000000000000003 c0.43000000000000005,0.51 0.35000000000000003,1.27 -0.16000000000000003,1.7000000000000002 l-4.19,3.47 C207.5362023925781,185.0545932006836 207.25620239257813,185.1445932006836 206.98620239257815,185.1445932006836 z" id="svg_283"/>
				</g>
			</g>
			<g id="svg_284">
				<g id="svg_285">
					<path class="st2" d="M240.01620239257812,185.1445932006836 c-0.27,0 -0.55,-0.09000000000000002 -0.77,-0.28 l-4.19,-3.47 c-0.51,-0.42000000000000004 -0.5800000000000001,-1.19 -0.16000000000000003,-1.7000000000000002 c0.42000000000000004,-0.51 1.19,-0.5800000000000001 1.7000000000000002,-0.16000000000000003 l4.19,3.47 c0.51,0.42000000000000004 0.5800000000000001,1.19 0.16000000000000003,1.7000000000000002 C240.70620239257812,185.0045932006836 240.36620239257815,185.1445932006836 240.01620239257812,185.1445932006836 z" id="svg_286"/>
				</g>
				<g id="svg_287">
					<path class="st2" d="M235.82620239257812,185.1445932006836 c-0.35000000000000003,0 -0.6900000000000002,-0.15000000000000002 -0.93,-0.44000000000000006 c-0.43000000000000005,-0.51 -0.35000000000000003,-1.27 0.16000000000000003,-1.7000000000000002 l4.19,-3.47 c0.51,-0.42000000000000004 1.27,-0.35000000000000003 1.7000000000000002,0.16000000000000003 c0.43000000000000005,0.51 0.35000000000000003,1.27 -0.16000000000000003,1.7000000000000002 l-4.19,3.47 C236.37620239257814,185.0545932006836 236.0962023925781,185.1445932006836 235.82620239257812,185.1445932006836 z" id="svg_288"/>
				</g>
			</g>
		</g>
		<path class="st11" d="M179.73620239257815,128.8945932006836 c-0.19000000000000003,-0.46 -0.39000000000000007,-0.97 -0.5800000000000001,-1.3900000000000001 c-0.31000000000000005,-0.7000000000000001 -0.6200000000000001,-1.36 -0.8900000000000001,-1.97 l-0.04000000000000001,-0.04000000000000001 c-2.67,-5.8100000000000005 -5.54,-11.69 -8.56,-17.5 l-0.12000000000000001,-0.23 c-0.31000000000000005,-0.5800000000000001 -0.6200000000000001,-1.2 -0.93,-1.82 c-0.39000000000000007,-0.7000000000000001 -0.77,-1.4300000000000002 -1.3900000000000001,-2.13 c-1.24,-1.55 -3.02,-2.4 -4.92,-2.4 c-1.94,0 -3.68,0.8500000000000001 -4.96,2.3200000000000003 c-0.5800000000000001,0.7000000000000001 -1.01,1.4300000000000002 -1.3900000000000001,2.13 c-0.31000000000000005,0.6200000000000001 -0.6200000000000001,1.24 -0.93,1.82 l-0.12000000000000001,0.23 c-2.98,5.8100000000000005 -5.890000000000001,11.69 -8.56,17.5 l-0.04000000000000001,0.08000000000000002 c-0.27,0.6200000000000001 -0.5800000000000001,1.28 -0.8900000000000001,1.97 c-0.19000000000000003,0.43000000000000005 -0.39000000000000007,0.8900000000000001 -0.5800000000000001,1.3900000000000001 c-0.5,1.4300000000000002 -0.6600000000000001,2.79 -0.46,4.18 c0.43000000000000005,2.9 2.36,5.34 5.03,6.43 c1.01,0.43000000000000005 2.05,0.6200000000000001 3.14,0.6200000000000001 c0.31000000000000005,0 0.7000000000000001,-0.04000000000000001 1.01,-0.08000000000000002 c1.28,-0.15000000000000002 2.59,-0.5800000000000001 3.87,-1.32 c1.59,-0.8900000000000001 3.1,-2.17 4.8,-4.03 c1.7000000000000002,1.86 3.25,3.14 4.8,4.03 c1.28,0.7400000000000001 2.59,1.1600000000000001 3.87,1.32 c0.31000000000000005,0.04000000000000001 0.7000000000000001,0.08000000000000002 1.01,0.08000000000000002 c1.08,0 2.17,-0.19000000000000003 3.14,-0.6200000000000001 c2.71,-1.08 4.61,-3.56 5.03,-6.43 C180.39620239257812,131.6845932006836 180.23620239257815,130.3345932006836 179.73620239257815,128.8945932006836 zM162.2762023925781,130.91459320068358 c-2.09,-2.63 -3.45,-5.11 -3.91,-7.2 c-0.19000000000000003,-0.8900000000000001 -0.23,-1.6700000000000002 -0.12000000000000001,-2.36 c0.08000000000000002,-0.6200000000000001 0.31000000000000005,-1.1600000000000001 0.6200000000000001,-1.6300000000000001 c0.7400000000000001,-1.05 1.97,-1.7000000000000002 3.41,-1.7000000000000002 c1.4300000000000002,0 2.71,0.6200000000000001 3.41,1.7000000000000002 c0.31000000000000005,0.46 0.54,1.01 0.6200000000000001,1.6300000000000001 c0.12000000000000001,0.7000000000000001 0.08000000000000002,1.51 -0.12000000000000001,2.36 C165.7162023925781,125.7645932006836 164.36620239257815,128.2345932006836 162.2762023925781,130.91459320068358 zM177.7262023925781,132.7345932006836 c-0.27,2.01 -1.6300000000000001,3.7600000000000002 -3.52,4.53 c-0.93,0.39000000000000007 -1.94,0.5 -2.94,0.39000000000000007 c-0.97,-0.12000000000000001 -1.94,-0.43000000000000005 -2.94,-1.01 c-1.3900000000000001,-0.77 -2.79,-1.97 -4.41,-3.7600000000000002 c2.56,-3.14 4.1,-6 4.69,-8.56 c0.27,-1.2 0.31000000000000005,-2.2800000000000002 0.19000000000000003,-3.29 c-0.15000000000000002,-0.97 -0.5,-1.86 -1.05,-2.63 c-1.2,-1.7400000000000002 -3.21,-2.75 -5.46,-2.75 s-4.26,1.05 -5.46,2.75 c-0.54,0.77 -0.8900000000000001,1.6600000000000001 -1.05,2.63 c-0.15000000000000002,1.01 -0.12000000000000001,2.13 0.19000000000000003,3.29 c0.5800000000000001,2.56 2.17,5.46 4.69,8.6 c-1.59,1.78 -3.02,2.98 -4.41,3.7600000000000002 c-1.01,0.5800000000000001 -1.97,0.8900000000000001 -2.94,1.01 c-1.05,0.12000000000000001 -2.05,-0.04000000000000001 -2.94,-0.39000000000000007 c-1.9,-0.77 -3.25,-2.52 -3.52,-4.53 c-0.12000000000000001,-0.97 -0.04000000000000001,-1.94 0.35000000000000003,-3.02 c0.12000000000000001,-0.39000000000000007 0.31000000000000005,-0.77 0.5,-1.24 c0.27,-0.6200000000000001 0.5800000000000001,-1.28 0.8900000000000001,-1.94 l0.04000000000000001,-0.08000000000000002 c2.67,-5.77 5.54,-11.66 8.52,-17.39 l0.12000000000000001,-0.23 c0.31000000000000005,-0.5800000000000001 0.6200000000000001,-1.2 0.93,-1.78 c0.31000000000000005,-0.6200000000000001 0.6600000000000001,-1.2 1.08,-1.7000000000000002 c0.81,-0.93 1.9,-1.4300000000000002 3.1,-1.4300000000000002 s2.2800000000000002,0.5 3.1,1.4300000000000002 c0.43000000000000005,0.5 0.77,1.08 1.08,1.7000000000000002 c0.31000000000000005,0.5800000000000001 0.6200000000000001,1.2 0.93,1.78 l0.12000000000000001,0.23 c2.94,5.77 5.8100000000000005,11.66 8.48,17.42 v0.04000000000000001 c0.31000000000000005,0.6200000000000001 0.5800000000000001,1.32 0.8900000000000001,1.94 c0.19000000000000003,0.46 0.39000000000000007,0.8500000000000001 0.5,1.24 C177.75620239257813,130.7545932006836 177.87620239257814,131.7245932006836 177.7262023925781,132.7345932006836 z" id="svg_289"/>
		<g id="svg_290">
			<path class="st3" d="M218.6062023925781,125.00459320068359 v-14.02 h2.5300000000000002 v14.02 H218.6062023925781 z" id="svg_291"/>
			<path class="st3" d="M224.1662023925781,125.00459320068359 v-14.02 h1.78 l3.41,8 v-8 h2.11 v14.02 h-1.7000000000000002 l-3.43,-8.38 v8.38 H224.1662023925781 z" id="svg_292"/>
			<path class="st3" d="M236.6062023925781,125.00459320068359 l-2.8200000000000003,-14.02 h2.27 l1.85,9.92 l1.73,-9.92 h2.3200000000000003 l-2.8200000000000003,14.02 H236.6062023925781 z" id="svg_293"/>
			<path class="st3" d="M247.9062023925781,125.19459320068358 c-0.99,0 -1.78,-0.18000000000000002 -2.37,-0.55 c-0.5900000000000001,-0.37000000000000005 -1.01,-0.9 -1.26,-1.59 c-0.25,-0.6900000000000002 -0.38000000000000006,-1.51 -0.38000000000000006,-2.46 v-5.24 c0,-0.9500000000000001 0.13,-1.7600000000000002 0.38000000000000006,-2.43 c0.25,-0.6700000000000002 0.6700000000000002,-1.19 1.26,-1.55 c0.5900000000000001,-0.36000000000000004 1.3800000000000001,-0.54 2.37,-0.54 c1.02,0 1.81,0.18000000000000002 2.4,0.54 c0.5800000000000001,0.36000000000000004 1,0.8700000000000001 1.26,1.55 c0.26,0.6800000000000002 0.39000000000000007,1.49 0.39000000000000007,2.43 v5.26 c0,0.93 -0.13,1.75 -0.39000000000000007,2.43 c-0.26,0.6900000000000002 -0.6800000000000002,1.22 -1.26,1.59 C249.7262023925781,125.0145932006836 248.92620239257815,125.19459320068358 247.9062023925781,125.19459320068358 zM247.9062023925781,123.31459320068359 c0.43000000000000005,0 0.7400000000000001,-0.09000000000000002 0.9400000000000001,-0.28 c0.2,-0.18000000000000002 0.3400000000000001,-0.44000000000000006 0.41000000000000003,-0.7600000000000001 c0.07,-0.32000000000000006 0.1,-0.6800000000000002 0.1,-1.06 v-6.46 c0,-0.39000000000000007 -0.030000000000000006,-0.7400000000000001 -0.1,-1.06 c-0.07,-0.31000000000000005 -0.2,-0.56 -0.41000000000000003,-0.7400000000000001 c-0.2,-0.18000000000000002 -0.52,-0.27 -0.9400000000000001,-0.27 c-0.4,0 -0.7100000000000001,0.09000000000000002 -0.92,0.27 c-0.21000000000000002,0.18000000000000002 -0.35000000000000003,0.42000000000000004 -0.42000000000000004,0.7400000000000001 c-0.07,0.31000000000000005 -0.1,0.6600000000000001 -0.1,1.06 v6.46 c0,0.38000000000000006 0.030000000000000006,0.7300000000000001 0.1,1.06 c0.06000000000000001,0.32000000000000006 0.2,0.5800000000000001 0.41000000000000003,0.7600000000000001 C247.18620239257814,123.22459320068359 247.49620239257814,123.31459320068359 247.9062023925781,123.31459320068359 z" id="svg_294"/>
			<path class="st3" d="M254.7762023925781,125.00459320068359 v-14.02 h2.5300000000000002 v14.02 H254.7762023925781 z" id="svg_295"/>
			<path class="st3" d="M264.1062023925781,125.19459320068358 c-1.03,0 -1.83,-0.2 -2.41,-0.6100000000000001 c-0.5800000000000001,-0.4 -0.99,-0.9500000000000001 -1.22,-1.6500000000000001 c-0.23,-0.7000000000000001 -0.35000000000000003,-1.5 -0.35000000000000003,-2.41 v-5 c0,-0.9600000000000001 0.12000000000000001,-1.79 0.35000000000000003,-2.49 c0.23,-0.7000000000000001 0.6400000000000001,-1.25 1.22,-1.6300000000000001 c0.5800000000000001,-0.38000000000000006 1.3900000000000001,-0.5700000000000001 2.41,-0.5700000000000001 c0.97,0 1.73,0.16000000000000003 2.2800000000000002,0.49000000000000005 c0.55,0.33000000000000007 0.9400000000000001,0.8 1.17,1.4100000000000001 c0.23,0.6100000000000001 0.35000000000000003,1.32 0.35000000000000003,2.13 v1.18 h-2.46 v-1.21 c0,-0.39000000000000007 -0.020000000000000004,-0.7500000000000001 -0.06000000000000001,-1.07 c-0.04000000000000001,-0.32000000000000006 -0.15000000000000002,-0.5800000000000001 -0.33000000000000007,-0.77 c-0.18000000000000002,-0.19000000000000003 -0.49000000000000005,-0.29000000000000004 -0.93,-0.29000000000000004 c-0.44000000000000006,0 -0.7600000000000001,0.1 -0.9600000000000001,0.30000000000000004 c-0.2,0.2 -0.33000000000000007,0.47000000000000003 -0.39000000000000007,0.81 c-0.06000000000000001,0.3400000000000001 -0.09000000000000002,0.7200000000000001 -0.09000000000000002,1.15 v6.09 c0,0.51 0.04000000000000001,0.93 0.12000000000000001,1.25 c0.08000000000000002,0.33000000000000007 0.23,0.5800000000000001 0.44000000000000006,0.7400000000000001 c0.21000000000000002,0.17 0.5,0.25 0.8700000000000001,0.25 c0.43000000000000005,0 0.7300000000000001,-0.1 0.91,-0.30000000000000004 c0.18000000000000002,-0.2 0.29000000000000004,-0.47000000000000003 0.3400000000000001,-0.8 c0.05000000000000001,-0.33000000000000007 0.07,-0.7100000000000001 0.07,-1.12 v-1.26 h2.46 v1.12 c0,0.8300000000000001 -0.11000000000000001,1.57 -0.33000000000000007,2.21 c-0.22000000000000003,0.6400000000000001 -0.6000000000000001,1.1400000000000001 -1.15,1.51 C265.87620239257814,125.0145932006836 265.1062023925781,125.19459320068358 264.1062023925781,125.19459320068358 z" id="svg_296"/>
			<path class="st3" d="M270.54620239257815,125.00459320068359 v-14.02 h5.88 v1.8 h-3.3200000000000003 v4.03 h2.6100000000000003 v1.78 h-2.6100000000000003 v4.640000000000001 h3.36 v1.77 H270.54620239257815 z" id="svg_297"/>
		</g>
	</g>
</g></g></svg>