<?xml version="1.0" encoding="utf-8"?>
<!-- Generator: Adobe Illustrator 25.2.1, SVG Export Plug-In . SVG Version: 6.00 Build 0)  -->
<svg version="1.1" id="Layer_1" xmlns="http://www.w3.org/2000/svg" xmlns:xlink="http://www.w3.org/1999/xlink" x="0px" y="0px"
	 viewBox="0 0 750 500" style="enable-background:new 0 0 750 500;" xml:space="preserve">
<style type="text/css">
	.st0{fill:#46AEEC;}
	.st1{fill:#E6E6E6;}
	.st2{clip-path:url(#SVGID_2_);fill:#FFFFFF;}
	.st3{clip-path:url(#SVGID_2_);}
	.st4{fill:#FFFFFF;}
	.st5{fill:#89D2F7;}
	.st6{fill:#193E6D;}
	.st7{fill:#073151;}
	.st8{fill:#A6A6A6;}
	.st9{fill:#DCE4EA;}
	.st10{fill:#E9EFF4;}
	.st11{fill:url(#SVGID_3_);}
	.st12{fill:#38A1D6;}
	.st13{fill:url(#SVGID_4_);}
	.st14{fill:#17262D;}
	.st15{fill:url(#SVGID_5_);}
	.st16{fill:#0F324C;}
	.st17{fill:#123656;}
	.st18{fill:url(#SVGID_6_);}
	.st19{fill:url(#SVGID_7_);}
	.st20{fill:#F2B620;}
	.st21{fill:url(#SVGID_8_);}
	.st22{fill:url(#SVGID_9_);}
	.st23{fill:#2B1504;}
	.st24{fill:url(#SVGID_10_);}
	.st25{fill:url(#SVGID_11_);}
	.st26{fill:url(#SVGID_12_);}
	.st27{fill:url(#SVGID_13_);}
</style>
<g>
	<g>
		<path class="st0" d="M452.33,477.18l-156.63-0.72c-18.84-0.09-34.04-15.42-33.96-34.26l1.66-392.68
			c0.08-18.85,15.43-34.06,34.28-33.98l156.63,0.72c18.84,0.09,34.04,15.43,33.96,34.26l-1.66,392.68
			C486.53,462.05,471.18,477.26,452.33,477.18z"/>
		<path class="st1" d="M386.4,39.16h-33.56c-1.07,0-1.94-0.87-1.94-1.94v0c0-1.07,0.87-1.94,1.94-1.94h33.56
			c1.07,0,1.94,0.87,1.94,1.94v0C388.34,38.29,387.47,39.16,386.4,39.16z"/>
		<path class="st1" d="M395.44,40.45L395.44,40.45c-1.78,0-3.23-1.44-3.23-3.23v0c0-1.78,1.44-3.23,3.23-3.23l0,0
			c1.78,0,3.23,1.44,3.23,3.23v0C398.66,39,397.22,40.45,395.44,40.45z"/>
		<g>
			<defs>
				<path id="SVGID_1_" d="M454.08,29.81l-30.37-0.14c-4.07-0.02-7.39,3.42-7.41,7.67l-0.02,5.51c-0.02,4.26-3.33,7.69-7.41,7.67
					l-59.2-0.27c-4.07-0.02-7.36-3.49-7.34-7.74l0.02-5.51c0.02-4.26-3.27-7.72-7.34-7.74l-10.68-0.05l-26.58-0.12
					c-13.2-0.06-23.95,10.59-24.01,23.79l-1.62,383.29c-0.06,13.19,10.59,23.94,23.78,24l156.32,0.72
					c13.2,0.06,23.95-10.59,24.01-23.79l1.62-383.29C477.92,40.61,467.27,29.87,454.08,29.81z"/>
			</defs>
			<clipPath id="SVGID_2_">
				<use xlink:href="#SVGID_1_"  style="overflow:visible;"/>
			</clipPath>
			<rect x="272.13" y="29.08" class="st2" width="205.73" height="435.94"/>
			<rect x="270.89" y="26.94" class="st2" width="207.59" height="442.06"/>
			<g class="st3">
				<path class="st4" d="M330.07,120.05h1.14c0.57-0.01,1.03-0.15,1.36-0.45c0.34-0.29,0.5-0.71,0.5-1.27
					c0-0.53-0.14-0.95-0.42-1.24c-0.28-0.29-0.7-0.44-1.28-0.44c-0.5,0-0.91,0.14-1.24,0.43c-0.32,0.29-0.48,0.67-0.48,1.13h-1.86
					c0-0.57,0.15-1.1,0.46-1.57c0.31-0.47,0.73-0.84,1.27-1.1c0.54-0.26,1.16-0.4,1.83-0.4c1.11,0,1.99,0.28,2.63,0.84
					c0.64,0.56,0.96,1.34,0.96,2.34c0,0.5-0.16,0.97-0.48,1.42c-0.32,0.44-0.73,0.78-1.24,1c0.61,0.21,1.08,0.54,1.4,0.99
					c0.32,0.45,0.48,0.99,0.48,1.61c0,1-0.34,1.8-1.03,2.39c-0.69,0.59-1.59,0.89-2.71,0.89c-1.07,0-1.96-0.29-2.64-0.86
					c-0.69-0.57-1.03-1.34-1.03-2.29h1.86c0,0.49,0.16,0.89,0.49,1.2c0.33,0.31,0.77,0.46,1.33,0.46c0.58,0,1.03-0.15,1.37-0.46
					c0.33-0.31,0.5-0.75,0.5-1.34c0-0.59-0.17-1.04-0.52-1.36c-0.35-0.32-0.87-0.48-1.55-0.48h-1.1V120.05z"/>
				<path class="st4" d="M344.13,121.79c0,1.61-0.3,2.82-0.9,3.63c-0.6,0.82-1.51,1.22-2.74,1.22c-1.21,0-2.12-0.4-2.73-1.19
					c-0.61-0.8-0.92-1.97-0.94-3.53v-1.93c0-1.61,0.3-2.81,0.9-3.61c0.6-0.8,1.52-1.2,2.75-1.2c1.22,0,2.14,0.39,2.74,1.17
					c0.6,0.78,0.91,1.95,0.93,3.51V121.79z M342.27,119.7c0-1.05-0.14-1.82-0.43-2.31c-0.29-0.49-0.74-0.73-1.37-0.73
					c-0.61,0-1.06,0.23-1.34,0.69c-0.29,0.46-0.44,1.19-0.45,2.17v2.53c0,1.04,0.15,1.82,0.44,2.33s0.75,0.77,1.37,0.77
					c0.6,0,1.04-0.24,1.33-0.71c0.29-0.47,0.44-1.21,0.45-2.22V119.7z"/>
				<path class="st4" d="M353.64,120.61l2.57-5.3h2.15l-3.75,7.06v4.11h-1.95v-4.11l-3.75-7.06h2.16L353.64,120.61z"/>
				<path class="st4" d="M363.05,126.64c-1.18,0-2.14-0.37-2.87-1.12c-0.73-0.74-1.1-1.74-1.1-2.97v-0.23
					c0-0.83,0.16-1.57,0.48-2.22c0.32-0.65,0.77-1.16,1.35-1.52c0.58-0.36,1.22-0.54,1.93-0.54c1.13,0,2,0.36,2.62,1.08
					c0.62,0.72,0.93,1.74,0.93,3.06v0.75h-5.43c0.06,0.69,0.29,1.23,0.69,1.63c0.4,0.4,0.91,0.6,1.52,0.6
					c0.85,0,1.55-0.35,2.09-1.04l1.01,0.96c-0.33,0.5-0.78,0.88-1.33,1.16C364.36,126.51,363.74,126.64,363.05,126.64z
					 M362.82,119.53c-0.51,0-0.93,0.18-1.24,0.54c-0.31,0.36-0.52,0.86-0.6,1.5h3.55v-0.14c-0.04-0.62-0.21-1.1-0.5-1.42
					S363.34,119.53,362.82,119.53z"/>
				<path class="st4" d="M372.79,126.49c-0.08-0.16-0.15-0.42-0.21-0.78c-0.59,0.62-1.32,0.93-2.18,0.93
					c-0.83,0-1.51-0.24-2.04-0.71c-0.53-0.48-0.79-1.06-0.79-1.77c0-0.88,0.33-1.56,0.99-2.04c0.66-0.47,1.6-0.71,2.82-0.71h1.14
					v-0.54c0-0.43-0.12-0.77-0.36-1.03c-0.24-0.26-0.61-0.39-1.1-0.39c-0.43,0-0.77,0.11-1.04,0.32c-0.27,0.21-0.41,0.48-0.41,0.81
					h-1.86c0-0.46,0.15-0.88,0.45-1.28c0.3-0.4,0.71-0.71,1.23-0.93c0.52-0.22,1.1-0.34,1.74-0.34c0.97,0,1.75,0.24,2.33,0.73
					c0.58,0.49,0.87,1.18,0.89,2.06v3.75c0,0.75,0.1,1.34,0.31,1.79v0.13H372.79z M370.74,125.15c0.37,0,0.72-0.09,1.04-0.27
					c0.33-0.18,0.57-0.42,0.73-0.72v-1.57h-1.01c-0.69,0-1.21,0.12-1.56,0.36c-0.35,0.24-0.52,0.58-0.52,1.02
					c0,0.36,0.12,0.64,0.36,0.86C370.02,125.04,370.34,125.15,370.74,125.15z"/>
				<path class="st4" d="M380.68,119.89c-0.25-0.04-0.5-0.06-0.76-0.06c-0.85,0-1.43,0.33-1.73,0.98v5.68h-1.86v-8.3h1.78l0.05,0.93
					c0.45-0.72,1.07-1.08,1.87-1.08c0.27,0,0.49,0.04,0.66,0.11L380.68,119.89z"/>
				<path class="st4" d="M392.39,121.75h-4.5v4.74h-1.94v-11.17h7.1v1.57h-5.16v3.32h4.5V121.75z"/>
				<path class="st4" d="M394.41,116.03c0-0.29,0.09-0.52,0.27-0.71c0.18-0.19,0.44-0.28,0.78-0.28s0.6,0.09,0.78,0.28
					c0.18,0.19,0.28,0.43,0.28,0.71c0,0.28-0.09,0.52-0.28,0.7c-0.18,0.19-0.45,0.28-0.78,0.28s-0.6-0.09-0.78-0.28
					C394.5,116.54,394.41,116.31,394.41,116.03z M396.39,126.49h-1.86v-8.3h1.86V126.49z"/>
				<path class="st4" d="M401.4,120.92l1.58-2.73h2.07l-2.54,4.09l2.62,4.21h-2.06l-1.66-2.84l-1.65,2.84h-2.07l2.62-4.21
					l-2.53-4.09h2.06L401.4,120.92z"/>
				<path class="st4" d="M409.98,126.64c-1.18,0-2.14-0.37-2.87-1.12c-0.73-0.74-1.1-1.74-1.1-2.97v-0.23
					c0-0.83,0.16-1.57,0.48-2.22c0.32-0.65,0.77-1.16,1.35-1.52c0.58-0.36,1.22-0.54,1.93-0.54c1.13,0,2,0.36,2.62,1.08
					c0.62,0.72,0.93,1.74,0.93,3.06v0.75h-5.43c0.06,0.69,0.29,1.23,0.69,1.63c0.4,0.4,0.91,0.6,1.51,0.6
					c0.85,0,1.55-0.35,2.09-1.04l1.01,0.96c-0.33,0.5-0.78,0.88-1.33,1.16C411.29,126.51,410.67,126.64,409.98,126.64z
					 M409.75,119.53c-0.51,0-0.92,0.18-1.24,0.54c-0.31,0.36-0.51,0.86-0.6,1.5h3.55v-0.14c-0.04-0.62-0.21-1.1-0.5-1.42
					S410.27,119.53,409.75,119.53z"/>
				<path class="st4" d="M414.4,122.28c0-1.28,0.3-2.31,0.89-3.08c0.59-0.78,1.39-1.16,2.39-1.16c0.88,0,1.59,0.31,2.13,0.92v-4.25
					h1.86v11.79h-1.69l-0.09-0.86c-0.56,0.68-1.3,1.01-2.23,1.01c-0.97,0-1.76-0.39-2.36-1.17
					C414.71,124.69,414.4,123.62,414.4,122.28z M416.27,122.44c0,0.84,0.16,1.5,0.49,1.98c0.32,0.47,0.79,0.71,1.38,0.71
					c0.76,0,1.32-0.34,1.67-1.02v-3.55c-0.34-0.67-0.89-1-1.66-1c-0.6,0-1.07,0.24-1.4,0.72
					C416.43,120.76,416.27,121.48,416.27,122.44z"/>
			</g>
			<g class="st3">
				<g>
					<rect x="381.06" y="367.75" class="st5" width="31.59" height="99.59"/>
				</g>
				<g>
					<rect x="284.9" y="396.06" class="st5" width="31.59" height="71.27"/>
				</g>
				<g>
					<rect x="334.56" y="352.89" class="st0" width="31.59" height="114.44"/>
				</g>
				<g>
					<rect x="430.83" y="318.81" class="st0" width="31.59" height="148.53"/>
				</g>
			</g>
			<g class="st3">
				<g>
					<path class="st6" d="M331.94,96.83c0,4.17-1.3,8.04-3.52,11.22c-3.54,5.08-9.44,8.41-16.1,8.41c-4.86,0-9.31-1.77-12.74-4.7
						c-4.22-3.6-6.89-8.95-6.89-14.92c0-10.84,8.79-19.63,19.63-19.63c7.28,0,13.64,3.97,17.03,9.87
						C331,89.94,331.94,93.28,331.94,96.83z"/>
					<path class="st5" d="M331.94,96.83c0,4.17-1.3,8.04-3.52,11.22c-3.54,5.08-9.44,8.41-16.1,8.41c-4.86,0-9.31-1.77-12.74-4.7
						l12.74-14.92V77.2c7.28,0,13.64,3.97,17.03,9.87C331,89.94,331.94,93.28,331.94,96.83z"/>
				</g>
				<g>
					<g>
						
							<ellipse transform="matrix(0.1677 -0.9858 0.9858 0.1677 164.4701 388.4717)" class="st4" cx="312.31" cy="96.83" rx="13.57" ry="13.57"/>
					</g>
				</g>
				<rect x="306.66" y="93.81" class="st7" width="11.3" height="1.6"/>
				<rect x="303.86" y="98.24" class="st8" width="16.9" height="1.59"/>
			</g>
			<g class="st3">
				<rect x="350.98" y="78.45" class="st5" width="11.81" height="11.81"/>
				<rect x="371" y="78.45" class="st9" width="63.61" height="3.49"/>
				<rect x="371" y="86.78" class="st9" width="83.57" height="3.49"/>
			</g>
			<g class="st3">
				<rect x="350.98" y="100.82" class="st6" width="11.81" height="11.81"/>
				<rect x="371" y="100.82" class="st0" width="48.33" height="3.49"/>
				<rect x="371" y="109.14" class="st0" width="83.57" height="3.49"/>
			</g>
		</g>
	</g>
	<path class="st10" d="M287.08,285.41H174.22c-5.55,0-10.06-4.5-10.06-10.06V153.84c0-5.55,4.5-10.06,10.06-10.06h112.86
		c5.55,0,10.06,4.5,10.06,10.06v121.51C297.13,280.91,292.63,285.41,287.08,285.41z"/>
	<path class="st10" d="M431.43,285.41H318.57c-5.55,0-10.06-4.5-10.06-10.06V153.84c0-5.55,4.5-10.06,10.06-10.06h112.86
		c5.55,0,10.06,4.5,10.06,10.06v121.51C441.48,280.91,436.98,285.41,431.43,285.41z"/>
	<path class="st10" d="M575.78,285.41H462.92c-5.55,0-10.06-4.5-10.06-10.06V153.84c0-5.55,4.5-10.06,10.06-10.06h112.86
		c5.55,0,10.06,4.5,10.06,10.06v121.51C585.84,280.91,581.33,285.41,575.78,285.41z"/>
	<g>
		<g>
			<g>
				<path class="st6" d="M267.69,225.74l-11.62-11.62V200.7c0-2.43-1.97-4.39-4.4-4.39c-2.42,0-4.39,1.97-4.39,4.39v4.63l-8.65-8.65
					c-4.28-4.28-11.71-4.27-15.98,0.01l-29.05,29.05c-1.72,1.72-1.72,4.5,0,6.21c1.72,1.72,4.5,1.72,6.22,0l29.05-29.05
					c0.95-0.94,2.61-0.94,3.56,0l29.05,29.06c0.86,0.86,1.98,1.29,3.11,1.29c1.13,0,2.25-0.43,3.11-1.29
					C269.41,230.24,269.41,227.46,267.69,225.74z"/>
				<path class="st6" d="M232.17,211.25c-0.84-0.84-2.21-0.84-3.05,0l-25.55,25.55c-0.4,0.4-0.63,0.95-0.63,1.53v18.63
					c0,4.37,3.55,7.92,7.92,7.92h12.65v-19.59h14.28v19.59h12.65c4.37,0,7.92-3.55,7.92-7.92v-18.63c0-0.57-0.23-1.13-0.63-1.53
					L232.17,211.25z"/>
			</g>
		</g>
	</g>
	<g>
		<g>
			<g>
				<path class="st6" d="M412.05,225.74l-11.62-11.62V200.7c0-2.43-1.97-4.39-4.4-4.39c-2.42,0-4.39,1.97-4.39,4.39v4.63l-8.65-8.65
					c-4.28-4.28-11.71-4.27-15.98,0.01l-29.05,29.05c-1.72,1.72-1.72,4.5,0,6.21c1.72,1.72,4.5,1.72,6.22,0l29.05-29.05
					c0.95-0.94,2.61-0.94,3.56,0l29.05,29.06c0.86,0.86,1.98,1.29,3.11,1.29c1.13,0,2.25-0.43,3.11-1.29
					C413.76,230.24,413.76,227.46,412.05,225.74z"/>
				<path class="st6" d="M376.53,211.25c-0.84-0.84-2.21-0.84-3.05,0l-25.55,25.55c-0.4,0.4-0.63,0.95-0.63,1.53v18.63
					c0,4.37,3.55,7.92,7.92,7.92h12.65v-19.59h14.28v19.59h12.65c4.37,0,7.92-3.55,7.92-7.92v-18.63c0-0.57-0.23-1.13-0.63-1.53
					L376.53,211.25z"/>
			</g>
		</g>
	</g>
	<g>
		<g>
			<g>
				<path class="st6" d="M556.4,225.74l-11.62-11.62V200.7c0-2.43-1.97-4.39-4.4-4.39c-2.42,0-4.39,1.97-4.39,4.39v4.63l-8.65-8.65
					c-4.28-4.28-11.71-4.27-15.98,0.01l-29.05,29.05c-1.72,1.72-1.72,4.5,0,6.21c1.72,1.72,4.5,1.72,6.22,0l29.05-29.05
					c0.95-0.94,2.61-0.94,3.56,0l29.05,29.06c0.86,0.86,1.98,1.29,3.11,1.29c1.13,0,2.25-0.43,3.11-1.29
					C558.12,230.24,558.12,227.46,556.4,225.74z"/>
				<path class="st6" d="M520.88,211.25c-0.84-0.84-2.21-0.84-3.05,0l-25.55,25.55c-0.4,0.4-0.63,0.95-0.63,1.53v18.63
					c0,4.37,3.55,7.92,7.92,7.92h12.65v-19.59h14.28v19.59h12.65c4.37,0,7.92-3.55,7.92-7.92v-18.63c0-0.57-0.23-1.13-0.63-1.53
					L520.88,211.25z"/>
			</g>
		</g>
	</g>
	<g>
		<path class="st0" d="M216.7,179.24c-0.86-0.12-1.67-0.35-2.42-0.71c-0.75-0.35-1.4-0.79-1.93-1.31l0.84-1.25
			c0.07-0.11,0.17-0.2,0.29-0.27c0.12-0.07,0.25-0.1,0.38-0.1c0.16,0,0.34,0.06,0.52,0.17c0.18,0.11,0.39,0.25,0.63,0.4
			c0.24,0.15,0.5,0.31,0.81,0.46c0.3,0.15,0.66,0.27,1.07,0.34l0.42-4.94c-0.52-0.15-1.04-0.32-1.55-0.52
			c-0.51-0.2-0.97-0.46-1.38-0.79c-0.41-0.33-0.74-0.74-0.99-1.25c-0.25-0.5-0.38-1.13-0.38-1.88c0-0.56,0.11-1.11,0.34-1.64
			c0.22-0.54,0.55-1.01,0.98-1.43s0.95-0.77,1.58-1.04c0.62-0.27,1.34-0.41,2.15-0.41l0.12-1.41c0.01-0.18,0.09-0.34,0.22-0.48
			c0.13-0.14,0.3-0.21,0.52-0.21h1l-0.19,2.17c0.78,0.13,1.45,0.35,2.02,0.66c0.57,0.32,1.06,0.67,1.48,1.07l-0.66,1
			c-0.1,0.15-0.21,0.26-0.31,0.33c-0.1,0.07-0.23,0.11-0.38,0.11c-0.11,0-0.24-0.03-0.39-0.1c-0.15-0.07-0.32-0.15-0.52-0.25
			c-0.19-0.1-0.41-0.2-0.65-0.3c-0.24-0.1-0.5-0.19-0.78-0.25l-0.39,4.57c0.53,0.16,1.05,0.34,1.57,0.54
			c0.52,0.19,0.99,0.45,1.4,0.76c0.42,0.31,0.75,0.69,1.01,1.15c0.26,0.46,0.39,1.04,0.39,1.73c0,0.68-0.11,1.33-0.34,1.93
			c-0.23,0.6-0.56,1.13-1,1.59c-0.44,0.46-0.98,0.83-1.62,1.12c-0.64,0.29-1.37,0.46-2.2,0.52l-0.13,1.62
			c-0.02,0.17-0.09,0.33-0.22,0.47c-0.13,0.14-0.3,0.22-0.52,0.22h-1L216.7,179.24z M215.59,167.34c0,0.28,0.05,0.53,0.14,0.74
			c0.09,0.21,0.23,0.4,0.4,0.57c0.17,0.17,0.38,0.31,0.61,0.44c0.23,0.13,0.49,0.25,0.77,0.35l0.34-4.09
			c-0.4,0.05-0.75,0.14-1.04,0.26c-0.29,0.12-0.52,0.27-0.71,0.45c-0.18,0.18-0.32,0.37-0.4,0.59
			C215.63,166.86,215.59,167.09,215.59,167.34z M220.95,174.56c0-0.28-0.05-0.52-0.15-0.73c-0.1-0.21-0.24-0.4-0.42-0.56
			c-0.18-0.16-0.39-0.3-0.63-0.42c-0.24-0.12-0.51-0.22-0.8-0.32l-0.38,4.48c0.78-0.1,1.37-0.37,1.77-0.79
			S220.95,175.24,220.95,174.56z"/>
		<path class="st0" d="M229.5,179.24c-0.86-0.12-1.67-0.35-2.42-0.71c-0.75-0.35-1.4-0.79-1.93-1.31l0.84-1.25
			c0.07-0.11,0.17-0.2,0.29-0.27c0.12-0.07,0.25-0.1,0.38-0.1c0.16,0,0.33,0.06,0.52,0.17c0.18,0.11,0.39,0.25,0.63,0.4
			c0.24,0.15,0.5,0.31,0.81,0.46c0.3,0.15,0.66,0.27,1.07,0.34l0.42-4.94c-0.52-0.15-1.04-0.32-1.55-0.52
			c-0.51-0.2-0.97-0.46-1.38-0.79c-0.41-0.33-0.74-0.74-0.99-1.25c-0.25-0.5-0.38-1.13-0.38-1.88c0-0.56,0.11-1.11,0.34-1.64
			c0.22-0.54,0.55-1.01,0.98-1.43c0.43-0.42,0.95-0.77,1.58-1.04c0.63-0.27,1.34-0.41,2.15-0.41l0.12-1.41
			c0.02-0.18,0.09-0.34,0.22-0.48s0.3-0.21,0.52-0.21h1l-0.19,2.17c0.78,0.13,1.45,0.35,2.02,0.66c0.57,0.32,1.06,0.67,1.48,1.07
			l-0.66,1c-0.1,0.15-0.21,0.26-0.31,0.33c-0.1,0.07-0.23,0.11-0.38,0.11c-0.11,0-0.24-0.03-0.39-0.1
			c-0.15-0.07-0.32-0.15-0.52-0.25c-0.2-0.1-0.41-0.2-0.65-0.3c-0.24-0.1-0.5-0.19-0.78-0.25l-0.39,4.57
			c0.53,0.16,1.05,0.34,1.57,0.54c0.52,0.19,0.99,0.45,1.4,0.76c0.42,0.31,0.75,0.69,1.01,1.15c0.26,0.46,0.39,1.04,0.39,1.73
			c0,0.68-0.11,1.33-0.34,1.93c-0.23,0.6-0.56,1.13-1,1.59c-0.44,0.46-0.98,0.83-1.62,1.12c-0.64,0.29-1.37,0.46-2.2,0.52
			l-0.13,1.62c-0.01,0.17-0.09,0.33-0.22,0.47c-0.13,0.14-0.31,0.22-0.52,0.22h-1L229.5,179.24z M228.39,167.34
			c0,0.28,0.05,0.53,0.14,0.74c0.1,0.21,0.23,0.4,0.4,0.57c0.17,0.17,0.38,0.31,0.61,0.44s0.49,0.25,0.77,0.35l0.34-4.09
			c-0.4,0.05-0.75,0.14-1.04,0.26c-0.29,0.12-0.52,0.27-0.71,0.45s-0.32,0.37-0.4,0.59C228.43,166.86,228.39,167.09,228.39,167.34z
			 M233.75,174.56c0-0.28-0.05-0.52-0.15-0.73c-0.1-0.21-0.24-0.4-0.42-0.56c-0.18-0.16-0.39-0.3-0.63-0.42
			c-0.24-0.12-0.51-0.22-0.79-0.32l-0.38,4.48c0.78-0.1,1.37-0.37,1.77-0.79C233.55,175.79,233.75,175.24,233.75,174.56z"/>
		<path class="st0" d="M242.3,179.24c-0.86-0.12-1.67-0.35-2.42-0.71c-0.75-0.35-1.4-0.79-1.93-1.31l0.84-1.25
			c0.07-0.11,0.17-0.2,0.29-0.27c0.12-0.07,0.25-0.1,0.38-0.1c0.16,0,0.34,0.06,0.52,0.17c0.18,0.11,0.39,0.25,0.63,0.4
			c0.24,0.15,0.5,0.31,0.81,0.46c0.3,0.15,0.66,0.27,1.07,0.34l0.42-4.94c-0.52-0.15-1.04-0.32-1.55-0.52
			c-0.51-0.2-0.97-0.46-1.38-0.79c-0.41-0.33-0.74-0.74-0.99-1.25c-0.25-0.5-0.38-1.13-0.38-1.88c0-0.56,0.11-1.11,0.34-1.64
			c0.22-0.54,0.55-1.01,0.98-1.43c0.43-0.42,0.95-0.77,1.58-1.04c0.62-0.27,1.34-0.41,2.15-0.41l0.12-1.41
			c0.01-0.18,0.09-0.34,0.22-0.48s0.3-0.21,0.52-0.21h1l-0.19,2.17c0.78,0.13,1.45,0.35,2.02,0.66c0.57,0.32,1.06,0.67,1.48,1.07
			l-0.66,1c-0.1,0.15-0.21,0.26-0.31,0.33c-0.1,0.07-0.23,0.11-0.38,0.11c-0.11,0-0.24-0.03-0.39-0.1
			c-0.15-0.07-0.32-0.15-0.52-0.25c-0.19-0.1-0.41-0.2-0.65-0.3c-0.24-0.1-0.5-0.19-0.78-0.25l-0.39,4.57
			c0.53,0.16,1.05,0.34,1.57,0.54c0.52,0.19,0.99,0.45,1.4,0.76c0.42,0.31,0.75,0.69,1.01,1.15c0.26,0.46,0.39,1.04,0.39,1.73
			c0,0.68-0.11,1.33-0.34,1.93c-0.23,0.6-0.56,1.13-1,1.59c-0.44,0.46-0.98,0.83-1.62,1.12c-0.64,0.29-1.37,0.46-2.2,0.52
			l-0.13,1.62c-0.02,0.17-0.09,0.33-0.22,0.47c-0.13,0.14-0.3,0.22-0.52,0.22h-1L242.3,179.24z M241.18,167.34
			c0,0.28,0.05,0.53,0.14,0.74c0.09,0.21,0.23,0.4,0.4,0.57c0.17,0.17,0.38,0.31,0.61,0.44c0.23,0.13,0.49,0.25,0.77,0.35l0.34-4.09
			c-0.4,0.05-0.75,0.14-1.04,0.26c-0.29,0.12-0.52,0.27-0.71,0.45c-0.18,0.18-0.32,0.37-0.4,0.59
			C241.23,166.86,241.18,167.09,241.18,167.34z M246.55,174.56c0-0.28-0.05-0.52-0.15-0.73c-0.1-0.21-0.24-0.4-0.42-0.56
			c-0.18-0.16-0.39-0.3-0.63-0.42c-0.24-0.12-0.51-0.22-0.8-0.32l-0.38,4.48c0.78-0.1,1.37-0.37,1.77-0.79
			C246.35,175.79,246.55,175.24,246.55,174.56z"/>
	</g>
	<g>
		<path class="st0" d="M360.96,179.24c-0.86-0.12-1.67-0.35-2.42-0.71c-0.75-0.35-1.4-0.79-1.93-1.31l0.84-1.25
			c0.07-0.11,0.17-0.2,0.29-0.27c0.12-0.07,0.25-0.1,0.38-0.1c0.16,0,0.34,0.06,0.52,0.17c0.18,0.11,0.39,0.25,0.63,0.4
			c0.24,0.15,0.5,0.31,0.81,0.46c0.3,0.15,0.66,0.27,1.07,0.34l0.42-4.94c-0.52-0.15-1.04-0.32-1.55-0.52
			c-0.51-0.2-0.97-0.46-1.38-0.79c-0.41-0.33-0.74-0.74-0.99-1.25c-0.25-0.5-0.38-1.13-0.38-1.88c0-0.56,0.11-1.11,0.34-1.64
			c0.22-0.54,0.55-1.01,0.98-1.43c0.43-0.42,0.95-0.77,1.58-1.04c0.62-0.27,1.34-0.41,2.15-0.41l0.12-1.41
			c0.01-0.18,0.09-0.34,0.22-0.48c0.13-0.14,0.3-0.21,0.52-0.21h1l-0.19,2.17c0.78,0.13,1.45,0.35,2.02,0.66
			c0.57,0.32,1.06,0.67,1.48,1.07l-0.66,1c-0.1,0.15-0.21,0.26-0.31,0.33c-0.1,0.07-0.23,0.11-0.38,0.11c-0.11,0-0.24-0.03-0.39-0.1
			c-0.15-0.07-0.32-0.15-0.52-0.25c-0.19-0.1-0.41-0.2-0.65-0.3c-0.24-0.1-0.5-0.19-0.78-0.25l-0.39,4.57
			c0.53,0.16,1.05,0.34,1.57,0.54s0.99,0.45,1.4,0.76c0.42,0.31,0.75,0.69,1.01,1.15c0.26,0.46,0.39,1.04,0.39,1.73
			c0,0.68-0.11,1.33-0.34,1.93c-0.23,0.6-0.56,1.13-1,1.59c-0.44,0.46-0.98,0.83-1.62,1.12c-0.64,0.29-1.37,0.46-2.2,0.52
			l-0.13,1.62c-0.02,0.17-0.09,0.33-0.22,0.47c-0.13,0.14-0.3,0.22-0.52,0.22h-1L360.96,179.24z M359.84,167.34
			c0,0.28,0.05,0.53,0.14,0.74c0.1,0.21,0.23,0.4,0.4,0.57c0.17,0.17,0.38,0.31,0.61,0.44c0.23,0.13,0.49,0.25,0.77,0.35l0.34-4.09
			c-0.4,0.05-0.75,0.14-1.04,0.26c-0.29,0.12-0.52,0.27-0.71,0.45c-0.18,0.18-0.32,0.37-0.4,0.59
			C359.89,166.86,359.84,167.09,359.84,167.34z M365.21,174.56c0-0.28-0.05-0.52-0.15-0.73c-0.1-0.21-0.24-0.4-0.42-0.56
			c-0.18-0.16-0.39-0.3-0.63-0.42c-0.24-0.12-0.51-0.22-0.8-0.32l-0.38,4.48c0.78-0.1,1.37-0.37,1.77-0.79
			C365.01,175.79,365.21,175.24,365.21,174.56z"/>
		<path class="st0" d="M373.76,179.24c-0.86-0.12-1.67-0.35-2.42-0.71c-0.75-0.35-1.4-0.79-1.93-1.31l0.84-1.25
			c0.07-0.11,0.17-0.2,0.29-0.27c0.12-0.07,0.25-0.1,0.38-0.1c0.16,0,0.33,0.06,0.52,0.17c0.18,0.11,0.39,0.25,0.63,0.4
			c0.24,0.15,0.5,0.31,0.81,0.46c0.3,0.15,0.66,0.27,1.07,0.34l0.42-4.94c-0.52-0.15-1.04-0.32-1.55-0.52
			c-0.51-0.2-0.97-0.46-1.38-0.79c-0.41-0.33-0.74-0.74-0.99-1.25c-0.25-0.5-0.38-1.13-0.38-1.88c0-0.56,0.11-1.11,0.34-1.64
			c0.22-0.54,0.55-1.01,0.98-1.43c0.43-0.42,0.95-0.77,1.58-1.04c0.63-0.27,1.34-0.41,2.15-0.41l0.12-1.41
			c0.02-0.18,0.09-0.34,0.22-0.48s0.3-0.21,0.52-0.21h1l-0.19,2.17c0.78,0.13,1.45,0.35,2.02,0.66c0.57,0.32,1.06,0.67,1.48,1.07
			l-0.66,1c-0.1,0.15-0.21,0.26-0.31,0.33c-0.1,0.07-0.23,0.11-0.38,0.11c-0.11,0-0.24-0.03-0.39-0.1
			c-0.15-0.07-0.32-0.15-0.52-0.25c-0.2-0.1-0.41-0.2-0.65-0.3c-0.24-0.1-0.5-0.19-0.78-0.25l-0.39,4.57
			c0.53,0.16,1.05,0.34,1.57,0.54c0.52,0.19,0.99,0.45,1.4,0.76s0.75,0.69,1.01,1.15c0.26,0.46,0.39,1.04,0.39,1.73
			c0,0.68-0.11,1.33-0.34,1.93c-0.23,0.6-0.56,1.13-1,1.59c-0.44,0.46-0.98,0.83-1.62,1.12c-0.64,0.29-1.37,0.46-2.2,0.52
			l-0.13,1.62c-0.01,0.17-0.09,0.33-0.22,0.47c-0.13,0.14-0.31,0.22-0.52,0.22h-1L373.76,179.24z M372.64,167.34
			c0,0.28,0.05,0.53,0.14,0.74c0.1,0.21,0.23,0.4,0.4,0.57c0.17,0.17,0.38,0.31,0.61,0.44s0.49,0.25,0.77,0.35l0.34-4.09
			c-0.4,0.05-0.75,0.14-1.04,0.26c-0.29,0.12-0.52,0.27-0.71,0.45s-0.32,0.37-0.4,0.59C372.68,166.86,372.64,167.09,372.64,167.34z
			 M378.01,174.56c0-0.28-0.05-0.52-0.15-0.73c-0.1-0.21-0.24-0.4-0.42-0.56c-0.18-0.16-0.39-0.3-0.63-0.42
			c-0.24-0.12-0.51-0.22-0.79-0.32l-0.38,4.48c0.78-0.1,1.37-0.37,1.77-0.79C377.81,175.79,378.01,175.24,378.01,174.56z"/>
		<path class="st0" d="M386.56,179.24c-0.86-0.12-1.67-0.35-2.42-0.71c-0.75-0.35-1.4-0.79-1.93-1.31l0.84-1.25
			c0.07-0.11,0.17-0.2,0.29-0.27c0.12-0.07,0.25-0.1,0.38-0.1c0.16,0,0.34,0.06,0.52,0.17c0.18,0.11,0.39,0.25,0.63,0.4
			c0.24,0.15,0.5,0.31,0.81,0.46c0.3,0.15,0.66,0.27,1.07,0.34l0.42-4.94c-0.52-0.15-1.04-0.32-1.55-0.52
			c-0.51-0.2-0.97-0.46-1.38-0.79c-0.41-0.33-0.74-0.74-0.99-1.25s-0.38-1.13-0.38-1.88c0-0.56,0.11-1.11,0.34-1.64
			c0.22-0.54,0.55-1.01,0.98-1.43s0.95-0.77,1.58-1.04c0.62-0.27,1.34-0.41,2.15-0.41l0.12-1.41c0.01-0.18,0.09-0.34,0.22-0.48
			s0.3-0.21,0.52-0.21h1l-0.19,2.17c0.78,0.13,1.45,0.35,2.02,0.66c0.57,0.32,1.06,0.67,1.48,1.07l-0.66,1
			c-0.1,0.15-0.21,0.26-0.31,0.33c-0.1,0.07-0.23,0.11-0.38,0.11c-0.11,0-0.24-0.03-0.39-0.1c-0.15-0.07-0.32-0.15-0.52-0.25
			c-0.19-0.1-0.41-0.2-0.65-0.3c-0.24-0.1-0.5-0.19-0.78-0.25l-0.39,4.57c0.53,0.16,1.05,0.34,1.57,0.54
			c0.52,0.19,0.99,0.45,1.4,0.76c0.42,0.31,0.75,0.69,1.01,1.15c0.26,0.46,0.39,1.04,0.39,1.73c0,0.68-0.11,1.33-0.34,1.93
			c-0.23,0.6-0.56,1.13-1,1.59c-0.44,0.46-0.98,0.83-1.62,1.12c-0.64,0.29-1.37,0.46-2.2,0.52l-0.13,1.62
			c-0.02,0.17-0.09,0.33-0.22,0.47c-0.13,0.14-0.3,0.22-0.52,0.22h-1L386.56,179.24z M385.44,167.34c0,0.28,0.05,0.53,0.14,0.74
			c0.1,0.21,0.23,0.4,0.4,0.57c0.17,0.17,0.38,0.31,0.61,0.44c0.23,0.13,0.49,0.25,0.77,0.35l0.34-4.09
			c-0.4,0.05-0.75,0.14-1.04,0.26c-0.29,0.12-0.52,0.27-0.71,0.45c-0.18,0.18-0.32,0.37-0.4,0.59
			C385.48,166.86,385.44,167.09,385.44,167.34z M390.81,174.56c0-0.28-0.05-0.52-0.15-0.73c-0.1-0.21-0.24-0.4-0.42-0.56
			c-0.18-0.16-0.39-0.3-0.63-0.42c-0.24-0.12-0.51-0.22-0.8-0.32l-0.38,4.48c0.78-0.1,1.37-0.37,1.77-0.79
			S390.81,175.24,390.81,174.56z"/>
	</g>
	<g>
		<path class="st0" d="M505.21,179.24c-0.86-0.12-1.67-0.35-2.42-0.71c-0.75-0.35-1.4-0.79-1.93-1.31l0.84-1.25
			c0.07-0.11,0.17-0.2,0.29-0.27c0.12-0.07,0.25-0.1,0.38-0.1c0.16,0,0.34,0.06,0.52,0.17c0.18,0.11,0.39,0.25,0.63,0.4
			c0.24,0.15,0.5,0.31,0.81,0.46c0.3,0.15,0.66,0.27,1.07,0.34l0.42-4.94c-0.52-0.15-1.04-0.32-1.55-0.52
			c-0.51-0.2-0.97-0.46-1.38-0.79c-0.41-0.33-0.74-0.74-0.99-1.25s-0.38-1.13-0.38-1.88c0-0.56,0.11-1.11,0.34-1.64
			c0.22-0.54,0.55-1.01,0.98-1.43s0.95-0.77,1.58-1.04c0.62-0.27,1.34-0.41,2.15-0.41l0.12-1.41c0.01-0.18,0.09-0.34,0.22-0.48
			s0.3-0.21,0.52-0.21h1l-0.19,2.17c0.78,0.13,1.45,0.35,2.02,0.66c0.57,0.32,1.06,0.67,1.48,1.07l-0.66,1
			c-0.1,0.15-0.21,0.26-0.31,0.33c-0.1,0.07-0.23,0.11-0.38,0.11c-0.11,0-0.24-0.03-0.39-0.1c-0.15-0.07-0.32-0.15-0.52-0.25
			c-0.19-0.1-0.41-0.2-0.65-0.3c-0.24-0.1-0.5-0.19-0.78-0.25l-0.39,4.57c0.53,0.16,1.05,0.34,1.57,0.54
			c0.52,0.19,0.99,0.45,1.4,0.76c0.42,0.31,0.75,0.69,1.01,1.15c0.26,0.46,0.39,1.04,0.39,1.73c0,0.68-0.11,1.33-0.34,1.93
			c-0.23,0.6-0.56,1.13-1,1.59c-0.44,0.46-0.98,0.83-1.62,1.12c-0.64,0.29-1.37,0.46-2.2,0.52l-0.13,1.62
			c-0.02,0.17-0.09,0.33-0.22,0.47c-0.13,0.14-0.3,0.22-0.52,0.22h-1L505.21,179.24z M504.1,167.34c0,0.28,0.05,0.53,0.14,0.74
			c0.09,0.21,0.23,0.4,0.4,0.57c0.17,0.17,0.38,0.31,0.61,0.44c0.23,0.13,0.49,0.25,0.77,0.35l0.34-4.09
			c-0.4,0.05-0.75,0.14-1.04,0.26c-0.29,0.12-0.52,0.27-0.71,0.45c-0.18,0.18-0.32,0.37-0.4,0.59
			C504.14,166.86,504.1,167.09,504.1,167.34z M509.46,174.56c0-0.28-0.05-0.52-0.15-0.73c-0.1-0.21-0.24-0.4-0.42-0.56
			c-0.18-0.16-0.39-0.3-0.63-0.42c-0.24-0.12-0.51-0.22-0.8-0.32l-0.38,4.48c0.78-0.1,1.37-0.37,1.77-0.79
			S509.46,175.24,509.46,174.56z"/>
		<path class="st0" d="M518.02,179.24c-0.86-0.12-1.67-0.35-2.42-0.71c-0.75-0.35-1.4-0.79-1.93-1.31l0.84-1.25
			c0.07-0.11,0.17-0.2,0.29-0.27c0.12-0.07,0.25-0.1,0.38-0.1c0.16,0,0.33,0.06,0.52,0.17c0.18,0.11,0.39,0.25,0.63,0.4
			c0.24,0.15,0.5,0.31,0.81,0.46c0.3,0.15,0.66,0.27,1.07,0.34l0.42-4.94c-0.52-0.15-1.04-0.32-1.55-0.52
			c-0.51-0.2-0.97-0.46-1.38-0.79c-0.41-0.33-0.74-0.74-0.99-1.25c-0.25-0.5-0.38-1.13-0.38-1.88c0-0.56,0.11-1.11,0.34-1.64
			c0.22-0.54,0.55-1.01,0.98-1.43c0.43-0.42,0.95-0.77,1.58-1.04c0.63-0.27,1.34-0.41,2.15-0.41l0.12-1.41
			c0.02-0.18,0.09-0.34,0.22-0.48s0.3-0.21,0.52-0.21h1l-0.19,2.17c0.78,0.13,1.45,0.35,2.02,0.66c0.57,0.32,1.06,0.67,1.48,1.07
			l-0.66,1c-0.1,0.15-0.21,0.26-0.31,0.33c-0.1,0.07-0.23,0.11-0.38,0.11c-0.11,0-0.24-0.03-0.39-0.1
			c-0.15-0.07-0.32-0.15-0.52-0.25c-0.2-0.1-0.41-0.2-0.65-0.3c-0.24-0.1-0.5-0.19-0.78-0.25l-0.39,4.57
			c0.53,0.16,1.05,0.34,1.57,0.54c0.52,0.19,0.99,0.45,1.4,0.76s0.75,0.69,1.01,1.15c0.26,0.46,0.39,1.04,0.39,1.73
			c0,0.68-0.11,1.33-0.34,1.93c-0.23,0.6-0.56,1.13-1,1.59c-0.44,0.46-0.98,0.83-1.62,1.12c-0.64,0.29-1.37,0.46-2.2,0.52
			l-0.13,1.62c-0.01,0.17-0.09,0.33-0.22,0.47c-0.13,0.14-0.31,0.22-0.52,0.22h-1L518.02,179.24z M516.9,167.34
			c0,0.28,0.05,0.53,0.14,0.74c0.1,0.21,0.23,0.4,0.4,0.57c0.17,0.17,0.38,0.31,0.61,0.44s0.49,0.25,0.77,0.35l0.34-4.09
			c-0.4,0.05-0.75,0.14-1.04,0.26c-0.29,0.12-0.52,0.27-0.71,0.45s-0.32,0.37-0.4,0.59C516.94,166.86,516.9,167.09,516.9,167.34z
			 M522.26,174.56c0-0.28-0.05-0.52-0.15-0.73c-0.1-0.21-0.24-0.4-0.42-0.56c-0.18-0.16-0.39-0.3-0.63-0.42
			c-0.24-0.12-0.51-0.22-0.79-0.32l-0.38,4.48c0.78-0.1,1.37-0.37,1.77-0.79C522.06,175.79,522.26,175.24,522.26,174.56z"/>
		<path class="st0" d="M530.81,179.24c-0.86-0.12-1.67-0.35-2.42-0.71c-0.75-0.35-1.4-0.79-1.93-1.31l0.84-1.25
			c0.07-0.11,0.17-0.2,0.29-0.27c0.12-0.07,0.25-0.1,0.38-0.1c0.16,0,0.34,0.06,0.52,0.17c0.18,0.11,0.39,0.25,0.63,0.4
			c0.24,0.15,0.5,0.31,0.81,0.46c0.3,0.15,0.66,0.27,1.07,0.34l0.42-4.94c-0.52-0.15-1.04-0.32-1.55-0.52
			c-0.51-0.2-0.97-0.46-1.38-0.79c-0.41-0.33-0.74-0.74-0.99-1.25c-0.25-0.5-0.38-1.13-0.38-1.88c0-0.56,0.11-1.11,0.34-1.64
			c0.22-0.54,0.55-1.01,0.98-1.43c0.43-0.42,0.95-0.77,1.58-1.04c0.62-0.27,1.34-0.41,2.15-0.41l0.12-1.41
			c0.01-0.18,0.09-0.34,0.22-0.48s0.3-0.21,0.52-0.21h1l-0.19,2.17c0.78,0.13,1.45,0.35,2.02,0.66c0.57,0.32,1.06,0.67,1.48,1.07
			l-0.66,1c-0.1,0.15-0.21,0.26-0.31,0.33c-0.1,0.07-0.23,0.11-0.38,0.11c-0.11,0-0.24-0.03-0.39-0.1
			c-0.15-0.07-0.32-0.15-0.52-0.25c-0.19-0.1-0.41-0.2-0.65-0.3c-0.24-0.1-0.5-0.19-0.78-0.25l-0.39,4.57
			c0.53,0.16,1.05,0.34,1.57,0.54c0.52,0.19,0.99,0.45,1.4,0.76c0.42,0.31,0.75,0.69,1.01,1.15c0.26,0.46,0.39,1.04,0.39,1.73
			c0,0.68-0.11,1.33-0.34,1.93c-0.23,0.6-0.56,1.13-1,1.59c-0.44,0.46-0.98,0.83-1.62,1.12c-0.64,0.29-1.37,0.46-2.2,0.52
			l-0.13,1.62c-0.02,0.17-0.09,0.33-0.22,0.47c-0.13,0.14-0.3,0.22-0.52,0.22h-1L530.81,179.24z M529.7,167.34
			c0,0.28,0.05,0.53,0.14,0.74c0.09,0.21,0.23,0.4,0.4,0.57c0.17,0.17,0.38,0.31,0.61,0.44c0.23,0.13,0.49,0.25,0.77,0.35l0.34-4.09
			c-0.4,0.05-0.75,0.14-1.04,0.26c-0.29,0.12-0.52,0.27-0.71,0.45c-0.18,0.18-0.32,0.37-0.4,0.59
			C529.74,166.86,529.7,167.09,529.7,167.34z M535.06,174.56c0-0.28-0.05-0.52-0.15-0.73c-0.1-0.21-0.24-0.4-0.42-0.56
			c-0.18-0.16-0.39-0.3-0.63-0.42c-0.24-0.12-0.51-0.22-0.8-0.32l-0.38,4.48c0.78-0.1,1.37-0.37,1.77-0.79
			S535.06,175.24,535.06,174.56z"/>
	</g>
	<g>
		
			<linearGradient id="SVGID_3_" gradientUnits="userSpaceOnUse" x1="2732.1919" y1="26.5241" x2="2738.0798" y2="45.1163" gradientTransform="matrix(-0.9866 -0.163 0.163 -0.9866 3173.3101 726.0952)">
			<stop  offset="0" style="stop-color:#FFDFCC"/>
			<stop  offset="0.229" style="stop-color:#FFD1B8"/>
			<stop  offset="1" style="stop-color:#FFA473"/>
		</linearGradient>
		<path class="st11" d="M490.9,250c-1.19-3.03-0.65-6.42-0.77-9.68c-0.02-0.63-0.12-1.36-0.65-1.7c-0.77-0.5-1.79,0.2-2.2,1.01
			c-0.42,0.81-0.56,1.79-1.17,2.46c-3.22-3.16-7.52-5.21-12-5.72c-1.01-0.12-2.09-0.15-3.01,0.28c-0.92,0.43-1.65,1.45-1.43,2.45
			c4.24,2.28,7.85,5.74,10.3,9.89c1.22,2.07,2.48,4.55,4.83,5.02C487.3,254.51,489.58,252.37,490.9,250z"/>
		<path class="st0" d="M482.18,254.08c5.73,10.34,16.96,32.03,22.87,37.21c2,1.75,4.13,2.73,6.52,3h0.05
			c2.42,0.27,5.01-0.08,7.63-0.74c1.48-0.37,5.49-1.8,8.51-6.4c0.86-1.31,1.64-2.9,2.26-4.78c4.1-11.31,6.13-22.28,7.16-32.73
			c0.11-4.51-1.6-12.01-6.97-12.72c-7.55-0.98-16.79,20.79-18.69,29.66c-7.55-8.75-10.71-11.56-19.48-18.77
			c-0.03,0.04-0.06,0.06-0.08,0.08C489.21,250.41,485.56,252.5,482.18,254.08z"/>
		<path class="st12" d="M511.62,294.3c2.42,0.27,5.01-0.08,7.63-0.74c1.48-0.37,5.49-1.8,8.51-6.4c0.39-2.82,0.7-5.77,0.68-7.65
			c-0.06-3.93-6.51-14.84-6.51-14.84s-2.12,22.58-3.74,25.65C517.3,291.97,517.4,293.62,511.62,294.3z"/>
		<path class="st12" d="M491.95,247.9c10.4,7.6,23.52,26.16,23.52,26.16c-1.4-3.88-3.95-7.47-3.95-7.47
			c-7.56-8.75-10.71-11.56-19.48-18.76C492.01,247.85,491.98,247.88,491.95,247.9z"/>
		
			<linearGradient id="SVGID_4_" gradientUnits="userSpaceOnUse" x1="-1779.9677" y1="291.4943" x2="-1773.297" y2="271.2601" gradientTransform="matrix(1 0 0 1 2342.1721 182)">
			<stop  offset="0" style="stop-color:#FFDFCC"/>
			<stop  offset="0.229" style="stop-color:#FFD1B8"/>
			<stop  offset="1" style="stop-color:#FFA473"/>
		</linearGradient>
		<polygon class="st13" points="560.3,456.91 562.33,469.47 571.2,468.54 572.62,454.35 		"/>
		<path class="st14" d="M558.24,482.23c0.9,0.61,1.76,1.43,2.84,1.72c3.01,0.79,3.34,0.43,5.34,0.48c1.67,0.03,3.12-0.26,4.17-0.79
			c3.84-1.95,6.63-4.48,6.63-4.48s-0.3-4.23-1.34-4.99c-0.76-0.55-2.55-5.15-3.51-7.68c-0.38-1-1.34-1.69-2.46-1.78l-0.61-0.05
			l-2.88-0.22l-2.09-0.17c-1.3-0.1-2.47,0.77-2.61,1.98c-0.08,0.69-0.13,1.51-0.11,2.38c0.04,1.33-1.89,4.34-3.71,6.86
			C556.09,477.99,555.62,480.42,558.24,482.23z"/>
		<g>
			
				<linearGradient id="SVGID_5_" gradientUnits="userSpaceOnUse" x1="-1821.5944" y1="294.2642" x2="-1811.0326" y2="273.2516" gradientTransform="matrix(1 0 0 1 2342.1721 182)">
				<stop  offset="0" style="stop-color:#FFDFCC"/>
				<stop  offset="0.229" style="stop-color:#FFD1B8"/>
				<stop  offset="1" style="stop-color:#FFA473"/>
			</linearGradient>
			<polygon class="st15" points="535.74,453.96 533.96,468.88 522.77,468.99 522.77,452.66 			"/>
			<path class="st14" d="M535.26,467.07c-0.24-0.73-1.12-2.26-1.66-1.78c-1.06,0.94-2.68,0.25-5.48-0.03
				c-2.9-0.31-4.17,1.02-4.58-0.2c-0.22-0.64-0.84-0.98-1.38-0.71l-17.69,8.77c-1.08,0.53-1.92,1.53-2.34,2.78l0,0
				c-0.4,1.17,0.39,2.44,1.49,2.42l30.47-0.67c1.2-0.03,2.12-1.2,2.03-2.56l-0.47-6.72c-0.01-0.11-0.03-0.22-0.06-0.33
				L535.26,467.07z"/>
		</g>
		<path class="st16" d="M519.85,382.75c1.75,13.31,1.23,79.91,1.22,83.68h14.95c0,0,7.56-49.27,8.37-69.06v-0.01
			c0.31-7.68,0.73-13.76,1.33-15.91c0.73-2.69,1.64-13.19,2.51-25.76c0.81-11.8,1.61-25.4,2.2-36.03c0.17-3.12,0.33-6,0.45-8.47
			c0.01-0.06,0.01-0.12,0.01-0.17c0.1-1.69,0.17-3.2,0.23-4.49v-0.02c0.16-3.16,0.26-5.02,0.26-5.02l-29.8,3.97l-1.37,0.38
			c0,0-0.39,1.63-0.48,4.65c-0.01,0.51-0.03,1.05-0.04,1.62c-0.02,0.89-0.04,1.88-0.06,2.93v0.05c0,0.03-0.02,0.07-0.02,0.11
			c0,0.01,0,0.03,0.02,0.05v0.02c-0.02,0.03-0.02,0.06-0.02,0.1c-0.04,1.74-0.08,3.66-0.1,5.74
			C519.09,340.84,518.65,373.64,519.85,382.75z"/>
		<path class="st17" d="M573.27,466.01l-12.97,0.86c-0.16,0.02-3.72-18.42-4.51-22.63c-0.95-5-1.87-10-2.81-15
			c-0.95-5.1-1.9-10.19-2.86-15.28c-2.5-13.12-5.2-26.46-7.33-39.14c-3.34-19.85-5.37-36.69-7.57-56.61l19.21-8.17
			c0,0,5.99,0.54,10.14,5.14c1.09,1.19,2.05,2.67,2.74,4.47c3.36,8.75-0.5,56.25,2.37,69.1
			C572.91,403.18,573.27,466.01,573.27,466.01z"/>
		
			<linearGradient id="SVGID_6_" gradientUnits="userSpaceOnUse" x1="2662.2874" y1="276.325" x2="2685.9465" y2="276.325" gradientTransform="matrix(-1 0 0 -1 3222.8196 502)">
			<stop  offset="0" style="stop-color:#FFDFCC"/>
			<stop  offset="1" style="stop-color:#FFA473"/>
		</linearGradient>
		<path class="st18" d="M560.53,235.35c-7.17,7.51-23.66,5.17-23.66,5.17c2.54-6.45,2.87-11.9,2.61-15.62
			c-0.23-3.42-0.97-5.4-0.97-5.4l15.02-9.01c-0.06,6.96,3.86,17.35,5.86,22.19C560.07,234.34,560.53,235.35,560.53,235.35z"/>
		
			<linearGradient id="SVGID_7_" gradientUnits="userSpaceOnUse" x1="2666.1003" y1="269.2098" x2="2675.2153" y2="282.6784" gradientTransform="matrix(-1 0 0 -1 3222.8196 502)">
			<stop  offset="0.3242" style="stop-color:#FCB17E;stop-opacity:0.7"/>
			<stop  offset="1" style="stop-color:#F28C5F"/>
		</linearGradient>
		<path class="st19" d="M559.39,232.68c-8.83-1.71-15.32-4.76-19.91-7.78c-0.23-3.42-0.97-5.4-0.97-5.4l15.02-9.01
			C553.47,217.45,557.39,227.83,559.39,232.68z"/>
		<path class="st20" d="M571.63,322.23c0,0-1.31,0.09-3.42,0.22c-0.85,0.05-12.44,0.73-13.52,0.8c0.38-0.55,10.7-1.43,10.8-5.36
			c0.49-18.74,4.1-37.17,3.62-40.99c-0.62-4.77-2.32-14.07-2.24-15.59c0.05-0.77,2.16,1.99,4.23,4.91
			c-0.06,3.15-0.23,6.82-0.47,10.6c-0.42,6.95-1.04,14.26-1.48,19.27c-0.34,3.78-0.6,6.25-0.6,6.25l2.78,17.98L571.63,322.23z"/>
		
			<linearGradient id="SVGID_8_" gradientUnits="userSpaceOnUse" x1="-26.3912" y1="276.4057" x2="33.7944" y2="276.4057" gradientTransform="matrix(-1 0 0 1 552.3853 0)">
			<stop  offset="0" style="stop-color:#89D2F7"/>
			<stop  offset="1" style="stop-color:#46AEEC"/>
		</linearGradient>
		<path class="st21" d="M520.2,301.47c0-3.41,0.18-9.89,0.57-17.9c0.3-5.87,0.68-12.56,1.21-19.45c0.02-0.26,0.03-0.54,0.06-0.81
			c0.25-3.11,0.51-6.26,0.8-9.38c0.1-1,0.25-2.19,0.43-3.43c0.02-0.01,0.02-0.01,0.02-0.01c0.4-2.61,4.01-11.02,4.52-12.5
			c0,0,1.51-1.75,8.27-5.93c0.88-0.55,2.42-1.01,3.3-1.68c0,0-0.38,2.95-0.52,3.52c0.06,0.04,1.64,13.11,19.4-4.74l7.26,1.38
			l9.11,2.69c0,0,4.69,1.92,4.11,3.2c-0.24,0.5-0.51,1.09-0.79,1.75c0,0,0,0,0,0.01c-2.26,5.18-5.94,14.61-6.67,22.99
			c-0.09,0.96-0.14,1.91-0.14,2.83c0,0.7-0.01,1.43-0.03,2.19c-0.06,3.15-0.23,6.82-0.47,10.6c-0.42,6.95-1.04,14.26-1.48,19.27
			c-0.34,3.78-0.6,6.25-0.6,6.25l3.07,19.88c0,0-5.26,0.33-6.35,0.4c-1.16,0.06-4.14,0.25-4.32,0.25
			c-9.37,0.57-22.36,0.94-22.44,0.67c-2.56-0.34-10.5-1.66-11.3-1.71c-0.05,0-0.09-0.03-0.12-0.06c-1.89,0.17-4.52-0.17-7.13-0.52
			c-0.77-0.11-1.16-0.79-1.31-1.91C518.2,315.8,520.2,307.95,520.2,301.47z"/>
		<polygon class="st6" points="543.89,236.3 538.37,239.83 542.86,247.84 548.68,240.26 		"/>
		<polygon class="st6" points="541.7,241.84 533.99,290.83 538.37,303.16 546.82,291.5 545.52,241.7 		"/>
		<path class="st0" d="M558.12,223.62c0,0-12.48,6.51-12.84,12.02c-0.36,5.51,6.42,11.25,6.42,11.25s5.13-10.7,7.07-17.61
			C559.38,227.08,557.88,224.31,558.12,223.62z"/>
		<path class="st0" d="M538.96,227.23c0,0,2.38,6.1,4.01,8.03c1.63,1.93-7.94,10.53-7.94,10.53S534.32,234.48,538.96,227.23z"/>
		<path class="st12" d="M518.67,319.36c0.15,1.11,0.54,1.8,1.31,1.91c2.61,0.35,5.23,0.69,7.13,0.52c0.03,0.03,0.07,0.06,0.12,0.06
			c0.79,0.05,8.73,1.36,11.3,1.71c0.08,0.27,13.08-0.11,22.44-0.67c0.18-0.01,3.16-0.19,4.32-0.25c1.08-0.07,6.35-0.4,6.35-0.4
			l-3.07-19.88c0,0,0.25-2.47,0.6-6.25c0.44-5.01,1.06-12.32,1.48-19.27c0.24-3.78,0.41-7.46,0.47-10.6
			c0.02-0.76,0.03-1.5,0.03-2.19c0-0.92,0.05-1.87,0.14-2.83c0-0.01-0.01-0.01-0.01-0.02c-4.93-8.78-10.94-13.3-10.94-13.3
			s-2.1,15.92,0,30.72c-2.53,5.52-24.46,24.65-24.46,24.65l23.52-0.9c0,0,0.1,10.52-7.06,13.89c-7.15,3.37-28.41,4.37-33.25,3.21
			C518.94,319.41,518.8,319.38,518.67,319.36z"/>
		<g>
			
				<linearGradient id="SVGID_9_" gradientUnits="userSpaceOnUse" x1="2682.4158" y1="192.2832" x2="2708.5525" y2="192.2832" gradientTransform="matrix(-1 0 0 -1 3222.8196 502)">
				<stop  offset="0" style="stop-color:#FFDFCC"/>
				<stop  offset="0.229" style="stop-color:#FFD1B8"/>
				<stop  offset="1" style="stop-color:#FFA473"/>
			</linearGradient>
			<path class="st22" d="M538.66,305.84l1.56,6.66l0.18,0.79l-12.45,4.66c0,0-15.08,2.24-13.59-1.43c0.24-0.58,15.44-7.21,6.68-13.4
				c-2.95-3.38,7.56-2.04,7.56-2.04L538.66,305.84z"/>
			<path class="st0" d="M568.75,233.87c3.91-1.73,7.43-1.12,11.31,3.15c5.05,5.54,5.04,31.81,4.46,43.27
				c-0.17,3.48,0.06,12.93-4.72,15.69c-12.05,6.96-26.69,11.73-39.04,19.17c-2.51-3.45-4.17-6.97-4.89-11.91
				c10.96-9.23,18.41-13.92,28.57-23.61c-2.9-10.22-5.64-28.68-3.09-36.3C563.45,237.09,564.18,235.89,568.75,233.87z"/>
		</g>
		<g>
			<path class="st23" d="M522.8,195.44c-1.34,0.09-2.69,0-4.02-0.26c0.21,2.2,1.21,4.3,2.77,5.81c0.5,0.48,1.04,0.9,1.62,1.28
				c1.15,0.76,2.54,1.38,3.86,1.02c0.21-0.06,0.41-0.14,0.57-0.28c0.23-0.21,0.35-0.52,0.4-0.83c0.2-1.25-0.52-2.5-0.36-3.75
				c0.06-0.5,0.27-1.04,0.06-1.5c-0.31-0.69-1.23-0.7-1.97-0.75C524.62,196.11,523.56,195.71,522.8,195.44z"/>
			<path class="st23" d="M534.34,189.09l-0.13-0.15c1.31-1.22,2.53-2.57,3.63-4l0.11-0.14c0.51-0.67,1.04-1.36,1.79-1.75
				c1-0.52,2.31-0.43,3.59,0.23l-0.09,0.18c-1.23-0.64-2.47-0.72-3.41-0.23c-0.71,0.37-1.23,1.04-1.73,1.69l-0.11,0.14
				C536.89,186.5,535.66,187.85,534.34,189.09z"/>
			
				<linearGradient id="SVGID_10_" gradientUnits="userSpaceOnUse" x1="487.3344" y1="297.9837" x2="517.9254" y2="297.9837" gradientTransform="matrix(0.9993 -0.0365 0.0365 0.9993 28.695 -71.909)">
				<stop  offset="0" style="stop-color:#FFDFCC"/>
				<stop  offset="1" style="stop-color:#FFA473"/>
			</linearGradient>
			<path class="st24" d="M526.53,195.76c-0.65,9.05,0.37,17.93,3.92,26.76c0.46,1.16,1.3,2.69,2.4,3.2
				c0.62,0.29,1.33,0.28,2.01,0.23c5.49-0.41,9.82-3.58,13.03-8.19c0.39-0.55,0.75-1.14,1.29-1.53c1.42-1.03,3.61-0.46,4.71-1.82
				c1.48-2.42,3.01-4.98,3.19-7.84c0.21-3.34-1.46-6.48-3.25-9.27c-2.13-3.32-4.79-6.67-8.53-7.64c-2.13-0.55-4.37-0.26-6.51,0.2
				C534.19,190.86,529.62,192.75,526.53,195.76z"/>
			<g>
				<g>
					<g>
						<path class="st23" d="M556.29,183.56c-0.08-0.55-0.18-1.09-0.32-1.62C556.09,182.48,556.19,183.02,556.29,183.56z"/>
						<path class="st23" d="M558.1,188.17c-0.45,0.3-0.85,0.68-1.19,1.11c-0.07-1.92-0.28-3.83-0.62-5.72
							c0.33,2.3,0.1,4.69-0.69,6.86c-0.23,0.03,0.18,0.27,0.58,0.5c0.22,0.13,0.54,0.24,0.7,0.03c0.01-0.02,0.01-0.04,0.02-0.05
							c0.15,0.14,0.35,0.23,0.53,0.16c0.22-0.08,0.31-0.35,0.39-0.58c0.46-1.42,1.45-2.65,2.73-3.37
							C559.69,187.35,558.85,187.67,558.1,188.17z"/>
					</g>
				</g>
			</g>
			<path class="st23" d="M561.65,198.73c-0.04,3.21-1.52,6.5-2.32,9.6c-0.81,3.1-4.42,7.77-4.45,7.37c-0.01-0.2,0.56-2.31,0.79-3.17
				c0.62-1.91,0.45-3.76,0.12-5.52c-0.2-1.07-0.57-2.27-1.54-2.7c-0.51-0.23-1.09-0.19-1.63-0.05c-1.98,0.52-3.49,2.53-3.51,4.65
				c-0.69-0.05-1.08,0.08-1.47,0.16c-0.11,0.02-0.23,0.04-0.34,0c-0.24-0.09-0.29-0.43-0.3-0.69c-0.08-1.43-0.48-2.81-0.89-4.18
				c-0.15-0.53-0.31-1.06-0.64-1.5c-0.32-0.43-0.85-0.75-1.37-0.65c-0.36,0.07-0.75,0.31-1.05,0.09c-0.11-0.08-0.18-0.21-0.24-0.33
				c-0.92-1.84-1.85-3.68-2.78-5.52c-0.05-0.11-0.11-0.22-0.16-0.32c-4.29-0.61-8.28,1.07-11.76,3.29c-2.2,0.37-3.84-0.7-5.08-1.95
				c-0.86-0.87-1.64-1.86-2.1-3.01c-0.51-1.25-0.84-2.8-0.57-4.13c4.22,0.42,6.38,0.08,9.1-1.44c1.59-0.89,3.51-2.86,8.02-3.82
				c1.38-0.3,4.15-0.7,4.1-2.16c2.27-0.17,4.85,0.56,7.27,0.84c1.09,0.12,2.21,0.26,3.22,0.7c2.25,0.99,3.61,3.34,4.82,5.54
				c0.24,0.03,0.48,0.09,0.71,0.17c1.41,0.49,2.67,1.77,3.3,3.24C561.63,194.94,561.67,196.87,561.65,198.73z"/>
			<path class="st23" d="M523.97,192.49c-0.88,0.03-1.88-0.33-3-1.08l0.11-0.17c1.31,0.88,2.45,1.21,3.39,0.98
				c0.74-0.18,1.36-0.7,1.85-1.55c0.16-0.28,0.32-0.58,0.47-0.87c0.32-0.61,0.64-1.24,1.08-1.78c0.85-1.07,2.11-1.75,3.44-1.87
				c1.33-0.11,2.69,0.33,3.71,1.23l-0.13,0.15c-0.98-0.87-2.28-1.29-3.57-1.18c-1.28,0.11-2.49,0.77-3.31,1.79
				c-0.42,0.53-0.74,1.15-1.05,1.75c-0.15,0.29-0.31,0.59-0.47,0.88c-0.52,0.9-1.18,1.45-1.97,1.64
				C524.33,192.46,524.15,192.49,523.97,192.49z"/>
			<path class="st23" d="M524.85,198c-1.14,0.04-2.27-0.42-2.97-0.79c-0.88-0.46-1.51-0.93-1.97-1.48c-1.15-1.36-1.36-3.3-1.53-4.85
				l0.19-0.02c0.21,1.88,0.46,3.53,1.49,4.74c0.45,0.53,1.06,0.98,1.91,1.43c1.01,0.52,2.91,1.26,4.39,0.32l0.1,0.17
				C525.94,197.84,525.39,197.98,524.85,198z"/>
			<path class="st23" d="M556.29,191.5l-0.19-0.02c0.1-1.18,0.21-2.4,0.02-3.59c-0.21-1.32-0.79-2.39-1.62-3.03
				c-0.52-0.4-1.19-0.67-2-0.81c-0.71-0.12-1.35-0.12-1.92,0.01c-0.62,0.14-1.21,0.44-1.79,0.74c-0.81,0.41-1.64,0.84-2.55,0.82
				l0-0.2c0.87,0.02,1.64-0.38,2.47-0.8c0.59-0.3,1.19-0.61,1.83-0.75c0.6-0.14,1.27-0.14,2-0.02c0.84,0.15,1.54,0.43,2.08,0.84
				c0.87,0.67,1.47,1.79,1.69,3.16C556.51,189.07,556.4,190.3,556.29,191.5z"/>
			<path class="st23" d="M561.22,200.83l-0.19,0c-0.01-1.44,0.33-2.85,0.66-4.22c0.13-0.52,0.26-1.07,0.37-1.6
				c0.14-0.69,0.26-1.43,0.15-2.15c-0.16-1.06-0.84-2.02-1.78-2.5c-0.93-0.48-2.08-0.47-3,0.04l-0.09-0.18
				c0.97-0.53,2.19-0.55,3.18-0.04c0.99,0.51,1.71,1.52,1.88,2.65c0.12,0.75,0,1.51-0.15,2.22c-0.11,0.54-0.24,1.08-0.37,1.61
				C561.55,198.01,561.22,199.42,561.22,200.83z"/>
			
				<linearGradient id="SVGID_11_" gradientUnits="userSpaceOnUse" x1="511.3237" y1="279.6656" x2="513.322" y2="301.56" gradientTransform="matrix(0.9993 -0.0365 0.0365 0.9993 28.695 -71.909)">
				<stop  offset="0" style="stop-color:#2B1504"/>
				<stop  offset="0.1384" style="stop-color:#2F1806"/>
				<stop  offset="0.2803" style="stop-color:#3B200D"/>
				<stop  offset="0.4239" style="stop-color:#502F19"/>
				<stop  offset="0.5686" style="stop-color:#6D4329"/>
				<stop  offset="0.7143" style="stop-color:#925D3E"/>
				<stop  offset="0.8586" style="stop-color:#BF7C57"/>
				<stop  offset="1" style="stop-color:#F2A074"/>
			</linearGradient>
			<path class="st25" d="M561.65,198.73c-0.04,3.21-0.76,6.36-1.57,9.46c-0.81,3.1-3.4,7.44-5.71,9.6c-0.52-1.4-0.61-2.8-0.64-3.2
				c0.16-0.18,0.83-1.18,1.13-2.02c0.62-1.91,1.26-3.79,0.93-5.55c-0.2-1.07-0.57-2.27-1.54-2.7c-0.51-0.23-1.09-0.19-1.63-0.05
				c-1.98,0.52-3.49,2.53-3.51,4.65c-0.69-0.05-1.08,0.08-1.47,0.16c-0.11,0.02-0.23,0.04-0.34,0c-0.24-0.09-0.29-0.43-0.3-0.69
				c-0.08-1.43-0.48-2.81-0.89-4.18c-0.15-0.53-0.31-1.06-0.64-1.5c-0.32-0.43-0.85-0.75-1.37-0.65c-0.36,0.07-0.75,0.31-1.05,0.09
				c-0.11-0.08-0.18-0.21-0.24-0.33c-0.92-1.84-1.85-3.68-2.78-5.52c1.71-0.08,11.83-0.79,17.08-5.85c0.16-0.16,0.32-0.3,0.48-0.44
				c1.41,0.49,2.67,1.77,3.3,3.24C561.63,194.94,561.67,196.87,561.65,198.73z"/>
			<g>
				
					<linearGradient id="SVGID_12_" gradientUnits="userSpaceOnUse" x1="-424.2441" y1="268.755" x2="-429.7048" y2="266.6881" gradientTransform="matrix(0.9981 0.0612 -0.0612 0.9981 995.6493 -31.4534)">
					<stop  offset="0" style="stop-color:#FFC5A3"/>
					<stop  offset="1" style="stop-color:#F07E3C"/>
				</linearGradient>
				<path class="st26" d="M551.02,207.49c0.38-0.76,0.9-1.57,1.73-1.72c0.16-0.03,0.34-0.03,0.49,0.03
					c0.36,0.14,0.53,0.55,0.62,0.93c0.36,1.59-0.09,3.24-0.56,4.8c-0.11,0.36-0.22,0.73-0.45,1.02c-0.23,0.29-0.61,0.5-0.98,0.42
					c-0.34-0.08-0.59-0.39-0.69-0.72c-0.1-0.33-0.09-0.69-0.07-1.04C551.18,209.87,551.24,208.53,551.02,207.49z"/>
				<ellipse transform="matrix(1 -2.218654e-03 2.218654e-03 1 -0.4567 1.1958)" cx="538.73" cy="206.45" rx="1.18" ry="1.56"/>
				<path d="M536.81,202.64c-0.1,0.14-0.19,0.35-0.12,0.51c0.23,0.45,1-0.01,1.48-0.16c1.06-0.33,2.2-0.36,3.27-0.09
					c-0.23-0.3-0.62-0.43-0.98-0.53c-0.63-0.16-1.27-0.27-1.91-0.31c-0.35-0.02-0.71-0.03-1.04,0.1
					C537.19,202.29,536.88,202.55,536.81,202.64z"/>
				<path d="M530.79,203.63c0.1,0.11,0.2,0.29,0.15,0.43c-0.16,0.41-0.86,0.08-1.29-0.01c-0.94-0.19-1.93-0.12-2.83,0.22
					c0.17-0.28,0.49-0.43,0.8-0.54c0.53-0.2,1.07-0.35,1.62-0.44c0.3-0.05,0.61-0.09,0.9-0.01
					C530.43,203.36,530.72,203.56,530.79,203.63z"/>
				<ellipse transform="matrix(1 -2.218654e-03 2.218654e-03 1 -0.4582 1.1745)" cx="529.14" cy="207.13" rx="1.13" ry="1.41"/>
				
					<linearGradient id="SVGID_13_" gradientUnits="userSpaceOnUse" x1="-441.5736" y1="213.8592" x2="-448.4767" y2="219.8851" gradientTransform="matrix(1 -2.218655e-03 2.218655e-03 1 979.7638 -6.8194)">
					<stop  offset="0" style="stop-color:#FAA878"/>
					<stop  offset="1" style="stop-color:#F07E3C"/>
				</linearGradient>
				<path class="st27" d="M534.29,208.57c0,0-1.79,4.65-1.75,5.36c0.04,0.71,2.69,0.38,2.69,0.38L534.29,208.57z"/>
				<path class="st4" d="M534.38,217.97c0.97-0.16,1.97-0.14,2.95-0.35c1.31-0.28,2.38-0.5,3.1-1.24c-0.07,2.03-2.67,3.9-4.52,4.46
					c-0.28,0.08-0.57,0.14-0.86,0.08c-0.28-0.06-0.81-2.01-0.89-2.31S534.26,217.99,534.38,217.97z"/>
			</g>
		</g>
	</g>
</g>
</svg>
