<svg xmlns="http://www.w3.org/2000/svg" xmlns:xlink="http://www.w3.org/1999/xlink" version="1.1" style="enable-background:new 0 0 750 500;" xml:space="preserve" width="682" height="386"><rect id="backgroundrect" width="100%" height="100%" x="0" y="0" fill="none" stroke="none"/>
<style type="text/css">
	.st0{fill:#DCE4EA;}
	.st1{fill:#46AEEC;}
	.st2{fill:#A6CAE1;}
	.st3{fill:#C8EAFC;}
	.st4{fill-rule:evenodd;clip-rule:evenodd;fill:#0C3B7C;}
	.st5{fill:#FFFFFF;}
	.st6{fill:#00BAFC;}
	.st7{fill:url(#SVGID_1_);}
	.st8{fill:url(#SVGID_2_);}
	.st9{fill:#193E6D;}
	.st10{fill:#FF5A5F;}
	.st11{fill:url(#SVGID_3_);}
	.st12{fill:#7C5EC1;}
	.st13{fill:#5EC198;}
</style>

<g class="currentLayer" style=""><title>Layer 1</title><g id="svg_1" class="">
	<g id="svg_2">
		<g id="svg_3">
			<path class="st0" d="M32.079998626708985,277.4499983215332 v30.82 c0,19.76 16.02,35.78 35.78,35.78 h176.86 v-66.6 H32.079998626708985 z" id="svg_4"/>
			<path class="st0" d="M-0.0000013732910133512632,-0.0000016784667948854803 h338.79 c0,0 47.19,3.77 47.19,64.17 c0,60.4 0,213.28 0,213.28 H32.079998626708985 V67.2499983215332 c0,-19.82 -7.22,-38.96 -20.3,-53.85 L-0.0000013732910133512632,-0.0000016784667948854803 z" id="svg_5"/>
			<g id="svg_6">
				<rect x="82.47999954223633" y="166.59999465942383" class="st1" width="102.86000061035156" height="8.989999771118164" id="svg_7"/>
				<rect x="82.47999954223633" y="195.9599952697754" class="st1" width="69.11000061035156" height="8.989999771118164" id="svg_8"/>
				<rect x="82.47999954223633" y="225.31999588012695" class="st1" width="91.87000274658203" height="8.989999771118164" id="svg_9"/>
				<rect x="82.47999954223633" y="254.68001174926758" class="st1" width="118.06999969482422" height="8.989999771118164" id="svg_10"/>
				<rect x="82.47999954223633" y="284.0399971008301" class="st1" width="187.2899932861328" height="8.989999771118164" id="svg_11"/>
				<rect x="305.61001205444336" y="166.59999465942383" class="st1" width="36.15999984741211" height="8.989999771118164" id="svg_12"/>
				<rect x="315.85000228881836" y="195.9599952697754" class="st1" width="25.920000076293945" height="8.989999771118164" id="svg_13"/>
				<rect x="305.61001205444336" y="225.31999588012695" class="st1" width="36.15999984741211" height="8.989999771118164" id="svg_14"/>
				<rect x="305.61001205444336" y="254.68001174926758" class="st1" width="36.15999984741211" height="8.989999771118164" id="svg_15"/>
				<rect x="315.85000228881836" y="284.0399971008301" class="st1" width="25.920000076293945" height="8.989999771118164" id="svg_16"/>
			</g>
			<g id="svg_17">
				<rect x="163.91999435424805" y="85.56999588012695" class="st1" width="103.87000274658203" height="10.760000228881836" id="svg_18"/>
				<rect x="183.41999435424805" y="40.2599983215332" class="st1" width="64.87000274658203" height="10.760000228881836" id="svg_19"/>
				<rect x="143.8599967956543" y="62.90999984741211" class="st1" width="143.99000549316406" height="10.760000228881836" id="svg_20"/>
			</g>
			<g id="svg_21">
				<g id="svg_22">
					<g id="svg_23">
						<path class="st2" d="M137.31999862670898,133.2199983215332 c-0.35000000000000003,0 -0.7100000000000001,-0.12000000000000001 -1,-0.36000000000000004 l-5.43,-4.5 c-0.6700000000000002,-0.55 -0.7600000000000001,-1.54 -0.21000000000000002,-2.2 c0.55,-0.6600000000000001 1.54,-0.7600000000000001 2.2,-0.21000000000000002 l5.43,4.5 c0.6700000000000002,0.55 0.7600000000000001,1.54 0.21000000000000002,2.2 C138.209998626709,133.0299983215332 137.769998626709,133.2199983215332 137.31999862670898,133.2199983215332 z" id="svg_24"/>
					</g>
					<g id="svg_25">
						<path class="st2" d="M131.88999862670897,133.2199983215332 c-0.45,0 -0.8900000000000001,-0.19000000000000003 -1.2,-0.56 c-0.55,-0.6600000000000001 -0.46,-1.6500000000000001 0.21000000000000002,-2.2 l5.43,-4.5 c0.6600000000000001,-0.55 1.6500000000000001,-0.46 2.2,0.21000000000000002 c0.55,0.6600000000000001 0.46,1.6500000000000001 -0.21000000000000002,2.2 l-5.43,4.5 C132.589998626709,133.0999983215332 132.239998626709,133.2199983215332 131.88999862670897,133.2199983215332 z" id="svg_26"/>
					</g>
				</g>
				<g id="svg_27">
					<g id="svg_28">
						<path class="st2" d="M299.199998626709,133.2199983215332 c-0.35000000000000003,0 -0.7100000000000001,-0.12000000000000001 -1,-0.36000000000000004 l-5.43,-4.5 c-0.6600000000000001,-0.55 -0.7600000000000001,-1.54 -0.21000000000000002,-2.2 c0.55,-0.6700000000000002 1.54,-0.7500000000000001 2.2,-0.21000000000000002 l5.43,4.5 c0.6600000000000001,0.55 0.7600000000000001,1.54 0.21000000000000002,2.2 C300.099998626709,133.0299983215332 299.64999862670896,133.2199983215332 299.199998626709,133.2199983215332 z" id="svg_29"/>
					</g>
					<g id="svg_30">
						<path class="st2" d="M293.76999862670897,133.2199983215332 c-0.45,0 -0.8900000000000001,-0.19000000000000003 -1.2,-0.56 c-0.55,-0.6600000000000001 -0.46,-1.6500000000000001 0.21000000000000002,-2.2 l5.43,-4.5 c0.6600000000000001,-0.55 1.6500000000000001,-0.46 2.2,0.21000000000000002 c0.55,0.6600000000000001 0.46,1.6500000000000001 -0.21000000000000002,2.2 l-5.43,4.5 C294.479998626709,133.0999983215332 294.119998626709,133.2199983215332 293.76999862670897,133.2199983215332 z" id="svg_31"/>
					</g>
				</g>
				<g id="svg_32">
					<g id="svg_33">
						<path class="st2" d="M274.299998626709,133.2199983215332 c-0.35000000000000003,0 -0.7100000000000001,-0.12000000000000001 -1,-0.36000000000000004 l-5.43,-4.5 c-0.6700000000000002,-0.55 -0.7600000000000001,-1.54 -0.21000000000000002,-2.2 c0.55,-0.6600000000000001 1.54,-0.7600000000000001 2.2,-0.21000000000000002 l5.43,4.5 c0.6700000000000002,0.55 0.7600000000000001,1.54 0.21000000000000002,2.2 C275.189998626709,133.0299983215332 274.749998626709,133.2199983215332 274.299998626709,133.2199983215332 z" id="svg_34"/>
					</g>
					<g id="svg_35">
						<path class="st2" d="M268.869998626709,133.2199983215332 c-0.45,0 -0.8900000000000001,-0.19000000000000003 -1.2,-0.56 c-0.55,-0.6600000000000001 -0.46,-1.6500000000000001 0.21000000000000002,-2.2 l5.43,-4.5 c0.6600000000000001,-0.55 1.6500000000000001,-0.46 2.2,0.21000000000000002 c0.55,0.6600000000000001 0.46,1.6500000000000001 -0.21000000000000002,2.2 l-5.43,4.5 C269.569998626709,133.0999983215332 269.21999862670896,133.2199983215332 268.869998626709,133.2199983215332 z" id="svg_36"/>
					</g>
				</g>
				<g id="svg_37">
					<g id="svg_38">
						<path class="st2" d="M261.849998626709,133.2199983215332 c-0.35000000000000003,0 -0.7100000000000001,-0.12000000000000001 -1,-0.36000000000000004 l-5.43,-4.5 c-0.6700000000000002,-0.55 -0.7600000000000001,-1.54 -0.21000000000000002,-2.2 c0.55,-0.6600000000000001 1.54,-0.7600000000000001 2.2,-0.21000000000000002 l5.43,4.5 c0.6700000000000002,0.55 0.7600000000000001,1.54 0.21000000000000002,2.2 C262.739998626709,133.0299983215332 262.299998626709,133.2199983215332 261.849998626709,133.2199983215332 z" id="svg_39"/>
					</g>
					<g id="svg_40">
						<path class="st2" d="M256.409998626709,133.2199983215332 c-0.45,0 -0.8900000000000001,-0.19000000000000003 -1.2,-0.56 c-0.55,-0.6600000000000001 -0.46,-1.6500000000000001 0.21000000000000002,-2.2 l5.43,-4.5 c0.6600000000000001,-0.55 1.6500000000000001,-0.46 2.2,0.21000000000000002 c0.55,0.6600000000000001 0.46,1.6500000000000001 -0.21000000000000002,2.2 l-5.43,4.5 C257.119998626709,133.0999983215332 256.76999862670897,133.2199983215332 256.409998626709,133.2199983215332 z" id="svg_41"/>
					</g>
				</g>
				<g id="svg_42">
					<g id="svg_43">
						<path class="st2" d="M249.38999862670897,133.2199983215332 c-0.35000000000000003,0 -0.7100000000000001,-0.12000000000000001 -1,-0.36000000000000004 l-5.43,-4.5 c-0.6700000000000002,-0.55 -0.7600000000000001,-1.54 -0.21000000000000002,-2.2 c0.55,-0.6600000000000001 1.53,-0.7600000000000001 2.2,-0.21000000000000002 l5.43,4.5 c0.6700000000000002,0.55 0.7600000000000001,1.54 0.21000000000000002,2.2 C250.289998626709,133.0299983215332 249.83999862670896,133.2199983215332 249.38999862670897,133.2199983215332 z" id="svg_44"/>
					</g>
					<g id="svg_45">
						<path class="st2" d="M243.95999862670897,133.2199983215332 c-0.45,0 -0.8900000000000001,-0.19000000000000003 -1.2,-0.56 c-0.55,-0.6600000000000001 -0.46,-1.6500000000000001 0.21000000000000002,-2.2 l5.43,-4.5 c0.6600000000000001,-0.55 1.6500000000000001,-0.46 2.2,0.21000000000000002 s0.46,1.6500000000000001 -0.21000000000000002,2.2 l-5.43,4.5 C244.669998626709,133.0999983215332 244.309998626709,133.2199983215332 243.95999862670897,133.2199983215332 z" id="svg_46"/>
					</g>
				</g>
				<g id="svg_47">
					<g id="svg_48">
						<path class="st2" d="M236.93999862670898,133.2199983215332 c-0.35000000000000003,0 -0.7100000000000001,-0.12000000000000001 -1,-0.36000000000000004 l-5.43,-4.5 c-0.6700000000000002,-0.55 -0.7600000000000001,-1.54 -0.21000000000000002,-2.2 c0.55,-0.6600000000000001 1.54,-0.7600000000000001 2.2,-0.21000000000000002 l5.43,4.5 c0.6700000000000002,0.55 0.7600000000000001,1.54 0.21000000000000002,2.2 C237.82999862670897,133.0299983215332 237.38999862670897,133.2199983215332 236.93999862670898,133.2199983215332 z" id="svg_49"/>
					</g>
					<g id="svg_50">
						<path class="st2" d="M231.50999862670898,133.2199983215332 c-0.45,0 -0.8900000000000001,-0.19000000000000003 -1.2,-0.56 c-0.55,-0.6600000000000001 -0.46,-1.6500000000000001 0.21000000000000002,-2.2 l5.43,-4.5 c0.6600000000000001,-0.55 1.6500000000000001,-0.46 2.2,0.21000000000000002 c0.55,0.6600000000000001 0.46,1.6500000000000001 -0.21000000000000002,2.2 l-5.43,4.5 C232.20999862670897,133.0999983215332 231.859998626709,133.2199983215332 231.50999862670898,133.2199983215332 z" id="svg_51"/>
					</g>
				</g>
				<g id="svg_52">
					<g id="svg_53">
						<path class="st2" d="M224.489998626709,133.2199983215332 c-0.35000000000000003,0 -0.7100000000000001,-0.12000000000000001 -1,-0.36000000000000004 l-5.43,-4.5 c-0.6700000000000002,-0.55 -0.7600000000000001,-1.54 -0.21000000000000002,-2.2 c0.55,-0.6600000000000001 1.54,-0.7600000000000001 2.2,-0.21000000000000002 l5.43,4.5 c0.6700000000000002,0.55 0.7600000000000001,1.54 0.21000000000000002,2.2 C225.37999862670898,133.0299983215332 224.93999862670898,133.2199983215332 224.489998626709,133.2199983215332 z" id="svg_54"/>
					</g>
					<g id="svg_55">
						<path class="st2" d="M219.059998626709,133.2199983215332 c-0.45,0 -0.8900000000000001,-0.19000000000000003 -1.2,-0.56 c-0.55,-0.6600000000000001 -0.46,-1.6500000000000001 0.21000000000000002,-2.2 l5.43,-4.5 c0.6600000000000001,-0.55 1.6500000000000001,-0.46 2.2,0.21000000000000002 c0.55,0.6600000000000001 0.46,1.6500000000000001 -0.21000000000000002,2.2 l-5.43,4.5 C219.75999862670898,133.0999983215332 219.40999862670898,133.2199983215332 219.059998626709,133.2199983215332 z" id="svg_56"/>
					</g>
				</g>
				<g id="svg_57">
					<g id="svg_58">
						<path class="st2" d="M286.749998626709,133.2199983215332 c-0.35000000000000003,0 -0.7100000000000001,-0.12000000000000001 -1,-0.36000000000000004 l-5.43,-4.5 c-0.6700000000000002,-0.55 -0.7600000000000001,-1.54 -0.21000000000000002,-2.2 c0.55,-0.6600000000000001 1.54,-0.7600000000000001 2.2,-0.21000000000000002 l5.43,4.5 c0.6600000000000001,0.55 0.7600000000000001,1.54 0.21000000000000002,2.2 C287.64999862670896,133.0299983215332 287.199998626709,133.2199983215332 286.749998626709,133.2199983215332 z" id="svg_59"/>
					</g>
					<g id="svg_60">
						<path class="st2" d="M281.319998626709,133.2199983215332 c-0.45,0 -0.8900000000000001,-0.19000000000000003 -1.2,-0.56 c-0.55,-0.6600000000000001 -0.46,-1.6500000000000001 0.21000000000000002,-2.2 l5.43,-4.5 c0.6600000000000001,-0.55 1.6500000000000001,-0.46 2.2,0.21000000000000002 c0.55,0.6600000000000001 0.46,1.6500000000000001 -0.21000000000000002,2.2 l-5.43,4.5 C282.02999862670896,133.0999983215332 281.669998626709,133.2199983215332 281.319998626709,133.2199983215332 z" id="svg_61"/>
					</g>
				</g>
				<g id="svg_62">
					<g id="svg_63">
						<path class="st2" d="M199.57999862670897,133.2199983215332 c-0.35000000000000003,0 -0.7100000000000001,-0.12000000000000001 -1,-0.36000000000000004 l-5.43,-4.5 c-0.6700000000000002,-0.55 -0.7600000000000001,-1.54 -0.21000000000000002,-2.2 c0.55,-0.6600000000000001 1.54,-0.7600000000000001 2.2,-0.21000000000000002 l5.43,4.5 c0.6700000000000002,0.55 0.7600000000000001,1.54 0.21000000000000002,2.2 C200.46999862670899,133.0299983215332 200.029998626709,133.2199983215332 199.57999862670897,133.2199983215332 z" id="svg_64"/>
					</g>
					<g id="svg_65">
						<path class="st2" d="M194.149998626709,133.2199983215332 c-0.45,0 -0.8900000000000001,-0.19000000000000003 -1.2,-0.56 c-0.55,-0.6600000000000001 -0.46,-1.6500000000000001 0.21000000000000002,-2.2 l5.43,-4.5 c0.6600000000000001,-0.55 1.6500000000000001,-0.46 2.2,0.21000000000000002 c0.55,0.6600000000000001 0.46,1.6500000000000001 -0.21000000000000002,2.2 l-5.43,4.5 C194.85999862670897,133.0999983215332 194.499998626709,133.2199983215332 194.149998626709,133.2199983215332 z" id="svg_66"/>
					</g>
				</g>
				<g id="svg_67">
					<g id="svg_68">
						<path class="st2" d="M187.12999862670898,133.2199983215332 c-0.35000000000000003,0 -0.7100000000000001,-0.12000000000000001 -1,-0.36000000000000004 l-5.43,-4.5 c-0.6700000000000002,-0.55 -0.7600000000000001,-1.54 -0.21000000000000002,-2.2 c0.55,-0.6600000000000001 1.54,-0.7600000000000001 2.2,-0.21000000000000002 l5.43,4.5 c0.6700000000000002,0.55 0.7600000000000001,1.54 0.21000000000000002,2.2 C188.019998626709,133.0299983215332 187.57999862670897,133.2199983215332 187.12999862670898,133.2199983215332 z" id="svg_69"/>
					</g>
					<g id="svg_70">
						<path class="st2" d="M181.69999862670898,133.2199983215332 c-0.45,0 -0.8900000000000001,-0.19000000000000003 -1.2,-0.56 c-0.55,-0.6600000000000001 -0.46,-1.6500000000000001 0.21000000000000002,-2.2 l5.43,-4.5 c0.6600000000000001,-0.55 1.6500000000000001,-0.46 2.2,0.21000000000000002 c0.55,0.6600000000000001 0.46,1.6500000000000001 -0.21000000000000002,2.2 l-5.43,4.5 C182.399998626709,133.0999983215332 182.049998626709,133.2199983215332 181.69999862670898,133.2199983215332 z" id="svg_71"/>
					</g>
				</g>
				<g id="svg_72">
					<g id="svg_73">
						<path class="st2" d="M162.21999862670899,133.2199983215332 c-0.35000000000000003,0 -0.7100000000000001,-0.12000000000000001 -1,-0.36000000000000004 l-5.43,-4.5 c-0.6700000000000002,-0.55 -0.7600000000000001,-1.54 -0.21000000000000002,-2.2 c0.55,-0.6600000000000001 1.54,-0.7600000000000001 2.2,-0.21000000000000002 l5.43,4.5 c0.6700000000000002,0.55 0.7600000000000001,1.54 0.21000000000000002,2.2 C163.119998626709,133.0299983215332 162.66999862670897,133.2199983215332 162.21999862670899,133.2199983215332 z" id="svg_74"/>
					</g>
					<g id="svg_75">
						<path class="st2" d="M156.78999862670898,133.2199983215332 c-0.45,0 -0.8900000000000001,-0.19000000000000003 -1.2,-0.56 c-0.55,-0.6600000000000001 -0.46,-1.6500000000000001 0.21000000000000002,-2.2 l5.43,-4.5 c0.6600000000000001,-0.55 1.6500000000000001,-0.46 2.2,0.21000000000000002 c0.55,0.6600000000000001 0.46,1.6500000000000001 -0.21000000000000002,2.2 l-5.43,4.5 C157.499998626709,133.0999983215332 157.13999862670897,133.2199983215332 156.78999862670898,133.2199983215332 z" id="svg_76"/>
					</g>
				</g>
				<g id="svg_77">
					<g id="svg_78">
						<path class="st2" d="M149.769998626709,133.2199983215332 c-0.35000000000000003,0 -0.7100000000000001,-0.12000000000000001 -1,-0.36000000000000004 l-5.43,-4.5 c-0.6700000000000002,-0.55 -0.7600000000000001,-1.54 -0.21000000000000002,-2.2 c0.55,-0.6600000000000001 1.54,-0.7600000000000001 2.2,-0.21000000000000002 l5.43,4.5 c0.6700000000000002,0.55 0.7600000000000001,1.54 0.21000000000000002,2.2 C150.65999862670898,133.0299983215332 150.21999862670899,133.2199983215332 149.769998626709,133.2199983215332 z" id="svg_79"/>
					</g>
					<g id="svg_80">
						<path class="st2" d="M144.339998626709,133.2199983215332 c-0.45,0 -0.8900000000000001,-0.19000000000000003 -1.2,-0.56 c-0.55,-0.6600000000000001 -0.46,-1.6500000000000001 0.21000000000000002,-2.2 l5.43,-4.5 c0.6600000000000001,-0.55 1.6500000000000001,-0.46 2.2,0.21000000000000002 c0.55,0.6600000000000001 0.46,1.6500000000000001 -0.21000000000000002,2.2 l-5.43,4.5 C145.03999862670898,133.0999983215332 144.68999862670898,133.2199983215332 144.339998626709,133.2199983215332 z" id="svg_81"/>
					</g>
				</g>
				<g id="svg_82">
					<g id="svg_83">
						<path class="st2" d="M174.679998626709,133.2199983215332 c-0.35000000000000003,0 -0.7100000000000001,-0.12000000000000001 -1,-0.36000000000000004 l-5.43,-4.5 c-0.6700000000000002,-0.55 -0.7600000000000001,-1.54 -0.21000000000000002,-2.2 c0.55,-0.6600000000000001 1.54,-0.7600000000000001 2.2,-0.21000000000000002 l5.43,4.5 c0.6700000000000002,0.55 0.7600000000000001,1.54 0.21000000000000002,2.2 C175.56999862670898,133.0299983215332 175.119998626709,133.2199983215332 174.679998626709,133.2199983215332 z" id="svg_84"/>
					</g>
					<g id="svg_85">
						<path class="st2" d="M169.239998626709,133.2199983215332 c-0.45,0 -0.8900000000000001,-0.19000000000000003 -1.2,-0.56 c-0.55,-0.6600000000000001 -0.46,-1.6500000000000001 0.21000000000000002,-2.2 l5.43,-4.5 c0.6600000000000001,-0.55 1.6500000000000001,-0.46 2.2,0.21000000000000002 c0.55,0.6600000000000001 0.46,1.6500000000000001 -0.21000000000000002,2.2 l-5.43,4.5 C169.94999862670898,133.0999983215332 169.589998626709,133.2199983215332 169.239998626709,133.2199983215332 z" id="svg_86"/>
					</g>
				</g>
				<g id="svg_87">
					<g id="svg_88">
						<path class="st2" d="M212.029998626709,133.2199983215332 c-0.35000000000000003,0 -0.7100000000000001,-0.12000000000000001 -1,-0.36000000000000004 l-5.43,-4.5 c-0.6700000000000002,-0.55 -0.7600000000000001,-1.54 -0.21000000000000002,-2.2 c0.55,-0.6600000000000001 1.54,-0.7600000000000001 2.2,-0.21000000000000002 l5.43,4.5 c0.6700000000000002,0.55 0.7600000000000001,1.54 0.21000000000000002,2.2 C212.929998626709,133.0299983215332 212.47999862670898,133.2199983215332 212.029998626709,133.2199983215332 z" id="svg_89"/>
					</g>
					<g id="svg_90">
						<path class="st2" d="M206.59999862670898,133.2199983215332 c-0.45,0 -0.8900000000000001,-0.19000000000000003 -1.2,-0.56 c-0.55,-0.6600000000000001 -0.46,-1.6500000000000001 0.21000000000000002,-2.2 l5.43,-4.5 c0.6600000000000001,-0.55 1.6500000000000001,-0.46 2.2,0.21000000000000002 c0.55,0.6600000000000001 0.46,1.6500000000000001 -0.21000000000000002,2.2 l-5.43,4.5 C207.309998626709,133.0999983215332 206.94999862670898,133.2199983215332 206.59999862670898,133.2199983215332 z" id="svg_91"/>
					</g>
				</g>
			</g>
		</g>
		<g id="svg_92">
			<path class="st2" d="M219.81999862670898,277.4499983215332 c0,0 -31.33,-2.75 -31.33,30.36 c0,33.11 -26.87,36.24 -26.87,36.24 h83.1 v-66.6 H219.81999862670898 z" id="svg_93"/>
			<path class="st3" d="M219.81999862670898,277.4499983215332 h356.14 c0,0 33.21,1.75 33.21,38.27 v43.17 H244.71999862670896 V313.4099983215332 C244.71999862670896,313.4099983215332 244.52999862670896,277.4499983215332 219.81999862670898,277.4499983215332 z" id="svg_94"/>
		</g>
		<g id="svg_95">
			<path class="st4" d="M119.519998626709,49.12999832153321 c0,-5.85 -4.75,-10.59 -10.59,-10.59 h-35.22 c-5.85,0 -10.59,4.75 -10.59,10.59 v33.98 c0,5.84 4.75,10.59 10.59,10.59 h35.22 c5.85,0 10.59,-4.75 10.59,-10.59 L119.519998626709,49.12999832153321 z" id="svg_96"/>
			<path class="st4" d="M63.109998626708986,72.80999832153321 h28.17 v20.89 H63.109998626708986 L63.109998626708986,72.80999832153321 z" id="svg_97"/>
			<g id="svg_98">
				<path class="st5" d="M88.74999862670899,75.0499983215332 l-4.54,0 v-5.43 c0,-1.1600000000000001 0.45,-1.7600000000000002 1.44,-1.9 h3.1 c2.21,0 3.64,1.3900000000000001 3.64,3.6500000000000004 C92.38999862670899,73.67999832153319 90.99999862670899,75.0499983215332 88.74999862670899,75.0499983215332 L88.74999862670899,75.0499983215332 zM84.20999862670898,60.399998321533204 v-1.4300000000000002 c0,-1.25 0.53,-1.85 1.6900000000000002,-1.92 h2.33 c1.99,0 3.19,1.19 3.19,3.19 c0,1.52 -0.8200000000000001,3.3 -3.12,3.3 h-4.09 V60.399998321533204 zM94.549998626709,65.8199983215332 l-0.8200000000000001,-0.46 l0.7200000000000001,-0.6100000000000001 c0.8300000000000001,-0.7200000000000001 2.23,-2.33 2.23,-5.11 c0,-4.26 -3.31,-7.01 -8.42,-7.01 h-5.84 v0 h-0.6700000000000002 c-1.52,0.06000000000000001 -2.73,1.29 -2.75,2.81 v24.19 h9.37 c5.69,0 9.36,-3.1 9.36,-7.890000000000001 C97.72999862670898,69.1499983215332 96.53999862670898,66.9499983215332 94.549998626709,65.8199983215332 " id="svg_99"/>
				<path class="st6" d="M100.16999862670897,76.27999832153321 c0,-1.85 1.49,-3.34 3.33,-3.34 c1.84,0 3.34,1.49 3.34,3.34 c0,1.85 -1.5,3.34 -3.34,3.34 C101.65999862670898,79.61999832153322 100.16999862670897,78.12999832153321 100.16999862670897,76.27999832153321 " id="svg_100"/>
			</g>
		</g>
	</g>
	<g id="svg_101">
		<g id="svg_102">
			<linearGradient id="SVGID_1_" gradientUnits="userSpaceOnUse" x1="138.8607940673828" y1="390.9468078613281" x2="351.50189208984375" y2="390.9468078613281" transform="translate(-34.060001373291016,-56.9900016784668) ">
				<stop offset="0" style="stop-color:#FFFFFF"/>
				<stop offset="1" style="stop-color:#F4F6F9"/>
			</linearGradient>
			<path class="st7" d="M104.799998626709,300.6599983215332 v28.05 c0,21.29 17.26,38.55 38.55,38.55 H317.439998626709 v-66.6 H104.799998626709 z" id="svg_103"/>
			<linearGradient id="SVGID_2_" gradientUnits="userSpaceOnUse" x1="106.77449798583984" y1="218.9217987060547" x2="492.75469970703125" y2="218.9217987060547" transform="translate(-34.060001373291016,-56.9900016784668) ">
				<stop offset="0" style="stop-color:#FFFFFF"/>
				<stop offset="1" style="stop-color:#F4F6F9"/>
			</linearGradient>
			<path class="st8" d="M72.70999862670898,23.209998321533206 h338.79 c0,0 47.19,3.77 47.19,64.17 c0,60.4 0,213.28 0,213.28 H104.799998626709 V90.4499983215332 c0,-19.82 -7.22,-38.96 -20.3,-53.85 L72.70999862670898,23.209998321533206 z" id="svg_104"/>
			<rect x="155.19999313354492" y="189.79999160766602" class="st1" width="102.86000061035156" height="8.989999771118164" id="svg_105"/>
			<rect x="155.19999313354492" y="219.15999221801758" class="st1" width="69.11000061035156" height="8.989999771118164" id="svg_106"/>
			<rect x="155.19999313354492" y="248.52998733520508" class="st1" width="91.87000274658203" height="8.989999771118164" id="svg_107"/>
			<rect x="155.19999313354492" y="277.8900032043457" class="st1" width="118.06999969482422" height="8.989999771118164" id="svg_108"/>
			<rect x="155.19999313354492" y="307.2499885559082" class="st1" width="187.2899932861328" height="8.989999771118164" id="svg_109"/>
			<rect x="378.3300132751465" y="189.79999160766602" class="st9" width="36.15999984741211" height="8.989999771118164" id="svg_110"/>
			<rect x="277.3200035095215" y="107.8799934387207" class="st1" width="36.15999984741211" height="5.139999866485596" id="svg_111"/>
			<rect x="223.64001083374023" y="123.06000137329102" class="st1" width="143.5" height="5.139999866485596" id="svg_112"/>
			<rect x="388.5700035095215" y="219.15999221801758" class="st9" width="25.920000076293945" height="8.989999771118164" id="svg_113"/>
			<rect x="378.3300132751465" y="248.52998733520508" class="st9" width="36.15999984741211" height="8.989999771118164" id="svg_114"/>
			<rect x="378.3300132751465" y="277.8900032043457" class="st9" width="36.15999984741211" height="8.989999771118164" id="svg_115"/>
			<rect x="388.5700035095215" y="307.2499885559082" class="st1" width="25.920000076293945" height="8.989999771118164" id="svg_116"/>
			<g id="svg_117">
				<g id="svg_118">
					<g id="svg_119">
						<path class="st2" d="M210.029998626709,156.4199983215332 c-0.35000000000000003,0 -0.7100000000000001,-0.12000000000000001 -1,-0.36000000000000004 l-5.43,-4.5 c-0.6700000000000002,-0.55 -0.7600000000000001,-1.54 -0.21000000000000002,-2.2 c0.55,-0.6600000000000001 1.54,-0.7600000000000001 2.2,-0.21000000000000002 l5.43,4.5 c0.6700000000000002,0.55 0.7600000000000001,1.54 0.21000000000000002,2.2 C210.929998626709,156.2299983215332 210.47999862670898,156.4199983215332 210.029998626709,156.4199983215332 z" id="svg_120"/>
					</g>
					<g id="svg_121">
						<path class="st2" d="M204.59999862670898,156.4199983215332 c-0.45,0 -0.8900000000000001,-0.19000000000000003 -1.2,-0.56 c-0.55,-0.6600000000000001 -0.46,-1.6500000000000001 0.21000000000000002,-2.2 l5.43,-4.5 c0.6600000000000001,-0.55 1.6500000000000001,-0.46 2.2,0.21000000000000002 c0.55,0.6600000000000001 0.46,1.6500000000000001 -0.21000000000000002,2.2 l-5.43,4.5 C205.309998626709,156.30999832153321 204.94999862670898,156.4199983215332 204.59999862670898,156.4199983215332 z" id="svg_122"/>
					</g>
				</g>
				<g id="svg_123">
					<g id="svg_124">
						<path class="st2" d="M371.919998626709,156.4199983215332 c-0.35000000000000003,0 -0.7100000000000001,-0.12000000000000001 -1,-0.36000000000000004 l-5.43,-4.5 c-0.6600000000000001,-0.55 -0.7600000000000001,-1.54 -0.21000000000000002,-2.2 c0.55,-0.6700000000000002 1.54,-0.7500000000000001 2.2,-0.21000000000000002 l5.43,4.5 c0.6600000000000001,0.55 0.7600000000000001,1.54 0.21000000000000002,2.2 C372.819998626709,156.2299983215332 372.369998626709,156.4199983215332 371.919998626709,156.4199983215332 z" id="svg_125"/>
					</g>
					<g id="svg_126">
						<path class="st2" d="M366.489998626709,156.4199983215332 c-0.45,0 -0.8900000000000001,-0.19000000000000003 -1.2,-0.56 c-0.55,-0.6600000000000001 -0.46,-1.6500000000000001 0.21000000000000002,-2.2 l5.43,-4.5 c0.6600000000000001,-0.55 1.6500000000000001,-0.46 2.2,0.21000000000000002 c0.55,0.6600000000000001 0.46,1.6500000000000001 -0.21000000000000002,2.2 l-5.43,4.5 C367.199998626709,156.30999832153321 366.83999862670896,156.4199983215332 366.489998626709,156.4199983215332 z" id="svg_127"/>
					</g>
				</g>
				<g id="svg_128">
					<g id="svg_129">
						<path class="st2" d="M347.01999862670897,156.4199983215332 c-0.35000000000000003,0 -0.7100000000000001,-0.12000000000000001 -1,-0.36000000000000004 l-5.43,-4.5 c-0.6700000000000002,-0.55 -0.7600000000000001,-1.54 -0.21000000000000002,-2.2 c0.55,-0.6600000000000001 1.54,-0.7600000000000001 2.2,-0.21000000000000002 l5.43,4.5 c0.6700000000000002,0.55 0.7600000000000001,1.54 0.21000000000000002,2.2 C347.909998626709,156.2299983215332 347.46999862670896,156.4199983215332 347.01999862670897,156.4199983215332 z" id="svg_130"/>
					</g>
					<g id="svg_131">
						<path class="st2" d="M341.57999862670897,156.4199983215332 c-0.45,0 -0.8900000000000001,-0.19000000000000003 -1.2,-0.56 c-0.55,-0.6600000000000001 -0.46,-1.6500000000000001 0.21000000000000002,-2.2 l5.43,-4.5 c0.6600000000000001,-0.55 1.6500000000000001,-0.46 2.2,0.21000000000000002 c0.55,0.6600000000000001 0.46,1.6500000000000001 -0.21000000000000002,2.2 l-5.43,4.5 C342.289998626709,156.30999832153321 341.939998626709,156.4199983215332 341.57999862670897,156.4199983215332 z" id="svg_132"/>
					</g>
				</g>
				<g id="svg_133">
					<g id="svg_134">
						<path class="st2" d="M334.559998626709,156.4199983215332 c-0.35000000000000003,0 -0.7100000000000001,-0.12000000000000001 -1,-0.36000000000000004 l-5.43,-4.5 c-0.6700000000000002,-0.55 -0.7600000000000001,-1.54 -0.21000000000000002,-2.2 c0.55,-0.6600000000000001 1.54,-0.7600000000000001 2.2,-0.21000000000000002 l5.43,4.5 c0.6700000000000002,0.55 0.7600000000000001,1.54 0.21000000000000002,2.2 C335.45999862670897,156.2299983215332 335.009998626709,156.4199983215332 334.559998626709,156.4199983215332 z" id="svg_135"/>
					</g>
					<g id="svg_136">
						<path class="st2" d="M329.129998626709,156.4199983215332 c-0.45,0 -0.8900000000000001,-0.19000000000000003 -1.2,-0.56 c-0.55,-0.6600000000000001 -0.46,-1.6500000000000001 0.21000000000000002,-2.2 l5.43,-4.5 c0.6600000000000001,-0.55 1.6500000000000001,-0.46 2.2,0.21000000000000002 c0.55,0.6600000000000001 0.46,1.6500000000000001 -0.21000000000000002,2.2 l-5.43,4.5 C329.83999862670896,156.30999832153321 329.479998626709,156.4199983215332 329.129998626709,156.4199983215332 z" id="svg_137"/>
					</g>
				</g>
				<g id="svg_138">
					<g id="svg_139">
						<path class="st2" d="M322.109998626709,156.4199983215332 c-0.35000000000000003,0 -0.7100000000000001,-0.12000000000000001 -1,-0.36000000000000004 l-5.43,-4.5 c-0.6700000000000002,-0.55 -0.7600000000000001,-1.54 -0.21000000000000002,-2.2 c0.55,-0.6600000000000001 1.53,-0.7600000000000001 2.2,-0.21000000000000002 l5.43,4.5 c0.6700000000000002,0.55 0.7600000000000001,1.54 0.21000000000000002,2.2 C322.999998626709,156.2299983215332 322.559998626709,156.4199983215332 322.109998626709,156.4199983215332 z" id="svg_140"/>
					</g>
					<g id="svg_141">
						<path class="st2" d="M316.679998626709,156.4199983215332 c-0.45,0 -0.8900000000000001,-0.19000000000000003 -1.2,-0.56 c-0.55,-0.6600000000000001 -0.46,-1.6500000000000001 0.21000000000000002,-2.2 l5.43,-4.5 c0.6600000000000001,-0.55 1.6500000000000001,-0.46 2.2,0.21000000000000002 c0.55,0.6600000000000001 0.46,1.6500000000000001 -0.21000000000000002,2.2 l-5.43,4.5 C317.379998626709,156.30999832153321 317.02999862670896,156.4199983215332 316.679998626709,156.4199983215332 z" id="svg_142"/>
					</g>
				</g>
				<g id="svg_143">
					<g id="svg_144">
						<path class="st2" d="M309.659998626709,156.4199983215332 c-0.35000000000000003,0 -0.7100000000000001,-0.12000000000000001 -1,-0.36000000000000004 l-5.43,-4.5 c-0.6700000000000002,-0.55 -0.7600000000000001,-1.54 -0.21000000000000002,-2.2 c0.55,-0.6600000000000001 1.54,-0.7600000000000001 2.2,-0.21000000000000002 l5.43,4.5 c0.6700000000000002,0.55 0.7600000000000001,1.54 0.21000000000000002,2.2 C310.549998626709,156.2299983215332 310.109998626709,156.4199983215332 309.659998626709,156.4199983215332 z" id="svg_145"/>
					</g>
					<g id="svg_146">
						<path class="st2" d="M304.21999862670896,156.4199983215332 c-0.45,0 -0.8900000000000001,-0.19000000000000003 -1.2,-0.56 c-0.55,-0.6600000000000001 -0.46,-1.6500000000000001 0.21000000000000002,-2.2 l5.43,-4.5 c0.6600000000000001,-0.55 1.6500000000000001,-0.46 2.2,0.21000000000000002 c0.55,0.6600000000000001 0.46,1.6500000000000001 -0.21000000000000002,2.2 l-5.43,4.5 C304.929998626709,156.30999832153321 304.57999862670897,156.4199983215332 304.21999862670896,156.4199983215332 z" id="svg_147"/>
					</g>
				</g>
				<g id="svg_148">
					<g id="svg_149">
						<path class="st2" d="M297.199998626709,156.4199983215332 c-0.35000000000000003,0 -0.7100000000000001,-0.12000000000000001 -1,-0.36000000000000004 l-5.43,-4.5 c-0.6700000000000002,-0.55 -0.7600000000000001,-1.54 -0.21000000000000002,-2.2 s1.54,-0.7600000000000001 2.2,-0.21000000000000002 l5.43,4.5 c0.6700000000000002,0.55 0.7600000000000001,1.54 0.21000000000000002,2.2 C298.099998626709,156.2299983215332 297.64999862670896,156.4199983215332 297.199998626709,156.4199983215332 z" id="svg_150"/>
					</g>
					<g id="svg_151">
						<path class="st2" d="M291.76999862670897,156.4199983215332 c-0.45,0 -0.8900000000000001,-0.19000000000000003 -1.2,-0.56 c-0.55,-0.6600000000000001 -0.46,-1.6500000000000001 0.21000000000000002,-2.2 l5.43,-4.5 c0.6600000000000001,-0.55 1.6500000000000001,-0.46 2.2,0.21000000000000002 c0.55,0.6600000000000001 0.46,1.6500000000000001 -0.21000000000000002,2.2 l-5.43,4.5 C292.479998626709,156.30999832153321 292.119998626709,156.4199983215332 291.76999862670897,156.4199983215332 z" id="svg_152"/>
					</g>
				</g>
				<g id="svg_153">
					<g id="svg_154">
						<path class="st2" d="M359.46999862670896,156.4199983215332 c-0.35000000000000003,0 -0.7100000000000001,-0.12000000000000001 -1,-0.36000000000000004 l-5.43,-4.5 c-0.6700000000000002,-0.55 -0.7600000000000001,-1.54 -0.21000000000000002,-2.2 c0.55,-0.6600000000000001 1.54,-0.7600000000000001 2.2,-0.21000000000000002 l5.43,4.5 c0.6600000000000001,0.55 0.7600000000000001,1.54 0.21000000000000002,2.2 C360.359998626709,156.2299983215332 359.919998626709,156.4199983215332 359.46999862670896,156.4199983215332 z" id="svg_155"/>
					</g>
					<g id="svg_156">
						<path class="st2" d="M354.039998626709,156.4199983215332 c-0.45,0 -0.8900000000000001,-0.19000000000000003 -1.2,-0.56 c-0.55,-0.6600000000000001 -0.46,-1.6500000000000001 0.21000000000000002,-2.2 l5.43,-4.5 c0.6600000000000001,-0.55 1.6500000000000001,-0.46 2.2,0.21000000000000002 c0.55,0.6600000000000001 0.46,1.6500000000000001 -0.21000000000000002,2.2 l-5.43,4.5 C354.739998626709,156.30999832153321 354.389998626709,156.4199983215332 354.039998626709,156.4199983215332 z" id="svg_157"/>
					</g>
				</g>
				<g id="svg_158">
					<g id="svg_159">
						<path class="st2" d="M272.299998626709,156.4199983215332 c-0.35000000000000003,0 -0.7100000000000001,-0.12000000000000001 -1,-0.36000000000000004 l-5.43,-4.5 c-0.6700000000000002,-0.55 -0.7600000000000001,-1.54 -0.21000000000000002,-2.2 c0.55,-0.6600000000000001 1.54,-0.7600000000000001 2.2,-0.21000000000000002 l5.43,4.5 c0.6700000000000002,0.55 0.7600000000000001,1.54 0.21000000000000002,2.2 C273.189998626709,156.2299983215332 272.749998626709,156.4199983215332 272.299998626709,156.4199983215332 z" id="svg_160"/>
					</g>
					<g id="svg_161">
						<path class="st2" d="M266.869998626709,156.4199983215332 c-0.45,0 -0.8900000000000001,-0.19000000000000003 -1.2,-0.56 c-0.55,-0.6600000000000001 -0.46,-1.6500000000000001 0.21000000000000002,-2.2 l5.43,-4.5 c0.6600000000000001,-0.55 1.6500000000000001,-0.46 2.2,0.21000000000000002 s0.46,1.6500000000000001 -0.21000000000000002,2.2 l-5.43,4.5 C267.569998626709,156.30999832153321 267.21999862670896,156.4199983215332 266.869998626709,156.4199983215332 z" id="svg_162"/>
					</g>
				</g>
				<g id="svg_163">
					<g id="svg_164">
						<path class="st2" d="M259.849998626709,156.4199983215332 c-0.35000000000000003,0 -0.7100000000000001,-0.12000000000000001 -1,-0.36000000000000004 l-5.43,-4.5 c-0.6700000000000002,-0.55 -0.7600000000000001,-1.54 -0.21000000000000002,-2.2 c0.55,-0.6600000000000001 1.54,-0.7600000000000001 2.2,-0.21000000000000002 l5.43,4.5 c0.6700000000000002,0.55 0.7600000000000001,1.54 0.21000000000000002,2.2 C260.739998626709,156.2299983215332 260.299998626709,156.4199983215332 259.849998626709,156.4199983215332 z" id="svg_165"/>
					</g>
					<g id="svg_166">
						<path class="st2" d="M254.409998626709,156.4199983215332 c-0.45,0 -0.8900000000000001,-0.19000000000000003 -1.2,-0.56 c-0.55,-0.6600000000000001 -0.46,-1.6500000000000001 0.21000000000000002,-2.2 l5.43,-4.5 c0.6600000000000001,-0.55 1.6500000000000001,-0.46 2.2,0.21000000000000002 c0.55,0.6600000000000001 0.46,1.6500000000000001 -0.21000000000000002,2.2 l-5.43,4.5 C255.119998626709,156.30999832153321 254.75999862670898,156.4199983215332 254.409998626709,156.4199983215332 z" id="svg_167"/>
					</g>
				</g>
				<g id="svg_168">
					<g id="svg_169">
						<path class="st2" d="M234.93999862670898,156.4199983215332 c-0.35000000000000003,0 -0.7100000000000001,-0.12000000000000001 -1,-0.36000000000000004 l-5.43,-4.5 c-0.6700000000000002,-0.55 -0.7600000000000001,-1.54 -0.21000000000000002,-2.2 c0.55,-0.6600000000000001 1.54,-0.7600000000000001 2.2,-0.21000000000000002 l5.43,4.5 c0.6700000000000002,0.55 0.7600000000000001,1.54 0.21000000000000002,2.2 C235.82999862670897,156.2299983215332 235.38999862670897,156.4199983215332 234.93999862670898,156.4199983215332 z" id="svg_170"/>
					</g>
					<g id="svg_171">
						<path class="st2" d="M229.50999862670898,156.4199983215332 c-0.45,0 -0.8900000000000001,-0.19000000000000003 -1.2,-0.56 c-0.55,-0.6600000000000001 -0.46,-1.6500000000000001 0.21000000000000002,-2.2 l5.43,-4.5 c0.6600000000000001,-0.55 1.6500000000000001,-0.46 2.2,0.21000000000000002 s0.46,1.6500000000000001 -0.21000000000000002,2.2 l-5.43,4.5 C230.20999862670897,156.30999832153321 229.859998626709,156.4199983215332 229.50999862670898,156.4199983215332 z" id="svg_172"/>
					</g>
				</g>
				<g id="svg_173">
					<g id="svg_174">
						<path class="st2" d="M222.489998626709,156.4199983215332 c-0.35000000000000003,0 -0.7100000000000001,-0.12000000000000001 -1,-0.36000000000000004 l-5.43,-4.5 c-0.6700000000000002,-0.55 -0.7600000000000001,-1.54 -0.21000000000000002,-2.2 c0.55,-0.6600000000000001 1.54,-0.7600000000000001 2.2,-0.21000000000000002 l5.43,4.5 c0.6700000000000002,0.55 0.7600000000000001,1.54 0.21000000000000002,2.2 C223.37999862670898,156.2299983215332 222.93999862670898,156.4199983215332 222.489998626709,156.4199983215332 z" id="svg_175"/>
					</g>
					<g id="svg_176">
						<path class="st2" d="M217.049998626709,156.4199983215332 c-0.45,0 -0.8900000000000001,-0.19000000000000003 -1.2,-0.56 c-0.55,-0.6600000000000001 -0.46,-1.6500000000000001 0.21000000000000002,-2.2 l5.43,-4.5 c0.6600000000000001,-0.55 1.6500000000000001,-0.46 2.2,0.21000000000000002 c0.55,0.6600000000000001 0.46,1.6500000000000001 -0.21000000000000002,2.2 l-5.43,4.5 C217.75999862670898,156.30999832153321 217.40999862670898,156.4199983215332 217.049998626709,156.4199983215332 z" id="svg_177"/>
					</g>
				</g>
				<g id="svg_178">
					<g id="svg_179">
						<path class="st2" d="M247.38999862670897,156.4199983215332 c-0.35000000000000003,0 -0.7100000000000001,-0.12000000000000001 -1,-0.36000000000000004 l-5.43,-4.5 c-0.6700000000000002,-0.55 -0.7600000000000001,-1.54 -0.21000000000000002,-2.2 c0.55,-0.6600000000000001 1.54,-0.7600000000000001 2.2,-0.21000000000000002 l5.43,4.5 c0.6700000000000002,0.55 0.7600000000000001,1.54 0.21000000000000002,2.2 C248.289998626709,156.2299983215332 247.83999862670896,156.4199983215332 247.38999862670897,156.4199983215332 z" id="svg_180"/>
					</g>
					<g id="svg_181">
						<path class="st2" d="M241.95999862670897,156.4199983215332 c-0.45,0 -0.8900000000000001,-0.19000000000000003 -1.2,-0.56 c-0.55,-0.6600000000000001 -0.46,-1.6500000000000001 0.21000000000000002,-2.2 l5.43,-4.5 c0.6600000000000001,-0.55 1.6500000000000001,-0.46 2.2,0.21000000000000002 c0.55,0.6600000000000001 0.46,1.6500000000000001 -0.21000000000000002,2.2 l-5.43,4.5 C242.669998626709,156.30999832153321 242.309998626709,156.4199983215332 241.95999862670897,156.4199983215332 z" id="svg_182"/>
					</g>
				</g>
				<g id="svg_183">
					<g id="svg_184">
						<path class="st2" d="M284.749998626709,156.4199983215332 c-0.35000000000000003,0 -0.7100000000000001,-0.12000000000000001 -1,-0.36000000000000004 l-5.43,-4.5 c-0.6700000000000002,-0.55 -0.7600000000000001,-1.54 -0.21000000000000002,-2.2 c0.55,-0.6600000000000001 1.54,-0.7600000000000001 2.2,-0.21000000000000002 l5.43,4.5 c0.6700000000000002,0.55 0.7600000000000001,1.54 0.21000000000000002,2.2 C285.64999862670896,156.2299983215332 285.199998626709,156.4199983215332 284.749998626709,156.4199983215332 z" id="svg_185"/>
					</g>
					<g id="svg_186">
						<path class="st2" d="M279.319998626709,156.4199983215332 c-0.45,0 -0.8900000000000001,-0.19000000000000003 -1.2,-0.56 c-0.55,-0.6600000000000001 -0.46,-1.6500000000000001 0.21000000000000002,-2.2 l5.43,-4.5 c0.6600000000000001,-0.55 1.6500000000000001,-0.46 2.2,0.21000000000000002 c0.55,0.6600000000000001 0.46,1.6500000000000001 -0.21000000000000002,2.2 l-5.43,4.5 C280.02999862670896,156.30999832153321 279.669998626709,156.4199983215332 279.319998626709,156.4199983215332 z" id="svg_187"/>
					</g>
				</g>
			</g>
			<path class="st10" d="M193.71999862670899,84.8899983215332 c-0.26,-0.6200000000000001 -0.52,-1.3 -0.78,-1.87 c-0.42000000000000004,-0.9400000000000001 -0.8300000000000001,-1.82 -1.2,-2.6500000000000004 l-0.05000000000000001,-0.05000000000000001 c-3.59,-7.8100000000000005 -7.44,-15.72 -11.5,-23.52 l-0.16000000000000003,-0.31000000000000005 c-0.42000000000000004,-0.78 -0.8300000000000001,-1.61 -1.25,-2.45 c-0.52,-0.9400000000000001 -1.04,-1.9300000000000002 -1.87,-2.8600000000000003 c-1.6700000000000002,-2.08 -4.06,-3.23 -6.61,-3.23 c-2.6,0 -4.94,1.1400000000000001 -6.66,3.12 c-0.78,0.9400000000000001 -1.35,1.9300000000000002 -1.87,2.8600000000000003 c-0.42000000000000004,0.8300000000000001 -0.8300000000000001,1.6700000000000002 -1.25,2.45 l-0.16000000000000003,0.31000000000000005 c-4.01,7.8100000000000005 -7.91,15.72 -11.5,23.52 l-0.05000000000000001,0.1 c-0.36000000000000004,0.8300000000000001 -0.78,1.7200000000000002 -1.2,2.6500000000000004 c-0.26,0.5700000000000001 -0.52,1.2 -0.78,1.87 c-0.6800000000000002,1.9300000000000002 -0.8800000000000001,3.75 -0.6200000000000001,5.62 c0.5700000000000001,3.9 3.17,7.18 6.77,8.64 c1.35,0.5700000000000001 2.7600000000000002,0.8300000000000001 4.22,0.8300000000000001 c0.42000000000000004,0 0.9400000000000001,-0.05000000000000001 1.35,-0.1 c1.7200000000000002,-0.21000000000000002 3.49,-0.78 5.2,-1.77 c2.13,-1.2 4.16,-2.91 6.45,-5.41 c2.29,2.5 4.37,4.22 6.45,5.41 c1.7200000000000002,0.99 3.49,1.56 5.2,1.77 c0.42000000000000004,0.05000000000000001 0.9400000000000001,0.1 1.35,0.1 c1.46,0 2.91,-0.26 4.22,-0.8300000000000001 c3.64,-1.46 6.19,-4.79 6.77,-8.64 C194.59999862670898,88.6399983215332 194.38999862670897,86.8199983215332 193.71999862670899,84.8899983215332 zM170.239998626709,87.5999983215332 c-2.81,-3.54 -4.63,-6.87 -5.26,-9.68 c-0.26,-1.2 -0.31000000000000005,-2.24 -0.16000000000000003,-3.17 c0.1,-0.8300000000000001 0.42000000000000004,-1.56 0.8300000000000001,-2.19 c0.99,-1.4100000000000001 2.6500000000000004,-2.29 4.58,-2.29 s3.64,0.8300000000000001 4.58,2.29 c0.42000000000000004,0.6200000000000001 0.7300000000000001,1.35 0.8300000000000001,2.19 c0.16000000000000003,0.9400000000000001 0.1,2.03 -0.16000000000000003,3.17 C174.87999862670898,80.67999832153319 173.059998626709,84.0099983215332 170.239998626709,87.5999983215332 zM191.00999862670898,90.0499983215332 c-0.36000000000000004,2.71 -2.19,5.05 -4.74,6.09 c-1.25,0.52 -2.6,0.6800000000000002 -3.96,0.52 c-1.3,-0.16000000000000003 -2.6,-0.5700000000000001 -3.96,-1.35 c-1.87,-1.04 -3.75,-2.6500000000000004 -5.93,-5.05 c3.43,-4.22 5.52,-8.07 6.3,-11.5 c0.36000000000000004,-1.61 0.42000000000000004,-3.07 0.26,-4.42 c-0.21000000000000002,-1.3 -0.6800000000000002,-2.5 -1.4100000000000001,-3.54 c-1.61,-2.34 -4.32,-3.6900000000000004 -7.34,-3.6900000000000004 c-3.02,0 -5.72,1.4100000000000001 -7.34,3.6900000000000004 c-0.7300000000000001,1.04 -1.2,2.24 -1.4100000000000001,3.54 c-0.21000000000000002,1.35 -0.16000000000000003,2.8600000000000003 0.26,4.42 c0.78,3.43 2.91,7.34 6.3,11.55 c-2.13,2.39 -4.06,4.01 -5.93,5.05 c-1.35,0.78 -2.6500000000000004,1.2 -3.96,1.35 c-1.4100000000000001,0.16000000000000003 -2.7600000000000002,-0.05000000000000001 -3.96,-0.52 c-2.55,-1.04 -4.37,-3.38 -4.74,-6.09 c-0.16000000000000003,-1.3 -0.05000000000000001,-2.6 0.47000000000000003,-4.06 c0.16000000000000003,-0.52 0.42000000000000004,-1.04 0.6800000000000002,-1.6700000000000002 c0.36000000000000004,-0.8300000000000001 0.78,-1.7200000000000002 1.2,-2.6 l0.05000000000000001,-0.1 c3.59,-7.75 7.44,-15.66 11.45,-23.37 l0.16000000000000003,-0.31000000000000005 c0.42000000000000004,-0.78 0.8300000000000001,-1.61 1.25,-2.39 c0.42000000000000004,-0.8300000000000001 0.8800000000000001,-1.61 1.46,-2.29 c1.09,-1.25 2.55,-1.9300000000000002 4.16,-1.9300000000000002 c1.61,0 3.07,0.6800000000000002 4.16,1.9300000000000002 c0.5700000000000001,0.6800000000000002 1.04,1.46 1.46,2.29 c0.42000000000000004,0.78 0.8300000000000001,1.61 1.25,2.39 l0.16000000000000003,0.31000000000000005 c3.96,7.75 7.8100000000000005,15.66 11.4,23.42 v0.05000000000000001 c0.42000000000000004,0.8300000000000001 0.78,1.77 1.2,2.6 c0.26,0.6200000000000001 0.52,1.1400000000000001 0.6800000000000002,1.6700000000000002 C191.059998626709,87.3899983215332 191.21999862670899,88.68999832153321 191.00999862670898,90.0499983215332 z" id="svg_188"/>
			<g id="svg_189">
				<path class="st9" d="M235.999998626709,63.6399983215332 h4.2 v20.94 h-4.2 V63.6399983215332 z" id="svg_190"/>
				<path class="st9" d="M262.239998626709,63.6099983215332 v20.97 h-4.2 l-9.51,-14.37 v14.37 h-4.2 V63.6099983215332 h4.2 l9.51,14.4 v-14.4 H262.239998626709 z" id="svg_191"/>
				<path class="st9" d="M280.71999862670896,63.6399983215332 h4.47 l-7.68,20.94 h-5.1 l-7.68,-20.94 h4.5 l5.76,16.65 L280.71999862670896,63.6399983215332 z" id="svg_192"/>
				<path class="st9" d="M297.429998626709,84.7899983215332 c-5.91,0 -10.74,-4.44 -10.74,-10.74 c0,-6.27 4.83,-10.71 10.74,-10.71 c5.97,0 10.71,4.44 10.71,10.71 C308.139998626709,80.3499983215332 303.369998626709,84.7899983215332 297.429998626709,84.7899983215332 zM297.429998626709,81.0399983215332 c3.7800000000000002,0 6.39,-2.73 6.39,-6.99 c0,-4.26 -2.6100000000000003,-6.93 -6.39,-6.93 c-3.81,0 -6.42,2.67 -6.42,6.93 C291.009998626709,78.30999832153321 293.619998626709,81.0399983215332 297.429998626709,81.0399983215332 z" id="svg_193"/>
				<path class="st9" d="M311.259998626709,63.6399983215332 h4.2 v20.94 h-4.2 V63.6399983215332 z" id="svg_194"/>
				<path class="st9" d="M329.199998626709,63.3699983215332 c4.65,0 8.43,2.49 9.84,6.78 h-4.83 c-0.99,-2.01 -2.79,-3 -5.04,-3 c-3.66,0 -6.27,2.67 -6.27,6.93 c0,4.23 2.6100000000000003,6.93 6.27,6.93 c2.25,0 4.05,-0.99 5.04,-3.03 h4.83 c-1.4100000000000001,4.32 -5.19,6.78 -9.84,6.78 c-6.03,0 -10.620000000000001,-4.41 -10.620000000000001,-10.68 C318.57999862670897,67.8099983215332 323.169998626709,63.3699983215332 329.199998626709,63.3699983215332 z" id="svg_195"/>
				<path class="st9" d="M354.789998626709,67.0299983215332 h-7.95 v5.25 h7.05 v3.33 h-7.05 v5.55 h7.95 v3.42 H342.639998626709 V63.6099983215332 h12.15 V67.0299983215332 z" id="svg_196"/>
			</g>
		</g>
		<g id="svg_197">
			<path class="st0" d="M292.539998626709,300.6599983215332 c0,0 -31.33,-2.75 -31.33,30.36 c0,33.11 -26.87,36.24 -26.87,36.24 h83.1 v-66.6 H292.539998626709 z" id="svg_198"/>
			<linearGradient id="SVGID_3_" gradientUnits="userSpaceOnUse" x1="521.0742797851562" y1="457.3124084472656" x2="521.3887939453125" y2="362.4667053222656" transform="translate(-34.060001373291016,-56.9900016784668) ">
				<stop offset="0.1279" style="stop-color:#F4F6F9"/>
				<stop offset="1" style="stop-color:#FFFFFF"/>
			</linearGradient>
			<path class="st11" d="M292.539998626709,300.6599983215332 h356.14 c0,0 33.21,1.75 33.21,38.27 v43.17 H317.439998626709 V336.6099983215332 C317.439998626709,336.6099983215332 317.249998626709,300.6599983215332 292.539998626709,300.6599983215332 z" id="svg_199"/>
		</g>
	</g>
	<g id="svg_200">
		<path class="st9" d="M436.599998626709,66.0699983215332 h197.56 c8.6,0 15.58,6.97 15.58,15.57 v288.8 c0,8.6 -6.97,15.58 -15.58,15.58 H436.599998626709 c-8.6,0 -15.57,-6.97 -15.57,-15.58 v-288.8 C421.01999862670897,73.0399983215332 427.999998626709,66.0699983215332 436.599998626709,66.0699983215332 z" id="svg_201"/>
		<rect x="441.61999130249023" y="92.3799934387207" class="st3" width="189.67999267578125" height="48.810001373291016" id="svg_202"/>
		<polygon class="st2" points="446.6499900817871,99.40999221801758 631.2999839782715,99.40999221801758 631.2999839782715,92.3799934387207 441.61999130249023,92.3799934387207 441.61999130249023,141.18999099731445 446.6499900817871,141.18999099731445 " id="svg_203"/>
		<path class="st12" d="M489.22999862670895,172.6999983215332 h-40.8 c-3.7600000000000002,0 -6.8100000000000005,-3.05 -6.8100000000000005,-6.8100000000000005 v-3.96 c0,-3.7600000000000002 3.05,-6.8100000000000005 6.8100000000000005,-6.8100000000000005 h40.8 c3.7600000000000002,0 6.8100000000000005,3.05 6.8100000000000005,6.8100000000000005 v3.96 C496.039998626709,169.6499983215332 492.98999862670894,172.6999983215332 489.22999862670895,172.6999983215332 z" id="svg_204"/>
		<path class="st12" d="M556.859998626709,172.6999983215332 h-40.8 c-3.7600000000000002,0 -6.8100000000000005,-3.05 -6.8100000000000005,-6.8100000000000005 v-3.96 c0,-3.7600000000000002 3.05,-6.8100000000000005 6.8100000000000005,-6.8100000000000005 h40.8 c3.7600000000000002,0 6.8100000000000005,3.05 6.8100000000000005,6.8100000000000005 v3.96 C563.669998626709,169.6499983215332 560.6199986267089,172.6999983215332 556.859998626709,172.6999983215332 z" id="svg_205"/>
		<path class="st12" d="M624.479998626709,172.6999983215332 h-40.8 c-3.7600000000000002,0 -6.8100000000000005,-3.05 -6.8100000000000005,-6.8100000000000005 v-3.96 c0,-3.7600000000000002 3.05,-6.8100000000000005 6.8100000000000005,-6.8100000000000005 h40.8 c3.7600000000000002,0 6.8100000000000005,3.05 6.8100000000000005,6.8100000000000005 v3.96 C631.299998626709,169.6499983215332 628.2499986267089,172.6999983215332 624.479998626709,172.6999983215332 z" id="svg_206"/>
		<path class="st1" d="M474.199998626709,226.03999832153318 h-23.04 c-5.27,0 -9.54,-4.27 -9.54,-9.54 v-20.34 c0,-5.27 4.27,-9.54 9.54,-9.54 h23.04 c5.27,0 9.54,4.27 9.54,9.54 v20.34 C483.73999862670894,221.7699983215332 479.46999862670896,226.03999832153318 474.199998626709,226.03999832153318 z" id="svg_207"/>
		<path class="st1" d="M523.389998626709,226.03999832153318 H500.33999862670896 c-5.27,0 -9.54,-4.27 -9.54,-9.54 v-20.34 c0,-5.27 4.27,-9.54 9.54,-9.54 h23.04 c5.27,0 9.54,4.27 9.54,9.54 v20.34 C532.919998626709,221.7699983215332 528.649998626709,226.03999832153318 523.389998626709,226.03999832153318 z" id="svg_208"/>
		<path class="st1" d="M572.569998626709,226.03999832153318 h-23.04 c-5.27,0 -9.54,-4.27 -9.54,-9.54 v-20.34 c0,-5.27 4.27,-9.54 9.54,-9.54 h23.04 c5.27,0 9.54,4.27 9.54,9.54 v20.34 C582.109998626709,221.7699983215332 577.839998626709,226.03999832153318 572.569998626709,226.03999832153318 z" id="svg_209"/>
		<path class="st1" d="M474.199998626709,274.6399983215332 h-23.04 c-5.27,0 -9.54,-4.27 -9.54,-9.54 v-20.34 c0,-5.27 4.27,-9.54 9.54,-9.54 h23.04 c5.27,0 9.54,4.27 9.54,9.54 v20.34 C483.73999862670894,270.3699983215332 479.46999862670896,274.6399983215332 474.199998626709,274.6399983215332 z" id="svg_210"/>
		<path class="st1" d="M523.389998626709,274.6399983215332 H500.33999862670896 c-5.27,0 -9.54,-4.27 -9.54,-9.54 v-20.34 c0,-5.27 4.27,-9.54 9.54,-9.54 h23.04 c5.27,0 9.54,4.27 9.54,9.54 v20.34 C532.919998626709,270.3699983215332 528.649998626709,274.6399983215332 523.389998626709,274.6399983215332 z" id="svg_211"/>
		<path class="st1" d="M572.569998626709,274.6399983215332 h-23.04 c-5.27,0 -9.54,-4.27 -9.54,-9.54 v-20.34 c0,-5.27 4.27,-9.54 9.54,-9.54 h23.04 c5.27,0 9.54,4.27 9.54,9.54 v20.34 C582.109998626709,270.3699983215332 577.839998626709,274.6399983215332 572.569998626709,274.6399983215332 z" id="svg_212"/>
		<path class="st13" d="M622.709998626709,186.61999832153322 h-24.96 c-4.74,0 -8.58,3.84 -8.58,8.58 v12.2 v10.06 v48.6 c0,4.74 3.84,8.58 8.58,8.58 h24.96 c4.74,0 8.58,-3.84 8.58,-8.58 v-48.6 V207.40999832153318 v-12.2 C631.299998626709,190.4699983215332 627.449998626709,186.61999832153322 622.709998626709,186.61999832153322 z" id="svg_213"/>
		<path class="st1" d="M474.199998626709,323.2399983215332 h-23.04 c-5.27,0 -9.54,-4.27 -9.54,-9.54 v-20.34 c0,-5.27 4.27,-9.54 9.54,-9.54 h23.04 c5.27,0 9.54,4.27 9.54,9.54 v20.34 C483.73999862670894,318.9699983215332 479.46999862670896,323.2399983215332 474.199998626709,323.2399983215332 z" id="svg_214"/>
		<path class="st1" d="M523.389998626709,323.2399983215332 H500.33999862670896 c-5.27,0 -9.54,-4.27 -9.54,-9.54 v-20.34 c0,-5.27 4.27,-9.54 9.54,-9.54 h23.04 c5.27,0 9.54,4.27 9.54,9.54 v20.34 C532.919998626709,318.9699983215332 528.649998626709,323.2399983215332 523.389998626709,323.2399983215332 z" id="svg_215"/>
		<path class="st1" d="M572.569998626709,323.2399983215332 h-23.04 c-5.27,0 -9.54,-4.27 -9.54,-9.54 v-20.34 c0,-5.27 4.27,-9.54 9.54,-9.54 h23.04 c5.27,0 9.54,4.27 9.54,9.54 v20.34 C582.109998626709,318.9699983215332 577.839998626709,323.2399983215332 572.569998626709,323.2399983215332 z" id="svg_216"/>
		<path class="st13" d="M621.759998626709,323.2399983215332 h-23.04 c-5.27,0 -9.54,-4.27 -9.54,-9.54 v-20.34 c0,-5.27 4.27,-9.54 9.54,-9.54 h23.04 c5.27,0 9.54,4.27 9.54,9.54 v20.34 C631.299998626709,318.9699983215332 627.029998626709,323.2399983215332 621.759998626709,323.2399983215332 z" id="svg_217"/>
		<path class="st13" d="M474.199998626709,371.8399983215332 h-23.04 c-5.27,0 -9.54,-4.27 -9.54,-9.54 v-20.34 c0,-5.27 4.27,-9.54 9.54,-9.54 h23.04 c5.27,0 9.54,4.27 9.54,9.54 v20.34 C483.73999862670894,367.5699983215332 479.46999862670896,371.8399983215332 474.199998626709,371.8399983215332 z" id="svg_218"/>
		<path class="st13" d="M523.389998626709,371.8399983215332 H500.33999862670896 c-5.27,0 -9.54,-4.27 -9.54,-9.54 v-20.34 c0,-5.27 4.27,-9.54 9.54,-9.54 h23.04 c5.27,0 9.54,4.27 9.54,9.54 v20.34 C532.919998626709,367.5699983215332 528.649998626709,371.8399983215332 523.389998626709,371.8399983215332 z" id="svg_219"/>
		<path class="st13" d="M572.569998626709,371.8399983215332 h-23.04 c-5.27,0 -9.54,-4.27 -9.54,-9.54 v-20.34 c0,-5.27 4.27,-9.54 9.54,-9.54 h23.04 c5.27,0 9.54,4.27 9.54,9.54 v20.34 C582.109998626709,367.5699983215332 577.839998626709,371.8399983215332 572.569998626709,371.8399983215332 z" id="svg_220"/>
		<path class="st13" d="M621.759998626709,371.8399983215332 h-23.04 c-5.27,0 -9.54,-4.27 -9.54,-9.54 v-20.34 c0,-5.27 4.27,-9.54 9.54,-9.54 h23.04 c5.27,0 9.54,4.27 9.54,9.54 v20.34 C631.299998626709,367.5699983215332 627.029998626709,371.8399983215332 621.759998626709,371.8399983215332 z" id="svg_221"/>
		<g id="svg_222">
			<path class="st9" d="M469.819998626709,115.68999832153321 h6.67 v1.47 h-2.42 v7.62 h-1.82 v-7.62 h-2.42 V115.68999832153321 z" id="svg_223"/>
			<path class="st9" d="M481.019998626709,124.89999832153319 c-2.08,0 -3.66,-1.46 -3.66,-3.72 c0,-2.2800000000000002 1.6300000000000001,-3.73 3.71,-3.73 s3.71,1.45 3.71,3.73 C484.779998626709,123.43999832153321 483.10999862670894,124.89999832153319 481.019998626709,124.89999832153319 zM481.019998626709,123.30999832153321 c0.9600000000000001,0 1.8900000000000001,-0.7000000000000001 1.8900000000000001,-2.14 c0,-1.45 -0.9,-2.14 -1.86,-2.14 c-0.9600000000000001,0 -1.84,0.6900000000000002 -1.84,2.14 C479.20999862670897,122.6099983215332 480.039998626709,123.30999832153321 481.019998626709,123.30999832153321 z" id="svg_224"/>
			<path class="st9" d="M486.409998626709,119.05999832153321 h-0.8600000000000001 v-1.5 h0.8600000000000001 v-1.78 h1.84 v1.78 h1.62 v1.5 h-1.62 v3.49 c0,0.48000000000000004 0.2,0.6900000000000002 0.77,0.6900000000000002 h0.8500000000000001 v1.54 h-1.15 c-1.3800000000000001,0 -2.31,-0.5900000000000001 -2.31,-2.24 V119.05999832153321 z" id="svg_225"/>
			<path class="st9" d="M493.99999862670893,117.4499983215332 c1.1600000000000001,0 1.9500000000000002,0.55 2.38,1.15 v-1.03 h1.84 v7.22 h-1.84 v-1.05 c-0.43000000000000005,0.6200000000000001 -1.25,1.17 -2.4,1.17 c-1.82,0 -3.2800000000000002,-1.5 -3.2800000000000002,-3.75 C490.70999862670897,118.89999832153319 492.159998626709,117.4499983215332 493.99999862670893,117.4499983215332 zM494.46999862670896,119.0499983215332 c-0.98,0 -1.9,0.7300000000000001 -1.9,2.1 c0,1.37 0.92,2.15 1.9,2.15 c1,0 1.9100000000000001,-0.7600000000000001 1.9100000000000001,-2.12 C496.37999862670904,119.80999832153321 495.46999862670896,119.0499983215332 494.46999862670896,119.0499983215332 z" id="svg_226"/>
			<path class="st9" d="M500.00999862670903,115.1399983215332 h1.82 v9.64 h-1.82 V115.1399983215332 z" id="svg_227"/>
			<path class="st9" d="M512.949998626709,115.68999832153321 h1.94 l-3.33,9.09 h-2.21 l-3.33,-9.09 h1.9500000000000002 l2.5,7.23 L512.949998626709,115.68999832153321 z" id="svg_228"/>
			<path class="st9" d="M521.559998626709,123.0499983215332 H517.939998626709 l-0.6000000000000001,1.73 h-1.9100000000000001 l3.27,-9.1 h2.12 l3.27,9.1 h-1.9300000000000002 L521.559998626709,123.0499983215332 zM519.7499986267089,117.7899983215332 l-1.32,3.8 h2.63 L519.7499986267089,117.7899983215332 z" id="svg_229"/>
			<path class="st9" d="M524.829998626709,115.68999832153321 h6.67 v1.47 h-2.42 v7.62 h-1.82 v-7.62 h-2.42 V115.68999832153321 z" id="svg_230"/>
			<path class="st9" d="M536.209998626709,119.05999832153321 h-0.8600000000000001 v-1.5 h0.8600000000000001 v-1.78 h1.84 v1.78 h1.62 v1.5 h-1.62 v3.49 c0,0.48000000000000004 0.2,0.6900000000000002 0.77,0.6900000000000002 h0.8500000000000001 v1.54 h-1.15 c-1.3800000000000001,0 -2.31,-0.5900000000000001 -2.31,-2.24 V119.05999832153321 z" id="svg_231"/>
			<path class="st9" d="M544.179998626709,124.89999832153319 c-2.08,0 -3.66,-1.46 -3.66,-3.72 c0,-2.2800000000000002 1.6300000000000001,-3.73 3.71,-3.73 c2.08,0 3.71,1.45 3.71,3.73 C547.949998626709,123.43999832153321 546.279998626709,124.89999832153319 544.179998626709,124.89999832153319 zM544.179998626709,123.30999832153321 c0.9600000000000001,0 1.8900000000000001,-0.7000000000000001 1.8900000000000001,-2.14 c0,-1.45 -0.9,-2.14 -1.86,-2.14 c-0.9600000000000001,0 -1.84,0.6900000000000002 -1.84,2.14 C542.3699986267089,122.6099983215332 543.209998626709,123.30999832153321 544.179998626709,123.30999832153321 z" id="svg_232"/>
			<path class="st9" d="M556.599998626709,117.4499983215332 c1.85,0 3.29,1.45 3.29,3.7 c0,2.25 -1.45,3.75 -3.29,3.75 c-1.13,0 -1.94,-0.56 -2.38,-1.15 v4.47 h-1.82 v-10.65 h1.82 v1.04 C554.639998626709,117.99999832153321 555.479998626709,117.4499983215332 556.599998626709,117.4499983215332 zM556.109998626709,119.0499983215332 c-0.98,0 -1.9,0.7600000000000001 -1.9,2.12 c0,1.37 0.92,2.12 1.9,2.12 c0.99,0 1.9100000000000001,-0.78 1.9100000000000001,-2.15 C558.029998626709,119.77999832153321 557.099998626709,119.0499983215332 556.109998626709,119.0499983215332 z" id="svg_233"/>
			<path class="st9" d="M564.049998626709,117.4499983215332 c1.1600000000000001,0 1.9500000000000002,0.55 2.38,1.15 v-1.03 h1.84 v7.22 h-1.84 v-1.05 c-0.43000000000000005,0.6200000000000001 -1.25,1.17 -2.4,1.17 c-1.82,0 -3.2800000000000002,-1.5 -3.2800000000000002,-3.75 C560.7499986267089,118.89999832153319 562.209998626709,117.4499983215332 564.049998626709,117.4499983215332 zM564.509998626709,119.0499983215332 c-0.98,0 -1.9,0.7300000000000001 -1.9,2.1 c0,1.37 0.92,2.15 1.9,2.15 c1,0 1.9100000000000001,-0.7600000000000001 1.9100000000000001,-2.12 C566.429998626709,119.80999832153321 565.519998626709,119.0499983215332 564.509998626709,119.0499983215332 z" id="svg_234"/>
			<path class="st9" d="M575.009998626709,117.5699983215332 h1.94 l-4.47,10.63 h-1.94 l1.56,-3.59 l-2.89,-7.03 h2.04 l1.86,5.04 L575.009998626709,117.5699983215332 z" id="svg_235"/>
			<path class="st9" d="M583.7399986267089,124.8499983215332 c-1.6800000000000002,-0.14 -2.88,-1.04 -2.92,-2.6 h1.9500000000000002 c0.05000000000000001,0.6000000000000001 0.36000000000000004,1 0.9600000000000001,1.13 v-2.49 c-1.34,-0.3400000000000001 -2.92,-0.7200000000000001 -2.92,-2.64 c0,-1.54 1.22,-2.54 2.92,-2.67 v-1.05 h0.8300000000000001 v1.05 c1.6300000000000001,0.13 2.72,1 2.84,2.55 h-1.97 c-0.05000000000000001,-0.51 -0.36000000000000004,-0.9 -0.8700000000000001,-1.06 v2.46 c1.35,0.35000000000000003 2.94,0.7000000000000001 2.94,2.63 c0,1.33 -1.04,2.5700000000000003 -2.94,2.7 v1.06 h-0.8300000000000001 V124.8499983215332 zM583.7399986267089,119.2899983215332 v-2.25 c-0.6000000000000001,0.09000000000000002 -1.02,0.46 -1.02,1.12 C582.719998626709,118.7699983215332 583.139998626709,119.0799983215332 583.7399986267089,119.2899983215332 zM584.569998626709,121.11999832153322 v2.2800000000000002 c0.6600000000000001,-0.12000000000000001 1.05,-0.5700000000000001 1.05,-1.1600000000000001 C585.629998626709,121.62999832153321 585.179998626709,121.3299983215332 584.569998626709,121.11999832153322 z" id="svg_236"/>
			<path class="st9" d="M592.259998626709,124.8499983215332 c-1.6800000000000002,-0.14 -2.88,-1.04 -2.92,-2.6 h1.9500000000000002 c0.05000000000000001,0.6000000000000001 0.36000000000000004,1 0.9600000000000001,1.13 v-2.49 c-1.34,-0.3400000000000001 -2.92,-0.7200000000000001 -2.92,-2.64 c0,-1.54 1.22,-2.54 2.92,-2.67 v-1.05 h0.8300000000000001 v1.05 c1.6300000000000001,0.13 2.72,1 2.84,2.55 h-1.97 c-0.05000000000000001,-0.51 -0.36000000000000004,-0.9 -0.8700000000000001,-1.06 v2.46 c1.35,0.35000000000000003 2.94,0.7000000000000001 2.94,2.63 c0,1.33 -1.04,2.5700000000000003 -2.94,2.7 v1.06 h-0.8300000000000001 V124.8499983215332 zM592.259998626709,119.2899983215332 v-2.25 c-0.6000000000000001,0.09000000000000002 -1.02,0.46 -1.02,1.12 C591.2399986267089,118.7699983215332 591.659998626709,119.0799983215332 592.259998626709,119.2899983215332 zM593.089998626709,121.11999832153322 v2.2800000000000002 c0.6600000000000001,-0.12000000000000001 1.05,-0.5700000000000001 1.05,-1.1600000000000001 C594.139998626709,121.62999832153321 593.699998626709,121.3299983215332 593.089998626709,121.11999832153322 z" id="svg_237"/>
			<path class="st9" d="M600.769998626709,124.8499983215332 c-1.6800000000000002,-0.14 -2.88,-1.04 -2.92,-2.6 h1.9500000000000002 c0.05000000000000001,0.6000000000000001 0.36000000000000004,1 0.9600000000000001,1.13 v-2.49 c-1.34,-0.3400000000000001 -2.92,-0.7200000000000001 -2.92,-2.64 c0,-1.54 1.22,-2.54 2.92,-2.67 v-1.05 h0.8300000000000001 v1.05 c1.6300000000000001,0.13 2.72,1 2.84,2.55 h-1.97 c-0.05000000000000001,-0.51 -0.36000000000000004,-0.9 -0.8700000000000001,-1.06 v2.46 c1.35,0.35000000000000003 2.94,0.7000000000000001 2.94,2.63 c0,1.33 -1.04,2.5700000000000003 -2.94,2.7 v1.06 h-0.8300000000000001 V124.8499983215332 zM600.769998626709,119.2899983215332 v-2.25 c-0.6000000000000001,0.09000000000000002 -1.02,0.46 -1.02,1.12 C599.759998626709,118.7699983215332 600.169998626709,119.0799983215332 600.769998626709,119.2899983215332 zM601.609998626709,121.11999832153322 v2.2800000000000002 c0.6600000000000001,-0.12000000000000001 1.05,-0.5700000000000001 1.05,-1.1600000000000001 C602.659998626709,121.62999832153321 602.219998626709,121.3299983215332 601.609998626709,121.11999832153322 z" id="svg_238"/>
		</g>
	</g>
</g></g></svg>