<?xml version="1.0" encoding="UTF-8"?>
<svg xmlns="http://www.w3.org/2000/svg" xmlns:xlink="http://www.w3.org/1999/xlink" viewBox="0 0 100 100" width="100px" height="100px">
<g id="surface38976669">
<path style=" stroke:none;fill-rule:nonzero;fill:rgb(100%,100%,100%);fill-opacity:1;" d="M 50 4 C 35.425781 4 22.429688 10.804688 14 21.398438 L 14 8 C 14.007812 7.460938 13.796875 6.9375 13.414062 6.558594 C 13.03125 6.175781 12.507812 5.964844 11.96875 5.972656 C 10.867188 5.988281 9.984375 6.898438 10 8 L 10 28 L 30 28 C 30.722656 28.011719 31.390625 27.632812 31.753906 27.007812 C 32.121094 26.386719 32.121094 25.613281 31.753906 24.992188 C 31.390625 24.367188 30.722656 23.988281 30 24 L 17.039062 24 C 24.730469 14.261719 36.613281 8 50 8 C 73.21875 8 92 26.78125 92 50 C 92 73.21875 73.21875 92 50 92 L 47.980469 92 L 47.980469 93.832031 C 47.972656 93.941406 47.972656 94.054688 47.980469 94.164062 L 47.980469 96 L 49.980469 96 C 49.988281 96 49.992188 96 50 96 L 52 96 L 52 95.949219 C 76.453125 94.898438 96 74.710938 96 50 C 96 24.617188 75.382812 4 50 4 Z M 48 22 L 48 28.105469 C 44.535156 28.441406 41.722656 29.667969 39.632812 31.78125 C 35.980469 35.476562 35.996094 40.480469 36 40.667969 C 36 49.273438 43.523438 50.945312 49.566406 52.289062 C 56.035156 53.722656 60 54.867188 60 60 C 60 67.859375 50.402344 67.996094 50 68 C 40.382812 68 40.011719 60.804688 40 59.984375 L 38 60 L 36 60 C 36 63.886719 38.566406 71.019531 48 71.90625 L 48 78 L 52 78 L 52 71.871094 C 56.996094 71.257812 64 68.300781 64 60 C 64 51.394531 56.476562 49.722656 50.433594 48.378906 C 43.964844 46.945312 40 45.800781 40 40.652344 C 40 40.628906 40.011719 38.363281 41.269531 36.1875 C 42.875 33.410156 45.8125 32 50 32 C 57.609375 32 57.980469 39.210938 58 40.023438 L 62 39.972656 C 61.953125 36.144531 59.734375 29.175781 52 28.140625 L 52 22 Z M 4 48 L 4 52.023438 L 8 52.023438 L 8 48 Z M 8.195312 55.246094 L 4.285156 56.09375 L 4.707031 58.046875 L 4.714844 58.085938 L 5.136719 60.039062 L 9.046875 59.195312 L 8.625 57.238281 L 8.617188 57.203125 Z M 9.769531 62.429688 L 6.054688 63.914062 L 6.792969 65.769531 L 7.550781 67.664062 L 11.265625 66.183594 L 10.523438 64.324219 L 10.507812 64.289062 Z M 12.582031 69.226562 L 9.15625 71.292969 L 10.191406 73.007812 L 10.210938 73.039062 L 11.246094 74.75 L 14.667969 72.683594 L 13.636719 70.972656 L 13.617188 70.9375 Z M 16.535156 75.425781 L 13.488281 78.015625 L 14.78125 79.539062 L 14.808594 79.570312 L 16.101562 81.09375 L 19.152344 78.503906 L 17.855469 76.980469 L 17.832031 76.949219 Z M 21.5 80.847656 L 18.902344 83.890625 L 20.425781 85.1875 L 20.453125 85.214844 L 21.976562 86.511719 L 24.574219 83.46875 L 23.050781 82.171875 L 23.023438 82.144531 Z M 27.320312 85.332031 L 25.246094 88.75 L 26.957031 89.789062 L 26.988281 89.808594 L 28.699219 90.84375 L 30.773438 87.425781 L 29.0625 86.386719 L 29.03125 86.367188 Z M 33.820312 88.734375 L 32.332031 92.449219 L 34.1875 93.191406 L 34.222656 93.207031 L 36.078125 93.953125 L 37.566406 90.238281 L 35.710938 89.496094 L 35.675781 89.480469 Z M 40.808594 90.953125 L 39.953125 94.859375 L 41.90625 95.289062 L 41.945312 95.296875 L 43.898438 95.722656 L 44.753906 91.816406 L 42.800781 91.386719 L 42.761719 91.378906 Z M 40.808594 90.953125 "/>
</g>
</svg>
