<?xml version="1.0" encoding="UTF-8"?>
<svg xmlns="http://www.w3.org/2000/svg" xmlns:xlink="http://www.w3.org/1999/xlink" viewBox="0 0 100 100" width="100px" height="100px">
<g id="surface22924981">
<path style=" stroke:none;fill-rule:nonzero;fill:rgb(100%,100%,100%);fill-opacity:1;" d="M 50 10 C 27.933594 10 10 27.933594 10 50 C 9.988281 50.722656 10.367188 51.390625 10.992188 51.753906 C 11.613281 52.121094 12.386719 52.121094 13.007812 51.753906 C 13.632812 51.390625 14.011719 50.722656 14 50 C 14 30.09375 30.09375 14 50 14 C 62.492188 14 73.457031 20.359375 79.914062 30 L 70 30 C 69.277344 29.988281 68.609375 30.367188 68.246094 30.992188 C 67.878906 31.613281 67.878906 32.386719 68.246094 33.007812 C 68.609375 33.632812 69.277344 34.011719 70 34 L 88 34 L 88 16 C 88.007812 15.460938 87.796875 14.9375 87.414062 14.558594 C 87.03125 14.175781 86.507812 13.964844 85.96875 13.972656 C 84.867188 13.988281 83.984375 14.898438 84 16 L 84 28.929688 C 76.941406 17.566406 64.34375 10 50 10 Z M 59.902344 31.976562 C 59.242188 32.015625 58.644531 32.375 58.304688 32.941406 L 38.304688 64.941406 C 37.890625 65.546875 37.84375 66.332031 38.179688 66.984375 C 38.515625 67.632812 39.183594 68.050781 39.914062 68.066406 C 40.648438 68.082031 41.332031 67.695312 41.695312 67.058594 L 61.695312 35.058594 C 62.082031 34.457031 62.121094 33.691406 61.789062 33.054688 C 61.460938 32.417969 60.816406 32.007812 60.101562 31.976562 C 60.035156 31.972656 59.96875 31.972656 59.902344 31.976562 Z M 40 32 C 36.710938 32 34 34.710938 34 38 L 34 44 L 34.832031 44 C 35.71875 46.214844 37.488281 48 40 48 C 43.289062 48 46 45.289062 46 42 L 46 38 C 46 34.710938 43.289062 32 40 32 Z M 40 36 C 41.128906 36 42 36.871094 42 38 L 42 42 C 42 43.128906 41.128906 44 40 44 C 38.871094 44 38 43.128906 38 42 L 38 38 C 38 36.871094 38.871094 36 40 36 Z M 87.96875 47.972656 C 86.867188 47.988281 85.984375 48.898438 86 50 C 86 69.90625 69.90625 86 50 86 C 37.507812 86 26.542969 79.640625 20.085938 70 L 30 70.003906 C 30.722656 70.015625 31.390625 69.636719 31.753906 69.011719 C 32.121094 68.390625 32.121094 67.617188 31.753906 66.996094 C 31.390625 66.371094 30.722656 65.992188 30 66.003906 L 16.890625 66 C 16.636719 65.949219 16.371094 65.949219 16.117188 66 L 12 66 L 12 84 C 11.988281 84.722656 12.367188 85.390625 12.992188 85.753906 C 13.613281 86.121094 14.386719 86.121094 15.007812 85.753906 C 15.632812 85.390625 16.011719 84.722656 16 84 L 16 71.0625 C 23.054688 82.429688 35.652344 90 50 90 C 72.066406 90 90 72.066406 90 50 C 90.007812 49.460938 89.796875 48.9375 89.414062 48.558594 C 89.03125 48.175781 88.507812 47.964844 87.96875 47.972656 Z M 60 52 C 56.710938 52 54 54.710938 54 58 L 54 64 L 54.832031 64 C 55.71875 66.214844 57.488281 68 60 68 C 63.289062 68 66 65.289062 66 62 L 66 58 C 66 54.710938 63.289062 52 60 52 Z M 60 56 C 61.128906 56 62 56.871094 62 58 L 62 62 C 62 63.128906 61.128906 64 60 64 C 58.871094 64 58 63.128906 58 62 L 58 58 C 58 56.871094 58.871094 56 60 56 Z M 60 56 "/>
</g>
</svg>
