<?xml version="1.0" encoding="UTF-8"?>
<svg xmlns="http://www.w3.org/2000/svg" xmlns:xlink="http://www.w3.org/1999/xlink" viewBox="0 0 100 100" width="100px" height="100px">
<g id="surface44282982">
<path style=" stroke:none;fill-rule:nonzero;fill:rgb(100%,100%,100%);fill-opacity:1;" d="M 49.96875 3.972656 C 49.855469 3.976562 49.742188 3.988281 49.628906 4.007812 C 24.417969 4.207031 4 24.742188 4 50 C 4 75.382812 24.617188 96 50 96 C 75.382812 96 96 75.382812 96 50 C 96 37.730469 91.171875 26.578125 83.324219 18.328125 C 83.21875 18.183594 83.097656 18.054688 82.960938 17.945312 C 80.890625 15.816406 78.617188 13.886719 76.167969 12.1875 C 75.964844 11.972656 75.71875 11.804688 75.441406 11.695312 C 68.25 6.90625 59.636719 4.082031 50.375 4.007812 C 50.371094 4.007812 50.371094 4.007812 50.367188 4.007812 C 50.234375 3.984375 50.101562 3.972656 49.96875 3.972656 Z M 48 8.050781 L 48 32.117188 C 39.019531 33.117188 32 40.757812 32 50 C 32 59.917969 40.082031 68 50 68 C 54.238281 68 58.136719 66.515625 61.21875 64.050781 L 78.226562 81.054688 C 70.769531 87.835938 60.890625 92 50 92 C 26.78125 92 8 73.21875 8 50 C 8 27.449219 25.710938 9.09375 48 8.050781 Z M 52 8.050781 C 52.4375 8.070312 52.867188 8.109375 53.300781 8.144531 L 52 9.445312 Z M 58.242188 8.859375 C 59.957031 9.199219 61.644531 9.625 63.277344 10.167969 L 52 21.445312 L 52 15.09375 C 52.050781 15.050781 52.097656 15.007812 52.140625 14.960938 Z M 67.351562 11.75 C 68.785156 12.398438 70.167969 13.132812 71.511719 13.933594 L 53.144531 32.300781 C 52.765625 32.234375 52.386719 32.160156 52 32.117188 L 52 27.101562 Z M 74.90625 16.199219 C 76.285156 17.214844 77.589844 18.328125 78.832031 19.503906 L 61.484375 36.179688 C 60.265625 35.164062 58.914062 34.316406 57.457031 33.648438 Z M 81.601562 22.386719 C 82.125 22.984375 82.648438 23.574219 83.136719 24.199219 C 82.441406 24.53125 82 25.230469 82 26 C 82 27.105469 82.894531 28 84 28 C 84.527344 28 85.035156 27.789062 85.410156 27.417969 C 86.386719 28.945312 87.238281 30.554688 88.011719 32.210938 C 88.058594 32.652344 88.25 33.066406 88.558594 33.386719 C 89.804688 36.273438 90.753906 39.320312 91.324219 42.503906 C 90.960938 42.179688 90.488281 42 90 42 C 88.894531 42 88 42.894531 88 44 C 88 45.105469 88.894531 46 90 46 C 90.691406 46 91.335938 45.640625 91.699219 45.050781 C 91.890625 46.675781 92 48.324219 92 50 C 92 51.675781 91.890625 53.328125 91.699219 54.953125 C 91.335938 54.363281 90.691406 54 90 54 C 88.894531 54 88 54.894531 88 56 C 88 57.105469 88.894531 58 90 58 C 90.484375 58 90.957031 57.820312 91.320312 57.5 C 90.75 60.664062 89.835938 63.703125 88.601562 66.574219 C 88.269531 66.902344 88.058594 67.332031 88.011719 67.796875 C 87.238281 69.449219 86.367188 71.042969 85.394531 72.566406 C 85.019531 72.203125 84.519531 72 84 72 C 82.894531 72 82 72.894531 82 74 C 82 74.761719 82.433594 75.457031 83.117188 75.792969 C 82.460938 76.632812 81.769531 77.4375 81.054688 78.226562 L 64.050781 61.21875 C 64.847656 60.226562 65.527344 59.140625 66.101562 57.992188 C 67.164062 57.9375 67.996094 57.0625 68 56 C 68 55.457031 67.78125 54.9375 67.390625 54.5625 C 67.773438 53.101562 68 51.578125 68 50 C 68 48.417969 67.78125 46.890625 67.394531 45.429688 C 67.78125 45.054688 68 44.539062 68 44 C 68 42.941406 67.175781 42.066406 66.117188 42.003906 C 65.59375 40.957031 64.972656 39.972656 64.265625 39.054688 Z M 78 30 C 76.894531 30 76 30.894531 76 32 C 76 33.105469 76.894531 34 78 34 C 79.105469 34 80 33.105469 80 32 C 80 30.894531 79.105469 30 78 30 Z M 72 36 C 70.894531 36 70 36.894531 70 38 C 70 39.105469 70.894531 40 72 40 C 73.105469 40 74 39.105469 74 38 C 74 36.894531 73.105469 36 72 36 Z M 84 36 C 82.894531 36 82 36.894531 82 38 C 82 39.105469 82.894531 40 84 40 C 85.105469 40 86 39.105469 86 38 C 86 36.894531 85.105469 36 84 36 Z M 49.765625 36.011719 C 49.925781 36.03125 50.089844 36.03125 50.25 36.011719 C 57.886719 36.144531 64 42.328125 64 50 C 64 57.753906 57.753906 64 50 64 C 42.246094 64 36 57.753906 36 50 C 36 42.324219 42.121094 36.136719 49.765625 36.011719 Z M 78 42 C 76.894531 42 76 42.894531 76 44 C 76 45.105469 76.894531 46 78 46 C 79.105469 46 80 45.105469 80 44 C 80 42.894531 79.105469 42 78 42 Z M 72 48 C 70.894531 48 70 48.894531 70 50 C 70 51.105469 70.894531 52 72 52 C 73.105469 52 74 51.105469 74 50 C 74 48.894531 73.105469 48 72 48 Z M 84 48 C 82.894531 48 82 48.894531 82 50 C 82 51.105469 82.894531 52 84 52 C 85.105469 52 86 51.105469 86 50 C 86 48.894531 85.105469 48 84 48 Z M 78 54 C 76.894531 54 76 54.894531 76 56 C 76 57.105469 76.894531 58 78 58 C 79.105469 58 80 57.105469 80 56 C 80 54.894531 79.105469 54 78 54 Z M 72 60 C 70.894531 60 70 60.894531 70 62 C 70 63.105469 70.894531 64 72 64 C 73.105469 64 74 63.105469 74 62 C 74 60.894531 73.105469 60 72 60 Z M 84 60 C 82.894531 60 82 60.894531 82 62 C 82 63.105469 82.894531 64 84 64 C 85.105469 64 86 63.105469 86 62 C 86 60.894531 85.105469 60 84 60 Z M 78 66 C 76.894531 66 76 66.894531 76 68 C 76 69.105469 76.894531 70 78 70 C 79.105469 70 80 69.105469 80 68 C 80 66.894531 79.105469 66 78 66 Z M 78 66 "/>
</g>
</svg>
