<?xml version="1.0" encoding="UTF-8"?>
<svg xmlns="http://www.w3.org/2000/svg" xmlns:xlink="http://www.w3.org/1999/xlink" viewBox="0 0 100 100" width="100px" height="100px">
<g id="surface39147876">
<path style=" stroke:none;fill-rule:nonzero;fill:rgb(100%,100%,100%);fill-opacity:1;" d="M 22 4 C 21.691406 4 21.386719 4.070312 21.105469 4.210938 L 18 5.765625 L 14.894531 4.210938 C 14.273438 3.902344 13.542969 3.933594 12.949219 4.296875 C 12.359375 4.664062 12 5.304688 12 6 L 12 94 C 12 95.105469 12.894531 96 14 96 L 75.089844 96 C 73.820312 94.8125 72.800781 93.449219 72.03125 92 L 16 92 L 16 9.234375 L 17.105469 9.789062 C 17.667969 10.070312 18.332031 10.070312 18.894531 9.789062 L 22 8.234375 L 25.105469 9.789062 C 25.667969 10.070312 26.332031 10.070312 26.894531 9.789062 L 30 8.234375 L 33.105469 9.789062 C 33.667969 10.070312 34.332031 10.070312 34.894531 9.789062 L 38 8.234375 L 41.105469 9.789062 C 41.667969 10.070312 42.332031 10.070312 42.894531 9.789062 L 46 8.234375 L 49.105469 9.789062 C 49.667969 10.070312 50.332031 10.070312 50.894531 9.789062 L 54 8.234375 L 57.105469 9.789062 C 57.667969 10.070312 58.332031 10.070312 58.894531 9.789062 L 62 8.234375 L 65.105469 9.789062 C 65.667969 10.070312 66.332031 10.070312 66.894531 9.789062 L 70 8.234375 L 73.105469 9.789062 C 73.667969 10.070312 74.332031 10.070312 74.894531 9.789062 L 78 8.234375 L 81.105469 9.789062 C 81.667969 10.070312 82.332031 10.070312 82.894531 9.789062 L 84 9.234375 L 84 52 L 88 52 L 88 6 C 88 5.304688 87.640625 4.664062 87.050781 4.296875 C 86.457031 3.929688 85.722656 3.902344 85.105469 4.210938 L 82 5.765625 L 78.894531 4.210938 C 78.332031 3.929688 77.667969 3.929688 77.105469 4.210938 L 74 5.765625 L 70.894531 4.210938 C 70.332031 3.929688 69.667969 3.929688 69.105469 4.210938 L 66 5.765625 L 62.894531 4.210938 C 62.332031 3.929688 61.667969 3.929688 61.105469 4.210938 L 58 5.765625 L 54.894531 4.210938 C 54.332031 3.929688 53.667969 3.929688 53.105469 4.210938 L 50 5.765625 L 46.894531 4.210938 C 46.332031 3.929688 45.667969 3.929688 45.105469 4.210938 L 42 5.765625 L 38.894531 4.210938 C 38.332031 3.929688 37.667969 3.929688 37.105469 4.210938 L 34 5.765625 L 30.894531 4.210938 C 30.332031 3.929688 29.667969 3.929688 29.105469 4.210938 L 26 5.765625 L 22.894531 4.210938 C 22.613281 4.070312 22.308594 4 22 4 Z M 26 22 C 25.277344 21.988281 24.609375 22.367188 24.246094 22.992188 C 23.878906 23.613281 23.878906 24.386719 24.246094 25.007812 C 24.609375 25.632812 25.277344 26.011719 26 26 L 56 26 C 56.722656 26.011719 57.390625 25.632812 57.753906 25.007812 C 58.121094 24.386719 58.121094 23.613281 57.753906 22.992188 C 57.390625 22.367188 56.722656 21.988281 56 22 Z M 68 22 C 67.277344 21.988281 66.609375 22.367188 66.246094 22.992188 C 65.878906 23.613281 65.878906 24.386719 66.246094 25.007812 C 66.609375 25.632812 67.277344 26.011719 68 26 L 74 26 C 74.722656 26.011719 75.390625 25.632812 75.753906 25.007812 C 76.121094 24.386719 76.121094 23.613281 75.753906 22.992188 C 75.390625 22.367188 74.722656 21.988281 74 22 Z M 26 34 C 25.277344 33.988281 24.609375 34.367188 24.246094 34.992188 C 23.878906 35.613281 23.878906 36.386719 24.246094 37.007812 C 24.609375 37.632812 25.277344 38.011719 26 38 L 48 38 C 48.722656 38.011719 49.390625 37.632812 49.753906 37.007812 C 50.121094 36.386719 50.121094 35.613281 49.753906 34.992188 C 49.390625 34.367188 48.722656 33.988281 48 34 Z M 68 34 C 67.277344 33.988281 66.609375 34.367188 66.246094 34.992188 C 65.878906 35.613281 65.878906 36.386719 66.246094 37.007812 C 66.609375 37.632812 67.277344 38.011719 68 38 L 74 38 C 74.722656 38.011719 75.390625 37.632812 75.753906 37.007812 C 76.121094 36.386719 76.121094 35.613281 75.753906 34.992188 C 75.390625 34.367188 74.722656 33.988281 74 34 Z M 26 46 C 25.277344 45.988281 24.609375 46.367188 24.246094 46.992188 C 23.878906 47.613281 23.878906 48.386719 24.246094 49.007812 C 24.609375 49.632812 25.277344 50.011719 26 50 L 56 50 C 56.722656 50.011719 57.390625 49.632812 57.753906 49.007812 C 58.121094 48.386719 58.121094 47.613281 57.753906 46.992188 C 57.390625 46.367188 56.722656 45.988281 56 46 Z M 68 46 C 67.277344 45.988281 66.609375 46.367188 66.246094 46.992188 C 65.878906 47.613281 65.878906 48.386719 66.246094 49.007812 C 66.609375 49.632812 67.277344 50.011719 68 50 L 74 50 C 74.722656 50.011719 75.390625 49.632812 75.753906 49.007812 C 76.121094 48.386719 76.121094 47.613281 75.753906 46.992188 C 75.390625 46.367188 74.722656 45.988281 74 46 Z M 84 56 L 84 60.503906 C 80.734375 61.105469 78.320312 62.648438 77.265625 64.492188 C 75.980469 66.734375 76 68.976562 76 68.976562 C 76 72.058594 77.613281 74.449219 79.648438 75.902344 C 81.683594 77.355469 84.074219 78.164062 86.308594 78.984375 C 88.542969 79.804688 90.609375 80.636719 91.945312 81.695312 C 93.28125 82.753906 94 83.820312 94 86 C 94 86 93.988281 87.449219 93.054688 88.941406 C 92.121094 90.433594 90.464844 92 86 92 C 81.667969 92 80.050781 90.128906 79.039062 88.105469 C 78.027344 86.082031 78 84 78 84 L 74 84 C 74 84 73.972656 86.917969 75.460938 89.894531 C 76.753906 92.484375 79.585938 95.058594 84 95.71875 L 84 100 L 88 100 L 88 95.542969 C 92.160156 94.972656 95.109375 93.191406 96.445312 91.058594 C 98.011719 88.550781 98 86 98 86 C 98 82.722656 96.46875 80.171875 94.429688 78.558594 C 92.390625 76.945312 89.957031 76.0625 87.691406 75.230469 C 85.425781 74.398438 83.316406 73.609375 81.976562 72.648438 C 80.636719 71.6875 80 70.84375 80 68.976562 C 80 68.976562 80.019531 67.730469 80.734375 66.484375 C 81.449219 65.238281 82.582031 64 86 64 C 89.332031 64 90.449219 65.371094 91.210938 66.894531 C 91.972656 68.417969 92 70 92 70 L 96 70 C 96 70 96.027344 67.582031 94.789062 65.105469 C 93.769531 63.0625 91.332031 61.261719 88 60.570312 L 88 56 Z M 26 58 C 25.277344 57.988281 24.609375 58.367188 24.246094 58.992188 C 23.878906 59.613281 23.878906 60.386719 24.246094 61.007812 C 24.609375 61.632812 25.277344 62.011719 26 62 L 48 62 C 48.722656 62.011719 49.390625 61.632812 49.753906 61.007812 C 50.121094 60.386719 50.121094 59.613281 49.753906 58.992188 C 49.390625 58.367188 48.722656 57.988281 48 58 Z M 68 58 C 67.277344 57.988281 66.609375 58.367188 66.246094 58.992188 C 65.878906 59.613281 65.878906 60.386719 66.246094 61.007812 C 66.609375 61.632812 67.277344 62.011719 68 62 L 74 62 C 74.722656 62.011719 75.390625 61.632812 75.753906 61.007812 C 76.121094 60.386719 76.121094 59.613281 75.753906 58.992188 C 75.390625 58.367188 74.722656 57.988281 74 58 Z M 26 70 C 24.894531 70 24 70.894531 24 72 C 24 73.105469 24.894531 74 26 74 C 27.105469 74 28 73.105469 28 72 C 28 70.894531 27.105469 70 26 70 Z M 32 70 C 30.894531 70 30 70.894531 30 72 C 30 73.105469 30.894531 74 32 74 C 33.105469 74 34 73.105469 34 72 C 34 70.894531 33.105469 70 32 70 Z M 38 70 C 36.894531 70 36 70.894531 36 72 C 36 73.105469 36.894531 74 38 74 C 39.105469 74 40 73.105469 40 72 C 40 70.894531 39.105469 70 38 70 Z M 44 70 C 42.894531 70 42 70.894531 42 72 C 42 73.105469 42.894531 74 44 74 C 45.105469 74 46 73.105469 46 72 C 46 70.894531 45.105469 70 44 70 Z M 50 70 C 48.894531 70 48 70.894531 48 72 C 48 73.105469 48.894531 74 50 74 C 51.105469 74 52 73.105469 52 72 C 52 70.894531 51.105469 70 50 70 Z M 56 70 C 54.894531 70 54 70.894531 54 72 C 54 73.105469 54.894531 74 56 74 C 57.105469 74 58 73.105469 58 72 C 58 70.894531 57.105469 70 56 70 Z M 62 70 C 60.894531 70 60 70.894531 60 72 C 60 73.105469 60.894531 74 62 74 C 63.105469 74 64 73.105469 64 72 C 64 70.894531 63.105469 70 62 70 Z M 68 70 C 66.894531 70 66 70.894531 66 72 C 66 73.105469 66.894531 74 68 74 C 69.105469 74 70 73.105469 70 72 C 70 70.894531 69.105469 70 68 70 Z M 68 70 "/>
</g>
</svg>
