<?xml version="1.0" encoding="UTF-8"?>
<svg xmlns="http://www.w3.org/2000/svg" xmlns:xlink="http://www.w3.org/1999/xlink" viewBox="0 0 100 100" width="100px" height="100px">
<g id="surface39109693">
<path style=" stroke:none;fill-rule:nonzero;fill:rgb(100%,100%,100%);fill-opacity:1;" d="M 50 4 C 24.632812 4 4 24.636719 4 50 C 4 75.363281 24.632812 96 50 96 C 53.800781 96 57.488281 95.527344 61.023438 94.65625 C 60.15625 93.535156 59.382812 92.339844 58.722656 91.074219 C 55.90625 91.671875 52.992188 92 50 92 C 26.84375 92 8 73.160156 8 50 C 8 26.839844 26.84375 8 50 8 C 73.15625 8 92 26.839844 92 50 C 92 52.992188 91.671875 55.90625 91.074219 58.722656 C 92.339844 59.382812 93.535156 60.15625 94.65625 61.023438 C 95.527344 57.488281 96 53.800781 96 50 C 96 24.636719 75.367188 4 50 4 Z M 48 20 L 48 25.601562 C 36.800781 26.203125 34.898438 34.597656 34.898438 38.398438 C 34.898438 57.199219 62.300781 47.199219 62.300781 61.398438 C 62.300781 61.933594 62.253906 63.019531 61.898438 64.273438 C 63.183594 62.796875 64.640625 61.476562 66.25 60.347656 C 65.175781 43.785156 38.898438 52.320312 38.898438 38.800781 C 38.898438 34.199219 40.703125 28.800781 50.101562 28.800781 C 59.703125 28.800781 60.902344 36.402344 61.101562 39.800781 L 65.300781 39.800781 C 65.699219 34.199219 61.703125 26 52.101562 25.601562 L 52.101562 20 Z M 33.699219 58.601562 C 34.097656 72 42.601562 73.796875 48 74.398438 L 48 80 L 52 80 L 52 74.398438 C 53.882812 74.257812 55.496094 73.925781 56.921875 73.476562 C 57.378906 71.863281 57.988281 70.316406 58.753906 68.859375 C 56.945312 70.210938 54.234375 71.199219 50.101562 71.199219 C 49.703125 71.199219 37.5 71.203125 37.898438 58.601562 Z M 80.023438 60.046875 C 74.898438 60.046875 69.773438 61.992188 65.882812 65.882812 C 58.105469 73.660156 58.105469 86.386719 65.882812 94.164062 C 73.660156 101.941406 86.386719 101.941406 94.164062 94.164062 C 101.941406 86.386719 101.941406 73.660156 94.164062 65.882812 C 90.273438 61.992188 85.148438 60.046875 80.023438 60.046875 Z M 80.023438 64.042969 C 84.125 64.042969 88.230469 65.601562 91.339844 68.710938 C 97.5625 74.933594 97.5625 85.117188 91.339844 91.339844 C 85.117188 97.5625 74.933594 97.5625 68.710938 91.339844 C 62.488281 85.117188 62.488281 74.933594 68.710938 68.710938 C 71.824219 65.601562 75.921875 64.042969 80.023438 64.042969 Z M 80.023438 68.144531 C 78.890625 68.144531 78.042969 68.992188 78.042969 70.125 L 78.042969 78.042969 L 70.125 78.042969 C 68.992188 78.042969 68.144531 78.890625 68.144531 80.023438 C 68.144531 81.15625 68.992188 82.003906 70.125 82.003906 L 78.042969 82.003906 L 78.042969 89.925781 C 78.042969 91.058594 78.890625 91.902344 80.023438 91.902344 C 80.589844 91.902344 81.15625 91.621094 81.4375 91.339844 C 81.722656 91.058594 82.003906 90.492188 82.003906 89.925781 L 82.003906 82.003906 L 89.925781 82.003906 C 90.492188 82.003906 91.058594 81.71875 91.339844 81.4375 C 91.625 81.15625 91.902344 80.589844 91.902344 80.023438 C 91.902344 78.890625 91.058594 78.042969 89.925781 78.042969 L 82.003906 78.042969 L 82.003906 70.125 C 82.003906 68.996094 81.15625 68.144531 80.023438 68.144531 Z M 80.023438 68.144531 "/>
</g>
</svg>
