<svg xmlns="http://www.w3.org/2000/svg" xmlns:xlink="http://www.w3.org/1999/xlink" version="1.1" enable-background="new 0 0 1280 800" xml:space="preserve" width="381" height="89" style=""><rect id="backgroundrect" width="100%" height="100%" x="0" y="0" fill="none" stroke="none"/>

<g class="currentLayer" style=""><title>Layer 1</title><g id="svg_1" class="">
	<path fill="#193E6D" d="M61.800091552734386,-0.000012207031261368684 c3.3,2.9 6.6,5.7 9.9,8.6 c5.7,4.9 11.4,9.7 17.1,14.6 c0.1,0.1 0.30000000000000004,0.2 0.5,0.4 c-0.7000000000000001,0.2 -1.2,0.4 -1.7000000000000002,0.6000000000000001 c-2.2,0.7000000000000001 -4.4,1.4 -6.7,2.2 c-0.5,0.2 -0.8,0.1 -1.2,-0.2 c-5.7,-5 -11.3,-9.9 -17,-14.9 c-0.2,-0.2 -0.4,-0.4 -0.7000000000000001,-0.6000000000000001 c-0.2,0.2 -0.4,0.30000000000000004 -0.6000000000000001,0.5 c-10,8.6 -20,17.2 -30.1,25.8 c-0.4,0.4 -0.6000000000000001,0.7000000000000001 -0.6000000000000001,1.2 c0.1,10.6 0.1,21.3 0.2,31.9 c0,0.5 -0.2,1.1 -0.4,1.5 c-2.5,4 -5.1,8 -7.6,12 c-0.1,0.2 -0.30000000000000004,0.4 -0.6000000000000001,0.6000000000000001 c0,-13.1 0,-26.1 0,-39.2 c-0.1,0 -0.1,-0.1 -0.2,-0.1 c-0.2,0.2 -0.5,0.4 -0.7000000000000001,0.6000000000000001 c-2.8,2.5 -5.7,5 -8.5,7.4 c-0.2,0.2 -0.6000000000000001,0.4 -0.8,0.4 c-3.9,-0.1 -7.7,-0.2 -11.6,-0.30000000000000004 c-0.1,0 -0.2,0 -0.5,-0.1 c0.30000000000000004,-0.2 0.4,-0.4 0.6000000000000001,-0.6000000000000001 c13.5,-11.6 27.1,-23.2 40.6,-34.8 c6.6,-5.7 13.2,-11.3 19.9,-17 c0.2,-0.1 0.30000000000000004,-0.30000000000000004 0.5,-0.5 C61.700091552734364,-0.000012207031261368684 61.700091552734364,-0.000012207031261368684 61.800091552734386,-0.000012207031261368684 z" id="svg_2"/>
	<path fill="#193E6D" d="M34.000091552734375,88.09998779296876 c1.7000000000000002,-2.7 3.3,-5.4 4.9,-8 c0.1,-0.2 0.5,-0.30000000000000004 0.8,-0.30000000000000004 c3.7,0 7.4,0 11.2,0 c14.1,0 28.1,-0.1 42.2,-0.1 c0.7000000000000001,0 0.9,-0.2 0.9,-0.9 c0,-7.7 -0.1,-15.3 -0.1,-23 c0,-0.30000000000000004 0,-0.6000000000000001 0,-1 c1.4,0 2.8,0 4.2,0 c1.7000000000000002,0 1.7000000000000002,0 1.9,-1.7000000000000002 c0.7000000000000001,-6.1 1.4,-12.2 2.1,-18.3 c0,-0.1 0,-0.1 0.1,-0.30000000000000004 c7.1,6.1 14.1,12.1 21.3,18.3 c-0.4,0 -0.6000000000000001,0.1 -0.8,0.1 c-3.7,0.1 -7.4,0.2 -11.1,0.30000000000000004 c-0.4,0 -0.8,-0.2 -1.1,-0.4 c-2.4,-2 -4.7,-4.1 -7.1,-6.2 c-0.2,-0.1 -0.30000000000000004,-0.30000000000000004 -0.7000000000000001,-0.5 c0,14.1 0,28 0,41.9 C79.80009155273433,88.09998779296876 57.000091552734375,88.09998779296876 34.000091552734375,88.09998779296876 z" id="svg_3"/>
	<path fill="#5EC198" d="M100.70009155273442,21.399987792968773 c0.30000000000000004,1 0,2.1 -0.1,3.1 c-0.2,2.6 -0.4,5.3 -0.6000000000000001,7.9 c-0.2,2.2 -0.4,4.5 -0.6000000000000001,6.7 c-0.2,2.1 -0.4,4.2 -0.5,6.4 c-0.2,2.4 -0.4,4.9 -0.6000000000000001,7.3 c0,0.2 0,0.6000000000000001 -0.30000000000000004,0.6000000000000001 c-0.30000000000000004,0 -0.30000000000000004,-0.30000000000000004 -0.5,-0.5 c-2.2,-3.8 -4.4,-7.6 -6.6,-11.4 c-0.30000000000000004,-0.5 -0.5,-0.6000000000000001 -0.9,-0.1 c-3,3.9 -6,7.8 -9,11.7 c-3.4,4.5 -6.8,8.9 -10.2,13.4 c-1.4,1.9 -2.9,3.8 -4.3,5.7 c-0.4,0.6000000000000001 -0.8,0.6000000000000001 -1.4,0.30000000000000004 c-5.6,-3.2 -11.1,-6.3 -16.7,-9.5 c-0.4,-0.2 -0.6000000000000001,-0.1 -0.8,0.2 c-3.4,5.2 -6.7,10.4 -10.1,15.6 c-1.9,2.9 -3.8,5.8 -5.7,8.6 c-0.30000000000000004,0.4 -0.6000000000000001,0.6000000000000001 -1,0.6000000000000001 c-2.5,0 -5.1,0 -7.6,0 c-0.2,0 -0.5,0.1 -0.6000000000000001,-0.2 c-0.2,-0.30000000000000004 0,-0.5 0.2,-0.7000000000000001 c3.6,-5.3 6.9,-10.7 10.3,-16.1 c3.1,-4.9 6.2,-9.8 9.4,-14.7 c0.7000000000000001,-1.2 1.5,-2.3 2.2,-3.4 c0.30000000000000004,-0.5 0.5,-0.5 1,-0.2 c5.6,3.2 11.2,6.3 16.8,9.4 c0.4,0.2 0.7000000000000001,0.2 1,-0.2 c4,-5.1 7.9,-10.3 11.9,-15.4 c2.4,-3.1 4.9,-6.3 7.3,-9.4 c0.30000000000000004,-0.4 0.4,-0.6000000000000001 -0.2,-0.8 c-4.2,-1.2 -8.4,-2.5 -12.6,-3.8 c-0.1,0 -0.1,0 -0.2,-0.1 c-0.2,-0.1 -0.4,0 -0.4,-0.30000000000000004 c0,-0.2 0.2,-0.2 0.4,-0.30000000000000004 c0.9,-0.30000000000000004 1.7000000000000002,-0.6000000000000001 2.6,-0.9 c5.2,-1.7000000000000002 10.4,-3.5 15.6,-5.2 c3.8,-1.3 7.7,-2.6 11.5,-3.9 c0.4,-0.1 0.8,-0.30000000000000004 1.2,-0.5 C100.70009155273442,21.399987792968773 100.70009155273442,21.399987792968773 100.70009155273442,21.399987792968773 z" id="svg_4"/>
	<path fill="#193E6D" d="M132.50009155273438,65.79998779296875 c0.2,-1.1 0.2,-2.2 0.5,-3.4 c1.7000000000000002,-8.6 8,-15 16.6,-16.7 c5.8,-1.2 11.6,-0.8 17.3,0.9 c0.6000000000000001,0.2 0.9,0.5 0.9,1.2 c0,2.5 0,4.9 0,7.4 c0,0.5 -0.1,0.7000000000000001 -0.7000000000000001,0.4 c-2.9,-1.5 -6.1,-2.2 -9.4,-2.4 c-2.1,-0.1 -4.1,-0.1 -6.1,0.5 c-5,1.6 -7.9,5.2 -8.7,10.4 c-0.5,3.2 -0.4,6.5 0.9,9.5 c1.8,4.1 5,6.3 9.4,6.7 c2,0.2 4.1,0.1 6,-0.5 c0.7000000000000001,-0.2 0.9,-0.5 0.9,-1.2 c0,-2.1 0,-4.2 0,-6.3 c0,-0.6000000000000001 -0.2,-0.8 -0.8,-0.8 c-2.3,0 -4.5,0 -6.8,0 c-0.6000000000000001,0 -0.9,-0.2 -0.9,-0.8 c0,-2 0,-4.1 0,-6.1 c0,-0.6000000000000001 0.2,-0.8 0.8,-0.8 c5.5,0 11,0 16.4,0 c0.6000000000000001,0 0.8,0.2 0.8,0.8 c0,6.5 0,13.1 0,19.6 c0,0.5 -0.2,0.8 -0.7000000000000001,1.1 c-2.8,1.5 -5.8,2.4 -9,2.8 c-4.4,0.6000000000000001 -8.7,0.6000000000000001 -13,-0.5 c-7.9,-2 -13.4,-8.3 -14.3,-16.4 c-0.1,-0.7000000000000001 -0.2,-1.4 -0.2,-2.1 C132.50009155273438,67.99998779296874 132.50009155273438,66.89998779296877 132.50009155273438,65.79998779296875 z" id="svg_5"/>
	<path fill="#193E6D" d="M324.6000915527344,88.59998779296876 c-1.6,-0.30000000000000004 -3.1,-0.7000000000000001 -4.5,-1.6 c-2.4,-1.5 -4.1,-3.5 -4.9,-6.2 c-1.8,-5.3 -1.8,-10.6 0.5,-15.7 c1.9,-4.4 5.3,-7.2 10.2,-7.8 c2.8,-0.30000000000000004 5.6,-0.1 8,1.7000000000000002 c0.7000000000000001,0.6000000000000001 1.3,1.3 1.8,2.1 c0.2,-0.30000000000000004 0.1,-0.5 0.1,-0.7000000000000001 c0,-5.2 0,-10.5 0,-15.7 c0,-1 0,-1 1,-1 c2.4,0 4.9,0 7.3,0 c1.1,0 1.1,0 1.1,1.1 c0,12.7 0,25.3 0,38 c0,1.5 0,3 0,4.5 c0,0.6000000000000001 -0.2,0.8 -0.8,0.8 c-2.6,0 -5.2,0 -7.8,0 c-0.6000000000000001,0 -0.8,-0.2 -0.8,-0.8 c0,-1 0,-2 0,-3 c-0.30000000000000004,0 -0.30000000000000004,0.2 -0.4,0.30000000000000004 c-1.7000000000000002,2.2 -3.9,3.6 -6.6,4.1 c-0.1,0 -0.30000000000000004,0.1 -0.4,0.1 C327.1000915527344,88.59998779296876 325.80009155273433,88.59998779296876 324.6000915527344,88.59998779296876 zM336.0000915527344,72.39998779296877 c0,-1.1 0.1,-2.1 -0.2,-3.2 c-0.5,-2.3 -2.3,-4.6 -5.4,-4.8 c-2.5,-0.2 -4.5,0.8 -5.8,3.4 c-0.7000000000000001,1.3 -0.9,2.7 -1,4.1 c-0.2,2.3 0,4.5 1.1,6.6 c1.1,2.1 3.4,3.1 5.7,2.9 c2.5,-0.30000000000000004 3.9,-1.8 4.9,-3.9 C335.90009155273435,75.79998779296875 336.0000915527344,74.09998779296876 336.0000915527344,72.39998779296877 z" id="svg_6"/>
	<path fill="#193E6D" d="M380.90009155273435,73.39998779296877 c-0.1,1 -0.2,1.9 -0.4,2.9 c-1.3,6.8 -6.2,11.2 -13,12 c-3.1,0.4 -6.1,0.30000000000000004 -9.1,-0.7000000000000001 c-4.9,-1.6 -8,-4.8 -9.4,-9.7 c-0.9,-3.3 -0.9,-6.7 0,-10.1 c1.2,-4.5 4,-7.8 8.3,-9.5 c4.7,-1.9 9.6,-2 14.4,-0.2 c5.2,1.9 8,5.8 8.9,11.2 c0.1,0.6000000000000001 0.2,1.3 0.30000000000000004,1.9 C380.90009155273435,71.99998779296874 380.90009155273435,72.69998779296873 380.90009155273435,73.39998779296877 zM371.30009155273433,72.49998779296874 c0,-0.7000000000000001 0,-1.6 -0.1,-2.4 c-0.5,-3.3 -2.1,-5.6 -5.8,-5.9 c-3.1,-0.2 -5.5,1.1 -6.6,3.8 c-1,2.4 -1,4.9 -0.6000000000000001,7.4 c0.2,1.2 0.6000000000000001,2.3 1.3,3.3 c1.2,1.7000000000000002 2.8,2.3 4.8,2.4 c3.2,0.2 5.5,-1 6.5,-4 C371.2000915527344,75.79998779296875 371.40009155273435,74.19998779296873 371.30009155273433,72.49998779296874 z" id="svg_7"/>
	<path fill="#193E6D" d="M294.40009155273435,88.49998779296874 c-3.5,0 -6.5,-0.5 -9.3,-2.1 c-4.1,-2.4 -6.2,-6.1 -6.8,-10.8 c-0.30000000000000004,-2.7 -0.2,-5.3 0.5,-7.9 c1.4,-4.8 4.5,-8.1 9.2,-9.6 c4.4,-1.4 8.9,-1.5 13.3,0.1 c5.2,1.9 8.1,5.7 9,11.1 c0.6000000000000001,3.6 0.30000000000000004,7.2 -1.1,10.5 c-2.1,4.8 -6,7.5 -11.1,8.4 C296.80009155273433,88.39998779296877 295.40009155273435,88.49998779296874 294.40009155273435,88.49998779296874 zM301.0000915527344,72.49998779296874 c0,-0.7000000000000001 0,-1.6 -0.1,-2.4 c-0.5,-3.2 -2.1,-5.6 -5.8,-5.9 c-3.1,-0.2 -5.5,1.1 -6.6,3.8 c-1,2.4 -1,4.9 -0.6000000000000001,7.4 c0.2,1.2 0.6000000000000001,2.3 1.3,3.3 c1.2,1.7000000000000002 2.8,2.3 4.8,2.4 c3.2,0.2 5.5,-1 6.5,-4 C300.90009155273435,75.79998779296875 301.0000915527344,74.19998779296873 301.0000915527344,72.49998779296874 z" id="svg_8"/>
	<path fill="#193E6D" d="M192.90009155273435,83.19998779296873 c-0.9,1.2 -1.7000000000000002,2.1 -2.6,3 c-3.8,3.3 -11.2,3 -14.3,-0.7000000000000001 c-1.5,-1.8 -2.2,-3.9 -2.5,-6.2 c-0.2,-1.4 -0.30000000000000004,-2.9 -0.30000000000000004,-4.4 c0,-5.4 0,-10.8 0,-16.2 c0,-1 0,-1 1,-1 c2.4,0 4.8,0 7.2,0 c1.1,0 1.1,0 1.1,1.1 c0,5.3 0,10.6 0,16 c0,0.9 0.1,1.7000000000000002 0.2,2.5 c0.5,2.6 1.8,3.8 4.5,4 c2.2,0.1 4.1,-0.9 5.1,-3.3 c0.4,-1 0.5,-2 0.5,-3 c0,-5.4 0,-10.8 0,-16.2 c0,-1.1 0,-1.1 1.1,-1.1 c2.5,0 4.9,0 7.4,0 c0.6000000000000001,0 0.9,0.2 0.9,0.8 c0,9.5 0,19 0,28.4 c0,0.7000000000000001 -0.2,0.8 -0.9,0.8 c-2.5,0 -5.1,0 -7.6,0 c-0.7000000000000001,0 -0.9,-0.30000000000000004 -0.9,-0.9 C192.90009155273435,85.69998779296873 192.90009155273435,84.59998779296876 192.90009155273435,83.19998779296873 z" id="svg_9"/>
	<path fill="#193E6D" d="M224.50009155273438,75.39998779296877 c-3,0 -5.9,0 -8.9,0 c-0.8,0 -0.9,0.1 -0.8,0.9 c0.5,2.7 2,4.4 4.7,5.1 c3.9,0.9 7.7,0.4 11.2,-1.5 c0.8,-0.4 0.9,-0.4 0.9,0.5 c0,1.7000000000000002 0,3.4 0,5.1 c0,0.5 -0.2,0.8 -0.7000000000000001,1.1 c-2.3,1.1 -4.8,1.6 -7.4,1.8 c-2.8,0.2 -5.5,0.2 -8.3,-0.6000000000000001 c-5.2,-1.5 -8.3,-5 -9.4,-10.3 c-0.9,-4.4 -0.7000000000000001,-8.8 1.5,-12.9 c2.7,-4.8 6.9,-7.4 12.5,-7.6 c2.4,-0.1 4.7,0.2 6.9,1.1 c4,1.8 6.1,5 7.1,9.1 c0.6000000000000001,2.5 0.4,5 0.4,7.5 c0,0.6000000000000001 -0.4,0.6000000000000001 -0.8,0.6000000000000001 C230.50009155273438,75.39998779296877 227.50009155273438,75.39998779296877 224.50009155273438,75.39998779296877 zM220.1000915527344,69.69998779296873 c1.6,0 3.1,0 4.7,0 c0.5,0 0.7000000000000001,-0.2 0.7000000000000001,-0.7000000000000001 c0,-0.7000000000000001 -0.1,-1.4 -0.30000000000000004,-2.1 c-1,-4.1 -6,-4.3 -8.1,-2.2 c-1.2,1.2 -2,2.6 -2.3,4.3 c-0.1,0.5 0,0.7000000000000001 0.6000000000000001,0.7000000000000001 C217.00009155273438,69.59998779296876 218.50009155273438,69.69998779296873 220.1000915527344,69.69998779296873 z" id="svg_10"/>
	<path fill="#5EC198" d="M264.40009155273435,70.69998779296873 c0,-5.4 0,-10.7 0,-16.1 c0,-1 0,-1 -1,-1 c-3.4,0 -6.7,0 -10.1,0 c-0.9,0 -0.9,0 -0.9,-0.9 c0,-2 0,-4 0,-6 c0,-0.6000000000000001 0.2,-0.8 0.8,-0.8 c10.6,0 21.2,0 31.8,0 c0.6000000000000001,0 0.8,0.2 0.8,0.8 c0,2 0,4.1 0,6.1 c0,0.6000000000000001 -0.2,0.8 -0.8,0.8 c-3.4,0 -6.8,0 -10.2,0 c-0.9,0 -0.9,0 -0.9,0.9 c0,10.7 0,21.5 0,32.2 c0,1.1 0,1.1 -1.1,1.2 c-2.5,0 -4.9,0 -7.4,0 c-1.1,0 -1.1,0 -1.1,-1.1 C264.40009155273435,81.39998779296877 264.40009155273435,75.99998779296874 264.40009155273435,70.69998779296873 z" id="svg_11"/>
	<path fill="#193E6D" d="M237.40009155273435,83.19998779296873 c0,-1 0,-2.1 0,-3.1 c0,-0.7000000000000001 0.1,-0.8 0.7000000000000001,-0.4 c1.9,1.1 4,1.9 6.2,2.2 c1.5,0.2 3.1,0.2 4.6,-0.1 c0.4,-0.1 0.9,-0.30000000000000004 1.3,-0.5 c1.6,-0.8 1.7000000000000002,-2.6 0.2,-3.7 c-1,-0.7000000000000001 -2.2,-1.1 -3.4,-1.4 c-1.9,-0.6000000000000001 -3.8,-1.3 -5.5,-2.3 c-2.5,-1.4 -3.9,-3.5 -4.2,-6.5 c-0.5,-5.8 3.4,-8.6 7.2,-9.7 c4.5,-1.3 9,-0.9 13.5,0.2 c0.4,0.1 0.6000000000000001,0.30000000000000004 0.6000000000000001,0.7000000000000001 c0,2 0,4 0,6 c0,0.4 -0.1,0.6000000000000001 -0.6000000000000001,0.4 c-2.1,-1.1 -4.3,-1.7000000000000002 -6.6,-1.8 c-1.3,-0.1 -2.5,0.1 -3.7,0.7000000000000001 c-1.5,0.8 -1.7000000000000002,2.5 -0.30000000000000004,3.6 c1,0.7000000000000001 2.1,1.1 3.2,1.5 c1.9,0.6000000000000001 3.8,1.3 5.5,2.2 c2.2,1.3 3.8,3 4.2,5.6 c0.7000000000000001,4.6 -1.5,8.3 -5.8,10.1 c-1.9,0.8 -3.8,1.2 -5.9,1.3 c-3.6,0.2 -7.1,-0.1 -10.5,-1.2 c-0.6000000000000001,-0.2 -0.8,-0.5 -0.8,-1.1 C237.40009155273435,85.19998779296873 237.40009155273435,84.19998779296873 237.40009155273435,83.19998779296873 z" id="svg_12"/>
</g></g></svg>