<?xml version="1.0" encoding="UTF-8"?>
<svg xmlns="http://www.w3.org/2000/svg" xmlns:xlink="http://www.w3.org/1999/xlink" viewBox="0 0 100 100" width="100px" height="100px">
<g id="surface40739632">
<path style=" stroke:none;fill-rule:nonzero;fill:rgb(100%,100%,100%);fill-opacity:1;" d="M 28 4 C 22.5 4 18 8.5 18 14 C 18 19.5 22.5 24 28 24 C 33.5 24 38 19.5 38 14 C 38 8.5 33.5 4 28 4 Z M 28 8 C 31.335938 8 34 10.664062 34 14 C 34 17.335938 31.335938 20 28 20 C 24.664062 20 22 17.335938 22 14 C 22 10.664062 24.664062 8 28 8 Z M 19 26 C 12.949219 26 8 30.949219 8 37 L 8 62 C 8 65.289062 10.710938 68 14 68 C 14.703125 68 15.371094 67.851562 16 67.625 L 16 89 C 16 92.84375 19.15625 96 23 96 C 24.964844 96 26.746094 95.167969 28.023438 93.84375 C 29.289062 95.160156 31.042969 96 33 96 C 36.84375 96 40 92.84375 40 89 L 40 38 L 62 38 C 65.289062 38 68 35.289062 68 32 C 68 28.710938 65.289062 26 62 26 Z M 19 30 L 62 30 C 63.128906 30 64 30.871094 64 32 C 64 33.128906 63.128906 34 62 34 L 38 34 C 36.894531 34 36 34.894531 36 36 L 36 89 C 36 90.679688 34.679688 92 33 92 C 31.320312 92 30 90.679688 30 89 L 30 68 C 30.007812 67.460938 29.796875 66.9375 29.414062 66.558594 C 29.03125 66.175781 28.507812 65.964844 27.96875 65.972656 C 26.867188 65.988281 25.984375 66.898438 26 68 L 26 89 C 26 90.679688 24.679688 92 23 92 C 21.320312 92 20 90.679688 20 89 L 20 42 C 20.007812 41.460938 19.796875 40.9375 19.414062 40.558594 C 19.03125 40.175781 18.507812 39.964844 17.96875 39.972656 C 16.867188 39.988281 15.984375 40.898438 16 42 L 16 62 C 16 63.128906 15.128906 64 14 64 C 12.871094 64 12 63.128906 12 62 L 12 37 C 12 33.109375 15.109375 30 19 30 Z M 74 34 C 73.277344 33.988281 72.609375 34.367188 72.246094 34.992188 C 71.878906 35.613281 71.878906 36.386719 72.246094 37.007812 C 72.609375 37.632812 73.277344 38.011719 74 38 L 90 38 C 90.722656 38.011719 91.390625 37.632812 91.753906 37.007812 C 92.121094 36.386719 92.121094 35.613281 91.753906 34.992188 C 91.390625 34.367188 90.722656 33.988281 90 34 Z M 48 48 C 47.277344 47.988281 46.609375 48.367188 46.246094 48.992188 C 45.878906 49.613281 45.878906 50.386719 46.246094 51.007812 C 46.609375 51.632812 47.277344 52.011719 48 52 L 90 52 C 90.722656 52.011719 91.390625 51.632812 91.753906 51.007812 C 92.121094 50.386719 92.121094 49.613281 91.753906 48.992188 C 91.390625 48.367188 90.722656 47.988281 90 48 Z M 48 62 C 47.277344 61.988281 46.609375 62.367188 46.246094 62.992188 C 45.878906 63.613281 45.878906 64.386719 46.246094 65.007812 C 46.609375 65.632812 47.277344 66.011719 48 66 L 90 66 C 90.722656 66.011719 91.390625 65.632812 91.753906 65.007812 C 92.121094 64.386719 92.121094 63.613281 91.753906 62.992188 C 91.390625 62.367188 90.722656 61.988281 90 62 Z M 48 76 C 47.277344 75.988281 46.609375 76.367188 46.246094 76.992188 C 45.878906 77.613281 45.878906 78.386719 46.246094 79.007812 C 46.609375 79.632812 47.277344 80.011719 48 80 L 90 80 C 90.722656 80.011719 91.390625 79.632812 91.753906 79.007812 C 92.121094 78.386719 92.121094 77.613281 91.753906 76.992188 C 91.390625 76.367188 90.722656 75.988281 90 76 Z M 48 90 C 47.277344 89.988281 46.609375 90.367188 46.246094 90.992188 C 45.878906 91.613281 45.878906 92.386719 46.246094 93.007812 C 46.609375 93.632812 47.277344 94.011719 48 94 L 90 94 C 90.722656 94.011719 91.390625 93.632812 91.753906 93.007812 C 92.121094 92.386719 92.121094 91.613281 91.753906 90.992188 C 91.390625 90.367188 90.722656 89.988281 90 90 Z M 48 90 "/>
</g>
</svg>
