<?xml version="1.0" encoding="UTF-8"?>
<svg xmlns="http://www.w3.org/2000/svg" xmlns:xlink="http://www.w3.org/1999/xlink" viewBox="0 0 100 100" width="100px" height="100px">
<g id="surface39129591">
<path style=" stroke:none;fill-rule:nonzero;fill:rgb(100%,100%,100%);fill-opacity:1;" d="M 48 12 L 48 18.117188 C 40.671875 18.695312 36.359375 22.335938 34.261719 26.007812 C 31.976562 30.007812 32 34 32 34 C 32 39.09375 34.425781 42.921875 37.738281 45.613281 C 41.050781 48.304688 45.199219 50.082031 49.199219 51.832031 C 53.199219 53.582031 57.050781 55.304688 59.738281 57.488281 C 62.425781 59.671875 64 62.09375 64 66 C 64 66 63.976562 69.007812 62.261719 72.007812 C 60.546875 75.007812 57.417969 78 50 78 C 42.667969 78 39.550781 74.628906 37.789062 71.105469 C 36.027344 67.582031 36 64 36 64 L 32 64 C 32 64 31.972656 68.417969 34.210938 72.894531 C 36.269531 77.011719 40.578125 81.25 48 81.902344 L 48 88 L 52 88 L 52 81.882812 C 59.328125 81.304688 63.640625 77.664062 65.738281 73.992188 C 68.023438 69.992188 68 66 68 66 C 68 60.90625 65.574219 57.078125 62.261719 54.386719 C 58.949219 51.695312 54.800781 49.917969 50.800781 48.167969 C 46.800781 46.417969 42.949219 44.695312 40.261719 42.511719 C 37.574219 40.328125 36 37.90625 36 34 C 36 34 36.023438 30.992188 37.738281 27.992188 C 39.453125 24.992188 42.582031 22 50 22 C 57.332031 22 60.449219 25.371094 62.210938 28.894531 C 63.972656 32.417969 64 36 64 36 L 68 36 C 68 36 68.027344 31.582031 65.789062 27.105469 C 63.730469 22.988281 59.421875 18.75 52 18.097656 L 52 12 Z M 81.910156 17.980469 C 81.097656 18.007812 80.382812 18.527344 80.101562 19.292969 C 79.824219 20.054688 80.035156 20.914062 80.636719 21.460938 L 91.925781 32 L 71.613281 32 C 71.867188 33.386719 72 34.738281 72 36 L 91.925781 36 L 80.636719 46.539062 C 80.078125 47.015625 79.824219 47.761719 79.980469 48.480469 C 80.136719 49.203125 80.671875 49.777344 81.378906 49.980469 C 82.085938 50.1875 82.847656 49.988281 83.363281 49.460938 L 99.929688 34 L 83.363281 18.539062 C 82.972656 18.164062 82.449219 17.960938 81.910156 17.980469 Z M 4 32 C 2.894531 32 2 32.894531 2 34 C 2 35.105469 2.894531 36 4 36 L 28.109375 36 C 28.046875 35.351562 28 34.691406 28 34 C 28 33.359375 28.050781 32.683594 28.128906 32 Z M 17.960938 49.980469 C 17.441406 49.996094 16.949219 50.214844 16.585938 50.585938 L 1.171875 66 L 16.585938 81.414062 C 17.085938 81.9375 17.832031 82.148438 18.535156 81.964844 C 19.234375 81.78125 19.78125 81.234375 19.964844 80.535156 C 20.148438 79.832031 19.9375 79.085938 19.414062 78.585938 L 8.828125 68 L 28.386719 68 C 28.132812 66.613281 28 65.261719 28 64 L 8.828125 64 L 19.414062 53.414062 C 20.003906 52.839844 20.183594 51.960938 19.863281 51.199219 C 19.539062 50.441406 18.785156 49.957031 17.960938 49.980469 Z M 71.890625 64 C 71.953125 64.648438 72 65.308594 72 66 C 72 66.640625 71.949219 67.316406 71.871094 68 L 97 68 C 98.105469 68 99 67.105469 99 66 C 99 64.894531 98.105469 64 97 64 Z M 71.890625 64 "/>
</g>
</svg>
