<?xml version="1.0" encoding="UTF-8"?>
<svg xmlns="http://www.w3.org/2000/svg" xmlns:xlink="http://www.w3.org/1999/xlink" viewBox="0 0 100 100" width="100px" height="100px">
<g id="surface40712176">
<path style=" stroke:none;fill-rule:nonzero;fill:rgb(100%,100%,100%);fill-opacity:1;" d="M 25.625 14 C 24.523438 14.101562 23.710938 15.085938 23.8125 16.1875 C 23.914062 17.289062 24.898438 18.101562 26 18 L 39.125 18 L 4.5625 52.5625 C 3.765625 53.359375 3.765625 54.640625 4.5625 55.4375 C 5.359375 56.234375 6.640625 56.234375 7.4375 55.4375 L 42 20.875 L 42 34 C 41.992188 34.71875 42.367188 35.390625 42.992188 35.757812 C 43.617188 36.117188 44.382812 36.117188 45.007812 35.757812 C 45.632812 35.390625 46.007812 34.71875 46 34 L 46 14 L 26 14 C 25.9375 14 25.875 14 25.8125 14 C 25.75 14 25.6875 14 25.625 14 Z M 68 22 L 68 100 L 96 100 L 96 22 Z M 72 26 L 92 26 L 92 96 L 72 96 Z M 36 48 L 36 100 L 64 100 L 64 48 Z M 40 52 L 60 52 L 60 96 L 40 96 Z M 4 70 L 4 100 L 32 100 L 32 70 Z M 8 74 L 28 74 L 28 96 L 8 96 Z M 8 74 "/>
</g>
</svg>
