<?xml version="1.0" encoding="UTF-8"?>
<svg xmlns="http://www.w3.org/2000/svg" xmlns:xlink="http://www.w3.org/1999/xlink" viewBox="0 0 100 100" width="100px" height="100px">
<g id="surface40711257">
<path style=" stroke:none;fill-rule:nonzero;fill:rgb(100%,100%,100%);fill-opacity:1;" d="M 5.6875 6 C 2.570312 6 0 8.570312 0 11.6875 L 0 21.625 C -0.015625 21.75 -0.015625 21.875 0 22 L 0 92 C 0 93.101562 0.898438 94 2 94 L 98 94 C 99.101562 94 100 93.101562 100 92 L 100 22 C 100 21.9375 100 21.875 100 21.8125 L 100 11.6875 C 100 8.570312 97.429688 6 94.3125 6 Z M 5.6875 10 L 94.3125 10 C 95.273438 10 96 10.726562 96 11.6875 L 96 20 L 4 20 L 4 11.6875 C 4 10.726562 4.726562 10 5.6875 10 Z M 4 24 L 96 24 L 96 90 L 4 90 Z M 15.4375 34 C 14.335938 34.15625 13.5625 35.179688 13.71875 36.28125 C 13.875 37.382812 14.898438 38.15625 16 38 L 40 38 C 40.71875 38.007812 41.390625 37.632812 41.757812 37.007812 C 42.117188 36.382812 42.117188 35.617188 41.757812 34.992188 C 41.390625 34.367188 40.71875 33.992188 40 34 L 16 34 C 15.9375 34 15.875 34 15.8125 34 C 15.75 34 15.6875 34 15.625 34 C 15.5625 34 15.5 34 15.4375 34 Z M 35.4375 48 C 34.335938 48.15625 33.5625 49.179688 33.71875 50.28125 C 33.875 51.382812 34.898438 52.15625 36 52 L 60 52 C 60.71875 52.007812 61.390625 51.632812 61.757812 51.007812 C 62.117188 50.382812 62.117188 49.617188 61.757812 48.992188 C 61.390625 48.367188 60.71875 47.992188 60 48 L 36 48 C 35.9375 48 35.875 48 35.8125 48 C 35.75 48 35.6875 48 35.625 48 C 35.5625 48 35.5 48 35.4375 48 Z M 55.4375 62 C 54.335938 62.15625 53.5625 63.179688 53.71875 64.28125 C 53.875 65.382812 54.898438 66.15625 56 66 L 80 66 C 80.71875 66.007812 81.390625 65.632812 81.757812 65.007812 C 82.117188 64.382812 82.117188 63.617188 81.757812 62.992188 C 81.390625 62.367188 80.71875 61.992188 80 62 L 56 62 C 55.9375 62 55.875 62 55.8125 62 C 55.75 62 55.6875 62 55.625 62 C 55.5625 62 55.5 62 55.4375 62 Z M 15.4375 78 C 14.335938 78.15625 13.5625 79.179688 13.71875 80.28125 C 13.875 81.382812 14.898438 82.15625 16 82 L 40 82 C 40.71875 82.007812 41.390625 81.632812 41.757812 81.007812 C 42.117188 80.382812 42.117188 79.617188 41.757812 78.992188 C 41.390625 78.367188 40.71875 77.992188 40 78 L 16 78 C 15.9375 78 15.875 78 15.8125 78 C 15.75 78 15.6875 78 15.625 78 C 15.5625 78 15.5 78 15.4375 78 Z M 15.4375 78 "/>
</g>
</svg>
