<?xml version="1.0" encoding="UTF-8"?>
<svg xmlns="http://www.w3.org/2000/svg" xmlns:xlink="http://www.w3.org/1999/xlink" viewBox="0 0 100 100" width="100px" height="100px">
<g id="surface46849243">
<path style=" stroke:none;fill-rule:nonzero;fill:rgb(100%,100%,100%);fill-opacity:1;" d="M 14 4 L 14 96 L 68.351562 96 C 68.492188 95.597656 68.675781 95.199219 68.910156 94.820312 L 70.675781 92 L 18 92 L 18 8 L 58 8 L 58 32 L 82 32 L 82 64.0625 C 83.238281 65.726562 84 67.769531 84 70 L 84 70.679688 L 86 67.480469 L 86 29.171875 L 60.828125 4 Z M 62 10.828125 L 79.171875 28 L 62 28 Z M 28 40 C 27.277344 39.988281 26.609375 40.367188 26.246094 40.992188 C 25.878906 41.613281 25.878906 42.386719 26.246094 43.007812 C 26.609375 43.632812 27.277344 44.011719 28 44 L 72 44 C 72.722656 44.011719 73.390625 43.632812 73.753906 43.007812 C 74.121094 42.386719 74.121094 41.613281 73.753906 40.992188 C 73.390625 40.367188 72.722656 39.988281 72 40 Z M 28 52 C 27.277344 51.988281 26.609375 52.367188 26.246094 52.992188 C 25.878906 53.613281 25.878906 54.386719 26.246094 55.007812 C 26.609375 55.632812 27.277344 56.011719 28 56 L 72 56 C 72.722656 56.011719 73.390625 55.632812 73.753906 55.007812 C 74.121094 54.386719 74.121094 53.613281 73.753906 52.992188 C 73.390625 52.367188 72.722656 51.988281 72 52 Z M 93.902344 63.976562 C 93.242188 64.015625 92.644531 64.375 92.304688 64.941406 L 72.304688 96.941406 C 71.890625 97.546875 71.84375 98.332031 72.179688 98.984375 C 72.515625 99.632812 73.183594 100.050781 73.914062 100.066406 C 74.648438 100.082031 75.332031 99.695312 75.695312 99.058594 L 95.695312 67.058594 C 96.082031 66.457031 96.121094 65.691406 95.789062 65.054688 C 95.460938 64.417969 94.816406 64.007812 94.101562 63.976562 C 94.035156 63.972656 93.96875 63.972656 93.902344 63.976562 Z M 28 64 C 27.277344 63.988281 26.609375 64.367188 26.246094 64.992188 C 25.878906 65.613281 25.878906 66.386719 26.246094 67.007812 C 26.609375 67.632812 27.277344 68.011719 28 68 L 60 68 C 60.722656 68.011719 61.390625 67.632812 61.753906 67.007812 C 62.121094 66.386719 62.121094 65.613281 61.753906 64.992188 C 61.390625 64.367188 60.722656 63.988281 60 64 Z M 74 64 C 70.710938 64 68 66.710938 68 70 L 68 76 L 68.832031 76 C 69.71875 78.214844 71.488281 80 74 80 C 77.289062 80 80 77.289062 80 74 L 80 70 C 80 66.710938 77.289062 64 74 64 Z M 74 68 C 75.128906 68 76 68.871094 76 70 L 76 74 C 76 75.128906 75.128906 76 74 76 C 72.871094 76 72 75.128906 72 74 L 72 70 C 72 68.871094 72.871094 68 74 68 Z M 28 76 C 27.277344 75.988281 26.609375 76.367188 26.246094 76.992188 C 25.878906 77.613281 25.878906 78.386719 26.246094 79.007812 C 26.609375 79.632812 27.277344 80.011719 28 80 L 60 80 C 60.722656 80.011719 61.390625 79.632812 61.753906 79.007812 C 62.121094 78.386719 62.121094 77.613281 61.753906 76.992188 C 61.390625 76.367188 60.722656 75.988281 60 76 Z M 94 84 C 90.710938 84 88 86.710938 88 90 L 88 96 L 88.832031 96 C 89.71875 98.214844 91.488281 100 94 100 C 97.289062 100 100 97.289062 100 94 L 100 90 C 100 86.710938 97.289062 84 94 84 Z M 94 88 C 95.128906 88 96 88.871094 96 90 L 96 94 C 96 95.128906 95.128906 96 94 96 C 92.871094 96 92 95.128906 92 94 L 92 90 C 92 88.871094 92.871094 88 94 88 Z M 94 88 "/>
</g>
</svg>
