<?xml version="1.0" encoding="UTF-8"?>
<svg xmlns="http://www.w3.org/2000/svg" xmlns:xlink="http://www.w3.org/1999/xlink" viewBox="0 0 100 100" width="100px" height="100px">
<g id="surface26844594">
<path style=" stroke:none;fill-rule:nonzero;fill:rgb(26.666668%,68.627453%,92.54902%);fill-opacity:1;" d="M 49.96875 13.96875 C 49.84375 13.976562 49.726562 13.984375 49.601562 14.015625 C 41.210938 14.085938 33.351562 16.40625 26.59375 20.40625 C 26.429688 20.476562 26.273438 20.570312 26.125 20.679688 C 19.257812 24.859375 13.578125 30.804688 9.6875 37.867188 C 9.585938 38.007812 9.5 38.15625 9.4375 38.320312 C 6.03125 44.671875 4.078125 51.914062 4.015625 59.59375 C 3.960938 59.859375 3.960938 60.125 4.015625 60.382812 C 4.078125 68.835938 6.1875 76.257812 10.289062 83.0625 C 10.765625 83.851562 11.726562 84.210938 12.609375 83.929688 C 13.492188 83.648438 14.070312 82.796875 14 81.875 L 14.09375 83.101562 L 21.601562 78.75 C 22.242188 78.40625 22.640625 77.742188 22.640625 77.015625 C 22.648438 76.289062 22.257812 75.617188 21.625 75.257812 C 20.992188 74.898438 20.21875 74.914062 19.59375 75.289062 L 12.921875 79.15625 C 10.078125 73.890625 8.359375 68.367188 8.0625 62 L 16 62 C 16.71875 62.007812 17.390625 61.632812 17.757812 61.007812 C 18.117188 60.382812 18.117188 59.617188 17.757812 58.992188 C 17.390625 58.367188 16.71875 57.992188 16 58 L 8.0625 58 C 8.335938 52.203125 9.804688 46.734375 12.1875 41.789062 C 13.3125 42.398438 15.109375 43.367188 19.148438 45.5625 C 19.78125 45.921875 20.554688 45.914062 21.179688 45.539062 C 21.796875 45.164062 22.171875 44.476562 22.140625 43.757812 C 22.117188 43.03125 21.703125 42.375 21.054688 42.039062 C 17.015625 39.851562 15.226562 38.882812 14.09375 38.273438 C 17.296875 33 21.578125 28.46875 26.695312 25.054688 L 30.8125 31.90625 C 31.171875 32.523438 31.84375 32.90625 32.5625 32.898438 C 33.289062 32.882812 33.945312 32.492188 34.296875 31.859375 C 34.640625 31.226562 34.617188 30.453125 34.242188 29.84375 L 30.125 22.992188 C 35.492188 20.109375 41.554688 18.367188 48 18.0625 L 48 26 C 47.992188 26.71875 48.367188 27.390625 48.992188 27.757812 C 49.617188 28.117188 50.382812 28.117188 51.007812 27.757812 C 51.632812 27.390625 52.007812 26.71875 52 26 L 52 18.0625 C 57.796875 18.335938 63.28125 19.773438 68.226562 22.15625 L 64.4375 29.148438 C 64.078125 29.78125 64.085938 30.554688 64.460938 31.179688 C 64.835938 31.796875 65.523438 32.171875 66.242188 32.140625 C 66.96875 32.117188 67.625 31.703125 67.960938 31.054688 L 71.742188 24.070312 C 77.015625 27.265625 81.53125 31.578125 84.945312 36.695312 L 78.09375 40.8125 C 77.476562 41.171875 77.09375 41.84375 77.101562 42.5625 C 77.117188 43.289062 77.507812 43.945312 78.140625 44.296875 C 78.773438 44.640625 79.546875 44.617188 80.15625 44.242188 L 87.007812 40.125 C 89.890625 45.492188 91.632812 51.554688 91.9375 58 L 84 58 C 83.28125 57.992188 82.609375 58.367188 82.242188 58.992188 C 81.882812 59.617188 81.882812 60.382812 82.242188 61.007812 C 82.609375 61.632812 83.28125 62.007812 84 62 L 91.9375 62 C 91.640625 68.367188 89.921875 73.890625 87.085938 79.15625 L 80.40625 75.289062 C 79.78125 74.914062 79.007812 74.898438 78.375 75.257812 C 77.742188 75.617188 77.351562 76.289062 77.359375 77.015625 C 77.359375 77.742188 77.757812 78.40625 78.398438 78.75 L 85.90625 83.101562 L 86 81.875 C 85.929688 82.796875 86.507812 83.648438 87.390625 83.929688 C 88.273438 84.210938 89.234375 83.851562 89.710938 83.0625 C 93.8125 76.265625 95.921875 68.84375 95.992188 60.40625 C 96.039062 60.140625 96.039062 59.867188 95.992188 59.609375 C 95.914062 51.203125 93.585938 43.328125 89.570312 36.570312 C 89.515625 36.421875 89.4375 36.289062 89.34375 36.15625 C 89.335938 36.15625 89.335938 36.15625 89.335938 36.15625 C 89.335938 36.148438 89.328125 36.148438 89.320312 36.140625 C 85.148438 29.28125 79.21875 23.609375 72.171875 19.71875 C 72 19.585938 71.8125 19.492188 71.617188 19.421875 C 65.273438 16.03125 58.054688 14.078125 50.382812 14.015625 C 50.25 13.984375 50.109375 13.96875 49.96875 13.96875 Z M 73.117188 44.359375 C 72.734375 44.351562 72.359375 44.453125 72.03125 44.65625 L 53.8125 55.421875 C 52.773438 54.546875 51.453125 54 50 54 C 46.710938 54 44 56.710938 44 60 C 44 63.289062 46.710938 66 50 66 C 53.289062 66 56 63.289062 56 60 C 56 59.609375 55.953125 59.21875 55.882812 58.84375 L 74.0625 48.09375 C 74.84375 47.648438 75.226562 46.734375 75.007812 45.867188 C 74.789062 45 74.015625 44.382812 73.117188 44.359375 Z M 50 58 C 50.632812 58 51.164062 58.289062 51.523438 58.726562 C 51.601562 58.9375 51.71875 59.125 51.867188 59.296875 C 51.945312 59.515625 52 59.75 52 60 C 52 61.125 51.125 62 50 62 C 48.875 62 48 61.125 48 60 C 48 58.875 48.875 58 50 58 Z M 38 76 C 37.28125 75.992188 36.609375 76.367188 36.242188 76.992188 C 35.882812 77.617188 35.882812 78.382812 36.242188 79.007812 C 36.609375 79.632812 37.28125 80.007812 38 80 L 62 80 C 62.71875 80.007812 63.390625 79.632812 63.757812 79.007812 C 64.117188 78.382812 64.117188 77.617188 63.757812 76.992188 C 63.390625 76.367188 62.71875 75.992188 62 76 Z M 38 76 "/>
</g>
</svg>
