<?xml version="1.0" encoding="UTF-8"?>
<svg xmlns="http://www.w3.org/2000/svg" xmlns:xlink="http://www.w3.org/1999/xlink" viewBox="0 0 100 100" width="100px" height="100px">
<g id="surface26846196">
<path style=" stroke:none;fill-rule:nonzero;fill:rgb(26.666668%,68.627453%,92.54902%);fill-opacity:1;" d="M 52.085938 4 C 76.5625 5.03125 96 25.28125 96 50 C 96 75.382812 75.382812 96 50 96 C 25.28125 96 5.03125 76.5625 4 52.085938 C 3.960938 51.09375 4.648438 50.21875 5.625 50.03125 C 6.59375 49.851562 7.5625 50.40625 7.890625 51.34375 C 12.523438 64.585938 25.132812 74 40 74 C 58.804688 74 74 58.804688 74 40 C 74 25.132812 64.585938 12.523438 51.34375 7.890625 C 50.4375 7.570312 49.882812 6.664062 50.015625 5.71875 C 50.148438 4.773438 50.929688 4.054688 51.882812 4 C 51.945312 4 52.015625 4 52.085938 4 Z M 78 40 C 78 60.960938 60.960938 78 40 78 C 28 78 17.382812 72.367188 10.40625 63.6875 C 16.078125 80.148438 31.5625 92 50 92 C 73.21875 92 92 73.21875 92 50 C 92 31.5625 80.148438 16.078125 63.6875 10.40625 C 72.367188 17.382812 78 28 78 40 Z M 78 40 "/>
<path style=" stroke:none;fill-rule:nonzero;fill:rgb(26.666668%,68.627453%,92.54902%);fill-opacity:1;" d="M 32.90625 12.90625 C 21.90625 12.90625 12.90625 21.90625 12.90625 32.90625 C 12.90625 43.90625 21.90625 52.90625 32.90625 52.90625 C 43.90625 52.90625 52.90625 43.90625 52.90625 32.90625 C 52.90625 21.90625 43.90625 12.90625 32.90625 12.90625 Z M 32.90625 48.90625 C 24.105469 48.90625 16.90625 41.707031 16.90625 32.90625 C 16.90625 24.105469 24.105469 16.90625 32.90625 16.90625 C 41.707031 16.90625 48.90625 24.105469 48.90625 32.90625 C 48.90625 41.707031 41.707031 48.90625 32.90625 48.90625 Z M 30.90625 28.308594 C 30.90625 32.507812 39.90625 30.90625 39.90625 37.90625 C 39.90625 42.90625 35.105469 43.507812 34.308594 43.507812 L 34.308594 46.308594 L 32.105469 46.308594 L 32.105469 43.507812 C 31.308594 43.507812 26.105469 42.90625 26.105469 36.90625 L 30.105469 36.90625 C 30.105469 37.507812 30.105469 40.308594 33.105469 40.308594 C 35.707031 40.308594 35.707031 38.308594 35.707031 37.90625 C 35.707031 33.507812 26.707031 35.308594 26.707031 28.308594 C 26.707031 24.105469 30.507812 22.707031 32.308594 22.707031 L 32.308594 19.707031 L 34.507812 19.707031 L 34.507812 22.707031 C 35.90625 22.90625 39.707031 23.90625 39.707031 29.105469 L 35.707031 29.105469 C 35.707031 27.90625 35.507812 25.707031 33.105469 25.707031 C 30.90625 25.90625 30.90625 27.90625 30.90625 28.308594 Z M 30.90625 28.308594 "/>
</g>
</svg>
